%TF.GenerationSoftware,KiCad,Pcbnew,9.0.6*%
%TF.CreationDate,2025-10-31T21:19:26+09:00*%
%TF.ProjectId,LogAttSheild,4c6f6741-7474-4536-9865-696c642e6b69,rev?*%
%TF.SameCoordinates,Original*%
%TF.FileFunction,Copper,L1,Top*%
%TF.FilePolarity,Positive*%
%FSLAX46Y46*%
G04 Gerber Fmt 4.6, Leading zero omitted, Abs format (unit mm)*
G04 Created by KiCad (PCBNEW 9.0.6) date 2025-10-31 21:19:26*
%MOMM*%
%LPD*%
G01*
G04 APERTURE LIST*
G04 Aperture macros list*
%AMRoundRect*
0 Rectangle with rounded corners*
0 $1 Rounding radius*
0 $2 $3 $4 $5 $6 $7 $8 $9 X,Y pos of 4 corners*
0 Add a 4 corners polygon primitive as box body*
4,1,4,$2,$3,$4,$5,$6,$7,$8,$9,$2,$3,0*
0 Add four circle primitives for the rounded corners*
1,1,$1+$1,$2,$3*
1,1,$1+$1,$4,$5*
1,1,$1+$1,$6,$7*
1,1,$1+$1,$8,$9*
0 Add four rect primitives between the rounded corners*
20,1,$1+$1,$2,$3,$4,$5,0*
20,1,$1+$1,$4,$5,$6,$7,0*
20,1,$1+$1,$6,$7,$8,$9,0*
20,1,$1+$1,$8,$9,$2,$3,0*%
G04 Aperture macros list end*
%TA.AperFunction,SMDPad,CuDef*%
%ADD10RoundRect,0.237500X-0.250000X-0.237500X0.250000X-0.237500X0.250000X0.237500X-0.250000X0.237500X0*%
%TD*%
%TA.AperFunction,SMDPad,CuDef*%
%ADD11RoundRect,0.237500X0.250000X0.237500X-0.250000X0.237500X-0.250000X-0.237500X0.250000X-0.237500X0*%
%TD*%
%TA.AperFunction,SMDPad,CuDef*%
%ADD12RoundRect,0.250000X0.650000X-0.412500X0.650000X0.412500X-0.650000X0.412500X-0.650000X-0.412500X0*%
%TD*%
%TA.AperFunction,SMDPad,CuDef*%
%ADD13RoundRect,0.250000X-0.412500X-0.650000X0.412500X-0.650000X0.412500X0.650000X-0.412500X0.650000X0*%
%TD*%
%TA.AperFunction,ComponentPad*%
%ADD14C,1.700000*%
%TD*%
%TA.AperFunction,ComponentPad*%
%ADD15R,1.700000X1.700000*%
%TD*%
%TA.AperFunction,SMDPad,CuDef*%
%ADD16RoundRect,0.250000X-0.350000X0.850000X-0.350000X-0.850000X0.350000X-0.850000X0.350000X0.850000X0*%
%TD*%
%TA.AperFunction,SMDPad,CuDef*%
%ADD17RoundRect,0.249997X-2.650003X2.950003X-2.650003X-2.950003X2.650003X-2.950003X2.650003X2.950003X0*%
%TD*%
%TA.AperFunction,ComponentPad*%
%ADD18C,2.000000*%
%TD*%
%TA.AperFunction,ComponentPad*%
%ADD19RoundRect,0.248400X-0.651600X-0.651600X0.651600X-0.651600X0.651600X0.651600X-0.651600X0.651600X0*%
%TD*%
%TA.AperFunction,ComponentPad*%
%ADD20C,1.800000*%
%TD*%
%TA.AperFunction,SMDPad,CuDef*%
%ADD21RoundRect,0.237500X-0.237500X0.300000X-0.237500X-0.300000X0.237500X-0.300000X0.237500X0.300000X0*%
%TD*%
%TA.AperFunction,SMDPad,CuDef*%
%ADD22RoundRect,0.237500X0.237500X-0.250000X0.237500X0.250000X-0.237500X0.250000X-0.237500X-0.250000X0*%
%TD*%
%TA.AperFunction,ComponentPad*%
%ADD23C,1.650000*%
%TD*%
%TA.AperFunction,ComponentPad*%
%ADD24C,4.708000*%
%TD*%
%TA.AperFunction,ViaPad*%
%ADD25C,0.800000*%
%TD*%
%TA.AperFunction,Conductor*%
%ADD26C,0.400000*%
%TD*%
%TA.AperFunction,Conductor*%
%ADD27C,1.000000*%
%TD*%
G04 APERTURE END LIST*
D10*
%TO.P,R3,1*%
%TO.N,Net-(U4-ADJ)*%
X111279500Y-91872000D03*
%TO.P,R3,2*%
%TO.N,/Vin*%
X113104500Y-91872000D03*
%TD*%
D11*
%TO.P,R2,1*%
%TO.N,GND*%
X113104500Y-89840000D03*
%TO.P,R2,2*%
%TO.N,Net-(U4-ADJ)*%
X111279500Y-89840000D03*
%TD*%
D12*
%TO.P,C3,1*%
%TO.N,/Vin*%
X116764000Y-91441000D03*
%TO.P,C3,2*%
%TO.N,GND*%
X116764000Y-88316000D03*
%TD*%
D13*
%TO.P,C2,2*%
%TO.N,GND*%
X106604000Y-84252000D03*
%TO.P,C2,1*%
%TO.N,/VCOIL*%
X103479000Y-84252000D03*
%TD*%
D14*
%TO.P,J5,8,Pin_8*%
%TO.N,unconnected-(J5-Pin_8-Pad8)*%
X105080000Y-61899999D03*
%TO.P,J5,7,Pin_7*%
%TO.N,/VCOIL*%
X105080000Y-64440000D03*
%TO.P,J5,6,Pin_6*%
%TO.N,+5V*%
X105080000Y-66980000D03*
%TO.P,J5,5,Pin_5*%
%TO.N,/COPI*%
X105080000Y-69520000D03*
%TO.P,J5,4,Pin_4*%
%TO.N,/13*%
X105080000Y-72060000D03*
%TO.P,J5,3,Pin_3*%
%TO.N,GND*%
X105080000Y-74600001D03*
%TO.P,J5,2,Pin_2*%
%TO.N,/SS*%
X105080000Y-77140000D03*
D15*
%TO.P,J5,1,Pin_1*%
%TO.N,/12*%
X105080000Y-79680000D03*
%TD*%
D16*
%TO.P,U4,1,ADJ*%
%TO.N,Net-(U4-ADJ)*%
X107867000Y-87300000D03*
D17*
%TO.P,U4,2,VO*%
%TO.N,/Vin*%
X105587000Y-93600001D03*
D16*
%TO.P,U4,3,VI*%
%TO.N,/VCOIL*%
X103307000Y-87300000D03*
%TD*%
D18*
%TO.P,REF\u002A\u002A,16*%
%TO.N,N/C*%
X140640000Y-79680000D03*
%TO.P,REF\u002A\u002A,15*%
X138100000Y-79680000D03*
%TO.P,REF\u002A\u002A,14*%
X135560000Y-79680000D03*
%TO.P,REF\u002A\u002A,13*%
X133020000Y-79680000D03*
%TO.P,REF\u002A\u002A,12*%
X140640000Y-77140000D03*
%TO.P,REF\u002A\u002A,11*%
X138100000Y-77140000D03*
%TO.P,REF\u002A\u002A,10*%
X135560000Y-77140000D03*
%TO.P,REF\u002A\u002A,9*%
X133020000Y-77140000D03*
%TO.P,REF\u002A\u002A,8*%
X140640000Y-74600000D03*
%TO.P,REF\u002A\u002A,7*%
X138100000Y-74600000D03*
%TO.P,REF\u002A\u002A,6*%
X135560000Y-74600000D03*
%TO.P,REF\u002A\u002A,5*%
X133020000Y-74600000D03*
%TO.P,REF\u002A\u002A,4*%
X140640000Y-72060000D03*
%TO.P,REF\u002A\u002A,3*%
X138100000Y-72060000D03*
%TO.P,REF\u002A\u002A,2*%
X135560000Y-72060000D03*
%TO.P,REF\u002A\u002A,1*%
X133020000Y-72060000D03*
%TD*%
%TO.P,REF\u002A\u002A,16*%
%TO.N,N/C*%
X140640000Y-69520000D03*
%TO.P,REF\u002A\u002A,15*%
X138100000Y-69520000D03*
%TO.P,REF\u002A\u002A,14*%
X135560000Y-69520000D03*
%TO.P,REF\u002A\u002A,13*%
X133020000Y-69520000D03*
%TO.P,REF\u002A\u002A,12*%
X140640000Y-66980000D03*
%TO.P,REF\u002A\u002A,11*%
X138100000Y-66980000D03*
%TO.P,REF\u002A\u002A,10*%
X135560000Y-66980000D03*
%TO.P,REF\u002A\u002A,9*%
X133020000Y-66980000D03*
%TO.P,REF\u002A\u002A,8*%
X140640000Y-64440000D03*
%TO.P,REF\u002A\u002A,7*%
X138100000Y-64440000D03*
%TO.P,REF\u002A\u002A,6*%
X135560000Y-64440000D03*
%TO.P,REF\u002A\u002A,5*%
X133020000Y-64440000D03*
%TO.P,REF\u002A\u002A,4*%
X140640000Y-61900000D03*
%TO.P,REF\u002A\u002A,3*%
X138100000Y-61900000D03*
%TO.P,REF\u002A\u002A,2*%
X135560000Y-61900000D03*
%TO.P,REF\u002A\u002A,1*%
X133020000Y-61900000D03*
%TD*%
%TO.P,REF\u002A\u002A,16*%
%TO.N,N/C*%
X130480000Y-79680000D03*
%TO.P,REF\u002A\u002A,15*%
X127940000Y-79680000D03*
%TO.P,REF\u002A\u002A,14*%
X125400000Y-79680000D03*
%TO.P,REF\u002A\u002A,13*%
X122860000Y-79680000D03*
%TO.P,REF\u002A\u002A,12*%
X130480000Y-77140000D03*
%TO.P,REF\u002A\u002A,11*%
X127940000Y-77140000D03*
%TO.P,REF\u002A\u002A,10*%
X125400000Y-77140000D03*
%TO.P,REF\u002A\u002A,9*%
X122860000Y-77140000D03*
%TO.P,REF\u002A\u002A,8*%
X130480000Y-74600000D03*
%TO.P,REF\u002A\u002A,7*%
X127940000Y-74600000D03*
%TO.P,REF\u002A\u002A,6*%
X125400000Y-74600000D03*
%TO.P,REF\u002A\u002A,5*%
X122860000Y-74600000D03*
%TO.P,REF\u002A\u002A,4*%
X130480000Y-72060000D03*
%TO.P,REF\u002A\u002A,3*%
X127940000Y-72060000D03*
%TO.P,REF\u002A\u002A,2*%
X125400000Y-72060000D03*
%TO.P,REF\u002A\u002A,1*%
X122860000Y-72060000D03*
%TD*%
%TO.P,REF\u002A\u002A,16*%
%TO.N,N/C*%
X130480000Y-69520000D03*
%TO.P,REF\u002A\u002A,15*%
X127940000Y-69520000D03*
%TO.P,REF\u002A\u002A,14*%
X125400000Y-69520000D03*
%TO.P,REF\u002A\u002A,13*%
X122860000Y-69520000D03*
%TO.P,REF\u002A\u002A,12*%
X130480000Y-66980000D03*
%TO.P,REF\u002A\u002A,11*%
X127940000Y-66980000D03*
%TO.P,REF\u002A\u002A,10*%
X125400000Y-66980000D03*
%TO.P,REF\u002A\u002A,9*%
X122860000Y-66980000D03*
%TO.P,REF\u002A\u002A,8*%
X130480000Y-64440000D03*
%TO.P,REF\u002A\u002A,7*%
X127940000Y-64440000D03*
%TO.P,REF\u002A\u002A,6*%
X125400000Y-64440000D03*
%TO.P,REF\u002A\u002A,5*%
X122860000Y-64440000D03*
%TO.P,REF\u002A\u002A,4*%
X130480000Y-61900000D03*
%TO.P,REF\u002A\u002A,3*%
X127940000Y-61900000D03*
%TO.P,REF\u002A\u002A,2*%
X125400000Y-61900000D03*
%TO.P,REF\u002A\u002A,1*%
X122860000Y-61900000D03*
%TD*%
%TO.P,REF\u002A\u002A,16*%
%TO.N,N/C*%
X120320000Y-79680000D03*
%TO.P,REF\u002A\u002A,15*%
X117780000Y-79680000D03*
%TO.P,REF\u002A\u002A,14*%
X115240000Y-79680000D03*
%TO.P,REF\u002A\u002A,13*%
X112700000Y-79680000D03*
%TO.P,REF\u002A\u002A,12*%
X120320000Y-77140000D03*
%TO.P,REF\u002A\u002A,11*%
X117780000Y-77140000D03*
%TO.P,REF\u002A\u002A,10*%
X115240000Y-77140000D03*
%TO.P,REF\u002A\u002A,9*%
X112700000Y-77140000D03*
%TO.P,REF\u002A\u002A,8*%
X120320000Y-74600000D03*
%TO.P,REF\u002A\u002A,7*%
X117780000Y-74600000D03*
%TO.P,REF\u002A\u002A,6*%
X115240000Y-74600000D03*
%TO.P,REF\u002A\u002A,5*%
X112700000Y-74600000D03*
%TO.P,REF\u002A\u002A,4*%
X120320000Y-72060000D03*
%TO.P,REF\u002A\u002A,3*%
X117780000Y-72060000D03*
%TO.P,REF\u002A\u002A,2*%
X115240000Y-72060000D03*
%TO.P,REF\u002A\u002A,1*%
X112700000Y-72060000D03*
%TD*%
%TO.P,REF\u002A\u002A,16*%
%TO.N,N/C*%
X120320000Y-69520000D03*
%TO.P,REF\u002A\u002A,15*%
X117780000Y-69520000D03*
%TO.P,REF\u002A\u002A,14*%
X115240000Y-69520000D03*
%TO.P,REF\u002A\u002A,13*%
X112700000Y-69520000D03*
%TO.P,REF\u002A\u002A,12*%
X120320000Y-66980000D03*
%TO.P,REF\u002A\u002A,11*%
X117780000Y-66980000D03*
%TO.P,REF\u002A\u002A,10*%
X115240000Y-66980000D03*
%TO.P,REF\u002A\u002A,9*%
X112700000Y-66980000D03*
%TO.P,REF\u002A\u002A,8*%
X120320000Y-64440000D03*
%TO.P,REF\u002A\u002A,7*%
X117780000Y-64440000D03*
%TO.P,REF\u002A\u002A,6*%
X115240000Y-64440000D03*
%TO.P,REF\u002A\u002A,5*%
X112700000Y-64440000D03*
%TO.P,REF\u002A\u002A,4*%
X120320000Y-61900000D03*
%TO.P,REF\u002A\u002A,3*%
X117780000Y-61900000D03*
%TO.P,REF\u002A\u002A,2*%
X115240000Y-61900000D03*
%TO.P,REF\u002A\u002A,1*%
X112700000Y-61900000D03*
%TD*%
D14*
%TO.P,U3,4,Pin_4*%
%TO.N,/A4*%
X123505000Y-86030000D03*
%TO.P,U3,3,Pin_3*%
%TO.N,/A5*%
X126045000Y-86030000D03*
%TO.P,U3,2,Pin_2*%
%TO.N,+3.3V*%
X128585000Y-86030000D03*
D15*
%TO.P,U3,1,Pin_1*%
%TO.N,GND*%
X131125000Y-86030000D03*
%TD*%
%TO.P,J3,1,Pin_1*%
%TO.N,/A0*%
X150800000Y-97460000D03*
D14*
%TO.P,J3,2,Pin_2*%
%TO.N,/A1*%
X153340000Y-97460000D03*
%TO.P,J3,3,Pin_3*%
%TO.N,/A2*%
X155880000Y-97460000D03*
%TO.P,J3,4,Pin_4*%
%TO.N,/A3*%
X158420000Y-97460000D03*
%TO.P,J3,5,Pin_5*%
%TO.N,/A4*%
X160960000Y-97460000D03*
%TO.P,J3,6,Pin_6*%
%TO.N,/A5*%
X163500000Y-97460000D03*
%TD*%
D19*
%TO.P,U2,1,OUT*%
%TO.N,Net-(U2-OUT)*%
X148260000Y-92537500D03*
D20*
%TO.P,U2,2,GND*%
%TO.N,GND*%
X150800000Y-92537500D03*
%TO.P,U2,3,Vs*%
%TO.N,+5V*%
X153340000Y-92537500D03*
%TD*%
D19*
%TO.P,U1,1,OUT*%
%TO.N,/0*%
X155880000Y-92537500D03*
D20*
%TO.P,U1,2,GND*%
%TO.N,GND*%
X158420000Y-92537500D03*
%TO.P,U1,3,Vs*%
%TO.N,+5V*%
X160960000Y-92537500D03*
%TD*%
D15*
%TO.P,J1,1,Pin_1*%
%TO.N,unconnected-(J1-Pin_1-Pad1)*%
X127940000Y-97460000D03*
D14*
%TO.P,J1,2,Pin_2*%
%TO.N,/IOREF*%
X130480000Y-97460000D03*
%TO.P,J1,3,Pin_3*%
%TO.N,/~{RESET}*%
X133020000Y-97460000D03*
%TO.P,J1,4,Pin_4*%
%TO.N,+3.3V*%
X135560000Y-97460000D03*
%TO.P,J1,5,Pin_5*%
%TO.N,+5V*%
X138100000Y-97460000D03*
%TO.P,J1,6,Pin_6*%
%TO.N,GND*%
X140640000Y-97460000D03*
%TO.P,J1,7,Pin_7*%
X143180000Y-97460000D03*
%TO.P,J1,8,Pin_8*%
%TO.N,/Vin*%
X145720000Y-97460000D03*
%TD*%
D15*
%TO.P,J2,1,Pin_1*%
%TO.N,/SCL*%
X118796000Y-49200000D03*
D14*
%TO.P,J2,2,Pin_2*%
%TO.N,/SDA*%
X121336000Y-49200000D03*
%TO.P,J2,3,Pin_3*%
%TO.N,/AREF*%
X123876000Y-49200000D03*
%TO.P,J2,4,Pin_4*%
%TO.N,GND*%
X126416000Y-49200000D03*
%TO.P,J2,5,Pin_5*%
%TO.N,/13*%
X128956000Y-49200000D03*
%TO.P,J2,6,Pin_6*%
%TO.N,/12*%
X131496000Y-49200000D03*
%TO.P,J2,7,Pin_7*%
%TO.N,/COPI*%
X134036000Y-49200000D03*
%TO.P,J2,8,Pin_8*%
%TO.N,/SS*%
X136576000Y-49200000D03*
%TO.P,J2,9,Pin_9*%
%TO.N,/~9*%
X139116000Y-49200000D03*
%TO.P,J2,10,Pin_10*%
%TO.N,/8*%
X141656000Y-49200000D03*
%TD*%
D15*
%TO.P,J4,1,Pin_1*%
%TO.N,/7*%
X145720000Y-49200000D03*
D14*
%TO.P,J4,2,Pin_2*%
%TO.N,/\u002A6*%
X148260000Y-49200000D03*
%TO.P,J4,3,Pin_3*%
%TO.N,/\u002A5*%
X150800000Y-49200000D03*
%TO.P,J4,4,Pin_4*%
%TO.N,/4*%
X153340000Y-49200000D03*
%TO.P,J4,5,Pin_5*%
%TO.N,/\u002A3*%
X155880000Y-49200000D03*
%TO.P,J4,6,Pin_6*%
%TO.N,/2*%
X158420000Y-49200000D03*
%TO.P,J4,7,Pin_7*%
%TO.N,/1*%
X160960000Y-49200000D03*
%TO.P,J4,8,Pin_8*%
%TO.N,/0*%
X163500000Y-49200000D03*
%TD*%
D21*
%TO.P,C1,1*%
%TO.N,/1*%
X158420000Y-58090001D03*
%TO.P,C1,2*%
%TO.N,GND*%
X158420000Y-59815001D03*
%TD*%
D22*
%TO.P,R1,1*%
%TO.N,Net-(U2-OUT)*%
X160960000Y-59915000D03*
%TO.P,R1,2*%
%TO.N,/1*%
X160960000Y-58090000D03*
%TD*%
D23*
%TO.P,SW1,A1,A*%
%TO.N,/\u002A3*%
X153340000Y-78410000D03*
%TO.P,SW1,B1,B*%
%TO.N,/2*%
X158340000Y-78410000D03*
%TO.P,SW1,C1,C*%
%TO.N,GND*%
X155840000Y-78410000D03*
%TO.P,SW1,D1,S1*%
%TO.N,/7*%
X153340000Y-63910000D03*
%TO.P,SW1,D2,S2*%
%TO.N,GND*%
X158340000Y-63910000D03*
D24*
%TO.P,SW1,MH1*%
%TO.N,N/C*%
X150340000Y-70910000D03*
%TO.P,SW1,MH2*%
X161340000Y-70910000D03*
%TD*%
D25*
%TO.N,GND*%
X108128000Y-84252000D03*
X116764000Y-86792000D03*
%TD*%
D26*
%TO.N,/COPI*%
X106604000Y-69520000D02*
X105080000Y-69520000D01*
X108255000Y-67869000D02*
X106604000Y-69520000D01*
X108255000Y-55169000D02*
X108255000Y-67869000D01*
X111176000Y-52248000D02*
X108255000Y-55169000D01*
X115367000Y-52248000D02*
X111176000Y-52248000D01*
X133655000Y-47295000D02*
X118099000Y-47295000D01*
X118099000Y-47295000D02*
X117495000Y-47899000D01*
X134036000Y-47676000D02*
X133655000Y-47295000D01*
X134036000Y-49200000D02*
X134036000Y-47676000D01*
X117495000Y-47899000D02*
X117495000Y-50120000D01*
X117495000Y-50120000D02*
X115367000Y-52248000D01*
%TO.N,/13*%
X106604000Y-72060000D02*
X105080000Y-72060000D01*
X108890000Y-68154654D02*
X108890000Y-69774000D01*
X111684000Y-53010000D02*
X108906000Y-55788000D01*
X127305000Y-53010000D02*
X111684000Y-53010000D01*
X108906000Y-68138653D02*
X108890000Y-68154654D01*
X108890000Y-69774000D02*
X106604000Y-72060000D01*
X128956000Y-51359000D02*
X127305000Y-53010000D01*
X108906000Y-55788000D02*
X108906000Y-68138653D01*
X128956000Y-49200000D02*
X128956000Y-51359000D01*
%TO.N,/SS*%
X103810000Y-77140000D02*
X105080000Y-77140000D01*
X103175000Y-77775000D02*
X103810000Y-77140000D01*
X108255000Y-81585000D02*
X103810000Y-81585000D01*
X110303000Y-79537000D02*
X108255000Y-81585000D01*
X110303000Y-60487000D02*
X110303000Y-79537000D01*
X111430000Y-59360000D02*
X110303000Y-60487000D01*
X126416000Y-59360000D02*
X111430000Y-59360000D01*
X103175000Y-80950000D02*
X103175000Y-77775000D01*
X136576000Y-49200000D02*
X126416000Y-59360000D01*
X103810000Y-81585000D02*
X103175000Y-80950000D01*
%TO.N,/12*%
X131496000Y-50724000D02*
X131496000Y-49200000D01*
X128575000Y-53645000D02*
X131496000Y-50724000D01*
X112303000Y-53661000D02*
X127574654Y-53661000D01*
X106604000Y-79680000D02*
X109652000Y-76632000D01*
X127574654Y-53661000D02*
X127590653Y-53645000D01*
X127590653Y-53645000D02*
X128575000Y-53645000D01*
X109652000Y-56312000D02*
X112303000Y-53661000D01*
X109652000Y-76632000D02*
X109652000Y-56312000D01*
X105080000Y-79680000D02*
X106604000Y-79680000D01*
D27*
%TO.N,GND*%
X116764000Y-88316000D02*
X116764000Y-86792000D01*
X108128000Y-84252000D02*
X106604000Y-84252000D01*
%TO.N,/VCOIL*%
X103307000Y-84424000D02*
X103307000Y-87300000D01*
X103479000Y-84252000D02*
X103307000Y-84424000D01*
X101524000Y-65964000D02*
X101524000Y-82728000D01*
X101524000Y-82728000D02*
X103048000Y-84252000D01*
X103048000Y-64440000D02*
X101524000Y-65964000D01*
X103048000Y-84252000D02*
X103479000Y-84252000D01*
X105080000Y-64440000D02*
X103048000Y-64440000D01*
D26*
%TO.N,Net-(U4-ADJ)*%
X111279500Y-89840000D02*
X111279500Y-91872000D01*
%TO.N,/Vin*%
X113104500Y-91872000D02*
X113104500Y-93496501D01*
D27*
X113208000Y-93600001D02*
X116764000Y-93600001D01*
D26*
X113104500Y-93496501D02*
X113208000Y-93600001D01*
%TO.N,Net-(U4-ADJ)*%
X111176000Y-89736500D02*
X111279500Y-89840000D01*
X111176000Y-89332000D02*
X111176000Y-89736500D01*
%TO.N,GND*%
X114224000Y-88316000D02*
X116764000Y-88316000D01*
%TO.N,Net-(U4-ADJ)*%
X107867000Y-87300000D02*
X109144000Y-87300000D01*
%TO.N,GND*%
X113104500Y-89840000D02*
X113001000Y-89736500D01*
%TO.N,Net-(U4-ADJ)*%
X109144000Y-87300000D02*
X111176000Y-89332000D01*
%TO.N,GND*%
X113001000Y-89736500D02*
X113001000Y-89539000D01*
X113001000Y-89539000D02*
X114224000Y-88316000D01*
%TO.N,/A5*%
X126045000Y-88179000D02*
X126045000Y-86810000D01*
X125400000Y-88824000D02*
X126045000Y-88179000D01*
X121844000Y-88824000D02*
X125400000Y-88824000D01*
X120955000Y-87935000D02*
X121844000Y-88824000D01*
X133655000Y-82855000D02*
X122860000Y-82855000D01*
X120955000Y-84760000D02*
X120955000Y-87935000D01*
X160325000Y-94285000D02*
X145085000Y-94285000D01*
X122860000Y-82855000D02*
X120955000Y-84760000D01*
X163500000Y-97460000D02*
X160325000Y-94285000D01*
X145085000Y-94285000D02*
X133655000Y-82855000D01*
D27*
%TO.N,/Vin*%
X116764000Y-91441000D02*
X116764000Y-93600001D01*
X116764000Y-93600001D02*
X117984001Y-93600001D01*
X143881000Y-99299000D02*
X145720000Y-97460000D01*
X117984001Y-93600001D02*
X123683000Y-99299000D01*
X105587000Y-93600001D02*
X113208000Y-93600001D01*
X123683000Y-99299000D02*
X143881000Y-99299000D01*
D26*
%TO.N,/2*%
X156515000Y-76585000D02*
X158340000Y-78410000D01*
X156515000Y-54280000D02*
X156515000Y-76585000D01*
X158420000Y-49200000D02*
X158420000Y-52375000D01*
X158420000Y-52375000D02*
X156515000Y-54280000D01*
%TO.N,/\u002A3*%
X155245000Y-53010000D02*
X155880000Y-52375000D01*
X155880000Y-52375000D02*
X155880000Y-49200000D01*
X155245000Y-76505000D02*
X155245000Y-53010000D01*
X153340000Y-78410000D02*
X155245000Y-76505000D01*
%TO.N,/7*%
X148365000Y-63910000D02*
X153340000Y-63910000D01*
X145720000Y-61265000D02*
X148365000Y-63910000D01*
X145720000Y-49200000D02*
X145720000Y-61265000D01*
%TO.N,/0*%
X166675000Y-86665000D02*
X166675000Y-68780782D01*
X166675000Y-68780782D02*
X163500000Y-65605782D01*
X164135000Y-89205000D02*
X166675000Y-86665000D01*
X155880000Y-90475000D02*
X157150000Y-89205000D01*
X157150000Y-89205000D02*
X164135000Y-89205000D01*
X163500000Y-65605782D02*
X163500000Y-49200000D01*
X155880000Y-92537500D02*
X155880000Y-90475000D01*
%TO.N,Net-(U2-OUT)*%
X148260000Y-89205000D02*
X148260000Y-92537500D01*
X163500000Y-87935000D02*
X149530000Y-87935000D01*
X149530000Y-87935000D02*
X148260000Y-89205000D01*
X165405000Y-86030000D02*
X163500000Y-87935000D01*
X160960000Y-65075000D02*
X165405000Y-69520000D01*
X160960000Y-59915000D02*
X160960000Y-65075000D01*
X165405000Y-69520000D02*
X165405000Y-86030000D01*
%TO.N,GND*%
X158420000Y-59815002D02*
X158420000Y-63830000D01*
X158420000Y-63830000D02*
X158340000Y-63910000D01*
%TO.N,/1*%
X160960000Y-58090000D02*
X158420000Y-58090000D01*
X160960000Y-49200000D02*
X160960000Y-58090000D01*
%TO.N,/A4*%
X133036000Y-84141000D02*
X124749000Y-84141000D01*
X160960000Y-97460000D02*
X159055000Y-95555000D01*
X123505000Y-85385000D02*
X123505000Y-86810000D01*
X159055000Y-95555000D02*
X144450000Y-95555000D01*
X144450000Y-95555000D02*
X133036000Y-84141000D01*
X124749000Y-84141000D02*
X123505000Y-85385000D01*
D27*
%TO.N,+3.3V*%
X135560000Y-97460000D02*
X135560000Y-94920000D01*
X129845000Y-93650000D02*
X128585000Y-92390000D01*
X134290000Y-93650000D02*
X129845000Y-93650000D01*
X128585000Y-92390000D02*
X128585000Y-86810000D01*
X135560000Y-94920000D02*
X134290000Y-93650000D01*
%TD*%
M02*
