%TF.GenerationSoftware,KiCad,Pcbnew,9.0.6*%
%TF.CreationDate,2025-10-31T21:19:26+09:00*%
%TF.ProjectId,LogAttSheild,4c6f6741-7474-4536-9865-696c642e6b69,rev?*%
%TF.SameCoordinates,Original*%
%TF.FileFunction,Legend,Top*%
%TF.FilePolarity,Positive*%
%FSLAX46Y46*%
G04 Gerber Fmt 4.6, Leading zero omitted, Abs format (unit mm)*
G04 Created by KiCad (PCBNEW 9.0.6) date 2025-10-31 21:19:26*
%MOMM*%
%LPD*%
G01*
G04 APERTURE LIST*
%ADD10C,0.150000*%
%ADD11C,0.254000*%
%ADD12C,0.000000*%
%ADD13C,0.120000*%
%ADD14C,0.100000*%
G04 APERTURE END LIST*
D10*
X106893160Y-72390200D02*
X107036017Y-72437819D01*
X107036017Y-72437819D02*
X107274112Y-72437819D01*
X107274112Y-72437819D02*
X107369350Y-72390200D01*
X107369350Y-72390200D02*
X107416969Y-72342580D01*
X107416969Y-72342580D02*
X107464588Y-72247342D01*
X107464588Y-72247342D02*
X107464588Y-72152104D01*
X107464588Y-72152104D02*
X107416969Y-72056866D01*
X107416969Y-72056866D02*
X107369350Y-72009247D01*
X107369350Y-72009247D02*
X107274112Y-71961628D01*
X107274112Y-71961628D02*
X107083636Y-71914009D01*
X107083636Y-71914009D02*
X106988398Y-71866390D01*
X106988398Y-71866390D02*
X106940779Y-71818771D01*
X106940779Y-71818771D02*
X106893160Y-71723533D01*
X106893160Y-71723533D02*
X106893160Y-71628295D01*
X106893160Y-71628295D02*
X106940779Y-71533057D01*
X106940779Y-71533057D02*
X106988398Y-71485438D01*
X106988398Y-71485438D02*
X107083636Y-71437819D01*
X107083636Y-71437819D02*
X107321731Y-71437819D01*
X107321731Y-71437819D02*
X107464588Y-71485438D01*
X108464588Y-72342580D02*
X108416969Y-72390200D01*
X108416969Y-72390200D02*
X108274112Y-72437819D01*
X108274112Y-72437819D02*
X108178874Y-72437819D01*
X108178874Y-72437819D02*
X108036017Y-72390200D01*
X108036017Y-72390200D02*
X107940779Y-72294961D01*
X107940779Y-72294961D02*
X107893160Y-72199723D01*
X107893160Y-72199723D02*
X107845541Y-72009247D01*
X107845541Y-72009247D02*
X107845541Y-71866390D01*
X107845541Y-71866390D02*
X107893160Y-71675914D01*
X107893160Y-71675914D02*
X107940779Y-71580676D01*
X107940779Y-71580676D02*
X108036017Y-71485438D01*
X108036017Y-71485438D02*
X108178874Y-71437819D01*
X108178874Y-71437819D02*
X108274112Y-71437819D01*
X108274112Y-71437819D02*
X108416969Y-71485438D01*
X108416969Y-71485438D02*
X108464588Y-71533057D01*
X108893160Y-72437819D02*
X108893160Y-71437819D01*
X109464588Y-72437819D02*
X109036017Y-71866390D01*
X109464588Y-71437819D02*
X108893160Y-72009247D01*
X107512207Y-79962580D02*
X107464588Y-80010200D01*
X107464588Y-80010200D02*
X107321731Y-80057819D01*
X107321731Y-80057819D02*
X107226493Y-80057819D01*
X107226493Y-80057819D02*
X107083636Y-80010200D01*
X107083636Y-80010200D02*
X106988398Y-79914961D01*
X106988398Y-79914961D02*
X106940779Y-79819723D01*
X106940779Y-79819723D02*
X106893160Y-79629247D01*
X106893160Y-79629247D02*
X106893160Y-79486390D01*
X106893160Y-79486390D02*
X106940779Y-79295914D01*
X106940779Y-79295914D02*
X106988398Y-79200676D01*
X106988398Y-79200676D02*
X107083636Y-79105438D01*
X107083636Y-79105438D02*
X107226493Y-79057819D01*
X107226493Y-79057819D02*
X107321731Y-79057819D01*
X107321731Y-79057819D02*
X107464588Y-79105438D01*
X107464588Y-79105438D02*
X107512207Y-79153057D01*
X107940779Y-80057819D02*
X107940779Y-79057819D01*
X108416969Y-80057819D02*
X108416969Y-79057819D01*
X108416969Y-79057819D02*
X108797921Y-79057819D01*
X108797921Y-79057819D02*
X108893159Y-79105438D01*
X108893159Y-79105438D02*
X108940778Y-79153057D01*
X108940778Y-79153057D02*
X108988397Y-79248295D01*
X108988397Y-79248295D02*
X108988397Y-79391152D01*
X108988397Y-79391152D02*
X108940778Y-79486390D01*
X108940778Y-79486390D02*
X108893159Y-79534009D01*
X108893159Y-79534009D02*
X108797921Y-79581628D01*
X108797921Y-79581628D02*
X108416969Y-79581628D01*
X109607445Y-79057819D02*
X109797921Y-79057819D01*
X109797921Y-79057819D02*
X109893159Y-79105438D01*
X109893159Y-79105438D02*
X109988397Y-79200676D01*
X109988397Y-79200676D02*
X110036016Y-79391152D01*
X110036016Y-79391152D02*
X110036016Y-79724485D01*
X110036016Y-79724485D02*
X109988397Y-79914961D01*
X109988397Y-79914961D02*
X109893159Y-80010200D01*
X109893159Y-80010200D02*
X109797921Y-80057819D01*
X109797921Y-80057819D02*
X109607445Y-80057819D01*
X109607445Y-80057819D02*
X109512207Y-80010200D01*
X109512207Y-80010200D02*
X109416969Y-79914961D01*
X109416969Y-79914961D02*
X109369350Y-79724485D01*
X109369350Y-79724485D02*
X109369350Y-79391152D01*
X109369350Y-79391152D02*
X109416969Y-79200676D01*
X109416969Y-79200676D02*
X109512207Y-79105438D01*
X109512207Y-79105438D02*
X109607445Y-79057819D01*
X106893160Y-77470200D02*
X107036017Y-77517819D01*
X107036017Y-77517819D02*
X107274112Y-77517819D01*
X107274112Y-77517819D02*
X107369350Y-77470200D01*
X107369350Y-77470200D02*
X107416969Y-77422580D01*
X107416969Y-77422580D02*
X107464588Y-77327342D01*
X107464588Y-77327342D02*
X107464588Y-77232104D01*
X107464588Y-77232104D02*
X107416969Y-77136866D01*
X107416969Y-77136866D02*
X107369350Y-77089247D01*
X107369350Y-77089247D02*
X107274112Y-77041628D01*
X107274112Y-77041628D02*
X107083636Y-76994009D01*
X107083636Y-76994009D02*
X106988398Y-76946390D01*
X106988398Y-76946390D02*
X106940779Y-76898771D01*
X106940779Y-76898771D02*
X106893160Y-76803533D01*
X106893160Y-76803533D02*
X106893160Y-76708295D01*
X106893160Y-76708295D02*
X106940779Y-76613057D01*
X106940779Y-76613057D02*
X106988398Y-76565438D01*
X106988398Y-76565438D02*
X107083636Y-76517819D01*
X107083636Y-76517819D02*
X107321731Y-76517819D01*
X107321731Y-76517819D02*
X107464588Y-76565438D01*
X107845541Y-77470200D02*
X107988398Y-77517819D01*
X107988398Y-77517819D02*
X108226493Y-77517819D01*
X108226493Y-77517819D02*
X108321731Y-77470200D01*
X108321731Y-77470200D02*
X108369350Y-77422580D01*
X108369350Y-77422580D02*
X108416969Y-77327342D01*
X108416969Y-77327342D02*
X108416969Y-77232104D01*
X108416969Y-77232104D02*
X108369350Y-77136866D01*
X108369350Y-77136866D02*
X108321731Y-77089247D01*
X108321731Y-77089247D02*
X108226493Y-77041628D01*
X108226493Y-77041628D02*
X108036017Y-76994009D01*
X108036017Y-76994009D02*
X107940779Y-76946390D01*
X107940779Y-76946390D02*
X107893160Y-76898771D01*
X107893160Y-76898771D02*
X107845541Y-76803533D01*
X107845541Y-76803533D02*
X107845541Y-76708295D01*
X107845541Y-76708295D02*
X107893160Y-76613057D01*
X107893160Y-76613057D02*
X107940779Y-76565438D01*
X107940779Y-76565438D02*
X108036017Y-76517819D01*
X108036017Y-76517819D02*
X108274112Y-76517819D01*
X108274112Y-76517819D02*
X108416969Y-76565438D01*
X107464588Y-74025438D02*
X107369350Y-73977819D01*
X107369350Y-73977819D02*
X107226493Y-73977819D01*
X107226493Y-73977819D02*
X107083636Y-74025438D01*
X107083636Y-74025438D02*
X106988398Y-74120676D01*
X106988398Y-74120676D02*
X106940779Y-74215914D01*
X106940779Y-74215914D02*
X106893160Y-74406390D01*
X106893160Y-74406390D02*
X106893160Y-74549247D01*
X106893160Y-74549247D02*
X106940779Y-74739723D01*
X106940779Y-74739723D02*
X106988398Y-74834961D01*
X106988398Y-74834961D02*
X107083636Y-74930200D01*
X107083636Y-74930200D02*
X107226493Y-74977819D01*
X107226493Y-74977819D02*
X107321731Y-74977819D01*
X107321731Y-74977819D02*
X107464588Y-74930200D01*
X107464588Y-74930200D02*
X107512207Y-74882580D01*
X107512207Y-74882580D02*
X107512207Y-74549247D01*
X107512207Y-74549247D02*
X107321731Y-74549247D01*
X107940779Y-74977819D02*
X107940779Y-73977819D01*
X107940779Y-73977819D02*
X108512207Y-74977819D01*
X108512207Y-74977819D02*
X108512207Y-73977819D01*
X108988398Y-74977819D02*
X108988398Y-73977819D01*
X108988398Y-73977819D02*
X109226493Y-73977819D01*
X109226493Y-73977819D02*
X109369350Y-74025438D01*
X109369350Y-74025438D02*
X109464588Y-74120676D01*
X109464588Y-74120676D02*
X109512207Y-74215914D01*
X109512207Y-74215914D02*
X109559826Y-74406390D01*
X109559826Y-74406390D02*
X109559826Y-74549247D01*
X109559826Y-74549247D02*
X109512207Y-74739723D01*
X109512207Y-74739723D02*
X109464588Y-74834961D01*
X109464588Y-74834961D02*
X109369350Y-74930200D01*
X109369350Y-74930200D02*
X109226493Y-74977819D01*
X109226493Y-74977819D02*
X108988398Y-74977819D01*
X107512207Y-69802580D02*
X107464588Y-69850200D01*
X107464588Y-69850200D02*
X107321731Y-69897819D01*
X107321731Y-69897819D02*
X107226493Y-69897819D01*
X107226493Y-69897819D02*
X107083636Y-69850200D01*
X107083636Y-69850200D02*
X106988398Y-69754961D01*
X106988398Y-69754961D02*
X106940779Y-69659723D01*
X106940779Y-69659723D02*
X106893160Y-69469247D01*
X106893160Y-69469247D02*
X106893160Y-69326390D01*
X106893160Y-69326390D02*
X106940779Y-69135914D01*
X106940779Y-69135914D02*
X106988398Y-69040676D01*
X106988398Y-69040676D02*
X107083636Y-68945438D01*
X107083636Y-68945438D02*
X107226493Y-68897819D01*
X107226493Y-68897819D02*
X107321731Y-68897819D01*
X107321731Y-68897819D02*
X107464588Y-68945438D01*
X107464588Y-68945438D02*
X107512207Y-68993057D01*
X108131255Y-68897819D02*
X108321731Y-68897819D01*
X108321731Y-68897819D02*
X108416969Y-68945438D01*
X108416969Y-68945438D02*
X108512207Y-69040676D01*
X108512207Y-69040676D02*
X108559826Y-69231152D01*
X108559826Y-69231152D02*
X108559826Y-69564485D01*
X108559826Y-69564485D02*
X108512207Y-69754961D01*
X108512207Y-69754961D02*
X108416969Y-69850200D01*
X108416969Y-69850200D02*
X108321731Y-69897819D01*
X108321731Y-69897819D02*
X108131255Y-69897819D01*
X108131255Y-69897819D02*
X108036017Y-69850200D01*
X108036017Y-69850200D02*
X107940779Y-69754961D01*
X107940779Y-69754961D02*
X107893160Y-69564485D01*
X107893160Y-69564485D02*
X107893160Y-69231152D01*
X107893160Y-69231152D02*
X107940779Y-69040676D01*
X107940779Y-69040676D02*
X108036017Y-68945438D01*
X108036017Y-68945438D02*
X108131255Y-68897819D01*
X108988398Y-69897819D02*
X108988398Y-68897819D01*
X108988398Y-68897819D02*
X109369350Y-68897819D01*
X109369350Y-68897819D02*
X109464588Y-68945438D01*
X109464588Y-68945438D02*
X109512207Y-68993057D01*
X109512207Y-68993057D02*
X109559826Y-69088295D01*
X109559826Y-69088295D02*
X109559826Y-69231152D01*
X109559826Y-69231152D02*
X109512207Y-69326390D01*
X109512207Y-69326390D02*
X109464588Y-69374009D01*
X109464588Y-69374009D02*
X109369350Y-69421628D01*
X109369350Y-69421628D02*
X108988398Y-69421628D01*
X109988398Y-69897819D02*
X109988398Y-68897819D01*
X107416969Y-66357819D02*
X106940779Y-66357819D01*
X106940779Y-66357819D02*
X106893160Y-66834009D01*
X106893160Y-66834009D02*
X106940779Y-66786390D01*
X106940779Y-66786390D02*
X107036017Y-66738771D01*
X107036017Y-66738771D02*
X107274112Y-66738771D01*
X107274112Y-66738771D02*
X107369350Y-66786390D01*
X107369350Y-66786390D02*
X107416969Y-66834009D01*
X107416969Y-66834009D02*
X107464588Y-66929247D01*
X107464588Y-66929247D02*
X107464588Y-67167342D01*
X107464588Y-67167342D02*
X107416969Y-67262580D01*
X107416969Y-67262580D02*
X107369350Y-67310200D01*
X107369350Y-67310200D02*
X107274112Y-67357819D01*
X107274112Y-67357819D02*
X107036017Y-67357819D01*
X107036017Y-67357819D02*
X106940779Y-67310200D01*
X106940779Y-67310200D02*
X106893160Y-67262580D01*
X107750303Y-66357819D02*
X108083636Y-67357819D01*
X108083636Y-67357819D02*
X108416969Y-66357819D01*
X145224819Y-95361077D02*
X146224819Y-95027744D01*
X146224819Y-95027744D02*
X145224819Y-94694411D01*
X146224819Y-94361077D02*
X145558152Y-94361077D01*
X145224819Y-94361077D02*
X145272438Y-94408696D01*
X145272438Y-94408696D02*
X145320057Y-94361077D01*
X145320057Y-94361077D02*
X145272438Y-94313458D01*
X145272438Y-94313458D02*
X145224819Y-94361077D01*
X145224819Y-94361077D02*
X145320057Y-94361077D01*
X145558152Y-93884887D02*
X146224819Y-93884887D01*
X145653390Y-93884887D02*
X145605771Y-93837268D01*
X145605771Y-93837268D02*
X145558152Y-93742030D01*
X145558152Y-93742030D02*
X145558152Y-93599173D01*
X145558152Y-93599173D02*
X145605771Y-93503935D01*
X145605771Y-93503935D02*
X145701009Y-93456316D01*
X145701009Y-93456316D02*
X146224819Y-93456316D01*
X141462438Y-94694411D02*
X141414819Y-94789649D01*
X141414819Y-94789649D02*
X141414819Y-94932506D01*
X141414819Y-94932506D02*
X141462438Y-95075363D01*
X141462438Y-95075363D02*
X141557676Y-95170601D01*
X141557676Y-95170601D02*
X141652914Y-95218220D01*
X141652914Y-95218220D02*
X141843390Y-95265839D01*
X141843390Y-95265839D02*
X141986247Y-95265839D01*
X141986247Y-95265839D02*
X142176723Y-95218220D01*
X142176723Y-95218220D02*
X142271961Y-95170601D01*
X142271961Y-95170601D02*
X142367200Y-95075363D01*
X142367200Y-95075363D02*
X142414819Y-94932506D01*
X142414819Y-94932506D02*
X142414819Y-94837268D01*
X142414819Y-94837268D02*
X142367200Y-94694411D01*
X142367200Y-94694411D02*
X142319580Y-94646792D01*
X142319580Y-94646792D02*
X141986247Y-94646792D01*
X141986247Y-94646792D02*
X141986247Y-94837268D01*
X142414819Y-94218220D02*
X141414819Y-94218220D01*
X141414819Y-94218220D02*
X142414819Y-93646792D01*
X142414819Y-93646792D02*
X141414819Y-93646792D01*
X142414819Y-93170601D02*
X141414819Y-93170601D01*
X141414819Y-93170601D02*
X141414819Y-92932506D01*
X141414819Y-92932506D02*
X141462438Y-92789649D01*
X141462438Y-92789649D02*
X141557676Y-92694411D01*
X141557676Y-92694411D02*
X141652914Y-92646792D01*
X141652914Y-92646792D02*
X141843390Y-92599173D01*
X141843390Y-92599173D02*
X141986247Y-92599173D01*
X141986247Y-92599173D02*
X142176723Y-92646792D01*
X142176723Y-92646792D02*
X142271961Y-92694411D01*
X142271961Y-92694411D02*
X142367200Y-92789649D01*
X142367200Y-92789649D02*
X142414819Y-92932506D01*
X142414819Y-92932506D02*
X142414819Y-93170601D01*
X137604819Y-94107030D02*
X137604819Y-94583220D01*
X137604819Y-94583220D02*
X138081009Y-94630839D01*
X138081009Y-94630839D02*
X138033390Y-94583220D01*
X138033390Y-94583220D02*
X137985771Y-94487982D01*
X137985771Y-94487982D02*
X137985771Y-94249887D01*
X137985771Y-94249887D02*
X138033390Y-94154649D01*
X138033390Y-94154649D02*
X138081009Y-94107030D01*
X138081009Y-94107030D02*
X138176247Y-94059411D01*
X138176247Y-94059411D02*
X138414342Y-94059411D01*
X138414342Y-94059411D02*
X138509580Y-94107030D01*
X138509580Y-94107030D02*
X138557200Y-94154649D01*
X138557200Y-94154649D02*
X138604819Y-94249887D01*
X138604819Y-94249887D02*
X138604819Y-94487982D01*
X138604819Y-94487982D02*
X138557200Y-94583220D01*
X138557200Y-94583220D02*
X138509580Y-94630839D01*
X137604819Y-93773696D02*
X138604819Y-93440363D01*
X138604819Y-93440363D02*
X137604819Y-93107030D01*
X135064819Y-95313458D02*
X135064819Y-94694411D01*
X135064819Y-94694411D02*
X135445771Y-95027744D01*
X135445771Y-95027744D02*
X135445771Y-94884887D01*
X135445771Y-94884887D02*
X135493390Y-94789649D01*
X135493390Y-94789649D02*
X135541009Y-94742030D01*
X135541009Y-94742030D02*
X135636247Y-94694411D01*
X135636247Y-94694411D02*
X135874342Y-94694411D01*
X135874342Y-94694411D02*
X135969580Y-94742030D01*
X135969580Y-94742030D02*
X136017200Y-94789649D01*
X136017200Y-94789649D02*
X136064819Y-94884887D01*
X136064819Y-94884887D02*
X136064819Y-95170601D01*
X136064819Y-95170601D02*
X136017200Y-95265839D01*
X136017200Y-95265839D02*
X135969580Y-95313458D01*
X135969580Y-94265839D02*
X136017200Y-94218220D01*
X136017200Y-94218220D02*
X136064819Y-94265839D01*
X136064819Y-94265839D02*
X136017200Y-94313458D01*
X136017200Y-94313458D02*
X135969580Y-94265839D01*
X135969580Y-94265839D02*
X136064819Y-94265839D01*
X135064819Y-93884887D02*
X135064819Y-93265840D01*
X135064819Y-93265840D02*
X135445771Y-93599173D01*
X135445771Y-93599173D02*
X135445771Y-93456316D01*
X135445771Y-93456316D02*
X135493390Y-93361078D01*
X135493390Y-93361078D02*
X135541009Y-93313459D01*
X135541009Y-93313459D02*
X135636247Y-93265840D01*
X135636247Y-93265840D02*
X135874342Y-93265840D01*
X135874342Y-93265840D02*
X135969580Y-93313459D01*
X135969580Y-93313459D02*
X136017200Y-93361078D01*
X136017200Y-93361078D02*
X136064819Y-93456316D01*
X136064819Y-93456316D02*
X136064819Y-93742030D01*
X136064819Y-93742030D02*
X136017200Y-93837268D01*
X136017200Y-93837268D02*
X135969580Y-93884887D01*
X135064819Y-92980125D02*
X136064819Y-92646792D01*
X136064819Y-92646792D02*
X135064819Y-92313459D01*
X133524819Y-94646792D02*
X133048628Y-94980125D01*
X133524819Y-95218220D02*
X132524819Y-95218220D01*
X132524819Y-95218220D02*
X132524819Y-94837268D01*
X132524819Y-94837268D02*
X132572438Y-94742030D01*
X132572438Y-94742030D02*
X132620057Y-94694411D01*
X132620057Y-94694411D02*
X132715295Y-94646792D01*
X132715295Y-94646792D02*
X132858152Y-94646792D01*
X132858152Y-94646792D02*
X132953390Y-94694411D01*
X132953390Y-94694411D02*
X133001009Y-94742030D01*
X133001009Y-94742030D02*
X133048628Y-94837268D01*
X133048628Y-94837268D02*
X133048628Y-95218220D01*
X133001009Y-94218220D02*
X133001009Y-93884887D01*
X133524819Y-93742030D02*
X133524819Y-94218220D01*
X133524819Y-94218220D02*
X132524819Y-94218220D01*
X132524819Y-94218220D02*
X132524819Y-93742030D01*
X133477200Y-93361077D02*
X133524819Y-93218220D01*
X133524819Y-93218220D02*
X133524819Y-92980125D01*
X133524819Y-92980125D02*
X133477200Y-92884887D01*
X133477200Y-92884887D02*
X133429580Y-92837268D01*
X133429580Y-92837268D02*
X133334342Y-92789649D01*
X133334342Y-92789649D02*
X133239104Y-92789649D01*
X133239104Y-92789649D02*
X133143866Y-92837268D01*
X133143866Y-92837268D02*
X133096247Y-92884887D01*
X133096247Y-92884887D02*
X133048628Y-92980125D01*
X133048628Y-92980125D02*
X133001009Y-93170601D01*
X133001009Y-93170601D02*
X132953390Y-93265839D01*
X132953390Y-93265839D02*
X132905771Y-93313458D01*
X132905771Y-93313458D02*
X132810533Y-93361077D01*
X132810533Y-93361077D02*
X132715295Y-93361077D01*
X132715295Y-93361077D02*
X132620057Y-93313458D01*
X132620057Y-93313458D02*
X132572438Y-93265839D01*
X132572438Y-93265839D02*
X132524819Y-93170601D01*
X132524819Y-93170601D02*
X132524819Y-92932506D01*
X132524819Y-92932506D02*
X132572438Y-92789649D01*
X133001009Y-92361077D02*
X133001009Y-92027744D01*
X133524819Y-91884887D02*
X133524819Y-92361077D01*
X133524819Y-92361077D02*
X132524819Y-92361077D01*
X132524819Y-92361077D02*
X132524819Y-91884887D01*
X132524819Y-91599172D02*
X132524819Y-91027744D01*
X133524819Y-91313458D02*
X132524819Y-91313458D01*
X130984819Y-95218220D02*
X129984819Y-95218220D01*
X129984819Y-94551554D02*
X129984819Y-94361078D01*
X129984819Y-94361078D02*
X130032438Y-94265840D01*
X130032438Y-94265840D02*
X130127676Y-94170602D01*
X130127676Y-94170602D02*
X130318152Y-94122983D01*
X130318152Y-94122983D02*
X130651485Y-94122983D01*
X130651485Y-94122983D02*
X130841961Y-94170602D01*
X130841961Y-94170602D02*
X130937200Y-94265840D01*
X130937200Y-94265840D02*
X130984819Y-94361078D01*
X130984819Y-94361078D02*
X130984819Y-94551554D01*
X130984819Y-94551554D02*
X130937200Y-94646792D01*
X130937200Y-94646792D02*
X130841961Y-94742030D01*
X130841961Y-94742030D02*
X130651485Y-94789649D01*
X130651485Y-94789649D02*
X130318152Y-94789649D01*
X130318152Y-94789649D02*
X130127676Y-94742030D01*
X130127676Y-94742030D02*
X130032438Y-94646792D01*
X130032438Y-94646792D02*
X129984819Y-94551554D01*
X130984819Y-93122983D02*
X130508628Y-93456316D01*
X130984819Y-93694411D02*
X129984819Y-93694411D01*
X129984819Y-93694411D02*
X129984819Y-93313459D01*
X129984819Y-93313459D02*
X130032438Y-93218221D01*
X130032438Y-93218221D02*
X130080057Y-93170602D01*
X130080057Y-93170602D02*
X130175295Y-93122983D01*
X130175295Y-93122983D02*
X130318152Y-93122983D01*
X130318152Y-93122983D02*
X130413390Y-93170602D01*
X130413390Y-93170602D02*
X130461009Y-93218221D01*
X130461009Y-93218221D02*
X130508628Y-93313459D01*
X130508628Y-93313459D02*
X130508628Y-93694411D01*
X130461009Y-92694411D02*
X130461009Y-92361078D01*
X130984819Y-92218221D02*
X130984819Y-92694411D01*
X130984819Y-92694411D02*
X129984819Y-92694411D01*
X129984819Y-92694411D02*
X129984819Y-92218221D01*
X130461009Y-91456316D02*
X130461009Y-91789649D01*
X130984819Y-91789649D02*
X129984819Y-91789649D01*
X129984819Y-91789649D02*
X129984819Y-91313459D01*
X127921009Y-94884887D02*
X127968628Y-94742030D01*
X127968628Y-94742030D02*
X128016247Y-94694411D01*
X128016247Y-94694411D02*
X128111485Y-94646792D01*
X128111485Y-94646792D02*
X128254342Y-94646792D01*
X128254342Y-94646792D02*
X128349580Y-94694411D01*
X128349580Y-94694411D02*
X128397200Y-94742030D01*
X128397200Y-94742030D02*
X128444819Y-94837268D01*
X128444819Y-94837268D02*
X128444819Y-95218220D01*
X128444819Y-95218220D02*
X127444819Y-95218220D01*
X127444819Y-95218220D02*
X127444819Y-94884887D01*
X127444819Y-94884887D02*
X127492438Y-94789649D01*
X127492438Y-94789649D02*
X127540057Y-94742030D01*
X127540057Y-94742030D02*
X127635295Y-94694411D01*
X127635295Y-94694411D02*
X127730533Y-94694411D01*
X127730533Y-94694411D02*
X127825771Y-94742030D01*
X127825771Y-94742030D02*
X127873390Y-94789649D01*
X127873390Y-94789649D02*
X127921009Y-94884887D01*
X127921009Y-94884887D02*
X127921009Y-95218220D01*
X127444819Y-94027744D02*
X127444819Y-93837268D01*
X127444819Y-93837268D02*
X127492438Y-93742030D01*
X127492438Y-93742030D02*
X127587676Y-93646792D01*
X127587676Y-93646792D02*
X127778152Y-93599173D01*
X127778152Y-93599173D02*
X128111485Y-93599173D01*
X128111485Y-93599173D02*
X128301961Y-93646792D01*
X128301961Y-93646792D02*
X128397200Y-93742030D01*
X128397200Y-93742030D02*
X128444819Y-93837268D01*
X128444819Y-93837268D02*
X128444819Y-94027744D01*
X128444819Y-94027744D02*
X128397200Y-94122982D01*
X128397200Y-94122982D02*
X128301961Y-94218220D01*
X128301961Y-94218220D02*
X128111485Y-94265839D01*
X128111485Y-94265839D02*
X127778152Y-94265839D01*
X127778152Y-94265839D02*
X127587676Y-94218220D01*
X127587676Y-94218220D02*
X127492438Y-94122982D01*
X127492438Y-94122982D02*
X127444819Y-94027744D01*
X127444819Y-92980125D02*
X127444819Y-92789649D01*
X127444819Y-92789649D02*
X127492438Y-92694411D01*
X127492438Y-92694411D02*
X127587676Y-92599173D01*
X127587676Y-92599173D02*
X127778152Y-92551554D01*
X127778152Y-92551554D02*
X128111485Y-92551554D01*
X128111485Y-92551554D02*
X128301961Y-92599173D01*
X128301961Y-92599173D02*
X128397200Y-92694411D01*
X128397200Y-92694411D02*
X128444819Y-92789649D01*
X128444819Y-92789649D02*
X128444819Y-92980125D01*
X128444819Y-92980125D02*
X128397200Y-93075363D01*
X128397200Y-93075363D02*
X128301961Y-93170601D01*
X128301961Y-93170601D02*
X128111485Y-93218220D01*
X128111485Y-93218220D02*
X127778152Y-93218220D01*
X127778152Y-93218220D02*
X127587676Y-93170601D01*
X127587676Y-93170601D02*
X127492438Y-93075363D01*
X127492438Y-93075363D02*
X127444819Y-92980125D01*
X127444819Y-92265839D02*
X127444819Y-91694411D01*
X128444819Y-91980125D02*
X127444819Y-91980125D01*
X163719104Y-95265839D02*
X163719104Y-94789649D01*
X164004819Y-95361077D02*
X163004819Y-95027744D01*
X163004819Y-95027744D02*
X164004819Y-94694411D01*
X163004819Y-93884887D02*
X163004819Y-94361077D01*
X163004819Y-94361077D02*
X163481009Y-94408696D01*
X163481009Y-94408696D02*
X163433390Y-94361077D01*
X163433390Y-94361077D02*
X163385771Y-94265839D01*
X163385771Y-94265839D02*
X163385771Y-94027744D01*
X163385771Y-94027744D02*
X163433390Y-93932506D01*
X163433390Y-93932506D02*
X163481009Y-93884887D01*
X163481009Y-93884887D02*
X163576247Y-93837268D01*
X163576247Y-93837268D02*
X163814342Y-93837268D01*
X163814342Y-93837268D02*
X163909580Y-93884887D01*
X163909580Y-93884887D02*
X163957200Y-93932506D01*
X163957200Y-93932506D02*
X164004819Y-94027744D01*
X164004819Y-94027744D02*
X164004819Y-94265839D01*
X164004819Y-94265839D02*
X163957200Y-94361077D01*
X163957200Y-94361077D02*
X163909580Y-94408696D01*
X161179104Y-95265839D02*
X161179104Y-94789649D01*
X161464819Y-95361077D02*
X160464819Y-95027744D01*
X160464819Y-95027744D02*
X161464819Y-94694411D01*
X160798152Y-93932506D02*
X161464819Y-93932506D01*
X160417200Y-94170601D02*
X161131485Y-94408696D01*
X161131485Y-94408696D02*
X161131485Y-93789649D01*
X158639104Y-95265839D02*
X158639104Y-94789649D01*
X158924819Y-95361077D02*
X157924819Y-95027744D01*
X157924819Y-95027744D02*
X158924819Y-94694411D01*
X157924819Y-94456315D02*
X157924819Y-93837268D01*
X157924819Y-93837268D02*
X158305771Y-94170601D01*
X158305771Y-94170601D02*
X158305771Y-94027744D01*
X158305771Y-94027744D02*
X158353390Y-93932506D01*
X158353390Y-93932506D02*
X158401009Y-93884887D01*
X158401009Y-93884887D02*
X158496247Y-93837268D01*
X158496247Y-93837268D02*
X158734342Y-93837268D01*
X158734342Y-93837268D02*
X158829580Y-93884887D01*
X158829580Y-93884887D02*
X158877200Y-93932506D01*
X158877200Y-93932506D02*
X158924819Y-94027744D01*
X158924819Y-94027744D02*
X158924819Y-94313458D01*
X158924819Y-94313458D02*
X158877200Y-94408696D01*
X158877200Y-94408696D02*
X158829580Y-94456315D01*
X156099104Y-95265839D02*
X156099104Y-94789649D01*
X156384819Y-95361077D02*
X155384819Y-95027744D01*
X155384819Y-95027744D02*
X156384819Y-94694411D01*
X155480057Y-94408696D02*
X155432438Y-94361077D01*
X155432438Y-94361077D02*
X155384819Y-94265839D01*
X155384819Y-94265839D02*
X155384819Y-94027744D01*
X155384819Y-94027744D02*
X155432438Y-93932506D01*
X155432438Y-93932506D02*
X155480057Y-93884887D01*
X155480057Y-93884887D02*
X155575295Y-93837268D01*
X155575295Y-93837268D02*
X155670533Y-93837268D01*
X155670533Y-93837268D02*
X155813390Y-93884887D01*
X155813390Y-93884887D02*
X156384819Y-94456315D01*
X156384819Y-94456315D02*
X156384819Y-93837268D01*
X153559104Y-95265839D02*
X153559104Y-94789649D01*
X153844819Y-95361077D02*
X152844819Y-95027744D01*
X152844819Y-95027744D02*
X153844819Y-94694411D01*
X153844819Y-93837268D02*
X153844819Y-94408696D01*
X153844819Y-94122982D02*
X152844819Y-94122982D01*
X152844819Y-94122982D02*
X152987676Y-94218220D01*
X152987676Y-94218220D02*
X153082914Y-94313458D01*
X153082914Y-94313458D02*
X153130533Y-94408696D01*
X151019104Y-95265839D02*
X151019104Y-94789649D01*
X151304819Y-95361077D02*
X150304819Y-95027744D01*
X150304819Y-95027744D02*
X151304819Y-94694411D01*
X150304819Y-94170601D02*
X150304819Y-94075363D01*
X150304819Y-94075363D02*
X150352438Y-93980125D01*
X150352438Y-93980125D02*
X150400057Y-93932506D01*
X150400057Y-93932506D02*
X150495295Y-93884887D01*
X150495295Y-93884887D02*
X150685771Y-93837268D01*
X150685771Y-93837268D02*
X150923866Y-93837268D01*
X150923866Y-93837268D02*
X151114342Y-93884887D01*
X151114342Y-93884887D02*
X151209580Y-93932506D01*
X151209580Y-93932506D02*
X151257200Y-93980125D01*
X151257200Y-93980125D02*
X151304819Y-94075363D01*
X151304819Y-94075363D02*
X151304819Y-94170601D01*
X151304819Y-94170601D02*
X151257200Y-94265839D01*
X151257200Y-94265839D02*
X151209580Y-94313458D01*
X151209580Y-94313458D02*
X151114342Y-94361077D01*
X151114342Y-94361077D02*
X150923866Y-94408696D01*
X150923866Y-94408696D02*
X150685771Y-94408696D01*
X150685771Y-94408696D02*
X150495295Y-94361077D01*
X150495295Y-94361077D02*
X150400057Y-94313458D01*
X150400057Y-94313458D02*
X150352438Y-94265839D01*
X150352438Y-94265839D02*
X150304819Y-94170601D01*
X119507200Y-53355839D02*
X119554819Y-53212982D01*
X119554819Y-53212982D02*
X119554819Y-52974887D01*
X119554819Y-52974887D02*
X119507200Y-52879649D01*
X119507200Y-52879649D02*
X119459580Y-52832030D01*
X119459580Y-52832030D02*
X119364342Y-52784411D01*
X119364342Y-52784411D02*
X119269104Y-52784411D01*
X119269104Y-52784411D02*
X119173866Y-52832030D01*
X119173866Y-52832030D02*
X119126247Y-52879649D01*
X119126247Y-52879649D02*
X119078628Y-52974887D01*
X119078628Y-52974887D02*
X119031009Y-53165363D01*
X119031009Y-53165363D02*
X118983390Y-53260601D01*
X118983390Y-53260601D02*
X118935771Y-53308220D01*
X118935771Y-53308220D02*
X118840533Y-53355839D01*
X118840533Y-53355839D02*
X118745295Y-53355839D01*
X118745295Y-53355839D02*
X118650057Y-53308220D01*
X118650057Y-53308220D02*
X118602438Y-53260601D01*
X118602438Y-53260601D02*
X118554819Y-53165363D01*
X118554819Y-53165363D02*
X118554819Y-52927268D01*
X118554819Y-52927268D02*
X118602438Y-52784411D01*
X119459580Y-51784411D02*
X119507200Y-51832030D01*
X119507200Y-51832030D02*
X119554819Y-51974887D01*
X119554819Y-51974887D02*
X119554819Y-52070125D01*
X119554819Y-52070125D02*
X119507200Y-52212982D01*
X119507200Y-52212982D02*
X119411961Y-52308220D01*
X119411961Y-52308220D02*
X119316723Y-52355839D01*
X119316723Y-52355839D02*
X119126247Y-52403458D01*
X119126247Y-52403458D02*
X118983390Y-52403458D01*
X118983390Y-52403458D02*
X118792914Y-52355839D01*
X118792914Y-52355839D02*
X118697676Y-52308220D01*
X118697676Y-52308220D02*
X118602438Y-52212982D01*
X118602438Y-52212982D02*
X118554819Y-52070125D01*
X118554819Y-52070125D02*
X118554819Y-51974887D01*
X118554819Y-51974887D02*
X118602438Y-51832030D01*
X118602438Y-51832030D02*
X118650057Y-51784411D01*
X119554819Y-50879649D02*
X119554819Y-51355839D01*
X119554819Y-51355839D02*
X118554819Y-51355839D01*
X122047200Y-53355839D02*
X122094819Y-53212982D01*
X122094819Y-53212982D02*
X122094819Y-52974887D01*
X122094819Y-52974887D02*
X122047200Y-52879649D01*
X122047200Y-52879649D02*
X121999580Y-52832030D01*
X121999580Y-52832030D02*
X121904342Y-52784411D01*
X121904342Y-52784411D02*
X121809104Y-52784411D01*
X121809104Y-52784411D02*
X121713866Y-52832030D01*
X121713866Y-52832030D02*
X121666247Y-52879649D01*
X121666247Y-52879649D02*
X121618628Y-52974887D01*
X121618628Y-52974887D02*
X121571009Y-53165363D01*
X121571009Y-53165363D02*
X121523390Y-53260601D01*
X121523390Y-53260601D02*
X121475771Y-53308220D01*
X121475771Y-53308220D02*
X121380533Y-53355839D01*
X121380533Y-53355839D02*
X121285295Y-53355839D01*
X121285295Y-53355839D02*
X121190057Y-53308220D01*
X121190057Y-53308220D02*
X121142438Y-53260601D01*
X121142438Y-53260601D02*
X121094819Y-53165363D01*
X121094819Y-53165363D02*
X121094819Y-52927268D01*
X121094819Y-52927268D02*
X121142438Y-52784411D01*
X122094819Y-52355839D02*
X121094819Y-52355839D01*
X121094819Y-52355839D02*
X121094819Y-52117744D01*
X121094819Y-52117744D02*
X121142438Y-51974887D01*
X121142438Y-51974887D02*
X121237676Y-51879649D01*
X121237676Y-51879649D02*
X121332914Y-51832030D01*
X121332914Y-51832030D02*
X121523390Y-51784411D01*
X121523390Y-51784411D02*
X121666247Y-51784411D01*
X121666247Y-51784411D02*
X121856723Y-51832030D01*
X121856723Y-51832030D02*
X121951961Y-51879649D01*
X121951961Y-51879649D02*
X122047200Y-51974887D01*
X122047200Y-51974887D02*
X122094819Y-52117744D01*
X122094819Y-52117744D02*
X122094819Y-52355839D01*
X121809104Y-51403458D02*
X121809104Y-50927268D01*
X122094819Y-51498696D02*
X121094819Y-51165363D01*
X121094819Y-51165363D02*
X122094819Y-50832030D01*
X124349104Y-53990839D02*
X124349104Y-53514649D01*
X124634819Y-54086077D02*
X123634819Y-53752744D01*
X123634819Y-53752744D02*
X124634819Y-53419411D01*
X124634819Y-52514649D02*
X124158628Y-52847982D01*
X124634819Y-53086077D02*
X123634819Y-53086077D01*
X123634819Y-53086077D02*
X123634819Y-52705125D01*
X123634819Y-52705125D02*
X123682438Y-52609887D01*
X123682438Y-52609887D02*
X123730057Y-52562268D01*
X123730057Y-52562268D02*
X123825295Y-52514649D01*
X123825295Y-52514649D02*
X123968152Y-52514649D01*
X123968152Y-52514649D02*
X124063390Y-52562268D01*
X124063390Y-52562268D02*
X124111009Y-52609887D01*
X124111009Y-52609887D02*
X124158628Y-52705125D01*
X124158628Y-52705125D02*
X124158628Y-53086077D01*
X124111009Y-52086077D02*
X124111009Y-51752744D01*
X124634819Y-51609887D02*
X124634819Y-52086077D01*
X124634819Y-52086077D02*
X123634819Y-52086077D01*
X123634819Y-52086077D02*
X123634819Y-51609887D01*
X124111009Y-50847982D02*
X124111009Y-51181315D01*
X124634819Y-51181315D02*
X123634819Y-51181315D01*
X123634819Y-51181315D02*
X123634819Y-50705125D01*
X126222438Y-52784411D02*
X126174819Y-52879649D01*
X126174819Y-52879649D02*
X126174819Y-53022506D01*
X126174819Y-53022506D02*
X126222438Y-53165363D01*
X126222438Y-53165363D02*
X126317676Y-53260601D01*
X126317676Y-53260601D02*
X126412914Y-53308220D01*
X126412914Y-53308220D02*
X126603390Y-53355839D01*
X126603390Y-53355839D02*
X126746247Y-53355839D01*
X126746247Y-53355839D02*
X126936723Y-53308220D01*
X126936723Y-53308220D02*
X127031961Y-53260601D01*
X127031961Y-53260601D02*
X127127200Y-53165363D01*
X127127200Y-53165363D02*
X127174819Y-53022506D01*
X127174819Y-53022506D02*
X127174819Y-52927268D01*
X127174819Y-52927268D02*
X127127200Y-52784411D01*
X127127200Y-52784411D02*
X127079580Y-52736792D01*
X127079580Y-52736792D02*
X126746247Y-52736792D01*
X126746247Y-52736792D02*
X126746247Y-52927268D01*
X127174819Y-52308220D02*
X126174819Y-52308220D01*
X126174819Y-52308220D02*
X127174819Y-51736792D01*
X127174819Y-51736792D02*
X126174819Y-51736792D01*
X127174819Y-51260601D02*
X126174819Y-51260601D01*
X126174819Y-51260601D02*
X126174819Y-51022506D01*
X126174819Y-51022506D02*
X126222438Y-50879649D01*
X126222438Y-50879649D02*
X126317676Y-50784411D01*
X126317676Y-50784411D02*
X126412914Y-50736792D01*
X126412914Y-50736792D02*
X126603390Y-50689173D01*
X126603390Y-50689173D02*
X126746247Y-50689173D01*
X126746247Y-50689173D02*
X126936723Y-50736792D01*
X126936723Y-50736792D02*
X127031961Y-50784411D01*
X127031961Y-50784411D02*
X127127200Y-50879649D01*
X127127200Y-50879649D02*
X127174819Y-51022506D01*
X127174819Y-51022506D02*
X127174819Y-51260601D01*
X129714819Y-52149411D02*
X129714819Y-52720839D01*
X129714819Y-52435125D02*
X128714819Y-52435125D01*
X128714819Y-52435125D02*
X128857676Y-52530363D01*
X128857676Y-52530363D02*
X128952914Y-52625601D01*
X128952914Y-52625601D02*
X129000533Y-52720839D01*
X128714819Y-51816077D02*
X128714819Y-51197030D01*
X128714819Y-51197030D02*
X129095771Y-51530363D01*
X129095771Y-51530363D02*
X129095771Y-51387506D01*
X129095771Y-51387506D02*
X129143390Y-51292268D01*
X129143390Y-51292268D02*
X129191009Y-51244649D01*
X129191009Y-51244649D02*
X129286247Y-51197030D01*
X129286247Y-51197030D02*
X129524342Y-51197030D01*
X129524342Y-51197030D02*
X129619580Y-51244649D01*
X129619580Y-51244649D02*
X129667200Y-51292268D01*
X129667200Y-51292268D02*
X129714819Y-51387506D01*
X129714819Y-51387506D02*
X129714819Y-51673220D01*
X129714819Y-51673220D02*
X129667200Y-51768458D01*
X129667200Y-51768458D02*
X129619580Y-51816077D01*
X132254819Y-52149411D02*
X132254819Y-52720839D01*
X132254819Y-52435125D02*
X131254819Y-52435125D01*
X131254819Y-52435125D02*
X131397676Y-52530363D01*
X131397676Y-52530363D02*
X131492914Y-52625601D01*
X131492914Y-52625601D02*
X131540533Y-52720839D01*
X131350057Y-51768458D02*
X131302438Y-51720839D01*
X131302438Y-51720839D02*
X131254819Y-51625601D01*
X131254819Y-51625601D02*
X131254819Y-51387506D01*
X131254819Y-51387506D02*
X131302438Y-51292268D01*
X131302438Y-51292268D02*
X131350057Y-51244649D01*
X131350057Y-51244649D02*
X131445295Y-51197030D01*
X131445295Y-51197030D02*
X131540533Y-51197030D01*
X131540533Y-51197030D02*
X131683390Y-51244649D01*
X131683390Y-51244649D02*
X132254819Y-51816077D01*
X132254819Y-51816077D02*
X132254819Y-51197030D01*
X134413866Y-53451077D02*
X134366247Y-53403458D01*
X134366247Y-53403458D02*
X134318628Y-53308220D01*
X134318628Y-53308220D02*
X134413866Y-53117744D01*
X134413866Y-53117744D02*
X134366247Y-53022506D01*
X134366247Y-53022506D02*
X134318628Y-52974887D01*
X134794819Y-52070125D02*
X134794819Y-52641553D01*
X134794819Y-52355839D02*
X133794819Y-52355839D01*
X133794819Y-52355839D02*
X133937676Y-52451077D01*
X133937676Y-52451077D02*
X134032914Y-52546315D01*
X134032914Y-52546315D02*
X134080533Y-52641553D01*
X134794819Y-51117744D02*
X134794819Y-51689172D01*
X134794819Y-51403458D02*
X133794819Y-51403458D01*
X133794819Y-51403458D02*
X133937676Y-51498696D01*
X133937676Y-51498696D02*
X134032914Y-51593934D01*
X134032914Y-51593934D02*
X134080533Y-51689172D01*
X136953866Y-53451077D02*
X136906247Y-53403458D01*
X136906247Y-53403458D02*
X136858628Y-53308220D01*
X136858628Y-53308220D02*
X136953866Y-53117744D01*
X136953866Y-53117744D02*
X136906247Y-53022506D01*
X136906247Y-53022506D02*
X136858628Y-52974887D01*
X137334819Y-52070125D02*
X137334819Y-52641553D01*
X137334819Y-52355839D02*
X136334819Y-52355839D01*
X136334819Y-52355839D02*
X136477676Y-52451077D01*
X136477676Y-52451077D02*
X136572914Y-52546315D01*
X136572914Y-52546315D02*
X136620533Y-52641553D01*
X136334819Y-51451077D02*
X136334819Y-51355839D01*
X136334819Y-51355839D02*
X136382438Y-51260601D01*
X136382438Y-51260601D02*
X136430057Y-51212982D01*
X136430057Y-51212982D02*
X136525295Y-51165363D01*
X136525295Y-51165363D02*
X136715771Y-51117744D01*
X136715771Y-51117744D02*
X136953866Y-51117744D01*
X136953866Y-51117744D02*
X137144342Y-51165363D01*
X137144342Y-51165363D02*
X137239580Y-51212982D01*
X137239580Y-51212982D02*
X137287200Y-51260601D01*
X137287200Y-51260601D02*
X137334819Y-51355839D01*
X137334819Y-51355839D02*
X137334819Y-51451077D01*
X137334819Y-51451077D02*
X137287200Y-51546315D01*
X137287200Y-51546315D02*
X137239580Y-51593934D01*
X137239580Y-51593934D02*
X137144342Y-51641553D01*
X137144342Y-51641553D02*
X136953866Y-51689172D01*
X136953866Y-51689172D02*
X136715771Y-51689172D01*
X136715771Y-51689172D02*
X136525295Y-51641553D01*
X136525295Y-51641553D02*
X136430057Y-51593934D01*
X136430057Y-51593934D02*
X136382438Y-51546315D01*
X136382438Y-51546315D02*
X136334819Y-51451077D01*
X139493866Y-53451077D02*
X139446247Y-53403458D01*
X139446247Y-53403458D02*
X139398628Y-53308220D01*
X139398628Y-53308220D02*
X139493866Y-53117744D01*
X139493866Y-53117744D02*
X139446247Y-53022506D01*
X139446247Y-53022506D02*
X139398628Y-52974887D01*
X139874819Y-52546315D02*
X139874819Y-52355839D01*
X139874819Y-52355839D02*
X139827200Y-52260601D01*
X139827200Y-52260601D02*
X139779580Y-52212982D01*
X139779580Y-52212982D02*
X139636723Y-52117744D01*
X139636723Y-52117744D02*
X139446247Y-52070125D01*
X139446247Y-52070125D02*
X139065295Y-52070125D01*
X139065295Y-52070125D02*
X138970057Y-52117744D01*
X138970057Y-52117744D02*
X138922438Y-52165363D01*
X138922438Y-52165363D02*
X138874819Y-52260601D01*
X138874819Y-52260601D02*
X138874819Y-52451077D01*
X138874819Y-52451077D02*
X138922438Y-52546315D01*
X138922438Y-52546315D02*
X138970057Y-52593934D01*
X138970057Y-52593934D02*
X139065295Y-52641553D01*
X139065295Y-52641553D02*
X139303390Y-52641553D01*
X139303390Y-52641553D02*
X139398628Y-52593934D01*
X139398628Y-52593934D02*
X139446247Y-52546315D01*
X139446247Y-52546315D02*
X139493866Y-52451077D01*
X139493866Y-52451077D02*
X139493866Y-52260601D01*
X139493866Y-52260601D02*
X139446247Y-52165363D01*
X139446247Y-52165363D02*
X139398628Y-52117744D01*
X139398628Y-52117744D02*
X139303390Y-52070125D01*
X141843390Y-52530363D02*
X141795771Y-52625601D01*
X141795771Y-52625601D02*
X141748152Y-52673220D01*
X141748152Y-52673220D02*
X141652914Y-52720839D01*
X141652914Y-52720839D02*
X141605295Y-52720839D01*
X141605295Y-52720839D02*
X141510057Y-52673220D01*
X141510057Y-52673220D02*
X141462438Y-52625601D01*
X141462438Y-52625601D02*
X141414819Y-52530363D01*
X141414819Y-52530363D02*
X141414819Y-52339887D01*
X141414819Y-52339887D02*
X141462438Y-52244649D01*
X141462438Y-52244649D02*
X141510057Y-52197030D01*
X141510057Y-52197030D02*
X141605295Y-52149411D01*
X141605295Y-52149411D02*
X141652914Y-52149411D01*
X141652914Y-52149411D02*
X141748152Y-52197030D01*
X141748152Y-52197030D02*
X141795771Y-52244649D01*
X141795771Y-52244649D02*
X141843390Y-52339887D01*
X141843390Y-52339887D02*
X141843390Y-52530363D01*
X141843390Y-52530363D02*
X141891009Y-52625601D01*
X141891009Y-52625601D02*
X141938628Y-52673220D01*
X141938628Y-52673220D02*
X142033866Y-52720839D01*
X142033866Y-52720839D02*
X142224342Y-52720839D01*
X142224342Y-52720839D02*
X142319580Y-52673220D01*
X142319580Y-52673220D02*
X142367200Y-52625601D01*
X142367200Y-52625601D02*
X142414819Y-52530363D01*
X142414819Y-52530363D02*
X142414819Y-52339887D01*
X142414819Y-52339887D02*
X142367200Y-52244649D01*
X142367200Y-52244649D02*
X142319580Y-52197030D01*
X142319580Y-52197030D02*
X142224342Y-52149411D01*
X142224342Y-52149411D02*
X142033866Y-52149411D01*
X142033866Y-52149411D02*
X141938628Y-52197030D01*
X141938628Y-52197030D02*
X141891009Y-52244649D01*
X141891009Y-52244649D02*
X141843390Y-52339887D01*
X145224819Y-52768458D02*
X145224819Y-52101792D01*
X145224819Y-52101792D02*
X146224819Y-52530363D01*
X148383866Y-53451077D02*
X148336247Y-53403458D01*
X148336247Y-53403458D02*
X148288628Y-53308220D01*
X148288628Y-53308220D02*
X148383866Y-53117744D01*
X148383866Y-53117744D02*
X148336247Y-53022506D01*
X148336247Y-53022506D02*
X148288628Y-52974887D01*
X147764819Y-52165363D02*
X147764819Y-52355839D01*
X147764819Y-52355839D02*
X147812438Y-52451077D01*
X147812438Y-52451077D02*
X147860057Y-52498696D01*
X147860057Y-52498696D02*
X148002914Y-52593934D01*
X148002914Y-52593934D02*
X148193390Y-52641553D01*
X148193390Y-52641553D02*
X148574342Y-52641553D01*
X148574342Y-52641553D02*
X148669580Y-52593934D01*
X148669580Y-52593934D02*
X148717200Y-52546315D01*
X148717200Y-52546315D02*
X148764819Y-52451077D01*
X148764819Y-52451077D02*
X148764819Y-52260601D01*
X148764819Y-52260601D02*
X148717200Y-52165363D01*
X148717200Y-52165363D02*
X148669580Y-52117744D01*
X148669580Y-52117744D02*
X148574342Y-52070125D01*
X148574342Y-52070125D02*
X148336247Y-52070125D01*
X148336247Y-52070125D02*
X148241009Y-52117744D01*
X148241009Y-52117744D02*
X148193390Y-52165363D01*
X148193390Y-52165363D02*
X148145771Y-52260601D01*
X148145771Y-52260601D02*
X148145771Y-52451077D01*
X148145771Y-52451077D02*
X148193390Y-52546315D01*
X148193390Y-52546315D02*
X148241009Y-52593934D01*
X148241009Y-52593934D02*
X148336247Y-52641553D01*
X150923866Y-53451077D02*
X150876247Y-53403458D01*
X150876247Y-53403458D02*
X150828628Y-53308220D01*
X150828628Y-53308220D02*
X150923866Y-53117744D01*
X150923866Y-53117744D02*
X150876247Y-53022506D01*
X150876247Y-53022506D02*
X150828628Y-52974887D01*
X150304819Y-52117744D02*
X150304819Y-52593934D01*
X150304819Y-52593934D02*
X150781009Y-52641553D01*
X150781009Y-52641553D02*
X150733390Y-52593934D01*
X150733390Y-52593934D02*
X150685771Y-52498696D01*
X150685771Y-52498696D02*
X150685771Y-52260601D01*
X150685771Y-52260601D02*
X150733390Y-52165363D01*
X150733390Y-52165363D02*
X150781009Y-52117744D01*
X150781009Y-52117744D02*
X150876247Y-52070125D01*
X150876247Y-52070125D02*
X151114342Y-52070125D01*
X151114342Y-52070125D02*
X151209580Y-52117744D01*
X151209580Y-52117744D02*
X151257200Y-52165363D01*
X151257200Y-52165363D02*
X151304819Y-52260601D01*
X151304819Y-52260601D02*
X151304819Y-52498696D01*
X151304819Y-52498696D02*
X151257200Y-52593934D01*
X151257200Y-52593934D02*
X151209580Y-52641553D01*
X153178152Y-52244649D02*
X153844819Y-52244649D01*
X152797200Y-52482744D02*
X153511485Y-52720839D01*
X153511485Y-52720839D02*
X153511485Y-52101792D01*
X156003866Y-53451077D02*
X155956247Y-53403458D01*
X155956247Y-53403458D02*
X155908628Y-53308220D01*
X155908628Y-53308220D02*
X156003866Y-53117744D01*
X156003866Y-53117744D02*
X155956247Y-53022506D01*
X155956247Y-53022506D02*
X155908628Y-52974887D01*
X155384819Y-52689172D02*
X155384819Y-52070125D01*
X155384819Y-52070125D02*
X155765771Y-52403458D01*
X155765771Y-52403458D02*
X155765771Y-52260601D01*
X155765771Y-52260601D02*
X155813390Y-52165363D01*
X155813390Y-52165363D02*
X155861009Y-52117744D01*
X155861009Y-52117744D02*
X155956247Y-52070125D01*
X155956247Y-52070125D02*
X156194342Y-52070125D01*
X156194342Y-52070125D02*
X156289580Y-52117744D01*
X156289580Y-52117744D02*
X156337200Y-52165363D01*
X156337200Y-52165363D02*
X156384819Y-52260601D01*
X156384819Y-52260601D02*
X156384819Y-52546315D01*
X156384819Y-52546315D02*
X156337200Y-52641553D01*
X156337200Y-52641553D02*
X156289580Y-52689172D01*
X158020057Y-52720839D02*
X157972438Y-52673220D01*
X157972438Y-52673220D02*
X157924819Y-52577982D01*
X157924819Y-52577982D02*
X157924819Y-52339887D01*
X157924819Y-52339887D02*
X157972438Y-52244649D01*
X157972438Y-52244649D02*
X158020057Y-52197030D01*
X158020057Y-52197030D02*
X158115295Y-52149411D01*
X158115295Y-52149411D02*
X158210533Y-52149411D01*
X158210533Y-52149411D02*
X158353390Y-52197030D01*
X158353390Y-52197030D02*
X158924819Y-52768458D01*
X158924819Y-52768458D02*
X158924819Y-52149411D01*
X160464819Y-54086077D02*
X160464819Y-53514649D01*
X161464819Y-53800363D02*
X160464819Y-53800363D01*
X160417200Y-52467030D02*
X161702914Y-53324172D01*
X161464819Y-51609887D02*
X161464819Y-52181315D01*
X161464819Y-51895601D02*
X160464819Y-51895601D01*
X160464819Y-51895601D02*
X160607676Y-51990839D01*
X160607676Y-51990839D02*
X160702914Y-52086077D01*
X160702914Y-52086077D02*
X160750533Y-52181315D01*
X164004819Y-53371792D02*
X163528628Y-53705125D01*
X164004819Y-53943220D02*
X163004819Y-53943220D01*
X163004819Y-53943220D02*
X163004819Y-53562268D01*
X163004819Y-53562268D02*
X163052438Y-53467030D01*
X163052438Y-53467030D02*
X163100057Y-53419411D01*
X163100057Y-53419411D02*
X163195295Y-53371792D01*
X163195295Y-53371792D02*
X163338152Y-53371792D01*
X163338152Y-53371792D02*
X163433390Y-53419411D01*
X163433390Y-53419411D02*
X163481009Y-53467030D01*
X163481009Y-53467030D02*
X163528628Y-53562268D01*
X163528628Y-53562268D02*
X163528628Y-53943220D01*
X162957200Y-52228935D02*
X164242914Y-53086077D01*
X163004819Y-51705125D02*
X163004819Y-51609887D01*
X163004819Y-51609887D02*
X163052438Y-51514649D01*
X163052438Y-51514649D02*
X163100057Y-51467030D01*
X163100057Y-51467030D02*
X163195295Y-51419411D01*
X163195295Y-51419411D02*
X163385771Y-51371792D01*
X163385771Y-51371792D02*
X163623866Y-51371792D01*
X163623866Y-51371792D02*
X163814342Y-51419411D01*
X163814342Y-51419411D02*
X163909580Y-51467030D01*
X163909580Y-51467030D02*
X163957200Y-51514649D01*
X163957200Y-51514649D02*
X164004819Y-51609887D01*
X164004819Y-51609887D02*
X164004819Y-51705125D01*
X164004819Y-51705125D02*
X163957200Y-51800363D01*
X163957200Y-51800363D02*
X163909580Y-51847982D01*
X163909580Y-51847982D02*
X163814342Y-51895601D01*
X163814342Y-51895601D02*
X163623866Y-51943220D01*
X163623866Y-51943220D02*
X163385771Y-51943220D01*
X163385771Y-51943220D02*
X163195295Y-51895601D01*
X163195295Y-51895601D02*
X163100057Y-51847982D01*
X163100057Y-51847982D02*
X163052438Y-51800363D01*
X163052438Y-51800363D02*
X163004819Y-51705125D01*
X114565333Y-92326819D02*
X114232000Y-91850628D01*
X113993905Y-92326819D02*
X113993905Y-91326819D01*
X113993905Y-91326819D02*
X114374857Y-91326819D01*
X114374857Y-91326819D02*
X114470095Y-91374438D01*
X114470095Y-91374438D02*
X114517714Y-91422057D01*
X114517714Y-91422057D02*
X114565333Y-91517295D01*
X114565333Y-91517295D02*
X114565333Y-91660152D01*
X114565333Y-91660152D02*
X114517714Y-91755390D01*
X114517714Y-91755390D02*
X114470095Y-91803009D01*
X114470095Y-91803009D02*
X114374857Y-91850628D01*
X114374857Y-91850628D02*
X113993905Y-91850628D01*
X114898667Y-91326819D02*
X115517714Y-91326819D01*
X115517714Y-91326819D02*
X115184381Y-91707771D01*
X115184381Y-91707771D02*
X115327238Y-91707771D01*
X115327238Y-91707771D02*
X115422476Y-91755390D01*
X115422476Y-91755390D02*
X115470095Y-91803009D01*
X115470095Y-91803009D02*
X115517714Y-91898247D01*
X115517714Y-91898247D02*
X115517714Y-92136342D01*
X115517714Y-92136342D02*
X115470095Y-92231580D01*
X115470095Y-92231580D02*
X115422476Y-92279200D01*
X115422476Y-92279200D02*
X115327238Y-92326819D01*
X115327238Y-92326819D02*
X115041524Y-92326819D01*
X115041524Y-92326819D02*
X114946286Y-92279200D01*
X114946286Y-92279200D02*
X114898667Y-92231580D01*
X114565333Y-90294819D02*
X114232000Y-89818628D01*
X113993905Y-90294819D02*
X113993905Y-89294819D01*
X113993905Y-89294819D02*
X114374857Y-89294819D01*
X114374857Y-89294819D02*
X114470095Y-89342438D01*
X114470095Y-89342438D02*
X114517714Y-89390057D01*
X114517714Y-89390057D02*
X114565333Y-89485295D01*
X114565333Y-89485295D02*
X114565333Y-89628152D01*
X114565333Y-89628152D02*
X114517714Y-89723390D01*
X114517714Y-89723390D02*
X114470095Y-89771009D01*
X114470095Y-89771009D02*
X114374857Y-89818628D01*
X114374857Y-89818628D02*
X113993905Y-89818628D01*
X114946286Y-89390057D02*
X114993905Y-89342438D01*
X114993905Y-89342438D02*
X115089143Y-89294819D01*
X115089143Y-89294819D02*
X115327238Y-89294819D01*
X115327238Y-89294819D02*
X115422476Y-89342438D01*
X115422476Y-89342438D02*
X115470095Y-89390057D01*
X115470095Y-89390057D02*
X115517714Y-89485295D01*
X115517714Y-89485295D02*
X115517714Y-89580533D01*
X115517714Y-89580533D02*
X115470095Y-89723390D01*
X115470095Y-89723390D02*
X114898667Y-90294819D01*
X114898667Y-90294819D02*
X115517714Y-90294819D01*
X119155580Y-90045166D02*
X119203200Y-90092785D01*
X119203200Y-90092785D02*
X119250819Y-90235642D01*
X119250819Y-90235642D02*
X119250819Y-90330880D01*
X119250819Y-90330880D02*
X119203200Y-90473737D01*
X119203200Y-90473737D02*
X119107961Y-90568975D01*
X119107961Y-90568975D02*
X119012723Y-90616594D01*
X119012723Y-90616594D02*
X118822247Y-90664213D01*
X118822247Y-90664213D02*
X118679390Y-90664213D01*
X118679390Y-90664213D02*
X118488914Y-90616594D01*
X118488914Y-90616594D02*
X118393676Y-90568975D01*
X118393676Y-90568975D02*
X118298438Y-90473737D01*
X118298438Y-90473737D02*
X118250819Y-90330880D01*
X118250819Y-90330880D02*
X118250819Y-90235642D01*
X118250819Y-90235642D02*
X118298438Y-90092785D01*
X118298438Y-90092785D02*
X118346057Y-90045166D01*
X118250819Y-89711832D02*
X118250819Y-89092785D01*
X118250819Y-89092785D02*
X118631771Y-89426118D01*
X118631771Y-89426118D02*
X118631771Y-89283261D01*
X118631771Y-89283261D02*
X118679390Y-89188023D01*
X118679390Y-89188023D02*
X118727009Y-89140404D01*
X118727009Y-89140404D02*
X118822247Y-89092785D01*
X118822247Y-89092785D02*
X119060342Y-89092785D01*
X119060342Y-89092785D02*
X119155580Y-89140404D01*
X119155580Y-89140404D02*
X119203200Y-89188023D01*
X119203200Y-89188023D02*
X119250819Y-89283261D01*
X119250819Y-89283261D02*
X119250819Y-89568975D01*
X119250819Y-89568975D02*
X119203200Y-89664213D01*
X119203200Y-89664213D02*
X119155580Y-89711832D01*
X104913333Y-86643580D02*
X104865714Y-86691200D01*
X104865714Y-86691200D02*
X104722857Y-86738819D01*
X104722857Y-86738819D02*
X104627619Y-86738819D01*
X104627619Y-86738819D02*
X104484762Y-86691200D01*
X104484762Y-86691200D02*
X104389524Y-86595961D01*
X104389524Y-86595961D02*
X104341905Y-86500723D01*
X104341905Y-86500723D02*
X104294286Y-86310247D01*
X104294286Y-86310247D02*
X104294286Y-86167390D01*
X104294286Y-86167390D02*
X104341905Y-85976914D01*
X104341905Y-85976914D02*
X104389524Y-85881676D01*
X104389524Y-85881676D02*
X104484762Y-85786438D01*
X104484762Y-85786438D02*
X104627619Y-85738819D01*
X104627619Y-85738819D02*
X104722857Y-85738819D01*
X104722857Y-85738819D02*
X104865714Y-85786438D01*
X104865714Y-85786438D02*
X104913333Y-85834057D01*
X105294286Y-85834057D02*
X105341905Y-85786438D01*
X105341905Y-85786438D02*
X105437143Y-85738819D01*
X105437143Y-85738819D02*
X105675238Y-85738819D01*
X105675238Y-85738819D02*
X105770476Y-85786438D01*
X105770476Y-85786438D02*
X105818095Y-85834057D01*
X105818095Y-85834057D02*
X105865714Y-85929295D01*
X105865714Y-85929295D02*
X105865714Y-86024533D01*
X105865714Y-86024533D02*
X105818095Y-86167390D01*
X105818095Y-86167390D02*
X105246667Y-86738819D01*
X105246667Y-86738819D02*
X105865714Y-86738819D01*
X101698666Y-79134819D02*
X101698666Y-79849104D01*
X101698666Y-79849104D02*
X101651047Y-79991961D01*
X101651047Y-79991961D02*
X101555809Y-80087200D01*
X101555809Y-80087200D02*
X101412952Y-80134819D01*
X101412952Y-80134819D02*
X101317714Y-80134819D01*
X102651047Y-79134819D02*
X102174857Y-79134819D01*
X102174857Y-79134819D02*
X102127238Y-79611009D01*
X102127238Y-79611009D02*
X102174857Y-79563390D01*
X102174857Y-79563390D02*
X102270095Y-79515771D01*
X102270095Y-79515771D02*
X102508190Y-79515771D01*
X102508190Y-79515771D02*
X102603428Y-79563390D01*
X102603428Y-79563390D02*
X102651047Y-79611009D01*
X102651047Y-79611009D02*
X102698666Y-79706247D01*
X102698666Y-79706247D02*
X102698666Y-79944342D01*
X102698666Y-79944342D02*
X102651047Y-80039580D01*
X102651047Y-80039580D02*
X102603428Y-80087200D01*
X102603428Y-80087200D02*
X102508190Y-80134819D01*
X102508190Y-80134819D02*
X102270095Y-80134819D01*
X102270095Y-80134819D02*
X102174857Y-80087200D01*
X102174857Y-80087200D02*
X102127238Y-80039580D01*
X104826095Y-97422819D02*
X104826095Y-98232342D01*
X104826095Y-98232342D02*
X104873714Y-98327580D01*
X104873714Y-98327580D02*
X104921333Y-98375200D01*
X104921333Y-98375200D02*
X105016571Y-98422819D01*
X105016571Y-98422819D02*
X105207047Y-98422819D01*
X105207047Y-98422819D02*
X105302285Y-98375200D01*
X105302285Y-98375200D02*
X105349904Y-98327580D01*
X105349904Y-98327580D02*
X105397523Y-98232342D01*
X105397523Y-98232342D02*
X105397523Y-97422819D01*
X106302285Y-97756152D02*
X106302285Y-98422819D01*
X106064190Y-97375200D02*
X105826095Y-98089485D01*
X105826095Y-98089485D02*
X106445142Y-98089485D01*
X119558095Y-85230819D02*
X119558095Y-86040342D01*
X119558095Y-86040342D02*
X119605714Y-86135580D01*
X119605714Y-86135580D02*
X119653333Y-86183200D01*
X119653333Y-86183200D02*
X119748571Y-86230819D01*
X119748571Y-86230819D02*
X119939047Y-86230819D01*
X119939047Y-86230819D02*
X120034285Y-86183200D01*
X120034285Y-86183200D02*
X120081904Y-86135580D01*
X120081904Y-86135580D02*
X120129523Y-86040342D01*
X120129523Y-86040342D02*
X120129523Y-85230819D01*
X120510476Y-85230819D02*
X121129523Y-85230819D01*
X121129523Y-85230819D02*
X120796190Y-85611771D01*
X120796190Y-85611771D02*
X120939047Y-85611771D01*
X120939047Y-85611771D02*
X121034285Y-85659390D01*
X121034285Y-85659390D02*
X121081904Y-85707009D01*
X121081904Y-85707009D02*
X121129523Y-85802247D01*
X121129523Y-85802247D02*
X121129523Y-86040342D01*
X121129523Y-86040342D02*
X121081904Y-86135580D01*
X121081904Y-86135580D02*
X121034285Y-86183200D01*
X121034285Y-86183200D02*
X120939047Y-86230819D01*
X120939047Y-86230819D02*
X120653333Y-86230819D01*
X120653333Y-86230819D02*
X120558095Y-86183200D01*
X120558095Y-86183200D02*
X120510476Y-86135580D01*
X149998095Y-87547319D02*
X149998095Y-88356842D01*
X149998095Y-88356842D02*
X150045714Y-88452080D01*
X150045714Y-88452080D02*
X150093333Y-88499700D01*
X150093333Y-88499700D02*
X150188571Y-88547319D01*
X150188571Y-88547319D02*
X150379047Y-88547319D01*
X150379047Y-88547319D02*
X150474285Y-88499700D01*
X150474285Y-88499700D02*
X150521904Y-88452080D01*
X150521904Y-88452080D02*
X150569523Y-88356842D01*
X150569523Y-88356842D02*
X150569523Y-87547319D01*
X150998095Y-87642557D02*
X151045714Y-87594938D01*
X151045714Y-87594938D02*
X151140952Y-87547319D01*
X151140952Y-87547319D02*
X151379047Y-87547319D01*
X151379047Y-87547319D02*
X151474285Y-87594938D01*
X151474285Y-87594938D02*
X151521904Y-87642557D01*
X151521904Y-87642557D02*
X151569523Y-87737795D01*
X151569523Y-87737795D02*
X151569523Y-87833033D01*
X151569523Y-87833033D02*
X151521904Y-87975890D01*
X151521904Y-87975890D02*
X150950476Y-88547319D01*
X150950476Y-88547319D02*
X151569523Y-88547319D01*
X157618095Y-87547319D02*
X157618095Y-88356842D01*
X157618095Y-88356842D02*
X157665714Y-88452080D01*
X157665714Y-88452080D02*
X157713333Y-88499700D01*
X157713333Y-88499700D02*
X157808571Y-88547319D01*
X157808571Y-88547319D02*
X157999047Y-88547319D01*
X157999047Y-88547319D02*
X158094285Y-88499700D01*
X158094285Y-88499700D02*
X158141904Y-88452080D01*
X158141904Y-88452080D02*
X158189523Y-88356842D01*
X158189523Y-88356842D02*
X158189523Y-87547319D01*
X159189523Y-88547319D02*
X158618095Y-88547319D01*
X158903809Y-88547319D02*
X158903809Y-87547319D01*
X158903809Y-87547319D02*
X158808571Y-87690176D01*
X158808571Y-87690176D02*
X158713333Y-87785414D01*
X158713333Y-87785414D02*
X158618095Y-87833033D01*
X115329819Y-52708333D02*
X116044104Y-52708333D01*
X116044104Y-52708333D02*
X116186961Y-52755952D01*
X116186961Y-52755952D02*
X116282200Y-52851190D01*
X116282200Y-52851190D02*
X116329819Y-52994047D01*
X116329819Y-52994047D02*
X116329819Y-53089285D01*
X115425057Y-52279761D02*
X115377438Y-52232142D01*
X115377438Y-52232142D02*
X115329819Y-52136904D01*
X115329819Y-52136904D02*
X115329819Y-51898809D01*
X115329819Y-51898809D02*
X115377438Y-51803571D01*
X115377438Y-51803571D02*
X115425057Y-51755952D01*
X115425057Y-51755952D02*
X115520295Y-51708333D01*
X115520295Y-51708333D02*
X115615533Y-51708333D01*
X115615533Y-51708333D02*
X115758390Y-51755952D01*
X115758390Y-51755952D02*
X116329819Y-52327380D01*
X116329819Y-52327380D02*
X116329819Y-51708333D01*
X158779580Y-56351666D02*
X158827200Y-56399285D01*
X158827200Y-56399285D02*
X158874819Y-56542142D01*
X158874819Y-56542142D02*
X158874819Y-56637380D01*
X158874819Y-56637380D02*
X158827200Y-56780237D01*
X158827200Y-56780237D02*
X158731961Y-56875475D01*
X158731961Y-56875475D02*
X158636723Y-56923094D01*
X158636723Y-56923094D02*
X158446247Y-56970713D01*
X158446247Y-56970713D02*
X158303390Y-56970713D01*
X158303390Y-56970713D02*
X158112914Y-56923094D01*
X158112914Y-56923094D02*
X158017676Y-56875475D01*
X158017676Y-56875475D02*
X157922438Y-56780237D01*
X157922438Y-56780237D02*
X157874819Y-56637380D01*
X157874819Y-56637380D02*
X157874819Y-56542142D01*
X157874819Y-56542142D02*
X157922438Y-56399285D01*
X157922438Y-56399285D02*
X157970057Y-56351666D01*
X158874819Y-55399285D02*
X158874819Y-55970713D01*
X158874819Y-55684999D02*
X157874819Y-55684999D01*
X157874819Y-55684999D02*
X158017676Y-55780237D01*
X158017676Y-55780237D02*
X158112914Y-55875475D01*
X158112914Y-55875475D02*
X158160533Y-55970713D01*
X161414819Y-56351666D02*
X160938628Y-56684999D01*
X161414819Y-56923094D02*
X160414819Y-56923094D01*
X160414819Y-56923094D02*
X160414819Y-56542142D01*
X160414819Y-56542142D02*
X160462438Y-56446904D01*
X160462438Y-56446904D02*
X160510057Y-56399285D01*
X160510057Y-56399285D02*
X160605295Y-56351666D01*
X160605295Y-56351666D02*
X160748152Y-56351666D01*
X160748152Y-56351666D02*
X160843390Y-56399285D01*
X160843390Y-56399285D02*
X160891009Y-56446904D01*
X160891009Y-56446904D02*
X160938628Y-56542142D01*
X160938628Y-56542142D02*
X160938628Y-56923094D01*
X161414819Y-55399285D02*
X161414819Y-55970713D01*
X161414819Y-55684999D02*
X160414819Y-55684999D01*
X160414819Y-55684999D02*
X160557676Y-55780237D01*
X160557676Y-55780237D02*
X160652914Y-55875475D01*
X160652914Y-55875475D02*
X160700533Y-55970713D01*
D11*
X154146666Y-71673842D02*
X154328095Y-71734318D01*
X154328095Y-71734318D02*
X154630476Y-71734318D01*
X154630476Y-71734318D02*
X154751428Y-71673842D01*
X154751428Y-71673842D02*
X154811904Y-71613365D01*
X154811904Y-71613365D02*
X154872381Y-71492413D01*
X154872381Y-71492413D02*
X154872381Y-71371461D01*
X154872381Y-71371461D02*
X154811904Y-71250508D01*
X154811904Y-71250508D02*
X154751428Y-71190032D01*
X154751428Y-71190032D02*
X154630476Y-71129556D01*
X154630476Y-71129556D02*
X154388571Y-71069080D01*
X154388571Y-71069080D02*
X154267619Y-71008603D01*
X154267619Y-71008603D02*
X154207142Y-70948127D01*
X154207142Y-70948127D02*
X154146666Y-70827175D01*
X154146666Y-70827175D02*
X154146666Y-70706222D01*
X154146666Y-70706222D02*
X154207142Y-70585270D01*
X154207142Y-70585270D02*
X154267619Y-70524794D01*
X154267619Y-70524794D02*
X154388571Y-70464318D01*
X154388571Y-70464318D02*
X154690952Y-70464318D01*
X154690952Y-70464318D02*
X154872381Y-70524794D01*
X155295714Y-70464318D02*
X155598095Y-71734318D01*
X155598095Y-71734318D02*
X155840000Y-70827175D01*
X155840000Y-70827175D02*
X156081905Y-71734318D01*
X156081905Y-71734318D02*
X156384286Y-70464318D01*
X157533334Y-71734318D02*
X156807619Y-71734318D01*
X157170476Y-71734318D02*
X157170476Y-70464318D01*
X157170476Y-70464318D02*
X157049524Y-70645746D01*
X157049524Y-70645746D02*
X156928572Y-70766699D01*
X156928572Y-70766699D02*
X156807619Y-70827175D01*
D12*
%TO.C,G\u002A\u002A\u002A*%
G36*
X105351581Y-53851120D02*
G01*
X105570430Y-53856271D01*
X105763046Y-53863488D01*
X105931721Y-53873010D01*
X106078750Y-53885079D01*
X106206429Y-53899933D01*
X106317051Y-53917814D01*
X106412911Y-53938960D01*
X106496304Y-53963613D01*
X106525113Y-53973918D01*
X106573170Y-53996789D01*
X106623344Y-54028293D01*
X106669240Y-54063389D01*
X106704463Y-54097039D01*
X106722618Y-54124205D01*
X106723781Y-54130456D01*
X106709871Y-54148274D01*
X106668918Y-54170287D01*
X106602085Y-54196042D01*
X106510535Y-54225089D01*
X106402172Y-54255204D01*
X106312454Y-54278698D01*
X106233904Y-54298549D01*
X106163099Y-54315080D01*
X106096614Y-54328613D01*
X106031026Y-54339471D01*
X105962913Y-54347976D01*
X105888850Y-54354451D01*
X105805416Y-54359218D01*
X105709185Y-54362599D01*
X105596736Y-54364917D01*
X105464644Y-54366495D01*
X105309487Y-54367654D01*
X105201496Y-54368297D01*
X105056935Y-54368846D01*
X104916445Y-54368851D01*
X104783556Y-54368348D01*
X104661797Y-54367372D01*
X104554695Y-54365960D01*
X104465781Y-54364149D01*
X104398583Y-54361975D01*
X104358165Y-54359615D01*
X104140529Y-54330622D01*
X103913279Y-54282160D01*
X103762407Y-54240367D01*
X103651539Y-54205412D01*
X103566948Y-54175351D01*
X103506945Y-54149168D01*
X103469838Y-54125846D01*
X103453935Y-54104369D01*
X103457546Y-54083720D01*
X103473733Y-54066810D01*
X103526837Y-54032476D01*
X103597223Y-53997091D01*
X103674198Y-53965490D01*
X103747068Y-53942505D01*
X103750680Y-53941603D01*
X103859452Y-53919553D01*
X103994020Y-53900196D01*
X104151703Y-53883683D01*
X104329822Y-53870165D01*
X104525700Y-53859794D01*
X104736655Y-53852721D01*
X104960010Y-53849098D01*
X105193084Y-53849077D01*
X105351581Y-53851120D01*
G37*
G36*
X105422178Y-48568980D02*
G01*
X105476505Y-48594475D01*
X105543409Y-48643335D01*
X105621898Y-48714946D01*
X105624492Y-48717510D01*
X105738329Y-48848705D01*
X105828143Y-48992228D01*
X105882752Y-49117857D01*
X105902606Y-49198543D01*
X105913757Y-49298055D01*
X105916209Y-49408003D01*
X105909964Y-49519999D01*
X105895025Y-49625652D01*
X105882557Y-49680059D01*
X105848027Y-49786168D01*
X105799131Y-49900311D01*
X105734684Y-50024530D01*
X105653500Y-50160869D01*
X105554395Y-50311368D01*
X105436183Y-50478069D01*
X105359221Y-50581891D01*
X105304740Y-50653842D01*
X105264142Y-50705592D01*
X105234516Y-50740059D01*
X105212948Y-50760164D01*
X105196525Y-50768826D01*
X105182336Y-50768962D01*
X105174876Y-50766634D01*
X105159749Y-50756093D01*
X105147656Y-50735540D01*
X105138335Y-50702334D01*
X105131528Y-50653834D01*
X105126975Y-50587401D01*
X105124418Y-50500392D01*
X105123596Y-50390167D01*
X105124250Y-50254086D01*
X105124274Y-50251353D01*
X105125211Y-50128445D01*
X105125292Y-50031308D01*
X105124046Y-49957144D01*
X105121001Y-49903157D01*
X105115687Y-49866547D01*
X105107632Y-49844518D01*
X105096365Y-49834272D01*
X105081414Y-49833011D01*
X105062309Y-49837937D01*
X105055059Y-49840427D01*
X105015677Y-49854279D01*
X105020974Y-50300386D01*
X105022356Y-50431688D01*
X105022871Y-50537217D01*
X105022240Y-50619770D01*
X105020184Y-50682141D01*
X105016425Y-50727123D01*
X105010685Y-50757510D01*
X105002683Y-50776098D01*
X104992142Y-50785680D01*
X104978783Y-50789050D01*
X104972214Y-50789285D01*
X104957812Y-50778315D01*
X104930095Y-50748025D01*
X104892362Y-50702349D01*
X104847910Y-50645217D01*
X104819435Y-50607142D01*
X104684739Y-50419293D01*
X104570372Y-50248175D01*
X104475329Y-50091497D01*
X104398607Y-49946969D01*
X104339205Y-49812300D01*
X104296118Y-49685200D01*
X104268343Y-49563377D01*
X104254879Y-49444541D01*
X104254721Y-49326401D01*
X104255165Y-49318388D01*
X104271421Y-49183677D01*
X104305060Y-49064825D01*
X104358987Y-48955205D01*
X104436107Y-48848193D01*
X104486051Y-48791685D01*
X104531427Y-48747376D01*
X104585546Y-48700969D01*
X104642809Y-48656539D01*
X104697616Y-48618158D01*
X104744371Y-48589901D01*
X104777474Y-48575840D01*
X104783848Y-48575000D01*
X104800269Y-48584634D01*
X104832110Y-48610943D01*
X104874947Y-48650031D01*
X104924355Y-48698005D01*
X104929915Y-48703571D01*
X104980196Y-48752361D01*
X105024930Y-48792646D01*
X105059533Y-48820511D01*
X105079420Y-48832039D01*
X105080427Y-48832142D01*
X105098557Y-48822413D01*
X105131718Y-48795864D01*
X105175321Y-48756458D01*
X105224777Y-48708156D01*
X105228855Y-48704020D01*
X105279172Y-48654271D01*
X105324462Y-48612103D01*
X105359927Y-48581811D01*
X105380770Y-48567689D01*
X105381418Y-48567460D01*
X105422178Y-48568980D01*
G37*
G36*
X104831821Y-51199157D02*
G01*
X104849344Y-51218542D01*
X104845158Y-51252484D01*
X104819711Y-51297483D01*
X104819138Y-51298267D01*
X104711431Y-51442506D01*
X104615639Y-51564795D01*
X104529472Y-51667981D01*
X104455715Y-51749559D01*
X104390937Y-51819873D01*
X104345520Y-51874061D01*
X104317610Y-51915146D01*
X104305352Y-51946152D01*
X104306893Y-51970103D01*
X104313267Y-51981803D01*
X104339547Y-51999808D01*
X104358879Y-52001402D01*
X104368203Y-51998202D01*
X104379706Y-51990499D01*
X104395343Y-51976011D01*
X104417065Y-51952453D01*
X104446825Y-51917543D01*
X104486575Y-51868995D01*
X104538268Y-51804527D01*
X104603857Y-51721855D01*
X104675629Y-51630953D01*
X104762738Y-51523680D01*
X104836024Y-51440512D01*
X104896139Y-51380916D01*
X104943735Y-51344359D01*
X104979465Y-51330309D01*
X105003983Y-51338233D01*
X105014148Y-51354739D01*
X105018343Y-51380764D01*
X105021341Y-51430620D01*
X105023210Y-51499593D01*
X105024014Y-51582972D01*
X105023818Y-51676044D01*
X105022689Y-51774094D01*
X105020692Y-51872412D01*
X105017892Y-51966284D01*
X105014355Y-52050997D01*
X105010146Y-52121838D01*
X105005331Y-52174095D01*
X105002496Y-52192958D01*
X104970430Y-52319154D01*
X104922231Y-52454493D01*
X104862140Y-52588070D01*
X104815216Y-52674778D01*
X104749638Y-52772531D01*
X104670062Y-52868943D01*
X104582563Y-52957889D01*
X104493218Y-53033243D01*
X104408102Y-53088878D01*
X104400514Y-53092885D01*
X104280073Y-53145625D01*
X104146892Y-53188041D01*
X104013217Y-53216700D01*
X103922205Y-53226972D01*
X103861853Y-53229963D01*
X103822348Y-53229226D01*
X103796061Y-53223524D01*
X103775361Y-53211621D01*
X103762572Y-53201095D01*
X103746256Y-53185449D01*
X103735163Y-53168361D01*
X103728030Y-53144017D01*
X103723592Y-53106604D01*
X103720584Y-53050307D01*
X103718755Y-52999574D01*
X103715709Y-52916758D01*
X103710307Y-52857900D01*
X103698451Y-52820026D01*
X103676044Y-52800165D01*
X103638987Y-52795342D01*
X103583184Y-52802586D01*
X103504536Y-52818925D01*
X103477760Y-52824746D01*
X103394987Y-52842061D01*
X103335178Y-52852071D01*
X103293518Y-52854217D01*
X103265193Y-52847939D01*
X103245386Y-52832678D01*
X103229282Y-52807875D01*
X103222777Y-52795110D01*
X103198328Y-52726879D01*
X103179962Y-52637730D01*
X103168227Y-52534775D01*
X103163670Y-52425128D01*
X103166838Y-52315899D01*
X103178141Y-52215036D01*
X103213625Y-52079422D01*
X103274307Y-51943776D01*
X103357316Y-51813487D01*
X103450511Y-51703429D01*
X103518646Y-51637535D01*
X103588595Y-51580455D01*
X103663984Y-51530564D01*
X103748440Y-51486233D01*
X103845589Y-51445835D01*
X103959057Y-51407744D01*
X104092471Y-51370331D01*
X104249456Y-51331971D01*
X104308137Y-51318582D01*
X104401504Y-51297207D01*
X104494728Y-51275200D01*
X104580487Y-51254338D01*
X104651460Y-51236395D01*
X104692457Y-51225396D01*
X104748895Y-51210941D01*
X104796049Y-51201454D01*
X104826331Y-51198363D01*
X104831821Y-51199157D01*
G37*
G36*
X106826989Y-49628162D02*
G01*
X107001956Y-49660347D01*
X107139546Y-49701513D01*
X107232641Y-49737645D01*
X107298994Y-49772637D01*
X107328908Y-49796113D01*
X107339909Y-49812013D01*
X107342725Y-49833233D01*
X107336169Y-49864121D01*
X107319054Y-49909025D01*
X107290194Y-49972294D01*
X107268588Y-50017101D01*
X107242610Y-50073763D01*
X107222499Y-50124035D01*
X107211199Y-50160248D01*
X107209769Y-50170306D01*
X107214609Y-50190728D01*
X107231425Y-50209927D01*
X107263661Y-50229800D01*
X107314760Y-50252243D01*
X107388165Y-50279153D01*
X107438455Y-50296265D01*
X107574259Y-50341689D01*
X107578586Y-50399804D01*
X107574868Y-50471027D01*
X107555987Y-50557617D01*
X107523991Y-50652126D01*
X107485550Y-50738048D01*
X107396756Y-50886098D01*
X107290233Y-51012065D01*
X107164979Y-51116815D01*
X107019995Y-51201214D01*
X106888159Y-51254995D01*
X106842221Y-51269954D01*
X106801012Y-51280737D01*
X106758079Y-51288145D01*
X106706965Y-51292977D01*
X106641214Y-51296034D01*
X106554373Y-51298116D01*
X106537962Y-51298415D01*
X106405463Y-51298776D01*
X106298756Y-51294599D01*
X106215390Y-51285770D01*
X106194912Y-51282263D01*
X106148440Y-51272537D01*
X106080278Y-51257061D01*
X105996411Y-51237256D01*
X105902823Y-51214538D01*
X105805498Y-51190328D01*
X105780393Y-51183983D01*
X105688383Y-51160897D01*
X105603538Y-51140082D01*
X105530528Y-51122647D01*
X105474024Y-51109699D01*
X105438697Y-51102346D01*
X105431638Y-51101231D01*
X105392185Y-51088449D01*
X105371007Y-51065147D01*
X105372132Y-51037461D01*
X105381438Y-51024751D01*
X105410727Y-51004736D01*
X105464563Y-50977600D01*
X105540130Y-50944500D01*
X105634613Y-50906593D01*
X105745198Y-50865037D01*
X105869070Y-50820989D01*
X105917510Y-50804359D01*
X106019766Y-50768627D01*
X106097473Y-50738934D01*
X106153620Y-50713648D01*
X106191194Y-50691136D01*
X106213186Y-50669766D01*
X106222583Y-50647906D01*
X106223500Y-50637254D01*
X106211954Y-50614893D01*
X106201850Y-50608657D01*
X106182341Y-50611062D01*
X106140021Y-50622643D01*
X106078664Y-50642070D01*
X106002044Y-50668012D01*
X105913935Y-50699142D01*
X105818111Y-50734130D01*
X105718347Y-50771645D01*
X105618416Y-50810359D01*
X105537399Y-50842714D01*
X105457334Y-50874808D01*
X105399404Y-50896805D01*
X105359460Y-50909847D01*
X105333356Y-50915075D01*
X105316942Y-50913631D01*
X105306072Y-50906658D01*
X105305876Y-50906463D01*
X105299802Y-50898806D01*
X105297363Y-50888985D01*
X105299977Y-50874483D01*
X105309061Y-50852783D01*
X105326031Y-50821367D01*
X105352307Y-50777719D01*
X105389305Y-50719321D01*
X105438442Y-50643656D01*
X105501137Y-50548207D01*
X105545451Y-50480998D01*
X105618246Y-50371527D01*
X105679043Y-50282348D01*
X105730877Y-50209449D01*
X105776781Y-50148818D01*
X105819788Y-50096443D01*
X105862931Y-50048313D01*
X105907586Y-50002084D01*
X106052717Y-49870450D01*
X106199110Y-49767024D01*
X106348250Y-49691444D01*
X106501620Y-49643349D01*
X106660705Y-49622375D01*
X106826989Y-49628162D01*
G37*
G36*
X103547068Y-49624926D02*
G01*
X103657741Y-49644494D01*
X103767766Y-49674098D01*
X103812371Y-49689528D01*
X103929862Y-49746358D01*
X104049964Y-49830090D01*
X104173072Y-49941076D01*
X104299580Y-50079667D01*
X104415115Y-50226196D01*
X104474352Y-50305634D01*
X104541426Y-50395117D01*
X104607988Y-50483532D01*
X104664286Y-50557918D01*
X104732376Y-50647894D01*
X104784816Y-50718192D01*
X104823538Y-50771669D01*
X104850469Y-50811179D01*
X104867538Y-50839577D01*
X104876676Y-50859718D01*
X104879811Y-50874458D01*
X104879887Y-50877008D01*
X104870418Y-50903667D01*
X104859165Y-50912415D01*
X104838668Y-50909882D01*
X104793938Y-50896887D01*
X104727032Y-50874189D01*
X104640007Y-50842547D01*
X104534922Y-50802719D01*
X104413832Y-50755463D01*
X104278797Y-50701539D01*
X104194154Y-50667203D01*
X104113056Y-50635740D01*
X104053039Y-50617090D01*
X104009776Y-50610971D01*
X103978941Y-50617098D01*
X103956208Y-50635189D01*
X103945127Y-50650894D01*
X103939293Y-50667872D01*
X103944847Y-50684543D01*
X103964280Y-50702197D01*
X104000084Y-50722125D01*
X104054749Y-50745617D01*
X104130766Y-50773964D01*
X104230626Y-50808456D01*
X104283320Y-50826098D01*
X104426460Y-50874332D01*
X104543473Y-50915182D01*
X104635699Y-50949173D01*
X104704482Y-50976829D01*
X104751165Y-50998673D01*
X104777090Y-51015231D01*
X104782171Y-51020828D01*
X104791727Y-51043570D01*
X104785542Y-51062517D01*
X104760488Y-51079868D01*
X104713433Y-51097821D01*
X104644040Y-51117828D01*
X104567693Y-51138932D01*
X104477632Y-51164831D01*
X104387366Y-51191601D01*
X104336534Y-51207129D01*
X104257865Y-51230487D01*
X104175428Y-51253250D01*
X104100594Y-51272359D01*
X104057806Y-51282137D01*
X103971724Y-51295775D01*
X103867379Y-51305528D01*
X103754876Y-51311016D01*
X103644325Y-51311859D01*
X103545833Y-51307676D01*
X103500540Y-51303106D01*
X103360947Y-51275752D01*
X103223243Y-51231766D01*
X103093526Y-51173998D01*
X102977895Y-51105297D01*
X102882446Y-51028512D01*
X102856828Y-51002335D01*
X102791616Y-50923632D01*
X102731685Y-50837304D01*
X102678599Y-50747181D01*
X102633922Y-50657088D01*
X102599218Y-50570855D01*
X102576050Y-50492309D01*
X102565983Y-50425278D01*
X102570580Y-50373588D01*
X102587851Y-50343965D01*
X102613509Y-50329607D01*
X102658742Y-50312152D01*
X102715215Y-50294688D01*
X102735303Y-50289345D01*
X102797297Y-50272652D01*
X102854518Y-50255664D01*
X102896832Y-50241433D01*
X102904442Y-50238435D01*
X102936021Y-50222512D01*
X102946842Y-50204165D01*
X102943376Y-50172262D01*
X102943256Y-50171661D01*
X102933281Y-50139331D01*
X102913785Y-50089134D01*
X102887903Y-50028823D01*
X102867686Y-49984785D01*
X102836729Y-49917311D01*
X102818909Y-49869571D01*
X102814496Y-49835787D01*
X102823754Y-49810183D01*
X102846953Y-49786981D01*
X102877855Y-49764816D01*
X102939014Y-49731879D01*
X103021335Y-49699837D01*
X103117410Y-49670599D01*
X103219832Y-49646073D01*
X103321193Y-49628168D01*
X103414086Y-49618792D01*
X103448249Y-49617857D01*
X103547068Y-49624926D01*
G37*
G36*
X105379241Y-51193818D02*
G01*
X105438269Y-51205237D01*
X105520069Y-51225455D01*
X105543362Y-51231622D01*
X105618792Y-51250882D01*
X105711222Y-51273126D01*
X105809613Y-51295767D01*
X105902929Y-51316215D01*
X105914329Y-51318623D01*
X106072948Y-51355658D01*
X106208575Y-51395985D01*
X106326785Y-51441845D01*
X106433156Y-51495483D01*
X106533263Y-51559142D01*
X106559930Y-51578330D01*
X106666954Y-51671780D01*
X106765686Y-51785972D01*
X106850550Y-51913205D01*
X106915968Y-52045778D01*
X106934352Y-52095308D01*
X106948956Y-52140853D01*
X106959374Y-52180850D01*
X106966318Y-52221684D01*
X106970499Y-52269743D01*
X106972628Y-52331410D01*
X106973417Y-52413071D01*
X106973506Y-52446809D01*
X106973445Y-52534861D01*
X106972481Y-52599720D01*
X106969982Y-52646762D01*
X106965316Y-52681365D01*
X106957849Y-52708904D01*
X106946949Y-52734757D01*
X106937368Y-52753896D01*
X106908395Y-52801450D01*
X106876536Y-52830503D01*
X106835435Y-52843385D01*
X106778734Y-52842428D01*
X106719920Y-52833632D01*
X106633295Y-52818729D01*
X106570239Y-52809610D01*
X106526386Y-52805996D01*
X106497370Y-52807604D01*
X106478825Y-52814153D01*
X106473756Y-52817761D01*
X106464080Y-52831939D01*
X106457645Y-52858554D01*
X106453913Y-52902282D01*
X106452343Y-52967801D01*
X106452200Y-53004991D01*
X106451977Y-53076912D01*
X106450599Y-53125764D01*
X106447004Y-53157046D01*
X106440127Y-53176259D01*
X106428906Y-53188904D01*
X106414720Y-53198885D01*
X106365705Y-53217706D01*
X106295415Y-53226143D01*
X106209285Y-53223993D01*
X106112753Y-53211049D01*
X106109150Y-53210379D01*
X105937041Y-53165083D01*
X105780969Y-53096669D01*
X105640444Y-53004741D01*
X105514978Y-52888899D01*
X105404081Y-52748748D01*
X105307263Y-52583889D01*
X105286836Y-52542224D01*
X105255972Y-52473851D01*
X105229935Y-52407625D01*
X105208162Y-52340070D01*
X105190091Y-52267712D01*
X105175159Y-52187075D01*
X105162804Y-52094685D01*
X105152464Y-51987066D01*
X105143575Y-51860745D01*
X105135576Y-51712246D01*
X105129134Y-51567857D01*
X105126105Y-51470967D01*
X105126743Y-51399470D01*
X105131777Y-51350339D01*
X105141936Y-51320548D01*
X105157950Y-51307069D01*
X105180547Y-51306875D01*
X105191306Y-51309748D01*
X105211232Y-51324106D01*
X105246635Y-51358186D01*
X105295182Y-51409362D01*
X105354544Y-51475005D01*
X105422390Y-51552486D01*
X105496388Y-51639178D01*
X105574207Y-51732452D01*
X105653516Y-51829680D01*
X105664123Y-51842857D01*
X105712441Y-51902486D01*
X105747317Y-51943254D01*
X105773007Y-51968741D01*
X105793766Y-51982522D01*
X105813850Y-51988178D01*
X105837514Y-51989285D01*
X105838271Y-51989285D01*
X105873819Y-51986511D01*
X105893412Y-51979592D01*
X105894743Y-51976926D01*
X105889644Y-51962512D01*
X105873111Y-51937590D01*
X105843295Y-51899872D01*
X105798346Y-51847068D01*
X105736412Y-51776891D01*
X105701672Y-51738103D01*
X105641596Y-51669407D01*
X105579421Y-51595068D01*
X105517755Y-51518557D01*
X105459209Y-51443347D01*
X105406391Y-51372910D01*
X105361911Y-51310718D01*
X105328377Y-51260244D01*
X105308399Y-51224960D01*
X105304156Y-51209085D01*
X105315649Y-51196068D01*
X105339523Y-51190870D01*
X105379241Y-51193818D01*
G37*
G36*
X105407336Y-47703088D02*
G01*
X105754150Y-47743406D01*
X106091263Y-47810233D01*
X106418088Y-47903367D01*
X106734036Y-48022606D01*
X107038517Y-48167748D01*
X107330945Y-48338592D01*
X107610728Y-48534934D01*
X107684914Y-48593004D01*
X107775697Y-48669579D01*
X107878180Y-48762514D01*
X107986280Y-48865798D01*
X108093912Y-48973422D01*
X108194991Y-49079376D01*
X108283434Y-49177651D01*
X108317562Y-49217857D01*
X108461873Y-49406708D01*
X108601319Y-49617844D01*
X108732657Y-49845022D01*
X108852640Y-50082002D01*
X108958025Y-50322541D01*
X109045565Y-50560399D01*
X109088738Y-50701228D01*
X109165715Y-51018947D01*
X109216915Y-51335312D01*
X109242883Y-51655390D01*
X109244163Y-51984247D01*
X109238986Y-52100471D01*
X109228741Y-52258601D01*
X109216606Y-52395764D01*
X109201534Y-52519550D01*
X109182478Y-52637550D01*
X109158392Y-52757356D01*
X109133718Y-52864073D01*
X109041983Y-53182869D01*
X108923734Y-53491067D01*
X108778960Y-53788687D01*
X108607646Y-54075749D01*
X108409780Y-54352274D01*
X108185349Y-54618281D01*
X107934339Y-54873790D01*
X107685036Y-55095340D01*
X107567112Y-55193843D01*
X107566799Y-55780850D01*
X107566706Y-55934284D01*
X107566297Y-56061981D01*
X107565109Y-56166776D01*
X107562678Y-56251502D01*
X107558539Y-56318995D01*
X107552229Y-56372088D01*
X107543283Y-56413615D01*
X107531238Y-56446412D01*
X107515631Y-56473312D01*
X107495996Y-56497150D01*
X107471871Y-56520759D01*
X107442791Y-56546975D01*
X107441167Y-56548434D01*
X107343627Y-56622069D01*
X107218860Y-56692617D01*
X107068098Y-56759672D01*
X106892574Y-56822830D01*
X106693523Y-56881686D01*
X106472177Y-56935836D01*
X106229770Y-56984874D01*
X105987653Y-57025365D01*
X105902041Y-57037714D01*
X105824095Y-57047227D01*
X105747425Y-57054335D01*
X105665641Y-57059467D01*
X105572354Y-57063056D01*
X105461175Y-57065531D01*
X105373021Y-57066786D01*
X105264331Y-57067829D01*
X105157498Y-57068351D01*
X105058218Y-57068362D01*
X104972187Y-57067872D01*
X104905100Y-57066890D01*
X104872740Y-57065927D01*
X104718511Y-57058043D01*
X104556561Y-57047138D01*
X104391527Y-57033707D01*
X104228050Y-57018248D01*
X104070767Y-57001254D01*
X103924317Y-56983222D01*
X103793339Y-56964647D01*
X103682472Y-56946025D01*
X103609467Y-56930984D01*
X103440233Y-56887515D01*
X103279375Y-56838072D01*
X103129993Y-56784025D01*
X102995189Y-56726744D01*
X102878063Y-56667600D01*
X102781717Y-56607962D01*
X102709253Y-56549200D01*
X102684304Y-56522248D01*
X102662657Y-56495665D01*
X102644728Y-56471624D01*
X102630162Y-56447242D01*
X102618606Y-56419635D01*
X102609702Y-56385921D01*
X102604031Y-56349251D01*
X102778705Y-56349251D01*
X102821905Y-56389583D01*
X102860963Y-56418636D01*
X102920627Y-56453972D01*
X102994517Y-56492443D01*
X103076255Y-56530897D01*
X103159462Y-56566186D01*
X103237759Y-56595159D01*
X103239222Y-56595650D01*
X103316586Y-56620755D01*
X103399739Y-56646449D01*
X103483345Y-56671223D01*
X103562070Y-56693568D01*
X103630577Y-56711979D01*
X103683532Y-56724945D01*
X103715599Y-56730961D01*
X103718835Y-56731192D01*
X103751311Y-56732142D01*
X103748080Y-56509733D01*
X103936499Y-56509733D01*
X103937361Y-56609049D01*
X103940054Y-56682119D01*
X103944739Y-56731215D01*
X103951575Y-56758614D01*
X103954366Y-56763327D01*
X103973894Y-56775920D01*
X104013111Y-56788061D01*
X104073980Y-56800104D01*
X104158463Y-56812405D01*
X104268524Y-56825317D01*
X104336724Y-56832412D01*
X104659362Y-56858862D01*
X104965318Y-56871241D01*
X105262680Y-56869740D01*
X105484350Y-56859658D01*
X105629379Y-56849612D01*
X105763798Y-56838343D01*
X105884880Y-56826200D01*
X105989898Y-56813531D01*
X106076123Y-56800685D01*
X106140828Y-56788010D01*
X106181285Y-56775856D01*
X106192605Y-56769142D01*
X106201617Y-56756373D01*
X106208073Y-56736001D01*
X106212373Y-56703671D01*
X106214918Y-56655032D01*
X106216108Y-56585731D01*
X106216353Y-56510918D01*
X106215499Y-56424174D01*
X106213092Y-56352106D01*
X106212680Y-56346217D01*
X106394269Y-56346217D01*
X106394784Y-56426766D01*
X106395025Y-56483458D01*
X106395025Y-56749672D01*
X106459282Y-56740042D01*
X106497478Y-56732839D01*
X106555786Y-56720060D01*
X106626681Y-56703427D01*
X106702635Y-56684660D01*
X106712996Y-56682024D01*
X106861551Y-56641849D01*
X106985033Y-56603269D01*
X107086800Y-56564919D01*
X107170213Y-56525432D01*
X107238631Y-56483442D01*
X107279704Y-56451568D01*
X107315312Y-56418609D01*
X107341552Y-56386095D01*
X107359826Y-56348966D01*
X107371532Y-56302166D01*
X107378072Y-56240636D01*
X107380844Y-56159319D01*
X107381294Y-56084518D01*
X107381294Y-55862640D01*
X107258791Y-55925113D01*
X107179391Y-55961669D01*
X107078368Y-56002063D01*
X106962042Y-56044097D01*
X106836731Y-56085573D01*
X106708756Y-56124292D01*
X106602284Y-56153477D01*
X106531087Y-56171193D01*
X106478195Y-56185052D01*
X106440921Y-56199333D01*
X106416578Y-56218312D01*
X106402480Y-56246268D01*
X106395939Y-56287477D01*
X106394269Y-56346217D01*
X106212680Y-56346217D01*
X106209362Y-56298734D01*
X106204543Y-56268080D01*
X106202059Y-56262747D01*
X106180037Y-56257001D01*
X106133735Y-56256229D01*
X106067030Y-56260475D01*
X106059121Y-56261203D01*
X105749989Y-56287449D01*
X105463831Y-56305428D01*
X105196263Y-56315149D01*
X104942899Y-56316626D01*
X104699353Y-56309867D01*
X104461240Y-56294887D01*
X104224173Y-56271694D01*
X104176315Y-56266049D01*
X104094271Y-56256649D01*
X104035963Y-56251503D01*
X103996875Y-56250494D01*
X103972492Y-56253504D01*
X103958335Y-56260386D01*
X103949918Y-56272053D01*
X103943898Y-56293649D01*
X103939915Y-56329287D01*
X103937607Y-56383083D01*
X103936615Y-56459151D01*
X103936499Y-56509733D01*
X103748080Y-56509733D01*
X103747422Y-56464475D01*
X103743533Y-56196808D01*
X103543421Y-56143912D01*
X103310272Y-56075309D01*
X103096445Y-55997318D01*
X102918069Y-55918763D01*
X102778705Y-55852275D01*
X102778705Y-56100763D01*
X102778705Y-56349251D01*
X102604031Y-56349251D01*
X102603098Y-56343215D01*
X102598437Y-56288636D01*
X102595365Y-56219299D01*
X102593527Y-56132321D01*
X102593245Y-56100763D01*
X102592567Y-56024819D01*
X102592132Y-55893909D01*
X102591924Y-55771887D01*
X102590962Y-55182142D01*
X102527657Y-55129446D01*
X102776252Y-55129446D01*
X102781052Y-55375240D01*
X102785852Y-55621034D01*
X102834262Y-55661403D01*
X102867766Y-55683879D01*
X102915035Y-55709007D01*
X102968296Y-55733452D01*
X103019775Y-55753878D01*
X103061699Y-55766951D01*
X103086021Y-55769415D01*
X103091543Y-55754077D01*
X103096418Y-55713325D01*
X103100412Y-55650311D01*
X103102249Y-55597958D01*
X103295771Y-55597958D01*
X103296431Y-55671975D01*
X103300427Y-55853571D01*
X103464805Y-55900597D01*
X103572542Y-55929686D01*
X103692161Y-55959016D01*
X103818597Y-55987600D01*
X103946781Y-56014450D01*
X104071646Y-56038578D01*
X104188126Y-56058995D01*
X104291153Y-56074715D01*
X104375659Y-56084749D01*
X104426060Y-56088007D01*
X104479662Y-56089285D01*
X104479662Y-56074341D01*
X104665480Y-56074341D01*
X104702096Y-56098319D01*
X104739756Y-56113228D01*
X104800357Y-56125313D01*
X104862901Y-56132258D01*
X104930125Y-56137556D01*
X104982016Y-56141040D01*
X105026143Y-56142725D01*
X105070079Y-56142624D01*
X105121396Y-56140752D01*
X105187663Y-56137124D01*
X105255954Y-56133002D01*
X105337094Y-56127548D01*
X105394390Y-56122157D01*
X105432571Y-56115991D01*
X105456365Y-56108210D01*
X105470502Y-56097975D01*
X105473479Y-56094417D01*
X105481705Y-56076031D01*
X105487572Y-56043459D01*
X105491386Y-55992945D01*
X105493454Y-55920735D01*
X105494064Y-55842207D01*
X105494077Y-55757156D01*
X105493370Y-55701966D01*
X105651676Y-55701966D01*
X105651743Y-55794605D01*
X105651749Y-55806347D01*
X105652190Y-55905991D01*
X105654407Y-55980527D01*
X105659742Y-56033411D01*
X105669535Y-56068104D01*
X105685129Y-56088063D01*
X105707866Y-56096748D01*
X105739086Y-56097616D01*
X105763977Y-56095683D01*
X105804631Y-56091994D01*
X105865364Y-56086609D01*
X105937771Y-56080270D01*
X106009093Y-56074090D01*
X106139412Y-56060368D01*
X106271643Y-56041896D01*
X106400828Y-56019704D01*
X106522008Y-55994824D01*
X106630227Y-55968286D01*
X106720524Y-55941120D01*
X106787942Y-55914358D01*
X106795393Y-55910640D01*
X106823395Y-55892302D01*
X106843136Y-55867728D01*
X106855970Y-55832058D01*
X106863249Y-55780433D01*
X106866326Y-55707994D01*
X106866719Y-55654427D01*
X106866206Y-55578998D01*
X107052149Y-55578998D01*
X107053407Y-55647809D01*
X107056407Y-55707841D01*
X107061194Y-55752875D01*
X107067092Y-55775486D01*
X107078170Y-55789774D01*
X107094635Y-55794188D01*
X107121643Y-55787650D01*
X107164347Y-55769086D01*
X107212855Y-55745066D01*
X107264760Y-55715255D01*
X107316874Y-55680118D01*
X107327692Y-55671898D01*
X107381294Y-55629742D01*
X107381294Y-55422836D01*
X107381294Y-55215931D01*
X107349133Y-55225129D01*
X107276425Y-55246756D01*
X107206546Y-55269011D01*
X107145370Y-55289876D01*
X107098774Y-55307332D01*
X107072634Y-55319359D01*
X107070405Y-55320913D01*
X107063632Y-55340338D01*
X107058375Y-55382078D01*
X107054679Y-55439914D01*
X107052588Y-55507627D01*
X107052149Y-55578998D01*
X106866206Y-55578998D01*
X106866034Y-55553695D01*
X106862000Y-55478562D01*
X106851642Y-55426056D01*
X106831987Y-55393206D01*
X106800064Y-55377043D01*
X106752899Y-55374596D01*
X106687519Y-55382893D01*
X106609431Y-55397326D01*
X106412781Y-55432703D01*
X106210869Y-55464302D01*
X106015692Y-55490344D01*
X105887596Y-55504501D01*
X105806691Y-55512385D01*
X105746728Y-55520378D01*
X105704583Y-55532480D01*
X105677131Y-55552690D01*
X105661245Y-55585008D01*
X105653802Y-55633433D01*
X105651676Y-55701966D01*
X105493370Y-55701966D01*
X105493292Y-55695859D01*
X105491071Y-55653498D01*
X105486773Y-55625258D01*
X105479757Y-55606321D01*
X105469385Y-55591870D01*
X105459434Y-55581493D01*
X105424349Y-55546428D01*
X105095873Y-55546428D01*
X104975885Y-55546982D01*
X104881298Y-55548882D01*
X104808946Y-55552485D01*
X104755661Y-55558150D01*
X104718273Y-55566234D01*
X104693615Y-55577094D01*
X104678519Y-55591089D01*
X104676711Y-55593750D01*
X104673050Y-55613194D01*
X104669893Y-55655987D01*
X104667472Y-55716905D01*
X104666017Y-55790729D01*
X104665699Y-55842527D01*
X104665480Y-56074341D01*
X104479662Y-56074341D01*
X104479662Y-55824646D01*
X104479856Y-55728464D01*
X104479137Y-55656944D01*
X104475549Y-55606196D01*
X104467136Y-55572329D01*
X104451944Y-55551453D01*
X104428017Y-55539676D01*
X104393401Y-55533110D01*
X104346139Y-55527863D01*
X104329577Y-55526008D01*
X104218960Y-55511126D01*
X104090171Y-55490496D01*
X103952631Y-55465852D01*
X103815757Y-55438931D01*
X103688968Y-55411466D01*
X103623532Y-55395915D01*
X103546339Y-55377932D01*
X103474875Y-55363354D01*
X103415656Y-55353363D01*
X103375199Y-55349142D01*
X103366499Y-55349261D01*
X103335411Y-55353701D01*
X103318577Y-55365492D01*
X103309174Y-55392551D01*
X103303832Y-55421975D01*
X103299693Y-55463300D01*
X103296923Y-55524765D01*
X103295771Y-55597958D01*
X103102249Y-55597958D01*
X103103294Y-55568189D01*
X103104214Y-55522837D01*
X103108114Y-55280172D01*
X103090081Y-55273898D01*
X103922205Y-55273898D01*
X103975807Y-55287739D01*
X104047851Y-55303239D01*
X104142667Y-55318980D01*
X104254456Y-55334309D01*
X104377416Y-55348577D01*
X104505748Y-55361131D01*
X104633649Y-55371321D01*
X104755320Y-55378496D01*
X104801271Y-55380387D01*
X104912453Y-55382464D01*
X105043971Y-55381941D01*
X105187714Y-55379079D01*
X105335575Y-55374136D01*
X105479445Y-55367373D01*
X105611214Y-55359048D01*
X105700719Y-55351605D01*
X105848153Y-55336519D01*
X105968236Y-55321848D01*
X106062197Y-55307380D01*
X106131266Y-55292905D01*
X106176672Y-55278211D01*
X106196434Y-55266480D01*
X106207562Y-55253503D01*
X106215178Y-55234865D01*
X106219930Y-55205464D01*
X106222460Y-55160201D01*
X106223413Y-55093976D01*
X106223500Y-55052287D01*
X106223126Y-54989195D01*
X106395025Y-54989195D01*
X106395408Y-55079120D01*
X106398377Y-55144223D01*
X106406663Y-55188254D01*
X106422996Y-55214961D01*
X106450105Y-55228094D01*
X106490721Y-55231401D01*
X106547574Y-55228632D01*
X106568316Y-55227169D01*
X106636941Y-55220092D01*
X106720593Y-55208214D01*
X106806514Y-55193464D01*
X106854812Y-55183834D01*
X107009820Y-55145487D01*
X107138104Y-55102230D01*
X107239029Y-55054292D01*
X107272064Y-55033536D01*
X107308608Y-55007491D01*
X107335934Y-54983526D01*
X107355381Y-54957075D01*
X107368287Y-54923575D01*
X107375992Y-54878461D01*
X107379835Y-54817169D01*
X107381154Y-54735134D01*
X107381294Y-54661216D01*
X107380866Y-54578988D01*
X107379677Y-54507612D01*
X107377870Y-54451591D01*
X107375587Y-54415431D01*
X107373149Y-54403571D01*
X107357655Y-54410991D01*
X107327036Y-54429949D01*
X107305253Y-54444506D01*
X107199880Y-54505971D01*
X107070664Y-54563391D01*
X106922243Y-54615204D01*
X106759254Y-54659848D01*
X106586334Y-54695762D01*
X106533218Y-54704599D01*
X106475716Y-54714644D01*
X106440191Y-54724416D01*
X106420185Y-54736601D01*
X106409241Y-54753887D01*
X106408147Y-54756650D01*
X106403322Y-54783285D01*
X106399295Y-54832091D01*
X106396428Y-54896668D01*
X106395081Y-54970619D01*
X106395025Y-54989195D01*
X106223126Y-54989195D01*
X106222910Y-54952648D01*
X106218862Y-54877162D01*
X106207940Y-54822910D01*
X106186727Y-54786976D01*
X106151807Y-54766441D01*
X106099763Y-54758387D01*
X106027179Y-54759898D01*
X105930638Y-54768055D01*
X105894743Y-54771532D01*
X105786942Y-54779913D01*
X105656072Y-54786629D01*
X105507112Y-54791685D01*
X105345043Y-54795087D01*
X105174843Y-54796840D01*
X105001492Y-54796951D01*
X104829970Y-54795423D01*
X104665256Y-54792263D01*
X104512330Y-54787476D01*
X104376171Y-54781068D01*
X104261760Y-54773043D01*
X104226427Y-54769716D01*
X104142066Y-54761622D01*
X104066655Y-54755445D01*
X104005149Y-54751505D01*
X103962503Y-54750123D01*
X103944126Y-54751410D01*
X103936169Y-54758236D01*
X103930352Y-54774244D01*
X103926361Y-54803232D01*
X103923882Y-54849000D01*
X103922603Y-54915347D01*
X103922208Y-55006074D01*
X103922205Y-55016858D01*
X103922205Y-55273898D01*
X103090081Y-55273898D01*
X102995419Y-55240963D01*
X102934561Y-55217599D01*
X102877135Y-55191830D01*
X102834209Y-55168683D01*
X102829488Y-55165601D01*
X102776252Y-55129446D01*
X102527657Y-55129446D01*
X102419345Y-55039285D01*
X102169535Y-54813751D01*
X101939237Y-54569957D01*
X101729591Y-54309851D01*
X101541735Y-54035386D01*
X101376806Y-53748510D01*
X101235943Y-53451175D01*
X101120284Y-53145331D01*
X101030966Y-52832928D01*
X100977290Y-52567857D01*
X100940255Y-52270083D01*
X100924476Y-51961456D01*
X100926270Y-51853571D01*
X101144270Y-51853571D01*
X101148566Y-52083039D01*
X101162328Y-52292965D01*
X101186643Y-52491126D01*
X101222600Y-52685297D01*
X101271288Y-52883254D01*
X101304602Y-52998936D01*
X101405003Y-53285421D01*
X101531654Y-53568518D01*
X101682217Y-53844602D01*
X101854357Y-54110049D01*
X102045735Y-54361233D01*
X102254014Y-54594531D01*
X102460870Y-54792300D01*
X102585739Y-54902458D01*
X102589549Y-54657142D01*
X102778758Y-54657142D01*
X102779191Y-54744985D01*
X102780770Y-54809260D01*
X102783994Y-54854966D01*
X102789358Y-54887099D01*
X102797360Y-54910656D01*
X102805455Y-54925808D01*
X102835488Y-54957795D01*
X102886612Y-54994369D01*
X102952527Y-55031939D01*
X103026934Y-55066912D01*
X103103392Y-55095653D01*
X103157452Y-55111454D01*
X103227405Y-55129399D01*
X103307404Y-55148261D01*
X103391601Y-55166811D01*
X103474151Y-55183822D01*
X103549207Y-55198066D01*
X103610921Y-55208315D01*
X103653446Y-55213341D01*
X103664918Y-55213564D01*
X103714946Y-55210714D01*
X103718652Y-55016858D01*
X103719043Y-54996428D01*
X103720001Y-54918756D01*
X103719879Y-54849350D01*
X103718759Y-54794129D01*
X103716725Y-54759010D01*
X103715593Y-54751575D01*
X103709938Y-54735186D01*
X103699225Y-54722510D01*
X103678891Y-54711814D01*
X103644371Y-54701366D01*
X103591103Y-54689434D01*
X103514520Y-54674284D01*
X103509349Y-54673286D01*
X103368661Y-54642030D01*
X103223974Y-54602489D01*
X103084747Y-54557579D01*
X102960437Y-54510218D01*
X102912944Y-54489372D01*
X102859125Y-54464754D01*
X102815954Y-54445445D01*
X102789351Y-54434070D01*
X102783853Y-54432142D01*
X102782105Y-54445625D01*
X102780618Y-54482859D01*
X102779502Y-54539026D01*
X102778865Y-54609306D01*
X102778758Y-54657142D01*
X102589549Y-54657142D01*
X102592886Y-54442300D01*
X102598306Y-54093317D01*
X102792999Y-54093317D01*
X102807205Y-54142561D01*
X102849517Y-54192660D01*
X102919474Y-54243366D01*
X103016615Y-54294433D01*
X103140479Y-54345615D01*
X103290606Y-54396666D01*
X103443365Y-54441092D01*
X103486659Y-54450732D01*
X103553556Y-54462937D01*
X103639254Y-54477033D01*
X103738953Y-54492344D01*
X103847853Y-54508197D01*
X103961152Y-54523915D01*
X104074049Y-54538826D01*
X104181744Y-54552253D01*
X104279437Y-54563522D01*
X104362325Y-54571959D01*
X104393899Y-54574682D01*
X104471701Y-54580875D01*
X104545166Y-54586733D01*
X104606535Y-54591636D01*
X104648051Y-54594964D01*
X104651187Y-54595216D01*
X104703264Y-54597776D01*
X104779679Y-54599301D01*
X104876203Y-54599869D01*
X104988609Y-54599562D01*
X105112669Y-54598458D01*
X105244154Y-54596637D01*
X105378836Y-54594179D01*
X105512487Y-54591163D01*
X105640879Y-54587669D01*
X105759785Y-54583776D01*
X105864976Y-54579565D01*
X105952223Y-54575115D01*
X106017300Y-54570505D01*
X106030534Y-54569242D01*
X106283567Y-54538391D01*
X106515250Y-54500485D01*
X106724194Y-54455853D01*
X106909010Y-54404825D01*
X107068311Y-54347731D01*
X107180641Y-54295721D01*
X107261781Y-54247816D01*
X107317725Y-54201260D01*
X107351448Y-54152544D01*
X107365926Y-54098156D01*
X107367000Y-54075772D01*
X107364333Y-54029950D01*
X107352789Y-53999782D01*
X107327054Y-53972576D01*
X107321989Y-53968258D01*
X107242903Y-53914738D01*
X107137894Y-53864449D01*
X107009517Y-53818118D01*
X106860325Y-53776473D01*
X106692874Y-53740240D01*
X106509718Y-53710147D01*
X106344997Y-53690084D01*
X106250402Y-53681138D01*
X106132561Y-53671348D01*
X105996791Y-53661079D01*
X105848406Y-53650692D01*
X105692723Y-53640552D01*
X105535058Y-53631020D01*
X105380726Y-53622462D01*
X105282164Y-53617469D01*
X105072064Y-53610927D01*
X104852241Y-53610819D01*
X104626841Y-53616770D01*
X104400010Y-53628403D01*
X104175897Y-53645345D01*
X103958648Y-53667220D01*
X103752410Y-53693652D01*
X103561330Y-53724267D01*
X103389555Y-53758690D01*
X103241233Y-53796544D01*
X103214665Y-53804520D01*
X103112206Y-53841181D01*
X103018094Y-53884368D01*
X102935877Y-53931649D01*
X102869102Y-53980595D01*
X102821317Y-54028776D01*
X102796070Y-54073763D01*
X102792999Y-54093317D01*
X102598306Y-54093317D01*
X102600033Y-53982142D01*
X102638638Y-53909003D01*
X102668273Y-53858536D01*
X102700875Y-53817586D01*
X102741003Y-53783183D01*
X102793220Y-53752358D01*
X102862086Y-53722139D01*
X102952163Y-53689557D01*
X103000258Y-53673522D01*
X103172724Y-53622563D01*
X103359859Y-53578254D01*
X103563861Y-53540287D01*
X103786929Y-53508353D01*
X104031260Y-53482146D01*
X104299052Y-53461355D01*
X104592502Y-53445674D01*
X104639252Y-53443729D01*
X104895331Y-53436651D01*
X105153681Y-53435645D01*
X105411132Y-53440447D01*
X105664518Y-53450792D01*
X105910671Y-53466415D01*
X106146423Y-53487053D01*
X106368606Y-53512441D01*
X106574053Y-53542314D01*
X106759596Y-53576409D01*
X106922067Y-53614460D01*
X107016803Y-53642154D01*
X107174607Y-53699153D01*
X107306087Y-53759889D01*
X107410716Y-53824034D01*
X107487963Y-53891260D01*
X107537301Y-53961237D01*
X107540445Y-53967857D01*
X107547891Y-53986581D01*
X107553788Y-54008666D01*
X107558315Y-54037488D01*
X107561654Y-54076429D01*
X107563985Y-54128869D01*
X107565487Y-54198185D01*
X107566341Y-54287759D01*
X107566728Y-54400970D01*
X107566799Y-54461904D01*
X107567193Y-54570927D01*
X107568159Y-54670662D01*
X107569615Y-54757544D01*
X107571478Y-54828008D01*
X107573665Y-54878489D01*
X107576094Y-54905423D01*
X107577139Y-54908830D01*
X107589427Y-54901787D01*
X107618943Y-54876819D01*
X107662969Y-54836470D01*
X107718788Y-54783285D01*
X107783682Y-54719808D01*
X107853039Y-54650496D01*
X107985964Y-54513172D01*
X108098830Y-54389549D01*
X108194556Y-54276331D01*
X108262061Y-54189285D01*
X108352958Y-54064601D01*
X108428788Y-53955089D01*
X108493418Y-53854515D01*
X108550715Y-53756646D01*
X108604546Y-53655249D01*
X108647143Y-53568599D01*
X108762801Y-53306638D01*
X108855699Y-53050417D01*
X108927051Y-52794462D01*
X108978077Y-52533301D01*
X109009993Y-52261462D01*
X109024015Y-51973474D01*
X109024922Y-51869914D01*
X109014737Y-51552451D01*
X108983910Y-51251605D01*
X108931486Y-50963279D01*
X108856508Y-50683373D01*
X108758022Y-50407788D01*
X108635071Y-50132423D01*
X108606439Y-50075000D01*
X108467189Y-49820683D01*
X108316829Y-49586555D01*
X108151672Y-49368017D01*
X107968034Y-49160471D01*
X107762230Y-48959317D01*
X107595700Y-48813720D01*
X107461629Y-48704321D01*
X107338648Y-48610995D01*
X107218841Y-48528472D01*
X107094292Y-48451483D01*
X106957086Y-48374758D01*
X106859572Y-48323664D01*
X106587650Y-48197648D01*
X106308494Y-48095589D01*
X106019753Y-48016954D01*
X105719077Y-47961213D01*
X105404114Y-47927833D01*
X105072516Y-47916283D01*
X105058970Y-47916267D01*
X104722071Y-47928666D01*
X104398711Y-47965754D01*
X104089192Y-48027463D01*
X103793816Y-48113727D01*
X103512885Y-48224479D01*
X103386982Y-48284440D01*
X103090479Y-48448244D01*
X102810571Y-48632116D01*
X102548718Y-48834630D01*
X102306382Y-49054362D01*
X102085023Y-49289888D01*
X101886103Y-49539782D01*
X101711082Y-49802620D01*
X101572957Y-50053571D01*
X101452609Y-50310988D01*
X101354198Y-50557434D01*
X101276385Y-50798526D01*
X101217834Y-51039885D01*
X101177205Y-51287127D01*
X101153162Y-51545871D01*
X101144365Y-51821735D01*
X101144270Y-51853571D01*
X100926270Y-51853571D01*
X100929678Y-51648560D01*
X100955586Y-51337978D01*
X101001924Y-51036296D01*
X101050422Y-50817857D01*
X101148595Y-50489566D01*
X101272866Y-50172175D01*
X101422401Y-49867005D01*
X101596367Y-49575379D01*
X101793926Y-49298619D01*
X102014246Y-49038048D01*
X102256491Y-48794988D01*
X102415778Y-48654958D01*
X102693073Y-48440918D01*
X102980879Y-48253298D01*
X103278732Y-48092268D01*
X103586162Y-47958000D01*
X103902703Y-47850664D01*
X104227886Y-47770433D01*
X104561246Y-47717478D01*
X104902315Y-47691969D01*
X105051412Y-47689481D01*
X105407336Y-47703088D01*
G37*
D13*
%TO.C,R3*%
X111937276Y-91349500D02*
X112446724Y-91349500D01*
X111937276Y-92394500D02*
X112446724Y-92394500D01*
%TO.C,R2*%
X112446724Y-90362500D02*
X111937276Y-90362500D01*
X112446724Y-89317500D02*
X111937276Y-89317500D01*
%TO.C,C3*%
X115854000Y-90589752D02*
X115854000Y-89167248D01*
X117674000Y-90589752D02*
X117674000Y-89167248D01*
%TO.C,C2*%
X104330248Y-85162000D02*
X105752752Y-85162000D01*
X104330248Y-83342000D02*
X105752752Y-83342000D01*
%TO.C,J5*%
X103750000Y-78409999D02*
X103750000Y-60569999D01*
X103750000Y-81010000D02*
X103750000Y-79680000D01*
X105080000Y-81010000D02*
X103750000Y-81010000D01*
X106410000Y-60569999D02*
X103750000Y-60569999D01*
X106410000Y-78409999D02*
X103750000Y-78409999D01*
X106410000Y-78409999D02*
X106410000Y-60569999D01*
%TO.C,U4*%
X109037000Y-89030000D02*
X108767000Y-89030000D01*
X102137000Y-89030000D02*
X102407000Y-89030000D01*
X109036999Y-95450000D02*
X109037000Y-89030000D01*
X102137001Y-95450000D02*
X102137000Y-89030000D01*
X109197000Y-87640001D02*
X108727000Y-87300000D01*
X109197000Y-86960000D01*
X109197000Y-87640001D01*
G36*
X109197000Y-87640001D02*
G01*
X108727000Y-87300000D01*
X109197000Y-86960000D01*
X109197000Y-87640001D01*
G37*
%TO.C,U3*%
X122005000Y-84530000D02*
X132625000Y-84530000D01*
X122005000Y-87530000D02*
X122005000Y-84530000D01*
X129855000Y-87530000D02*
X129855000Y-84530000D01*
X132625000Y-84530000D02*
X132625000Y-87530000D01*
X132625000Y-87530000D02*
X122005000Y-87530000D01*
%TO.C,J3*%
X152070000Y-98790000D02*
X164830000Y-98790000D01*
X152070000Y-98790000D02*
X152070000Y-96130000D01*
X164830000Y-98790000D02*
X164830000Y-96130000D01*
X149470000Y-97460000D02*
X149470000Y-96130000D01*
X149470000Y-96130000D02*
X150800000Y-96130000D01*
X152070000Y-96130000D02*
X164830000Y-96130000D01*
%TO.C,U2*%
X148260000Y-89362500D02*
X148260000Y-91267500D01*
X150800000Y-89362500D02*
X150800000Y-91267500D01*
X153340000Y-89362500D02*
X153340000Y-91267500D01*
X147625000Y-80472500D02*
X153975000Y-80472500D01*
X153975000Y-89362500D01*
X147625000Y-89362500D01*
X147625000Y-80472500D01*
X153089525Y-84282500D02*
G75*
G02*
X148510475Y-84282500I-2289525J0D01*
G01*
X148510475Y-84282500D02*
G75*
G02*
X153089525Y-84282500I2289525J0D01*
G01*
%TO.C,U1*%
X155880000Y-89362500D02*
X155880000Y-91267500D01*
X158420000Y-89362500D02*
X158420000Y-91267500D01*
X160960000Y-89362500D02*
X160960000Y-91267500D01*
X155245000Y-80472500D02*
X161595000Y-80472500D01*
X161595000Y-89362500D01*
X155245000Y-89362500D01*
X155245000Y-80472500D01*
X160709525Y-84282500D02*
G75*
G02*
X156130475Y-84282500I-2289525J0D01*
G01*
X156130475Y-84282500D02*
G75*
G02*
X160709525Y-84282500I2289525J0D01*
G01*
%TO.C,J1*%
X129210000Y-98790000D02*
X147050000Y-98790000D01*
X129210000Y-98790000D02*
X129210000Y-96130000D01*
X147050000Y-98790000D02*
X147050000Y-96130000D01*
X126610000Y-97460000D02*
X126610000Y-96130000D01*
X126610000Y-96130000D02*
X127940000Y-96130000D01*
X129210000Y-96130000D02*
X147050000Y-96130000D01*
%TO.C,J2*%
X120066000Y-50530000D02*
X142986000Y-50530000D01*
X120066000Y-50530000D02*
X120066000Y-47870000D01*
X142986000Y-50530000D02*
X142986000Y-47870000D01*
X117466000Y-49200000D02*
X117466000Y-47870000D01*
X117466000Y-47870000D02*
X118796000Y-47870000D01*
X120066000Y-47870000D02*
X142986000Y-47870000D01*
%TO.C,J4*%
X146990000Y-50530000D02*
X164830000Y-50530000D01*
X146990000Y-50530000D02*
X146990000Y-47870000D01*
X164830000Y-50530000D02*
X164830000Y-47870000D01*
X144390000Y-49200000D02*
X144390000Y-47870000D01*
X144390000Y-47870000D02*
X145720000Y-47870000D01*
X146990000Y-47870000D02*
X164830000Y-47870000D01*
%TO.C,C1*%
X158930000Y-58806234D02*
X158930000Y-59098768D01*
X157910000Y-58806234D02*
X157910000Y-59098768D01*
%TO.C,R1*%
X160437500Y-59257224D02*
X160437500Y-58747776D01*
X161482500Y-59257224D02*
X161482500Y-58747776D01*
D14*
%TO.C,SW1*%
X149990000Y-64910000D02*
X161690000Y-64910000D01*
X149990000Y-67910000D02*
X149990000Y-64910000D01*
X149990000Y-73910000D02*
X149990000Y-76470000D01*
X149990000Y-76470000D02*
X161690000Y-76470000D01*
X161690000Y-64910000D02*
X161690000Y-67910000D01*
X161690000Y-76470000D02*
X161690000Y-73910000D01*
%TD*%
M02*
