%TF.GenerationSoftware,KiCad,Pcbnew,9.0.6*%
%TF.CreationDate,2025-11-01T12:53:31+09:00*%
%TF.ProjectId,VolumeControlSheild,566f6c75-6d65-4436-9f6e-74726f6c5368,rev?*%
%TF.SameCoordinates,Original*%
%TF.FileFunction,Copper,L2,Bot*%
%TF.FilePolarity,Positive*%
%FSLAX46Y46*%
G04 Gerber Fmt 4.6, Leading zero omitted, Abs format (unit mm)*
G04 Created by KiCad (PCBNEW 9.0.6) date 2025-11-01 12:53:31*
%MOMM*%
%LPD*%
G01*
G04 APERTURE LIST*
G04 Aperture macros list*
%AMRoundRect*
0 Rectangle with rounded corners*
0 $1 Rounding radius*
0 $2 $3 $4 $5 $6 $7 $8 $9 X,Y pos of 4 corners*
0 Add a 4 corners polygon primitive as box body*
4,1,4,$2,$3,$4,$5,$6,$7,$8,$9,$2,$3,0*
0 Add four circle primitives for the rounded corners*
1,1,$1+$1,$2,$3*
1,1,$1+$1,$4,$5*
1,1,$1+$1,$6,$7*
1,1,$1+$1,$8,$9*
0 Add four rect primitives between the rounded corners*
20,1,$1+$1,$2,$3,$4,$5,0*
20,1,$1+$1,$4,$5,$6,$7,0*
20,1,$1+$1,$6,$7,$8,$9,0*
20,1,$1+$1,$8,$9,$2,$3,0*%
G04 Aperture macros list end*
%TA.AperFunction,ComponentPad*%
%ADD10R,1.700000X1.700000*%
%TD*%
%TA.AperFunction,ComponentPad*%
%ADD11C,1.700000*%
%TD*%
%TA.AperFunction,ComponentPad*%
%ADD12C,2.000000*%
%TD*%
%TA.AperFunction,ComponentPad*%
%ADD13C,1.650000*%
%TD*%
%TA.AperFunction,ComponentPad*%
%ADD14C,4.708000*%
%TD*%
%TA.AperFunction,ComponentPad*%
%ADD15RoundRect,0.248400X-0.651600X-0.651600X0.651600X-0.651600X0.651600X0.651600X-0.651600X0.651600X0*%
%TD*%
%TA.AperFunction,ComponentPad*%
%ADD16C,1.800000*%
%TD*%
%TA.AperFunction,ViaPad*%
%ADD17C,1.200000*%
%TD*%
%TA.AperFunction,Conductor*%
%ADD18C,0.250000*%
%TD*%
G04 APERTURE END LIST*
D10*
%TO.P,J1,1,Pin_1*%
%TO.N,unconnected-(J1-Pin_1-Pad1)*%
X127940000Y-97460000D03*
D11*
%TO.P,J1,2,Pin_2*%
%TO.N,/IOREF*%
X130480000Y-97460000D03*
%TO.P,J1,3,Pin_3*%
%TO.N,/~{RESET}*%
X133020000Y-97460000D03*
%TO.P,J1,4,Pin_4*%
%TO.N,+3.3V*%
X135560000Y-97460000D03*
%TO.P,J1,5,Pin_5*%
%TO.N,+5V*%
X138100000Y-97460000D03*
%TO.P,J1,6,Pin_6*%
%TO.N,GND*%
X140640000Y-97460000D03*
%TO.P,J1,7,Pin_7*%
X143180000Y-97460000D03*
%TO.P,J1,8,Pin_8*%
%TO.N,/Vin*%
X145720000Y-97460000D03*
%TD*%
D10*
%TO.P,J3,1,Pin_1*%
%TO.N,/A0*%
X150800000Y-97460000D03*
D11*
%TO.P,J3,2,Pin_2*%
%TO.N,/A1*%
X153340000Y-97460000D03*
%TO.P,J3,3,Pin_3*%
%TO.N,/A2*%
X155880000Y-97460000D03*
%TO.P,J3,4,Pin_4*%
%TO.N,/A3*%
X158420000Y-97460000D03*
%TO.P,J3,5,Pin_5*%
%TO.N,/A4*%
X160960000Y-97460000D03*
%TO.P,J3,6,Pin_6*%
%TO.N,/A5*%
X163500000Y-97460000D03*
%TD*%
%TO.P,J2,10,Pin_10*%
%TO.N,/8*%
X141656000Y-49200000D03*
%TO.P,J2,9,Pin_9*%
%TO.N,/~9*%
X139116000Y-49200000D03*
%TO.P,J2,8,Pin_8*%
%TO.N,/SS*%
X136576000Y-49200000D03*
%TO.P,J2,7,Pin_7*%
%TO.N,/COPI*%
X134036000Y-49200000D03*
%TO.P,J2,6,Pin_6*%
%TO.N,/12*%
X131496000Y-49200000D03*
%TO.P,J2,5,Pin_5*%
%TO.N,/13*%
X128956000Y-49200000D03*
%TO.P,J2,4,Pin_4*%
%TO.N,GND*%
X126416000Y-49200000D03*
%TO.P,J2,3,Pin_3*%
%TO.N,/AREF*%
X123876000Y-49200000D03*
%TO.P,J2,2,Pin_2*%
%TO.N,/SDA*%
X121336000Y-49200000D03*
D10*
%TO.P,J2,1,Pin_1*%
%TO.N,/SCL*%
X118796000Y-49200000D03*
%TD*%
%TO.P,J4,1,Pin_1*%
%TO.N,/7*%
X145720000Y-49200000D03*
D11*
%TO.P,J4,2,Pin_2*%
%TO.N,/\u002A6*%
X148260000Y-49200000D03*
%TO.P,J4,3,Pin_3*%
%TO.N,/\u002A5*%
X150800000Y-49200000D03*
%TO.P,J4,4,Pin_4*%
%TO.N,/4*%
X153340000Y-49200000D03*
%TO.P,J4,5,Pin_5*%
%TO.N,/\u002A3*%
X155880000Y-49200000D03*
%TO.P,J4,6,Pin_6*%
%TO.N,/2*%
X158420000Y-49200000D03*
%TO.P,J4,7,Pin_7*%
%TO.N,/1*%
X160960000Y-49200000D03*
%TO.P,J4,8,Pin_8*%
%TO.N,/0*%
X163500000Y-49200000D03*
%TD*%
D12*
%TO.P,REF\u002A\u002A,4*%
%TO.N,N/C*%
X122860000Y-56820000D03*
%TO.P,REF\u002A\u002A,7*%
X120320000Y-59360000D03*
%TO.P,REF\u002A\u002A,8*%
X122860000Y-59360000D03*
%TO.P,REF\u002A\u002A,10*%
X117780000Y-61900000D03*
%TO.P,REF\u002A\u002A,11*%
X120320000Y-61900000D03*
%TO.P,REF\u002A\u002A,12*%
X122860000Y-61900000D03*
%TO.P,REF\u002A\u002A,13*%
X115240000Y-64440000D03*
%TO.P,REF\u002A\u002A,14*%
X117780000Y-64440000D03*
%TO.P,REF\u002A\u002A,15*%
X120320000Y-64440000D03*
%TO.P,REF\u002A\u002A,16*%
X122860000Y-64440000D03*
%TD*%
D10*
%TO.P,U3,1,Pin_1*%
%TO.N,GND*%
X131125000Y-86030000D03*
D11*
%TO.P,U3,2,Pin_2*%
%TO.N,+3.3V*%
X128585000Y-86030000D03*
%TO.P,U3,3,Pin_3*%
%TO.N,/A5*%
X126045000Y-86030000D03*
%TO.P,U3,4,Pin_4*%
%TO.N,/A4*%
X123505000Y-86030000D03*
%TD*%
D13*
%TO.P,SW1,A1,A*%
%TO.N,/\u002A3*%
X153420000Y-78330000D03*
%TO.P,SW1,B1,B*%
%TO.N,/2*%
X158420000Y-78330000D03*
%TO.P,SW1,C1,C*%
%TO.N,GND*%
X155920000Y-78330000D03*
%TO.P,SW1,D1,S1*%
%TO.N,/7*%
X153420000Y-63830000D03*
%TO.P,SW1,D2,S2*%
%TO.N,GND*%
X158420000Y-63830000D03*
D14*
%TO.P,SW1,MH1*%
%TO.N,N/C*%
X150420000Y-70830000D03*
%TO.P,SW1,MH2*%
X161420000Y-70830000D03*
%TD*%
D12*
%TO.P,REF\u002A\u002A,1*%
%TO.N,N/C*%
X125400000Y-66980000D03*
%TO.P,REF\u002A\u002A,2*%
X127940000Y-66980000D03*
%TO.P,REF\u002A\u002A,3*%
X130480000Y-66980000D03*
%TO.P,REF\u002A\u002A,4*%
X133020000Y-66980000D03*
%TO.P,REF\u002A\u002A,5*%
X125400000Y-69520000D03*
%TO.P,REF\u002A\u002A,6*%
X127940000Y-69520000D03*
%TO.P,REF\u002A\u002A,7*%
X130480000Y-69520000D03*
%TO.P,REF\u002A\u002A,8*%
X133020000Y-69520000D03*
%TO.P,REF\u002A\u002A,9*%
X125400000Y-72060000D03*
%TO.P,REF\u002A\u002A,10*%
X127940000Y-72060000D03*
%TO.P,REF\u002A\u002A,11*%
X130480000Y-72060000D03*
%TO.P,REF\u002A\u002A,12*%
X133020000Y-72060000D03*
%TO.P,REF\u002A\u002A,13*%
X125400000Y-74600000D03*
%TO.P,REF\u002A\u002A,14*%
X127940000Y-74600000D03*
%TO.P,REF\u002A\u002A,15*%
X130480000Y-74600000D03*
%TO.P,REF\u002A\u002A,16*%
X133020000Y-74600000D03*
%TD*%
%TO.P,REF\u002A\u002A,1*%
%TO.N,N/C*%
X135560000Y-66980000D03*
%TO.P,REF\u002A\u002A,2*%
X138100000Y-66980000D03*
%TO.P,REF\u002A\u002A,3*%
X140640000Y-66980000D03*
%TO.P,REF\u002A\u002A,4*%
X143180000Y-66980000D03*
%TO.P,REF\u002A\u002A,5*%
X135560000Y-69520000D03*
%TO.P,REF\u002A\u002A,6*%
X138100000Y-69520000D03*
%TO.P,REF\u002A\u002A,7*%
X140640000Y-69520000D03*
%TO.P,REF\u002A\u002A,8*%
X143180000Y-69520000D03*
%TO.P,REF\u002A\u002A,9*%
X135560000Y-72060000D03*
%TO.P,REF\u002A\u002A,10*%
X138100000Y-72060000D03*
%TO.P,REF\u002A\u002A,11*%
X140640000Y-72060000D03*
%TO.P,REF\u002A\u002A,12*%
X143180000Y-72060000D03*
%TO.P,REF\u002A\u002A,13*%
X135560000Y-74600000D03*
%TO.P,REF\u002A\u002A,14*%
X138100000Y-74600000D03*
%TO.P,REF\u002A\u002A,15*%
X140640000Y-74600000D03*
%TO.P,REF\u002A\u002A,16*%
X143180000Y-74600000D03*
%TD*%
%TO.P,REF\u002A\u002A,1*%
%TO.N,N/C*%
X115240000Y-77140000D03*
%TO.P,REF\u002A\u002A,2*%
X117780000Y-77140000D03*
%TO.P,REF\u002A\u002A,3*%
X120320000Y-77140000D03*
%TO.P,REF\u002A\u002A,4*%
X122860000Y-77140000D03*
%TO.P,REF\u002A\u002A,5*%
X115240000Y-79680000D03*
%TO.P,REF\u002A\u002A,6*%
X117780000Y-79680000D03*
%TO.P,REF\u002A\u002A,7*%
X120320000Y-79680000D03*
%TO.P,REF\u002A\u002A,8*%
X122860000Y-79680000D03*
%TD*%
%TO.P,REF\u002A\u002A,1*%
%TO.N,N/C*%
X135560000Y-77140000D03*
%TO.P,REF\u002A\u002A,2*%
X138100000Y-77140000D03*
%TO.P,REF\u002A\u002A,3*%
X140640000Y-77140000D03*
%TO.P,REF\u002A\u002A,4*%
X143180000Y-77140000D03*
%TO.P,REF\u002A\u002A,5*%
X135560000Y-79680000D03*
%TO.P,REF\u002A\u002A,6*%
X138100000Y-79680000D03*
%TO.P,REF\u002A\u002A,7*%
X140640000Y-79680000D03*
%TO.P,REF\u002A\u002A,8*%
X143180000Y-79680000D03*
%TD*%
D15*
%TO.P,U2,1,OUT*%
%TO.N,Net-(U2-OUT)*%
X148260000Y-92537500D03*
D16*
%TO.P,U2,2,GND*%
%TO.N,GND*%
X150800000Y-92537500D03*
%TO.P,U2,3,Vs*%
%TO.N,+5V*%
X153340000Y-92537500D03*
%TD*%
D10*
%TO.P,J5,1,Pin_1*%
%TO.N,/12*%
X105080000Y-79680000D03*
D11*
%TO.P,J5,2,Pin_2*%
%TO.N,/SS*%
X105080000Y-77140000D03*
%TO.P,J5,3,Pin_3*%
%TO.N,GND*%
X105080000Y-74600000D03*
%TO.P,J5,4,Pin_4*%
%TO.N,/13*%
X105080000Y-72060000D03*
%TO.P,J5,5,Pin_5*%
%TO.N,/COPI*%
X105080000Y-69520000D03*
%TO.P,J5,6,Pin_6*%
%TO.N,+5V*%
X105080000Y-66980000D03*
%TO.P,J5,7,Pin_7*%
%TO.N,unconnected-(J5-Pin_7-Pad7)*%
X105080000Y-64440000D03*
%TO.P,J5,8,Pin_8*%
%TO.N,/VCOIL*%
X105080000Y-61900000D03*
%TD*%
D12*
%TO.P,REF\u002A\u002A,3*%
%TO.N,N/C*%
X143180000Y-61899999D03*
%TO.P,REF\u002A\u002A,4*%
X143180000Y-64440000D03*
%TO.P,REF\u002A\u002A,7*%
X140640000Y-61900000D03*
%TO.P,REF\u002A\u002A,8*%
X140640000Y-64440000D03*
%TO.P,REF\u002A\u002A,9*%
X138100001Y-56820000D03*
%TO.P,REF\u002A\u002A,10*%
X138100000Y-59360000D03*
%TO.P,REF\u002A\u002A,11*%
X138100000Y-61900000D03*
%TO.P,REF\u002A\u002A,12*%
X138100000Y-64440000D03*
%TO.P,REF\u002A\u002A,13*%
X135560000Y-56820000D03*
%TO.P,REF\u002A\u002A,14*%
X135560000Y-59360000D03*
%TO.P,REF\u002A\u002A,15*%
X135560000Y-61900000D03*
%TO.P,REF\u002A\u002A,16*%
X135560000Y-64440000D03*
%TD*%
D15*
%TO.P,U1,1,OUT*%
%TO.N,/0*%
X155880000Y-92537500D03*
D16*
%TO.P,U1,2,GND*%
%TO.N,GND*%
X158420000Y-92537500D03*
%TO.P,U1,3,Vs*%
%TO.N,+5V*%
X160960000Y-92537500D03*
%TD*%
D12*
%TO.P,REF\u002A\u002A,1*%
%TO.N,N/C*%
X125400000Y-56820000D03*
%TO.P,REF\u002A\u002A,2*%
X127940000Y-56820000D03*
%TO.P,REF\u002A\u002A,3*%
X130480000Y-56820000D03*
%TO.P,REF\u002A\u002A,4*%
X133020000Y-56820000D03*
%TO.P,REF\u002A\u002A,5*%
X125400000Y-59360000D03*
%TO.P,REF\u002A\u002A,6*%
X127940000Y-59360000D03*
%TO.P,REF\u002A\u002A,7*%
X130480000Y-59360000D03*
%TO.P,REF\u002A\u002A,8*%
X133020000Y-59360000D03*
%TO.P,REF\u002A\u002A,9*%
X125400000Y-61900000D03*
%TO.P,REF\u002A\u002A,10*%
X127940000Y-61900000D03*
%TO.P,REF\u002A\u002A,11*%
X130480000Y-61900000D03*
%TO.P,REF\u002A\u002A,12*%
X133020000Y-61900000D03*
%TO.P,REF\u002A\u002A,13*%
X125400000Y-64440000D03*
%TO.P,REF\u002A\u002A,14*%
X127940000Y-64440000D03*
%TO.P,REF\u002A\u002A,15*%
X130480000Y-64440000D03*
%TO.P,REF\u002A\u002A,16*%
X133020000Y-64440000D03*
%TD*%
%TO.P,REF\u002A\u002A,1*%
%TO.N,N/C*%
X115240000Y-66980000D03*
%TO.P,REF\u002A\u002A,2*%
X117780000Y-66980000D03*
%TO.P,REF\u002A\u002A,3*%
X120320000Y-66980000D03*
%TO.P,REF\u002A\u002A,4*%
X122860000Y-66980000D03*
%TO.P,REF\u002A\u002A,5*%
X115240000Y-69520000D03*
%TO.P,REF\u002A\u002A,6*%
X117780000Y-69520000D03*
%TO.P,REF\u002A\u002A,7*%
X120320000Y-69520000D03*
%TO.P,REF\u002A\u002A,8*%
X122860000Y-69520000D03*
%TO.P,REF\u002A\u002A,9*%
X115240000Y-72060000D03*
%TO.P,REF\u002A\u002A,10*%
X117780000Y-72060000D03*
%TO.P,REF\u002A\u002A,11*%
X120320000Y-72060000D03*
%TO.P,REF\u002A\u002A,12*%
X122860000Y-72060000D03*
%TO.P,REF\u002A\u002A,13*%
X115240000Y-74600000D03*
%TO.P,REF\u002A\u002A,14*%
X117780000Y-74600000D03*
%TO.P,REF\u002A\u002A,15*%
X120320000Y-74600000D03*
%TO.P,REF\u002A\u002A,16*%
X122860000Y-74600000D03*
%TD*%
%TO.P,REF\u002A\u002A,1*%
%TO.N,N/C*%
X125400000Y-77140000D03*
%TO.P,REF\u002A\u002A,2*%
X127940000Y-77140000D03*
%TO.P,REF\u002A\u002A,3*%
X130480000Y-77140000D03*
%TO.P,REF\u002A\u002A,4*%
X133020000Y-77140000D03*
%TO.P,REF\u002A\u002A,5*%
X125400000Y-79680000D03*
%TO.P,REF\u002A\u002A,6*%
X127940000Y-79680000D03*
%TO.P,REF\u002A\u002A,7*%
X130480000Y-79680000D03*
%TO.P,REF\u002A\u002A,8*%
X133020000Y-79680000D03*
%TD*%
D17*
%TO.N,GND*%
X108128000Y-84252000D03*
X116764000Y-86792000D03*
%TD*%
D18*
%TO.N,GND*%
X131125000Y-86810000D02*
X131125000Y-87945000D01*
%TD*%
%TA.AperFunction,Conductor*%
%TO.N,GND*%
G36*
X163409098Y-46879454D02*
G01*
X163489880Y-46933430D01*
X164014552Y-47458102D01*
X164068528Y-47538884D01*
X164087482Y-47634172D01*
X164068528Y-47729460D01*
X164014552Y-47810242D01*
X163933770Y-47864218D01*
X163838482Y-47883172D01*
X163799530Y-47880106D01*
X163606298Y-47849501D01*
X163606289Y-47849500D01*
X163606287Y-47849500D01*
X163393713Y-47849500D01*
X163393703Y-47849500D01*
X163183759Y-47882753D01*
X162981592Y-47948441D01*
X162981588Y-47948442D01*
X162981588Y-47948443D01*
X162895213Y-47992453D01*
X162792182Y-48044950D01*
X162620206Y-48169897D01*
X162469896Y-48320207D01*
X162431445Y-48373131D01*
X162360101Y-48439080D01*
X162268951Y-48472707D01*
X162171871Y-48468892D01*
X162083641Y-48428217D01*
X162028555Y-48373131D01*
X161990103Y-48320207D01*
X161839793Y-48169897D01*
X161773768Y-48121927D01*
X161667816Y-48044949D01*
X161478412Y-47948443D01*
X161478409Y-47948442D01*
X161478407Y-47948441D01*
X161276240Y-47882753D01*
X161066296Y-47849500D01*
X161066287Y-47849500D01*
X160853713Y-47849500D01*
X160853703Y-47849500D01*
X160643759Y-47882753D01*
X160441592Y-47948441D01*
X160441588Y-47948442D01*
X160441588Y-47948443D01*
X160355213Y-47992453D01*
X160252182Y-48044950D01*
X160080206Y-48169897D01*
X159929896Y-48320207D01*
X159891445Y-48373131D01*
X159820101Y-48439080D01*
X159728951Y-48472707D01*
X159631871Y-48468892D01*
X159543641Y-48428217D01*
X159488555Y-48373131D01*
X159450103Y-48320207D01*
X159299793Y-48169897D01*
X159233768Y-48121927D01*
X159127816Y-48044949D01*
X158938412Y-47948443D01*
X158938409Y-47948442D01*
X158938407Y-47948441D01*
X158736240Y-47882753D01*
X158526296Y-47849500D01*
X158526287Y-47849500D01*
X158313713Y-47849500D01*
X158313703Y-47849500D01*
X158103759Y-47882753D01*
X157901592Y-47948441D01*
X157901588Y-47948442D01*
X157901588Y-47948443D01*
X157815213Y-47992453D01*
X157712182Y-48044950D01*
X157540206Y-48169897D01*
X157389896Y-48320207D01*
X157351445Y-48373131D01*
X157280101Y-48439080D01*
X157188951Y-48472707D01*
X157091871Y-48468892D01*
X157003641Y-48428217D01*
X156948555Y-48373131D01*
X156910103Y-48320207D01*
X156759793Y-48169897D01*
X156693768Y-48121927D01*
X156587816Y-48044949D01*
X156398412Y-47948443D01*
X156398409Y-47948442D01*
X156398407Y-47948441D01*
X156196240Y-47882753D01*
X155986296Y-47849500D01*
X155986287Y-47849500D01*
X155773713Y-47849500D01*
X155773703Y-47849500D01*
X155563759Y-47882753D01*
X155361592Y-47948441D01*
X155361588Y-47948442D01*
X155361588Y-47948443D01*
X155275213Y-47992453D01*
X155172182Y-48044950D01*
X155000206Y-48169897D01*
X154849896Y-48320207D01*
X154811445Y-48373131D01*
X154740101Y-48439080D01*
X154648951Y-48472707D01*
X154551871Y-48468892D01*
X154463641Y-48428217D01*
X154408555Y-48373131D01*
X154370103Y-48320207D01*
X154219793Y-48169897D01*
X154153768Y-48121927D01*
X154047816Y-48044949D01*
X153858412Y-47948443D01*
X153858409Y-47948442D01*
X153858407Y-47948441D01*
X153656240Y-47882753D01*
X153446296Y-47849500D01*
X153446287Y-47849500D01*
X153233713Y-47849500D01*
X153233703Y-47849500D01*
X153023759Y-47882753D01*
X152821592Y-47948441D01*
X152821588Y-47948442D01*
X152821588Y-47948443D01*
X152735213Y-47992453D01*
X152632182Y-48044950D01*
X152460206Y-48169897D01*
X152309896Y-48320207D01*
X152271445Y-48373131D01*
X152200101Y-48439080D01*
X152108951Y-48472707D01*
X152011871Y-48468892D01*
X151923641Y-48428217D01*
X151868555Y-48373131D01*
X151830103Y-48320207D01*
X151679793Y-48169897D01*
X151613768Y-48121927D01*
X151507816Y-48044949D01*
X151318412Y-47948443D01*
X151318409Y-47948442D01*
X151318407Y-47948441D01*
X151116240Y-47882753D01*
X150906296Y-47849500D01*
X150906287Y-47849500D01*
X150693713Y-47849500D01*
X150693703Y-47849500D01*
X150483759Y-47882753D01*
X150281592Y-47948441D01*
X150281588Y-47948442D01*
X150281588Y-47948443D01*
X150195213Y-47992453D01*
X150092182Y-48044950D01*
X149920206Y-48169897D01*
X149769896Y-48320207D01*
X149731445Y-48373131D01*
X149660101Y-48439080D01*
X149568951Y-48472707D01*
X149471871Y-48468892D01*
X149383641Y-48428217D01*
X149328555Y-48373131D01*
X149290103Y-48320207D01*
X149139793Y-48169897D01*
X149073768Y-48121927D01*
X148967816Y-48044949D01*
X148778412Y-47948443D01*
X148778409Y-47948442D01*
X148778407Y-47948441D01*
X148576240Y-47882753D01*
X148366296Y-47849500D01*
X148366287Y-47849500D01*
X148153713Y-47849500D01*
X148153703Y-47849500D01*
X147943759Y-47882753D01*
X147741592Y-47948441D01*
X147741588Y-47948442D01*
X147741588Y-47948443D01*
X147655213Y-47992453D01*
X147552182Y-48044950D01*
X147465857Y-48107669D01*
X147380208Y-48169896D01*
X147380206Y-48169897D01*
X147372293Y-48175647D01*
X147370630Y-48173359D01*
X147301814Y-48211834D01*
X147205324Y-48223184D01*
X147111835Y-48196746D01*
X147035581Y-48136543D01*
X147025160Y-48121409D01*
X147024469Y-48121927D01*
X147013796Y-48107670D01*
X147013796Y-48107669D01*
X146927546Y-47992454D01*
X146812331Y-47906204D01*
X146699761Y-47864218D01*
X146677481Y-47855908D01*
X146617873Y-47849500D01*
X144822134Y-47849500D01*
X144822130Y-47849500D01*
X144822128Y-47849501D01*
X144809314Y-47850878D01*
X144762519Y-47855908D01*
X144762515Y-47855909D01*
X144627670Y-47906203D01*
X144512455Y-47992453D01*
X144512453Y-47992455D01*
X144426204Y-48107669D01*
X144375908Y-48242518D01*
X144369500Y-48302123D01*
X144369500Y-50097865D01*
X144369501Y-50097869D01*
X144375908Y-50157480D01*
X144375909Y-50157484D01*
X144400850Y-50224353D01*
X144426204Y-50292331D01*
X144512454Y-50407546D01*
X144627669Y-50493796D01*
X144762517Y-50544091D01*
X144822127Y-50550500D01*
X146617872Y-50550499D01*
X146677483Y-50544091D01*
X146812331Y-50493796D01*
X146927546Y-50407546D01*
X147013796Y-50292331D01*
X147013796Y-50292329D01*
X147024469Y-50278073D01*
X147027616Y-50280429D01*
X147068789Y-50231159D01*
X147154875Y-50186123D01*
X147251643Y-50177458D01*
X147344360Y-50206485D01*
X147371626Y-50225270D01*
X147372293Y-50224353D01*
X147380206Y-50230102D01*
X147380208Y-50230104D01*
X147552184Y-50355051D01*
X147741588Y-50451557D01*
X147943757Y-50517246D01*
X148017601Y-50528941D01*
X148153703Y-50550499D01*
X148153710Y-50550499D01*
X148153713Y-50550500D01*
X148153716Y-50550500D01*
X148366284Y-50550500D01*
X148366287Y-50550500D01*
X148366290Y-50550499D01*
X148366296Y-50550499D01*
X148465476Y-50534789D01*
X148576243Y-50517246D01*
X148778412Y-50451557D01*
X148967816Y-50355051D01*
X149139792Y-50230104D01*
X149290104Y-50079792D01*
X149328555Y-50026867D01*
X149399897Y-49960920D01*
X149491047Y-49927293D01*
X149588127Y-49931107D01*
X149676358Y-49971781D01*
X149731444Y-50026867D01*
X149769896Y-50079792D01*
X149920208Y-50230104D01*
X150092184Y-50355051D01*
X150281588Y-50451557D01*
X150483757Y-50517246D01*
X150557601Y-50528941D01*
X150693703Y-50550499D01*
X150693710Y-50550499D01*
X150693713Y-50550500D01*
X150693716Y-50550500D01*
X150906284Y-50550500D01*
X150906287Y-50550500D01*
X150906290Y-50550499D01*
X150906296Y-50550499D01*
X151005476Y-50534789D01*
X151116243Y-50517246D01*
X151318412Y-50451557D01*
X151507816Y-50355051D01*
X151679792Y-50230104D01*
X151830104Y-50079792D01*
X151868555Y-50026867D01*
X151939897Y-49960920D01*
X152031047Y-49927293D01*
X152128127Y-49931107D01*
X152216358Y-49971781D01*
X152271444Y-50026867D01*
X152309896Y-50079792D01*
X152460208Y-50230104D01*
X152632184Y-50355051D01*
X152821588Y-50451557D01*
X153023757Y-50517246D01*
X153097601Y-50528941D01*
X153233703Y-50550499D01*
X153233710Y-50550499D01*
X153233713Y-50550500D01*
X153233716Y-50550500D01*
X153446284Y-50550500D01*
X153446287Y-50550500D01*
X153446290Y-50550499D01*
X153446296Y-50550499D01*
X153545476Y-50534789D01*
X153656243Y-50517246D01*
X153858412Y-50451557D01*
X154047816Y-50355051D01*
X154219792Y-50230104D01*
X154370104Y-50079792D01*
X154408555Y-50026867D01*
X154479897Y-49960920D01*
X154571047Y-49927293D01*
X154668127Y-49931107D01*
X154756358Y-49971781D01*
X154811444Y-50026867D01*
X154849896Y-50079792D01*
X155000208Y-50230104D01*
X155172184Y-50355051D01*
X155361588Y-50451557D01*
X155563757Y-50517246D01*
X155637601Y-50528941D01*
X155773703Y-50550499D01*
X155773710Y-50550499D01*
X155773713Y-50550500D01*
X155773716Y-50550500D01*
X155986284Y-50550500D01*
X155986287Y-50550500D01*
X155986290Y-50550499D01*
X155986296Y-50550499D01*
X156085476Y-50534789D01*
X156196243Y-50517246D01*
X156398412Y-50451557D01*
X156587816Y-50355051D01*
X156759792Y-50230104D01*
X156910104Y-50079792D01*
X156948555Y-50026867D01*
X157019897Y-49960920D01*
X157111047Y-49927293D01*
X157208127Y-49931107D01*
X157296358Y-49971781D01*
X157351444Y-50026867D01*
X157389896Y-50079792D01*
X157540208Y-50230104D01*
X157712184Y-50355051D01*
X157901588Y-50451557D01*
X158103757Y-50517246D01*
X158177601Y-50528941D01*
X158313703Y-50550499D01*
X158313710Y-50550499D01*
X158313713Y-50550500D01*
X158313716Y-50550500D01*
X158526284Y-50550500D01*
X158526287Y-50550500D01*
X158526290Y-50550499D01*
X158526296Y-50550499D01*
X158625476Y-50534789D01*
X158736243Y-50517246D01*
X158938412Y-50451557D01*
X159127816Y-50355051D01*
X159299792Y-50230104D01*
X159450104Y-50079792D01*
X159488555Y-50026867D01*
X159559897Y-49960920D01*
X159651047Y-49927293D01*
X159748127Y-49931107D01*
X159836358Y-49971781D01*
X159891444Y-50026867D01*
X159929896Y-50079792D01*
X160080208Y-50230104D01*
X160252184Y-50355051D01*
X160441588Y-50451557D01*
X160643757Y-50517246D01*
X160717601Y-50528941D01*
X160853703Y-50550499D01*
X160853710Y-50550499D01*
X160853713Y-50550500D01*
X160853716Y-50550500D01*
X161066284Y-50550500D01*
X161066287Y-50550500D01*
X161066290Y-50550499D01*
X161066296Y-50550499D01*
X161165476Y-50534789D01*
X161276243Y-50517246D01*
X161478412Y-50451557D01*
X161667816Y-50355051D01*
X161839792Y-50230104D01*
X161990104Y-50079792D01*
X162028555Y-50026867D01*
X162099897Y-49960920D01*
X162191047Y-49927293D01*
X162288127Y-49931107D01*
X162376358Y-49971781D01*
X162431444Y-50026867D01*
X162469896Y-50079792D01*
X162620208Y-50230104D01*
X162792184Y-50355051D01*
X162981588Y-50451557D01*
X163183757Y-50517246D01*
X163257601Y-50528941D01*
X163393703Y-50550499D01*
X163393710Y-50550499D01*
X163393713Y-50550500D01*
X163393716Y-50550500D01*
X163606284Y-50550500D01*
X163606287Y-50550500D01*
X163606290Y-50550499D01*
X163606296Y-50550499D01*
X163705476Y-50534789D01*
X163816243Y-50517246D01*
X164018412Y-50451557D01*
X164207816Y-50355051D01*
X164379792Y-50230104D01*
X164530104Y-50079792D01*
X164655051Y-49907816D01*
X164751557Y-49718412D01*
X164817246Y-49516243D01*
X164848643Y-49318011D01*
X164850499Y-49306296D01*
X164850500Y-49306284D01*
X164850500Y-49093715D01*
X164850499Y-49093703D01*
X164819893Y-48900469D01*
X164823707Y-48803389D01*
X164864381Y-48715158D01*
X164935724Y-48649209D01*
X165026874Y-48615582D01*
X165123954Y-48619396D01*
X165212185Y-48660070D01*
X165241897Y-48685446D01*
X165766570Y-49210119D01*
X165820546Y-49290901D01*
X165839500Y-49386189D01*
X165839500Y-59320118D01*
X165839500Y-59399882D01*
X165870024Y-59473574D01*
X167141400Y-60744949D01*
X168306570Y-61910119D01*
X168360546Y-61990901D01*
X168379500Y-62086189D01*
X168379500Y-91625500D01*
X168371325Y-91666596D01*
X168365407Y-91708083D01*
X168361891Y-91714022D01*
X168360546Y-91720788D01*
X168337263Y-91755633D01*
X168315922Y-91791691D01*
X168310405Y-91795830D01*
X168306570Y-91801570D01*
X168271720Y-91824855D01*
X168238209Y-91849999D01*
X168231963Y-91851419D01*
X168225788Y-91855546D01*
X168144098Y-91874128D01*
X168132926Y-91874738D01*
X168130500Y-91874500D01*
X168074404Y-91874500D01*
X168008427Y-91878824D01*
X167973024Y-91883484D01*
X167963527Y-91884004D01*
X167924653Y-91878458D01*
X167885479Y-91875890D01*
X167876862Y-91871640D01*
X167867346Y-91870283D01*
X167833552Y-91850281D01*
X167798344Y-91832918D01*
X167792007Y-91825692D01*
X167783738Y-91820798D01*
X167760176Y-91789395D01*
X167734286Y-91759872D01*
X167727116Y-91745332D01*
X167725430Y-91743085D01*
X167724803Y-91740643D01*
X167719883Y-91730664D01*
X167658286Y-91581956D01*
X167658281Y-91581945D01*
X167570334Y-91429617D01*
X167540273Y-91377550D01*
X167396592Y-91190301D01*
X167229699Y-91023408D01*
X167042450Y-90879727D01*
X167042440Y-90879721D01*
X166838054Y-90761718D01*
X166838043Y-90761713D01*
X166717222Y-90711667D01*
X166619993Y-90671394D01*
X166392014Y-90610307D01*
X166392007Y-90610306D01*
X166158011Y-90579500D01*
X165921989Y-90579500D01*
X165687992Y-90610306D01*
X165687990Y-90610306D01*
X165687986Y-90610307D01*
X165515640Y-90656487D01*
X165460010Y-90671393D01*
X165460007Y-90671394D01*
X165241956Y-90761713D01*
X165241945Y-90761718D01*
X165037559Y-90879721D01*
X165037549Y-90879727D01*
X164850301Y-91023408D01*
X164850297Y-91023411D01*
X164683411Y-91190297D01*
X164683408Y-91190301D01*
X164539727Y-91377549D01*
X164539721Y-91377559D01*
X164421718Y-91581945D01*
X164421715Y-91581951D01*
X164359647Y-91731797D01*
X164305670Y-91812578D01*
X164224888Y-91866554D01*
X164129600Y-91885508D01*
X164105197Y-91884309D01*
X164005601Y-91874500D01*
X164005596Y-91874500D01*
X162609000Y-91874500D01*
X162608999Y-91874500D01*
X162510387Y-91884212D01*
X162510382Y-91884213D01*
X162415094Y-91903167D01*
X162415087Y-91903168D01*
X162411823Y-91903818D01*
X162411658Y-91902988D01*
X162319323Y-91905451D01*
X162228604Y-91870678D01*
X162159926Y-91806385D01*
X162157817Y-91803482D01*
X162157815Y-91803478D01*
X162028242Y-91625135D01*
X161872365Y-91469258D01*
X161694022Y-91339685D01*
X161694019Y-91339683D01*
X161694013Y-91339679D01*
X161497616Y-91239609D01*
X161497609Y-91239606D01*
X161497606Y-91239605D01*
X161287951Y-91171485D01*
X161287945Y-91171484D01*
X161287938Y-91171482D01*
X161070232Y-91137001D01*
X161070225Y-91137000D01*
X161070222Y-91137000D01*
X160849778Y-91137000D01*
X160849775Y-91137000D01*
X160849767Y-91137001D01*
X160632061Y-91171482D01*
X160632054Y-91171484D01*
X160632052Y-91171484D01*
X160632049Y-91171485D01*
X160422394Y-91239605D01*
X160422392Y-91239605D01*
X160422392Y-91239606D01*
X160422383Y-91239609D01*
X160225986Y-91339679D01*
X160225979Y-91339684D01*
X160047633Y-91469259D01*
X159891759Y-91625133D01*
X159762184Y-91803479D01*
X159762182Y-91803482D01*
X159677301Y-91970069D01*
X159631511Y-92033093D01*
X158949623Y-92714982D01*
X158868841Y-92768959D01*
X158797826Y-92783084D01*
X158839333Y-92711194D01*
X158870000Y-92596744D01*
X158870000Y-92478256D01*
X158839333Y-92363806D01*
X158780090Y-92261194D01*
X158696306Y-92177410D01*
X158593694Y-92118167D01*
X158479244Y-92087500D01*
X158360756Y-92087500D01*
X158246306Y-92118167D01*
X158143694Y-92177410D01*
X158059910Y-92261194D01*
X158000667Y-92363806D01*
X157970000Y-92478256D01*
X157970000Y-92596744D01*
X158000667Y-92711194D01*
X158042173Y-92783084D01*
X157971158Y-92768959D01*
X157890377Y-92714983D01*
X157353429Y-92178035D01*
X157299453Y-92097253D01*
X157280499Y-92001965D01*
X157280499Y-91836010D01*
X157280499Y-91836000D01*
X157270021Y-91733428D01*
X157270020Y-91733425D01*
X157270020Y-91733423D01*
X157270019Y-91733421D01*
X157214955Y-91567250D01*
X157214954Y-91567249D01*
X157214954Y-91567247D01*
X157123048Y-91418244D01*
X156999256Y-91294452D01*
X156999253Y-91294449D01*
X156940043Y-91257928D01*
X157847534Y-91257928D01*
X158419999Y-91830392D01*
X158992463Y-91257928D01*
X158957410Y-91240068D01*
X158747831Y-91171972D01*
X158530191Y-91137500D01*
X158309808Y-91137500D01*
X158092168Y-91171972D01*
X157882584Y-91240070D01*
X157847535Y-91257927D01*
X157847534Y-91257928D01*
X156940043Y-91257928D01*
X156850252Y-91202545D01*
X156850249Y-91202543D01*
X156684080Y-91147481D01*
X156684075Y-91147480D01*
X156684072Y-91147479D01*
X156581501Y-91137000D01*
X156581498Y-91137000D01*
X155178501Y-91137000D01*
X155075923Y-91147479D01*
X155075921Y-91147480D01*
X154909748Y-91202544D01*
X154909747Y-91202545D01*
X154760746Y-91294449D01*
X154636953Y-91418242D01*
X154636945Y-91418252D01*
X154636084Y-91419649D01*
X154634463Y-91421391D01*
X154627960Y-91429617D01*
X154627299Y-91429095D01*
X154569924Y-91490796D01*
X154481573Y-91531209D01*
X154384482Y-91534735D01*
X154293432Y-91500837D01*
X154260506Y-91474802D01*
X154259811Y-91475617D01*
X154252368Y-91469261D01*
X154252365Y-91469258D01*
X154074022Y-91339685D01*
X154074019Y-91339683D01*
X154074013Y-91339679D01*
X153877616Y-91239609D01*
X153877609Y-91239606D01*
X153877606Y-91239605D01*
X153667951Y-91171485D01*
X153667945Y-91171484D01*
X153667938Y-91171482D01*
X153450232Y-91137001D01*
X153450225Y-91137000D01*
X153450222Y-91137000D01*
X153229778Y-91137000D01*
X153229775Y-91137000D01*
X153229767Y-91137001D01*
X153012061Y-91171482D01*
X153012054Y-91171484D01*
X153012052Y-91171484D01*
X153012049Y-91171485D01*
X152802394Y-91239605D01*
X152802392Y-91239605D01*
X152802392Y-91239606D01*
X152802383Y-91239609D01*
X152605986Y-91339679D01*
X152605979Y-91339684D01*
X152427633Y-91469259D01*
X152271759Y-91625133D01*
X152142184Y-91803479D01*
X152142182Y-91803482D01*
X152057301Y-91970069D01*
X152011511Y-92033093D01*
X151329623Y-92714982D01*
X151248841Y-92768959D01*
X151177826Y-92783084D01*
X151219333Y-92711194D01*
X151250000Y-92596744D01*
X151250000Y-92478256D01*
X151219333Y-92363806D01*
X151160090Y-92261194D01*
X151076306Y-92177410D01*
X150973694Y-92118167D01*
X150859244Y-92087500D01*
X150740756Y-92087500D01*
X150626306Y-92118167D01*
X150523694Y-92177410D01*
X150439910Y-92261194D01*
X150380667Y-92363806D01*
X150350000Y-92478256D01*
X150350000Y-92596744D01*
X150380667Y-92711194D01*
X150422173Y-92783084D01*
X150351158Y-92768959D01*
X150270377Y-92714983D01*
X149733429Y-92178035D01*
X149679453Y-92097253D01*
X149660499Y-92001965D01*
X149660499Y-91836010D01*
X149660499Y-91836000D01*
X149650021Y-91733428D01*
X149650020Y-91733425D01*
X149650020Y-91733423D01*
X149650019Y-91733421D01*
X149594955Y-91567250D01*
X149594954Y-91567249D01*
X149594954Y-91567247D01*
X149503048Y-91418244D01*
X149379256Y-91294452D01*
X149379253Y-91294449D01*
X149320043Y-91257928D01*
X150227534Y-91257928D01*
X150799999Y-91830392D01*
X151372463Y-91257928D01*
X151337410Y-91240068D01*
X151127831Y-91171972D01*
X150910191Y-91137500D01*
X150689808Y-91137500D01*
X150472168Y-91171972D01*
X150262584Y-91240070D01*
X150227535Y-91257927D01*
X150227534Y-91257928D01*
X149320043Y-91257928D01*
X149230252Y-91202545D01*
X149230249Y-91202543D01*
X149064080Y-91147481D01*
X149064075Y-91147480D01*
X149064072Y-91147479D01*
X148961501Y-91137000D01*
X148961498Y-91137000D01*
X147558501Y-91137000D01*
X147455923Y-91147479D01*
X147455921Y-91147480D01*
X147289748Y-91202544D01*
X147289747Y-91202545D01*
X147140746Y-91294449D01*
X147016949Y-91418246D01*
X146925045Y-91567247D01*
X146925043Y-91567250D01*
X146869981Y-91733419D01*
X146869979Y-91733429D01*
X146859500Y-91835996D01*
X146859500Y-93238998D01*
X146869979Y-93341576D01*
X146869980Y-93341578D01*
X146925406Y-93508843D01*
X146937387Y-93605257D01*
X146911560Y-93698916D01*
X146896082Y-93725500D01*
X146842654Y-93805461D01*
X146842641Y-93805482D01*
X146815033Y-93852013D01*
X146767167Y-93987696D01*
X146767166Y-93987700D01*
X146748212Y-94082989D01*
X146738500Y-94181603D01*
X146738500Y-96056919D01*
X146719546Y-96152207D01*
X146665570Y-96232989D01*
X146584788Y-96286965D01*
X146489500Y-96305919D01*
X146394212Y-96286965D01*
X146376457Y-96278780D01*
X146238412Y-96208443D01*
X146238407Y-96208441D01*
X146036240Y-96142753D01*
X145826296Y-96109500D01*
X145826287Y-96109500D01*
X145613713Y-96109500D01*
X145613703Y-96109500D01*
X145403759Y-96142753D01*
X145201592Y-96208441D01*
X145201588Y-96208442D01*
X145201588Y-96208443D01*
X145153414Y-96232989D01*
X145012182Y-96304950D01*
X144840206Y-96429897D01*
X144689897Y-96580206D01*
X144564948Y-96752184D01*
X144551715Y-96778157D01*
X144505925Y-96841180D01*
X143709621Y-97637483D01*
X143628840Y-97691459D01*
X143623051Y-97692610D01*
X143645925Y-97652993D01*
X143680000Y-97525826D01*
X143680000Y-97394174D01*
X143645925Y-97267007D01*
X143580099Y-97152993D01*
X143487007Y-97059901D01*
X143372993Y-96994075D01*
X143245826Y-96960000D01*
X143114174Y-96960000D01*
X142987007Y-96994075D01*
X142872993Y-97059901D01*
X142779901Y-97152993D01*
X142714075Y-97267007D01*
X142680000Y-97394174D01*
X142680000Y-97525826D01*
X142714075Y-97652993D01*
X142736948Y-97692610D01*
X142731157Y-97691459D01*
X142650377Y-97637483D01*
X141935805Y-96922912D01*
X141884192Y-96922912D01*
X141169621Y-97637483D01*
X141088840Y-97691459D01*
X141083051Y-97692610D01*
X141105925Y-97652993D01*
X141140000Y-97525826D01*
X141140000Y-97394174D01*
X141105925Y-97267007D01*
X141040099Y-97152993D01*
X140947007Y-97059901D01*
X140832993Y-96994075D01*
X140705826Y-96960000D01*
X140574174Y-96960000D01*
X140447007Y-96994075D01*
X140332993Y-97059901D01*
X140239901Y-97152993D01*
X140174075Y-97267007D01*
X140140000Y-97394174D01*
X140140000Y-97525826D01*
X140174075Y-97652993D01*
X140196948Y-97692610D01*
X140191157Y-97691459D01*
X140110377Y-97637483D01*
X139314075Y-96841182D01*
X139294452Y-96819079D01*
X139279365Y-96799904D01*
X139255051Y-96752184D01*
X139130104Y-96580208D01*
X138979792Y-96429896D01*
X138807816Y-96304949D01*
X138636388Y-96217602D01*
X140104710Y-96217602D01*
X140640000Y-96752892D01*
X141175288Y-96217603D01*
X141175286Y-96217602D01*
X142644710Y-96217602D01*
X143180000Y-96752892D01*
X143715288Y-96217603D01*
X143698214Y-96208904D01*
X143496123Y-96143241D01*
X143286256Y-96110000D01*
X143073743Y-96110000D01*
X142863874Y-96143241D01*
X142863873Y-96143241D01*
X142661793Y-96208900D01*
X142661779Y-96208906D01*
X142644710Y-96217602D01*
X141175286Y-96217602D01*
X141158214Y-96208904D01*
X140956123Y-96143241D01*
X140746256Y-96110000D01*
X140533743Y-96110000D01*
X140323874Y-96143241D01*
X140323873Y-96143241D01*
X140121793Y-96208900D01*
X140121779Y-96208906D01*
X140104710Y-96217602D01*
X138636388Y-96217602D01*
X138618412Y-96208443D01*
X138618409Y-96208442D01*
X138618407Y-96208441D01*
X138416241Y-96142753D01*
X138296599Y-96123803D01*
X138205449Y-96090175D01*
X138134107Y-96024226D01*
X138093432Y-95935995D01*
X138091338Y-95926447D01*
X138076762Y-95853169D01*
X138076761Y-95853167D01*
X138076760Y-95853161D01*
X138063378Y-95800732D01*
X138001283Y-95670941D01*
X138001282Y-95670939D01*
X137947314Y-95590168D01*
X137884437Y-95513553D01*
X136498373Y-94127489D01*
X136421758Y-94064612D01*
X136341002Y-94010654D01*
X136340981Y-94010641D01*
X136294450Y-93983033D01*
X136158767Y-93935167D01*
X136158763Y-93935166D01*
X136063474Y-93916212D01*
X135964860Y-93906500D01*
X105072500Y-93906500D01*
X104977212Y-93887546D01*
X104896430Y-93833570D01*
X104842454Y-93752788D01*
X104823500Y-93657500D01*
X104823500Y-85418543D01*
X110404500Y-85418543D01*
X110404500Y-85641456D01*
X110430244Y-85837007D01*
X110433596Y-85862463D01*
X110491290Y-86077781D01*
X110491291Y-86077784D01*
X110491292Y-86077788D01*
X110576592Y-86283720D01*
X110576594Y-86283724D01*
X110576595Y-86283726D01*
X110688052Y-86476774D01*
X110823753Y-86653624D01*
X110981376Y-86811247D01*
X111158226Y-86946948D01*
X111351274Y-87058405D01*
X111351279Y-87058407D01*
X111557211Y-87143707D01*
X111557212Y-87143707D01*
X111557219Y-87143710D01*
X111772537Y-87201404D01*
X111993543Y-87230500D01*
X112216457Y-87230500D01*
X112437463Y-87201404D01*
X112652781Y-87143710D01*
X112858726Y-87058405D01*
X113051774Y-86946948D01*
X113228624Y-86811247D01*
X113386247Y-86653624D01*
X113521948Y-86476774D01*
X113633405Y-86283726D01*
X113718710Y-86077781D01*
X113759995Y-85923703D01*
X122154500Y-85923703D01*
X122154500Y-86136296D01*
X122187753Y-86346240D01*
X122247460Y-86530000D01*
X122253443Y-86548412D01*
X122349949Y-86737816D01*
X122474896Y-86909792D01*
X122625208Y-87060104D01*
X122797184Y-87185051D01*
X122986588Y-87281557D01*
X123188757Y-87347246D01*
X123262601Y-87358941D01*
X123398703Y-87380499D01*
X123398710Y-87380499D01*
X123398713Y-87380500D01*
X123398716Y-87380500D01*
X123611284Y-87380500D01*
X123611287Y-87380500D01*
X123611290Y-87380499D01*
X123611296Y-87380499D01*
X123710476Y-87364789D01*
X123821243Y-87347246D01*
X124023412Y-87281557D01*
X124212816Y-87185051D01*
X124384792Y-87060104D01*
X124535104Y-86909792D01*
X124573555Y-86856867D01*
X124644897Y-86790920D01*
X124736047Y-86757293D01*
X124833127Y-86761107D01*
X124921358Y-86801781D01*
X124976444Y-86856867D01*
X125014896Y-86909792D01*
X125165208Y-87060104D01*
X125337184Y-87185051D01*
X125526588Y-87281557D01*
X125728757Y-87347246D01*
X125802601Y-87358941D01*
X125938703Y-87380499D01*
X125938710Y-87380499D01*
X125938713Y-87380500D01*
X125938716Y-87380500D01*
X126151284Y-87380500D01*
X126151287Y-87380500D01*
X126151290Y-87380499D01*
X126151296Y-87380499D01*
X126250476Y-87364789D01*
X126361243Y-87347246D01*
X126563412Y-87281557D01*
X126752816Y-87185051D01*
X126924792Y-87060104D01*
X127075104Y-86909792D01*
X127113555Y-86856867D01*
X127184897Y-86790920D01*
X127276047Y-86757293D01*
X127373127Y-86761107D01*
X127461358Y-86801781D01*
X127516444Y-86856867D01*
X127554896Y-86909792D01*
X127705208Y-87060104D01*
X127877184Y-87185051D01*
X128066588Y-87281557D01*
X128268757Y-87347246D01*
X128342601Y-87358941D01*
X128478703Y-87380499D01*
X128478710Y-87380499D01*
X128478713Y-87380500D01*
X128478716Y-87380500D01*
X128691284Y-87380500D01*
X128691287Y-87380500D01*
X128691290Y-87380499D01*
X128691296Y-87380499D01*
X128790476Y-87364789D01*
X128901243Y-87347246D01*
X129103412Y-87281557D01*
X129292816Y-87185051D01*
X129464792Y-87060104D01*
X129464793Y-87060102D01*
X129472707Y-87054353D01*
X129474322Y-87056576D01*
X129543399Y-87017888D01*
X129639880Y-87006465D01*
X129733389Y-87032833D01*
X129809689Y-87092978D01*
X129820281Y-87108349D01*
X129820974Y-87107831D01*
X129917810Y-87237187D01*
X129917812Y-87237189D01*
X130032912Y-87323353D01*
X130167621Y-87373596D01*
X130167628Y-87373598D01*
X130227167Y-87379999D01*
X130227175Y-87380000D01*
X130624999Y-87380000D01*
X130625000Y-87379999D01*
X130625000Y-86530001D01*
X131625000Y-86530001D01*
X131625000Y-87379999D01*
X131625001Y-87380000D01*
X132022825Y-87380000D01*
X132022832Y-87379999D01*
X132082371Y-87373598D01*
X132082378Y-87373596D01*
X132217087Y-87323353D01*
X132332187Y-87237189D01*
X132332189Y-87237187D01*
X132418353Y-87122087D01*
X132468596Y-86987378D01*
X132468598Y-86987371D01*
X132474999Y-86927832D01*
X132475000Y-86927825D01*
X132475000Y-86530001D01*
X132474999Y-86530000D01*
X131625001Y-86530000D01*
X131625000Y-86530001D01*
X130625000Y-86530001D01*
X130625000Y-86095826D01*
X130659075Y-86222993D01*
X130724901Y-86337007D01*
X130817993Y-86430099D01*
X130932007Y-86495925D01*
X131059174Y-86530000D01*
X131190826Y-86530000D01*
X131317993Y-86495925D01*
X131432007Y-86430099D01*
X131525099Y-86337007D01*
X131590925Y-86222993D01*
X131625000Y-86095826D01*
X131625000Y-85964174D01*
X131590925Y-85837007D01*
X131525099Y-85722993D01*
X131432007Y-85629901D01*
X131317993Y-85564075D01*
X131190826Y-85530000D01*
X131059174Y-85530000D01*
X130932007Y-85564075D01*
X130817993Y-85629901D01*
X130724901Y-85722993D01*
X130659075Y-85837007D01*
X130625000Y-85964174D01*
X130625000Y-84680001D01*
X131625000Y-84680001D01*
X131625000Y-85529999D01*
X131625001Y-85530000D01*
X132474999Y-85530000D01*
X132475000Y-85529999D01*
X132475000Y-85418543D01*
X140804500Y-85418543D01*
X140804500Y-85641456D01*
X140830244Y-85837007D01*
X140833596Y-85862463D01*
X140891290Y-86077781D01*
X140891291Y-86077784D01*
X140891292Y-86077788D01*
X140976592Y-86283720D01*
X140976594Y-86283724D01*
X140976595Y-86283726D01*
X141088052Y-86476774D01*
X141223753Y-86653624D01*
X141381376Y-86811247D01*
X141558226Y-86946948D01*
X141751274Y-87058405D01*
X141751279Y-87058407D01*
X141957211Y-87143707D01*
X141957212Y-87143707D01*
X141957219Y-87143710D01*
X142172537Y-87201404D01*
X142393543Y-87230500D01*
X142616457Y-87230500D01*
X142837463Y-87201404D01*
X143052781Y-87143710D01*
X143258726Y-87058405D01*
X143451774Y-86946948D01*
X143628624Y-86811247D01*
X143786247Y-86653624D01*
X143921948Y-86476774D01*
X144033405Y-86283726D01*
X144118710Y-86077781D01*
X144176404Y-85862463D01*
X144205500Y-85641457D01*
X144205500Y-85418543D01*
X144176404Y-85197537D01*
X144118710Y-84982219D01*
X144100357Y-84937912D01*
X144033407Y-84776279D01*
X144033405Y-84776275D01*
X144033405Y-84776274D01*
X143921948Y-84583226D01*
X143786247Y-84406376D01*
X143628624Y-84248753D01*
X143451774Y-84113052D01*
X143258726Y-84001595D01*
X143258724Y-84001594D01*
X143258720Y-84001592D01*
X143052788Y-83916292D01*
X143052784Y-83916291D01*
X143052782Y-83916290D01*
X143052781Y-83916290D01*
X142837463Y-83858596D01*
X142837458Y-83858595D01*
X142837459Y-83858595D01*
X142616457Y-83829500D01*
X142393543Y-83829500D01*
X142172541Y-83858595D01*
X141957215Y-83916291D01*
X141957211Y-83916292D01*
X141751279Y-84001592D01*
X141751275Y-84001594D01*
X141558230Y-84113049D01*
X141381373Y-84248755D01*
X141223755Y-84406373D01*
X141088049Y-84583230D01*
X140976594Y-84776275D01*
X140976592Y-84776279D01*
X140891292Y-84982211D01*
X140891291Y-84982215D01*
X140833595Y-85197541D01*
X140804500Y-85418543D01*
X132475000Y-85418543D01*
X132475000Y-85132175D01*
X132474999Y-85132167D01*
X132468598Y-85072628D01*
X132468596Y-85072621D01*
X132418353Y-84937912D01*
X132332189Y-84822812D01*
X132332187Y-84822810D01*
X132217087Y-84736646D01*
X132082378Y-84686403D01*
X132082371Y-84686401D01*
X132022832Y-84680000D01*
X131625001Y-84680000D01*
X131625000Y-84680001D01*
X130625000Y-84680001D01*
X130624999Y-84680000D01*
X130227167Y-84680000D01*
X130167628Y-84686401D01*
X130167621Y-84686403D01*
X130032912Y-84736646D01*
X129917812Y-84822810D01*
X129917810Y-84822812D01*
X129820974Y-84952169D01*
X129817845Y-84949827D01*
X129776555Y-84999214D01*
X129690457Y-85044229D01*
X129593687Y-85052869D01*
X129500977Y-85023819D01*
X129473337Y-85004778D01*
X129472707Y-85005647D01*
X129464793Y-84999897D01*
X129464792Y-84999896D01*
X129292816Y-84874949D01*
X129103412Y-84778443D01*
X129103409Y-84778442D01*
X129103407Y-84778441D01*
X128901240Y-84712753D01*
X128691296Y-84679500D01*
X128691287Y-84679500D01*
X128478713Y-84679500D01*
X128478703Y-84679500D01*
X128268759Y-84712753D01*
X128066592Y-84778441D01*
X127877182Y-84874950D01*
X127705206Y-84999897D01*
X127554896Y-85150207D01*
X127516445Y-85203131D01*
X127445101Y-85269080D01*
X127353951Y-85302707D01*
X127256871Y-85298892D01*
X127168641Y-85258217D01*
X127113555Y-85203131D01*
X127075103Y-85150207D01*
X126924793Y-84999897D01*
X126900462Y-84982219D01*
X126752816Y-84874949D01*
X126563412Y-84778443D01*
X126563409Y-84778442D01*
X126563407Y-84778441D01*
X126361240Y-84712753D01*
X126151296Y-84679500D01*
X126151287Y-84679500D01*
X125938713Y-84679500D01*
X125938703Y-84679500D01*
X125728759Y-84712753D01*
X125526592Y-84778441D01*
X125337182Y-84874950D01*
X125165206Y-84999897D01*
X125014896Y-85150207D01*
X124976445Y-85203131D01*
X124905101Y-85269080D01*
X124813951Y-85302707D01*
X124716871Y-85298892D01*
X124628641Y-85258217D01*
X124573555Y-85203131D01*
X124535103Y-85150207D01*
X124384793Y-84999897D01*
X124360462Y-84982219D01*
X124212816Y-84874949D01*
X124023412Y-84778443D01*
X124023409Y-84778442D01*
X124023407Y-84778441D01*
X123821240Y-84712753D01*
X123611296Y-84679500D01*
X123611287Y-84679500D01*
X123398713Y-84679500D01*
X123398703Y-84679500D01*
X123188759Y-84712753D01*
X122986592Y-84778441D01*
X122797182Y-84874950D01*
X122625206Y-84999897D01*
X122474897Y-85150206D01*
X122349950Y-85322182D01*
X122253441Y-85511592D01*
X122187753Y-85713759D01*
X122154500Y-85923703D01*
X113759995Y-85923703D01*
X113776404Y-85862463D01*
X113805500Y-85641457D01*
X113805500Y-85418543D01*
X113776404Y-85197537D01*
X113718710Y-84982219D01*
X113700357Y-84937912D01*
X113633407Y-84776279D01*
X113633405Y-84776275D01*
X113633405Y-84776274D01*
X113521948Y-84583226D01*
X113386247Y-84406376D01*
X113228624Y-84248753D01*
X113051774Y-84113052D01*
X112858726Y-84001595D01*
X112858724Y-84001594D01*
X112858720Y-84001592D01*
X112652788Y-83916292D01*
X112652784Y-83916291D01*
X112652782Y-83916290D01*
X112652781Y-83916290D01*
X112437463Y-83858596D01*
X112437458Y-83858595D01*
X112437459Y-83858595D01*
X112216457Y-83829500D01*
X111993543Y-83829500D01*
X111772541Y-83858595D01*
X111557215Y-83916291D01*
X111557211Y-83916292D01*
X111351279Y-84001592D01*
X111351275Y-84001594D01*
X111158230Y-84113049D01*
X110981373Y-84248755D01*
X110823755Y-84406373D01*
X110688049Y-84583230D01*
X110576594Y-84776275D01*
X110576592Y-84776279D01*
X110491292Y-84982211D01*
X110491291Y-84982215D01*
X110433595Y-85197541D01*
X110404500Y-85418543D01*
X104823500Y-85418543D01*
X104823500Y-81279499D01*
X104842454Y-81184211D01*
X104896430Y-81103429D01*
X104977212Y-81049453D01*
X105072500Y-81030499D01*
X105977866Y-81030499D01*
X105977872Y-81030499D01*
X106037483Y-81024091D01*
X106172331Y-80973796D01*
X106287546Y-80887546D01*
X106373796Y-80772331D01*
X106424091Y-80637483D01*
X106430500Y-80577873D01*
X106430499Y-78782128D01*
X106424091Y-78722517D01*
X106373796Y-78587669D01*
X106287546Y-78472454D01*
X106172331Y-78386204D01*
X106172329Y-78386203D01*
X106158073Y-78375531D01*
X106160426Y-78372387D01*
X106111106Y-78331144D01*
X106066099Y-78245043D01*
X106057467Y-78148272D01*
X106086526Y-78055564D01*
X106105274Y-78028376D01*
X106104353Y-78027707D01*
X106110233Y-78019614D01*
X106235051Y-77847816D01*
X106331557Y-77658412D01*
X106397246Y-77456243D01*
X106428629Y-77258103D01*
X106430499Y-77246296D01*
X106430500Y-77246284D01*
X106430500Y-77033715D01*
X106430499Y-77033703D01*
X106397246Y-76823759D01*
X106397246Y-76823757D01*
X106331557Y-76621588D01*
X106235051Y-76432184D01*
X106110104Y-76260208D01*
X105959792Y-76109896D01*
X105787816Y-75984949D01*
X105787815Y-75984948D01*
X105787813Y-75984947D01*
X105761843Y-75971715D01*
X105698817Y-75925924D01*
X104902516Y-75129622D01*
X104848540Y-75048841D01*
X104847388Y-75043051D01*
X104887007Y-75065925D01*
X105014174Y-75100000D01*
X105145826Y-75100000D01*
X105272993Y-75065925D01*
X105387007Y-75000099D01*
X105480099Y-74907007D01*
X105545925Y-74792993D01*
X105580000Y-74665826D01*
X105580000Y-74600000D01*
X105787106Y-74600000D01*
X106322395Y-75135289D01*
X106331094Y-75118219D01*
X106396758Y-74916123D01*
X106429999Y-74706256D01*
X106430000Y-74706244D01*
X106430000Y-74493755D01*
X106429999Y-74493743D01*
X106396758Y-74283876D01*
X106331094Y-74081780D01*
X106322396Y-74064710D01*
X105787106Y-74600000D01*
X105580000Y-74600000D01*
X105580000Y-74534174D01*
X105545925Y-74407007D01*
X105480099Y-74292993D01*
X105387007Y-74199901D01*
X105272993Y-74134075D01*
X105145826Y-74100000D01*
X105014174Y-74100000D01*
X104887007Y-74134075D01*
X104847387Y-74156949D01*
X104848540Y-74151157D01*
X104902516Y-74070377D01*
X105698814Y-73274077D01*
X105761838Y-73228286D01*
X105787816Y-73215051D01*
X105959792Y-73090104D01*
X106110104Y-72939792D01*
X106235051Y-72767816D01*
X106331557Y-72578412D01*
X106397246Y-72376243D01*
X106428629Y-72178103D01*
X106430499Y-72166296D01*
X106430500Y-72166284D01*
X106430500Y-71953715D01*
X106430499Y-71953703D01*
X106397246Y-71743759D01*
X106397246Y-71743757D01*
X106331557Y-71541588D01*
X106235051Y-71352184D01*
X106110104Y-71180208D01*
X105959792Y-71029896D01*
X105906867Y-70991444D01*
X105840920Y-70920103D01*
X105807293Y-70828953D01*
X105811107Y-70731873D01*
X105851781Y-70643642D01*
X105906867Y-70588555D01*
X105959792Y-70550104D01*
X106110104Y-70399792D01*
X106235051Y-70227816D01*
X106331557Y-70038412D01*
X106397246Y-69836243D01*
X106428629Y-69638103D01*
X106430499Y-69626296D01*
X106430500Y-69626284D01*
X106430500Y-69413715D01*
X106430499Y-69413703D01*
X106397246Y-69203759D01*
X106397246Y-69203757D01*
X106331557Y-69001588D01*
X106235051Y-68812184D01*
X106110104Y-68640208D01*
X105959792Y-68489896D01*
X105906867Y-68451444D01*
X105840920Y-68380103D01*
X105807293Y-68288953D01*
X105811107Y-68191873D01*
X105851781Y-68103642D01*
X105906867Y-68048555D01*
X105959792Y-68010104D01*
X106110104Y-67859792D01*
X106235051Y-67687816D01*
X106331557Y-67498412D01*
X106397246Y-67296243D01*
X106428629Y-67098103D01*
X106430499Y-67086296D01*
X106430500Y-67086284D01*
X106430500Y-66873715D01*
X106430499Y-66873703D01*
X106397246Y-66663759D01*
X106397246Y-66663757D01*
X106331557Y-66461588D01*
X106235051Y-66272184D01*
X106110104Y-66100208D01*
X105959792Y-65949896D01*
X105906867Y-65911444D01*
X105840920Y-65840103D01*
X105807293Y-65748953D01*
X105811107Y-65651873D01*
X105851781Y-65563642D01*
X105906867Y-65508555D01*
X105959792Y-65470104D01*
X106110104Y-65319792D01*
X106235051Y-65147816D01*
X106331557Y-64958412D01*
X106397246Y-64756243D01*
X106414789Y-64645476D01*
X106430499Y-64546296D01*
X106430500Y-64546284D01*
X106430500Y-64333718D01*
X106430500Y-64333713D01*
X106428631Y-64321912D01*
X113739500Y-64321912D01*
X113739500Y-64558087D01*
X113739501Y-64558103D01*
X113776446Y-64791364D01*
X113776447Y-64791368D01*
X113849432Y-65015992D01*
X113903885Y-65122862D01*
X113956659Y-65226437D01*
X114095478Y-65417504D01*
X114095480Y-65417506D01*
X114095483Y-65417510D01*
X114211906Y-65533933D01*
X114265880Y-65614712D01*
X114284834Y-65710000D01*
X114265880Y-65805288D01*
X114211906Y-65886066D01*
X114148077Y-65949896D01*
X114095478Y-66002495D01*
X113956659Y-66193562D01*
X113849430Y-66404012D01*
X113776446Y-66628635D01*
X113739501Y-66861896D01*
X113739500Y-66861912D01*
X113739500Y-67098087D01*
X113739501Y-67098103D01*
X113776446Y-67331364D01*
X113776447Y-67331368D01*
X113849432Y-67555992D01*
X113916600Y-67687816D01*
X113956659Y-67766437D01*
X114095478Y-67957504D01*
X114095480Y-67957506D01*
X114095483Y-67957510D01*
X114211906Y-68073933D01*
X114265880Y-68154712D01*
X114284834Y-68250000D01*
X114265880Y-68345288D01*
X114211906Y-68426066D01*
X114148077Y-68489896D01*
X114095478Y-68542495D01*
X113956659Y-68733562D01*
X113849430Y-68944012D01*
X113776446Y-69168635D01*
X113739501Y-69401896D01*
X113739500Y-69401912D01*
X113739500Y-69638087D01*
X113739501Y-69638103D01*
X113776446Y-69871364D01*
X113776447Y-69871368D01*
X113849432Y-70095992D01*
X113916600Y-70227816D01*
X113956659Y-70306437D01*
X114095478Y-70497504D01*
X114095480Y-70497506D01*
X114095483Y-70497510D01*
X114211906Y-70613933D01*
X114265880Y-70694712D01*
X114284834Y-70790000D01*
X114265880Y-70885288D01*
X114211906Y-70966066D01*
X114148077Y-71029896D01*
X114095478Y-71082495D01*
X113956659Y-71273562D01*
X113849430Y-71484012D01*
X113776446Y-71708635D01*
X113739501Y-71941896D01*
X113739500Y-71941912D01*
X113739500Y-72178087D01*
X113739501Y-72178103D01*
X113776446Y-72411364D01*
X113776447Y-72411368D01*
X113849432Y-72635992D01*
X113899920Y-72735080D01*
X113956659Y-72846437D01*
X114095478Y-73037504D01*
X114095480Y-73037506D01*
X114095483Y-73037510D01*
X114211906Y-73153933D01*
X114265880Y-73234712D01*
X114284834Y-73330000D01*
X114265880Y-73425288D01*
X114211906Y-73506066D01*
X114140713Y-73577260D01*
X114095478Y-73622495D01*
X113956659Y-73813562D01*
X113849430Y-74024012D01*
X113776446Y-74248635D01*
X113739501Y-74481896D01*
X113739500Y-74481912D01*
X113739500Y-74718087D01*
X113739501Y-74718103D01*
X113772170Y-74924367D01*
X113776447Y-74951368D01*
X113808118Y-75048841D01*
X113836206Y-75135289D01*
X113849432Y-75175992D01*
X113918945Y-75312419D01*
X113956659Y-75386437D01*
X114095478Y-75577504D01*
X114095480Y-75577506D01*
X114095483Y-75577510D01*
X114211906Y-75693933D01*
X114265880Y-75774712D01*
X114284834Y-75870000D01*
X114265880Y-75965288D01*
X114211906Y-76046066D01*
X114148077Y-76109896D01*
X114095478Y-76162495D01*
X113956659Y-76353562D01*
X113849430Y-76564012D01*
X113776446Y-76788635D01*
X113739501Y-77021896D01*
X113739500Y-77021912D01*
X113739500Y-77258087D01*
X113739501Y-77258103D01*
X113776446Y-77491364D01*
X113848231Y-77712298D01*
X113849432Y-77715992D01*
X113903034Y-77821191D01*
X113956659Y-77926437D01*
X114095478Y-78117504D01*
X114095480Y-78117506D01*
X114095483Y-78117510D01*
X114211906Y-78233933D01*
X114265880Y-78314712D01*
X114284834Y-78410000D01*
X114265880Y-78505288D01*
X114211906Y-78586066D01*
X114130265Y-78667708D01*
X114095478Y-78702495D01*
X113956659Y-78893562D01*
X113849430Y-79104012D01*
X113776446Y-79328635D01*
X113739501Y-79561896D01*
X113739500Y-79561912D01*
X113739500Y-79798087D01*
X113739501Y-79798103D01*
X113776446Y-80031364D01*
X113776447Y-80031368D01*
X113849432Y-80255992D01*
X113949683Y-80452747D01*
X113956659Y-80466437D01*
X114095478Y-80657504D01*
X114095480Y-80657506D01*
X114095483Y-80657510D01*
X114262490Y-80824517D01*
X114262493Y-80824519D01*
X114262495Y-80824521D01*
X114453562Y-80963340D01*
X114453564Y-80963341D01*
X114453567Y-80963343D01*
X114664008Y-81070568D01*
X114888632Y-81143553D01*
X115121908Y-81180500D01*
X115121912Y-81180500D01*
X115358088Y-81180500D01*
X115358092Y-81180500D01*
X115591368Y-81143553D01*
X115815992Y-81070568D01*
X116026433Y-80963343D01*
X116217510Y-80824517D01*
X116333933Y-80708093D01*
X116414712Y-80654120D01*
X116510000Y-80635166D01*
X116605288Y-80654120D01*
X116686066Y-80708093D01*
X116802490Y-80824517D01*
X116802493Y-80824519D01*
X116802495Y-80824521D01*
X116993562Y-80963340D01*
X116993564Y-80963341D01*
X116993567Y-80963343D01*
X117204008Y-81070568D01*
X117428632Y-81143553D01*
X117661908Y-81180500D01*
X117661912Y-81180500D01*
X117898088Y-81180500D01*
X117898092Y-81180500D01*
X118131368Y-81143553D01*
X118355992Y-81070568D01*
X118566433Y-80963343D01*
X118757510Y-80824517D01*
X118873933Y-80708093D01*
X118954712Y-80654120D01*
X119050000Y-80635166D01*
X119145288Y-80654120D01*
X119226066Y-80708093D01*
X119342490Y-80824517D01*
X119342493Y-80824519D01*
X119342495Y-80824521D01*
X119533562Y-80963340D01*
X119533564Y-80963341D01*
X119533567Y-80963343D01*
X119744008Y-81070568D01*
X119968632Y-81143553D01*
X120201908Y-81180500D01*
X120201912Y-81180500D01*
X120438088Y-81180500D01*
X120438092Y-81180500D01*
X120671368Y-81143553D01*
X120895992Y-81070568D01*
X121106433Y-80963343D01*
X121297510Y-80824517D01*
X121413933Y-80708093D01*
X121494712Y-80654120D01*
X121590000Y-80635166D01*
X121685288Y-80654120D01*
X121766066Y-80708093D01*
X121882490Y-80824517D01*
X121882493Y-80824519D01*
X121882495Y-80824521D01*
X122073562Y-80963340D01*
X122073564Y-80963341D01*
X122073567Y-80963343D01*
X122284008Y-81070568D01*
X122508632Y-81143553D01*
X122741908Y-81180500D01*
X122741912Y-81180500D01*
X122978088Y-81180500D01*
X122978092Y-81180500D01*
X123211368Y-81143553D01*
X123435992Y-81070568D01*
X123646433Y-80963343D01*
X123837510Y-80824517D01*
X123953933Y-80708093D01*
X124034712Y-80654120D01*
X124130000Y-80635166D01*
X124225288Y-80654120D01*
X124306066Y-80708093D01*
X124422490Y-80824517D01*
X124422493Y-80824519D01*
X124422495Y-80824521D01*
X124613562Y-80963340D01*
X124613564Y-80963341D01*
X124613567Y-80963343D01*
X124824008Y-81070568D01*
X125048632Y-81143553D01*
X125281908Y-81180500D01*
X125281912Y-81180500D01*
X125518088Y-81180500D01*
X125518092Y-81180500D01*
X125751368Y-81143553D01*
X125975992Y-81070568D01*
X126186433Y-80963343D01*
X126377510Y-80824517D01*
X126493933Y-80708093D01*
X126574712Y-80654120D01*
X126670000Y-80635166D01*
X126765288Y-80654120D01*
X126846066Y-80708093D01*
X126962490Y-80824517D01*
X126962493Y-80824519D01*
X126962495Y-80824521D01*
X127153562Y-80963340D01*
X127153564Y-80963341D01*
X127153567Y-80963343D01*
X127364008Y-81070568D01*
X127588632Y-81143553D01*
X127821908Y-81180500D01*
X127821912Y-81180500D01*
X128058088Y-81180500D01*
X128058092Y-81180500D01*
X128291368Y-81143553D01*
X128515992Y-81070568D01*
X128726433Y-80963343D01*
X128917510Y-80824517D01*
X129033933Y-80708093D01*
X129114712Y-80654120D01*
X129210000Y-80635166D01*
X129305288Y-80654120D01*
X129386066Y-80708093D01*
X129502490Y-80824517D01*
X129502493Y-80824519D01*
X129502495Y-80824521D01*
X129693562Y-80963340D01*
X129693564Y-80963341D01*
X129693567Y-80963343D01*
X129904008Y-81070568D01*
X130128632Y-81143553D01*
X130361908Y-81180500D01*
X130361912Y-81180500D01*
X130598088Y-81180500D01*
X130598092Y-81180500D01*
X130831368Y-81143553D01*
X131055992Y-81070568D01*
X131266433Y-80963343D01*
X131457510Y-80824517D01*
X131573933Y-80708093D01*
X131654712Y-80654120D01*
X131750000Y-80635166D01*
X131845288Y-80654120D01*
X131926066Y-80708093D01*
X132042490Y-80824517D01*
X132042493Y-80824519D01*
X132042495Y-80824521D01*
X132233562Y-80963340D01*
X132233564Y-80963341D01*
X132233567Y-80963343D01*
X132444008Y-81070568D01*
X132668632Y-81143553D01*
X132901908Y-81180500D01*
X132901912Y-81180500D01*
X133138088Y-81180500D01*
X133138092Y-81180500D01*
X133371368Y-81143553D01*
X133595992Y-81070568D01*
X133806433Y-80963343D01*
X133997510Y-80824517D01*
X134113933Y-80708093D01*
X134194712Y-80654120D01*
X134290000Y-80635166D01*
X134385288Y-80654120D01*
X134466066Y-80708093D01*
X134582490Y-80824517D01*
X134582493Y-80824519D01*
X134582495Y-80824521D01*
X134773562Y-80963340D01*
X134773564Y-80963341D01*
X134773567Y-80963343D01*
X134984008Y-81070568D01*
X135208632Y-81143553D01*
X135441908Y-81180500D01*
X135441912Y-81180500D01*
X135678088Y-81180500D01*
X135678092Y-81180500D01*
X135911368Y-81143553D01*
X136135992Y-81070568D01*
X136346433Y-80963343D01*
X136537510Y-80824517D01*
X136653933Y-80708093D01*
X136734712Y-80654120D01*
X136830000Y-80635166D01*
X136925288Y-80654120D01*
X137006066Y-80708093D01*
X137122490Y-80824517D01*
X137122493Y-80824519D01*
X137122495Y-80824521D01*
X137313562Y-80963340D01*
X137313564Y-80963341D01*
X137313567Y-80963343D01*
X137524008Y-81070568D01*
X137748632Y-81143553D01*
X137981908Y-81180500D01*
X137981912Y-81180500D01*
X138218088Y-81180500D01*
X138218092Y-81180500D01*
X138451368Y-81143553D01*
X138675992Y-81070568D01*
X138886433Y-80963343D01*
X139077510Y-80824517D01*
X139193933Y-80708093D01*
X139274712Y-80654120D01*
X139370000Y-80635166D01*
X139465288Y-80654120D01*
X139546066Y-80708093D01*
X139662490Y-80824517D01*
X139662493Y-80824519D01*
X139662495Y-80824521D01*
X139853562Y-80963340D01*
X139853564Y-80963341D01*
X139853567Y-80963343D01*
X140064008Y-81070568D01*
X140288632Y-81143553D01*
X140521908Y-81180500D01*
X140521912Y-81180500D01*
X140758088Y-81180500D01*
X140758092Y-81180500D01*
X140991368Y-81143553D01*
X141215992Y-81070568D01*
X141426433Y-80963343D01*
X141617510Y-80824517D01*
X141733933Y-80708093D01*
X141814712Y-80654120D01*
X141910000Y-80635166D01*
X142005288Y-80654120D01*
X142086066Y-80708093D01*
X142202490Y-80824517D01*
X142202493Y-80824519D01*
X142202495Y-80824521D01*
X142393562Y-80963340D01*
X142393564Y-80963341D01*
X142393567Y-80963343D01*
X142604008Y-81070568D01*
X142828632Y-81143553D01*
X143061908Y-81180500D01*
X143061912Y-81180500D01*
X143298088Y-81180500D01*
X143298092Y-81180500D01*
X143531368Y-81143553D01*
X143755992Y-81070568D01*
X143966433Y-80963343D01*
X144157510Y-80824517D01*
X144324517Y-80657510D01*
X144463343Y-80466433D01*
X144570568Y-80255992D01*
X144643553Y-80031368D01*
X144680500Y-79798092D01*
X144680500Y-79561908D01*
X144643553Y-79328632D01*
X144570568Y-79104008D01*
X144463343Y-78893567D01*
X144463341Y-78893564D01*
X144463340Y-78893562D01*
X144324521Y-78702495D01*
X144324519Y-78702493D01*
X144324517Y-78702490D01*
X144208093Y-78586066D01*
X144184298Y-78550453D01*
X144158855Y-78516000D01*
X144157422Y-78510230D01*
X144154120Y-78505288D01*
X144145764Y-78463283D01*
X144135441Y-78421708D01*
X144136325Y-78415828D01*
X144135166Y-78410000D01*
X144143521Y-78367994D01*
X144149894Y-78325634D01*
X144152884Y-78320921D01*
X144154120Y-78314712D01*
X144200012Y-78242404D01*
X144203949Y-78238077D01*
X144216341Y-78225685D01*
X152094500Y-78225685D01*
X152094500Y-78434314D01*
X152094501Y-78434330D01*
X152127137Y-78640385D01*
X152173192Y-78782130D01*
X152191611Y-78838816D01*
X152286330Y-79024714D01*
X152408965Y-79193505D01*
X152556495Y-79341035D01*
X152725286Y-79463670D01*
X152911184Y-79558389D01*
X153109611Y-79622862D01*
X153315681Y-79655500D01*
X153315685Y-79655500D01*
X153524315Y-79655500D01*
X153524319Y-79655500D01*
X153730389Y-79622862D01*
X153928816Y-79558389D01*
X153937805Y-79553809D01*
X155403297Y-79553809D01*
X155411377Y-79557926D01*
X155411381Y-79557927D01*
X155609731Y-79622374D01*
X155815709Y-79654998D01*
X155815724Y-79655000D01*
X156024276Y-79655000D01*
X156024290Y-79654998D01*
X156230268Y-79622374D01*
X156428613Y-79557929D01*
X156428621Y-79557925D01*
X156436701Y-79553808D01*
X155920000Y-79037106D01*
X155403297Y-79553809D01*
X153937805Y-79553809D01*
X154114714Y-79463670D01*
X154283505Y-79341035D01*
X154431035Y-79193505D01*
X154553670Y-79024714D01*
X154583386Y-78966391D01*
X154597918Y-78947701D01*
X154607695Y-78939236D01*
X154618427Y-78924465D01*
X155212892Y-78330000D01*
X155140483Y-78257591D01*
X155370000Y-78257591D01*
X155370000Y-78402409D01*
X155407482Y-78542292D01*
X155479890Y-78667708D01*
X155582292Y-78770110D01*
X155707708Y-78842518D01*
X155847591Y-78880000D01*
X155992409Y-78880000D01*
X156132292Y-78842518D01*
X156257708Y-78770110D01*
X156360110Y-78667708D01*
X156432518Y-78542292D01*
X156470000Y-78402409D01*
X156470000Y-78329999D01*
X156627106Y-78329999D01*
X157221574Y-78924467D01*
X157267364Y-78987492D01*
X157286330Y-79024714D01*
X157408965Y-79193505D01*
X157556495Y-79341035D01*
X157725286Y-79463670D01*
X157911184Y-79558389D01*
X158109611Y-79622862D01*
X158315681Y-79655500D01*
X158315685Y-79655500D01*
X158524315Y-79655500D01*
X158524319Y-79655500D01*
X158730389Y-79622862D01*
X158928816Y-79558389D01*
X159114714Y-79463670D01*
X159283505Y-79341035D01*
X159431035Y-79193505D01*
X159553670Y-79024714D01*
X159648389Y-78838816D01*
X159712862Y-78640389D01*
X159745500Y-78434319D01*
X159745500Y-78225681D01*
X159712862Y-78019611D01*
X159648389Y-77821184D01*
X159553670Y-77635286D01*
X159431035Y-77466495D01*
X159283505Y-77318965D01*
X159114714Y-77196330D01*
X158928816Y-77101611D01*
X158928815Y-77101610D01*
X158928814Y-77101610D01*
X158928808Y-77101608D01*
X158815294Y-77064725D01*
X158730389Y-77037138D01*
X158730387Y-77037137D01*
X158730385Y-77037137D01*
X158524330Y-77004501D01*
X158524321Y-77004500D01*
X158524319Y-77004500D01*
X158315681Y-77004500D01*
X158315678Y-77004500D01*
X158315669Y-77004501D01*
X158109614Y-77037137D01*
X157911191Y-77101608D01*
X157911185Y-77101610D01*
X157725286Y-77196330D01*
X157556497Y-77318963D01*
X157408963Y-77466497D01*
X157286329Y-77635287D01*
X157267366Y-77672505D01*
X157221576Y-77735529D01*
X156627106Y-78329999D01*
X156470000Y-78329999D01*
X156470000Y-78257591D01*
X156432518Y-78117708D01*
X156360110Y-77992292D01*
X156257708Y-77889890D01*
X156132292Y-77817482D01*
X155992409Y-77780000D01*
X155847591Y-77780000D01*
X155707708Y-77817482D01*
X155582292Y-77889890D01*
X155479890Y-77992292D01*
X155407482Y-78117708D01*
X155370000Y-78257591D01*
X155140483Y-78257591D01*
X154618425Y-77735533D01*
X154597918Y-77712298D01*
X154583385Y-77693605D01*
X154553670Y-77635286D01*
X154431035Y-77466495D01*
X154283505Y-77318965D01*
X154114714Y-77196330D01*
X153937803Y-77106190D01*
X155403298Y-77106190D01*
X155920000Y-77622892D01*
X156436701Y-77106190D01*
X156436701Y-77106189D01*
X156428620Y-77102072D01*
X156230268Y-77037625D01*
X156024290Y-77005001D01*
X156024276Y-77005000D01*
X155815724Y-77005000D01*
X155815709Y-77005001D01*
X155609731Y-77037625D01*
X155411384Y-77102071D01*
X155403298Y-77106190D01*
X153937803Y-77106190D01*
X153928816Y-77101611D01*
X153928815Y-77101610D01*
X153928814Y-77101610D01*
X153928808Y-77101608D01*
X153815294Y-77064725D01*
X153730389Y-77037138D01*
X153730387Y-77037137D01*
X153730385Y-77037137D01*
X153524330Y-77004501D01*
X153524321Y-77004500D01*
X153524319Y-77004500D01*
X153315681Y-77004500D01*
X153315678Y-77004500D01*
X153315669Y-77004501D01*
X153109614Y-77037137D01*
X152911191Y-77101608D01*
X152911185Y-77101610D01*
X152725286Y-77196330D01*
X152556497Y-77318963D01*
X152408963Y-77466497D01*
X152286330Y-77635286D01*
X152191610Y-77821185D01*
X152191608Y-77821191D01*
X152127137Y-78019614D01*
X152094501Y-78225669D01*
X152094500Y-78225685D01*
X144216341Y-78225685D01*
X144324517Y-78117510D01*
X144415494Y-77992292D01*
X144463338Y-77926440D01*
X144463340Y-77926437D01*
X144463343Y-77926433D01*
X144570568Y-77715992D01*
X144643553Y-77491368D01*
X144680500Y-77258092D01*
X144680500Y-77021908D01*
X144643553Y-76788632D01*
X144570568Y-76564008D01*
X144463343Y-76353567D01*
X144463341Y-76353564D01*
X144463340Y-76353562D01*
X144324521Y-76162495D01*
X144324519Y-76162493D01*
X144324517Y-76162490D01*
X144208093Y-76046066D01*
X144154120Y-75965288D01*
X144135166Y-75870000D01*
X144154120Y-75774712D01*
X144208093Y-75693933D01*
X144324517Y-75577510D01*
X144463343Y-75386433D01*
X144570568Y-75175992D01*
X144643553Y-74951368D01*
X144680500Y-74718092D01*
X144680500Y-74481908D01*
X144643553Y-74248632D01*
X144570568Y-74024008D01*
X144463343Y-73813567D01*
X144463341Y-73813564D01*
X144463340Y-73813562D01*
X144324521Y-73622495D01*
X144324519Y-73622493D01*
X144324517Y-73622490D01*
X144208093Y-73506066D01*
X144154120Y-73425288D01*
X144135166Y-73330000D01*
X144154120Y-73234712D01*
X144208093Y-73153933D01*
X144324517Y-73037510D01*
X144463343Y-72846433D01*
X144570568Y-72635992D01*
X144643553Y-72411368D01*
X144680500Y-72178092D01*
X144680500Y-71941908D01*
X144643553Y-71708632D01*
X144570568Y-71484008D01*
X144463343Y-71273567D01*
X144463341Y-71273564D01*
X144463340Y-71273562D01*
X144324521Y-71082495D01*
X144324519Y-71082493D01*
X144324517Y-71082490D01*
X144208093Y-70966066D01*
X144181219Y-70925845D01*
X144154337Y-70885811D01*
X144154279Y-70885527D01*
X144154120Y-70885288D01*
X144144692Y-70837894D01*
X144135167Y-70790566D01*
X144135222Y-70790283D01*
X144135166Y-70790000D01*
X144144602Y-70742558D01*
X144153904Y-70695235D01*
X144154063Y-70694995D01*
X144154120Y-70694712D01*
X144170803Y-70669682D01*
X147565500Y-70669682D01*
X147565500Y-70990317D01*
X147601397Y-71308903D01*
X147672733Y-71621452D01*
X147672739Y-71621473D01*
X147778627Y-71924085D01*
X147917734Y-72212945D01*
X147917738Y-72212951D01*
X148088313Y-72484420D01*
X148288211Y-72735084D01*
X148514916Y-72961789D01*
X148765580Y-73161687D01*
X149033449Y-73330000D01*
X149037054Y-73332265D01*
X149199511Y-73410500D01*
X149325909Y-73471370D01*
X149325912Y-73471371D01*
X149325914Y-73471372D01*
X149425076Y-73506070D01*
X149628528Y-73577261D01*
X149628535Y-73577262D01*
X149628547Y-73577266D01*
X149904847Y-73640328D01*
X149941100Y-73648603D01*
X150113672Y-73668047D01*
X150259682Y-73684499D01*
X150259695Y-73684500D01*
X150580305Y-73684500D01*
X150580317Y-73684499D01*
X150690928Y-73672035D01*
X150898900Y-73648603D01*
X151030211Y-73618632D01*
X151211452Y-73577266D01*
X151211459Y-73577263D01*
X151211472Y-73577261D01*
X151514091Y-73471370D01*
X151802951Y-73332262D01*
X152074420Y-73161687D01*
X152325084Y-72961789D01*
X152551789Y-72735084D01*
X152751687Y-72484420D01*
X152922262Y-72212951D01*
X153061370Y-71924091D01*
X153167261Y-71621472D01*
X153238603Y-71308900D01*
X153270039Y-71029896D01*
X153274499Y-70990317D01*
X153274500Y-70990304D01*
X153274500Y-70669695D01*
X153274499Y-70669682D01*
X158565500Y-70669682D01*
X158565500Y-70990317D01*
X158601397Y-71308903D01*
X158672733Y-71621452D01*
X158672739Y-71621473D01*
X158778627Y-71924085D01*
X158917734Y-72212945D01*
X158917738Y-72212951D01*
X159088313Y-72484420D01*
X159288211Y-72735084D01*
X159514916Y-72961789D01*
X159765580Y-73161687D01*
X160033449Y-73330000D01*
X160037054Y-73332265D01*
X160199511Y-73410500D01*
X160325909Y-73471370D01*
X160325912Y-73471371D01*
X160325914Y-73471372D01*
X160425076Y-73506070D01*
X160628528Y-73577261D01*
X160628535Y-73577262D01*
X160628547Y-73577266D01*
X160904847Y-73640328D01*
X160941100Y-73648603D01*
X161113672Y-73668047D01*
X161259682Y-73684499D01*
X161259695Y-73684500D01*
X161580305Y-73684500D01*
X161580317Y-73684499D01*
X161690928Y-73672035D01*
X161898900Y-73648603D01*
X162030211Y-73618632D01*
X162211452Y-73577266D01*
X162211459Y-73577263D01*
X162211472Y-73577261D01*
X162514091Y-73471370D01*
X162802951Y-73332262D01*
X163074420Y-73161687D01*
X163325084Y-72961789D01*
X163551789Y-72735084D01*
X163751687Y-72484420D01*
X163922262Y-72212951D01*
X164061370Y-71924091D01*
X164167261Y-71621472D01*
X164238603Y-71308900D01*
X164270039Y-71029896D01*
X164274499Y-70990317D01*
X164274500Y-70990304D01*
X164274500Y-70669695D01*
X164274499Y-70669682D01*
X164244089Y-70399792D01*
X164238603Y-70351100D01*
X164210465Y-70227817D01*
X164167266Y-70038547D01*
X164167260Y-70038526D01*
X164167218Y-70038407D01*
X164061370Y-69735909D01*
X164004633Y-69618094D01*
X163922265Y-69447054D01*
X163901317Y-69413715D01*
X163751687Y-69175580D01*
X163551789Y-68924916D01*
X163325084Y-68698211D01*
X163074420Y-68498313D01*
X162802951Y-68327738D01*
X162802952Y-68327738D01*
X162802945Y-68327734D01*
X162514085Y-68188627D01*
X162211473Y-68082739D01*
X162211452Y-68082733D01*
X161898903Y-68011397D01*
X161580317Y-67975500D01*
X161580305Y-67975500D01*
X161259695Y-67975500D01*
X161259682Y-67975500D01*
X160941096Y-68011397D01*
X160628547Y-68082733D01*
X160628526Y-68082739D01*
X160325914Y-68188627D01*
X160037054Y-68327734D01*
X159765580Y-68498313D01*
X159765573Y-68498318D01*
X159514919Y-68698208D01*
X159514911Y-68698215D01*
X159288215Y-68924911D01*
X159288208Y-68924919D01*
X159088318Y-69175573D01*
X159088313Y-69175580D01*
X158917734Y-69447054D01*
X158778627Y-69735914D01*
X158672739Y-70038526D01*
X158672733Y-70038547D01*
X158601397Y-70351096D01*
X158565500Y-70669682D01*
X153274499Y-70669682D01*
X153244089Y-70399792D01*
X153238603Y-70351100D01*
X153210465Y-70227817D01*
X153167266Y-70038547D01*
X153167260Y-70038526D01*
X153167218Y-70038407D01*
X153061370Y-69735909D01*
X153004633Y-69618094D01*
X152922265Y-69447054D01*
X152901317Y-69413715D01*
X152751687Y-69175580D01*
X152551789Y-68924916D01*
X152325084Y-68698211D01*
X152074420Y-68498313D01*
X151802951Y-68327738D01*
X151802952Y-68327738D01*
X151802945Y-68327734D01*
X151514085Y-68188627D01*
X151211473Y-68082739D01*
X151211452Y-68082733D01*
X150898903Y-68011397D01*
X150580317Y-67975500D01*
X150580305Y-67975500D01*
X150259695Y-67975500D01*
X150259682Y-67975500D01*
X149941096Y-68011397D01*
X149628547Y-68082733D01*
X149628526Y-68082739D01*
X149325914Y-68188627D01*
X149037054Y-68327734D01*
X148765580Y-68498313D01*
X148765573Y-68498318D01*
X148514919Y-68698208D01*
X148514911Y-68698215D01*
X148288215Y-68924911D01*
X148288208Y-68924919D01*
X148088318Y-69175573D01*
X148088313Y-69175580D01*
X147917734Y-69447054D01*
X147778627Y-69735914D01*
X147672739Y-70038526D01*
X147672733Y-70038547D01*
X147601397Y-70351096D01*
X147565500Y-70669682D01*
X144170803Y-70669682D01*
X144207697Y-70614331D01*
X144207916Y-70614110D01*
X144324517Y-70497510D01*
X144463343Y-70306433D01*
X144570568Y-70095992D01*
X144643553Y-69871368D01*
X144680500Y-69638092D01*
X144680500Y-69401908D01*
X144643553Y-69168632D01*
X144570568Y-68944008D01*
X144463343Y-68733567D01*
X144463341Y-68733564D01*
X144463340Y-68733562D01*
X144324521Y-68542495D01*
X144324519Y-68542493D01*
X144324517Y-68542490D01*
X144208093Y-68426066D01*
X144154120Y-68345288D01*
X144135166Y-68250000D01*
X144154120Y-68154712D01*
X144208093Y-68073933D01*
X144324517Y-67957510D01*
X144463343Y-67766433D01*
X144570568Y-67555992D01*
X144643553Y-67331368D01*
X144680500Y-67098092D01*
X144680500Y-66861908D01*
X144643553Y-66628632D01*
X144570568Y-66404008D01*
X144463343Y-66193567D01*
X144463341Y-66193564D01*
X144463340Y-66193562D01*
X144324521Y-66002495D01*
X144324519Y-66002493D01*
X144324517Y-66002490D01*
X144208093Y-65886066D01*
X144154120Y-65805288D01*
X144135166Y-65710000D01*
X144154120Y-65614712D01*
X144208093Y-65533933D01*
X144324517Y-65417510D01*
X144463343Y-65226433D01*
X144570568Y-65015992D01*
X144643553Y-64791368D01*
X144680500Y-64558092D01*
X144680500Y-64321908D01*
X144643553Y-64088632D01*
X144570568Y-63864008D01*
X144500089Y-63725685D01*
X152094500Y-63725685D01*
X152094500Y-63934314D01*
X152094501Y-63934330D01*
X152127137Y-64140385D01*
X152191547Y-64338621D01*
X152191611Y-64338816D01*
X152286330Y-64524714D01*
X152408965Y-64693505D01*
X152556495Y-64841035D01*
X152725286Y-64963670D01*
X152911184Y-65058389D01*
X153109611Y-65122862D01*
X153315681Y-65155500D01*
X153315685Y-65155500D01*
X153524315Y-65155500D01*
X153524319Y-65155500D01*
X153730389Y-65122862D01*
X153928816Y-65058389D01*
X153937805Y-65053809D01*
X157903297Y-65053809D01*
X157911377Y-65057926D01*
X157911381Y-65057927D01*
X158109731Y-65122374D01*
X158315709Y-65154998D01*
X158315724Y-65155000D01*
X158524276Y-65155000D01*
X158524290Y-65154998D01*
X158730268Y-65122374D01*
X158928613Y-65057929D01*
X158928621Y-65057925D01*
X158936701Y-65053808D01*
X158420000Y-64537106D01*
X157903297Y-65053809D01*
X153937805Y-65053809D01*
X154114714Y-64963670D01*
X154283505Y-64841035D01*
X154431035Y-64693505D01*
X154553670Y-64524714D01*
X154648389Y-64338816D01*
X154712862Y-64140389D01*
X154745500Y-63934319D01*
X154745500Y-63725724D01*
X157095000Y-63725724D01*
X157095000Y-63934275D01*
X157095001Y-63934290D01*
X157127625Y-64140268D01*
X157192072Y-64338620D01*
X157196189Y-64346701D01*
X157196190Y-64346701D01*
X157712892Y-63830000D01*
X157640483Y-63757591D01*
X157870000Y-63757591D01*
X157870000Y-63902409D01*
X157907482Y-64042292D01*
X157979890Y-64167708D01*
X158082292Y-64270110D01*
X158207708Y-64342518D01*
X158347591Y-64380000D01*
X158492409Y-64380000D01*
X158632292Y-64342518D01*
X158757708Y-64270110D01*
X158860110Y-64167708D01*
X158932518Y-64042292D01*
X158970000Y-63902409D01*
X158970000Y-63830000D01*
X159127106Y-63830000D01*
X159643808Y-64346701D01*
X159647925Y-64338621D01*
X159647930Y-64338609D01*
X159653330Y-64321989D01*
X164239500Y-64321989D01*
X164239500Y-64558011D01*
X164270307Y-64792014D01*
X164331394Y-65019993D01*
X164347107Y-65057927D01*
X164421713Y-65238043D01*
X164421718Y-65238054D01*
X164506035Y-65384094D01*
X164539727Y-65442450D01*
X164683408Y-65629699D01*
X164850301Y-65796592D01*
X165037550Y-65940273D01*
X165037559Y-65940278D01*
X165241945Y-66058281D01*
X165241948Y-66058282D01*
X165241951Y-66058284D01*
X165460007Y-66148606D01*
X165687986Y-66209693D01*
X165921989Y-66240500D01*
X166158011Y-66240500D01*
X166392014Y-66209693D01*
X166619993Y-66148606D01*
X166838049Y-66058284D01*
X167042450Y-65940273D01*
X167229699Y-65796592D01*
X167396592Y-65629699D01*
X167540273Y-65442450D01*
X167658284Y-65238049D01*
X167748606Y-65019993D01*
X167809693Y-64792014D01*
X167840500Y-64558011D01*
X167840500Y-64321989D01*
X167809693Y-64087986D01*
X167748606Y-63860007D01*
X167658284Y-63641951D01*
X167644287Y-63617708D01*
X167540278Y-63437559D01*
X167540272Y-63437549D01*
X167503702Y-63389890D01*
X167396592Y-63250301D01*
X167229699Y-63083408D01*
X167042450Y-62939727D01*
X167042057Y-62939500D01*
X166838054Y-62821718D01*
X166838043Y-62821713D01*
X166717222Y-62771667D01*
X166619993Y-62731394D01*
X166392014Y-62670307D01*
X166392007Y-62670306D01*
X166158011Y-62639500D01*
X165921989Y-62639500D01*
X165687992Y-62670306D01*
X165687990Y-62670306D01*
X165687986Y-62670307D01*
X165515640Y-62716487D01*
X165460010Y-62731393D01*
X165460007Y-62731394D01*
X165241956Y-62821713D01*
X165241945Y-62821718D01*
X165037559Y-62939721D01*
X165037549Y-62939727D01*
X164850301Y-63083408D01*
X164850297Y-63083411D01*
X164683411Y-63250297D01*
X164683408Y-63250301D01*
X164539727Y-63437549D01*
X164539721Y-63437559D01*
X164421718Y-63641945D01*
X164421713Y-63641956D01*
X164331394Y-63860007D01*
X164331393Y-63860010D01*
X164330321Y-63864012D01*
X164270307Y-64087986D01*
X164270306Y-64087990D01*
X164270306Y-64087992D01*
X164263408Y-64140389D01*
X164239500Y-64321989D01*
X159653330Y-64321989D01*
X159680980Y-64236894D01*
X159680980Y-64236893D01*
X159712374Y-64140268D01*
X159744998Y-63934290D01*
X159745000Y-63934275D01*
X159745000Y-63725724D01*
X159744998Y-63725709D01*
X159712374Y-63519731D01*
X159647927Y-63321381D01*
X159647926Y-63321377D01*
X159643809Y-63313297D01*
X159127106Y-63830000D01*
X158970000Y-63830000D01*
X158970000Y-63757591D01*
X158932518Y-63617708D01*
X158860110Y-63492292D01*
X158757708Y-63389890D01*
X158632292Y-63317482D01*
X158492409Y-63280000D01*
X158347591Y-63280000D01*
X158207708Y-63317482D01*
X158082292Y-63389890D01*
X157979890Y-63492292D01*
X157907482Y-63617708D01*
X157870000Y-63757591D01*
X157640483Y-63757591D01*
X157196190Y-63313298D01*
X157192071Y-63321384D01*
X157127625Y-63519731D01*
X157095001Y-63725709D01*
X157095000Y-63725724D01*
X154745500Y-63725724D01*
X154745500Y-63725681D01*
X154712862Y-63519611D01*
X154648389Y-63321184D01*
X154553670Y-63135286D01*
X154431035Y-62966495D01*
X154283505Y-62818965D01*
X154114714Y-62696330D01*
X153937803Y-62606190D01*
X157903298Y-62606190D01*
X158420000Y-63122892D01*
X158936701Y-62606190D01*
X158936701Y-62606189D01*
X158928620Y-62602072D01*
X158730268Y-62537625D01*
X158524290Y-62505001D01*
X158524276Y-62505000D01*
X158315724Y-62505000D01*
X158315709Y-62505001D01*
X158109731Y-62537625D01*
X157911384Y-62602071D01*
X157903298Y-62606190D01*
X153937803Y-62606190D01*
X153928816Y-62601611D01*
X153928815Y-62601610D01*
X153928814Y-62601610D01*
X153928808Y-62601608D01*
X153815294Y-62564725D01*
X153730389Y-62537138D01*
X153730387Y-62537137D01*
X153730385Y-62537137D01*
X153524330Y-62504501D01*
X153524321Y-62504500D01*
X153524319Y-62504500D01*
X153315681Y-62504500D01*
X153315678Y-62504500D01*
X153315669Y-62504501D01*
X153109614Y-62537137D01*
X152911191Y-62601608D01*
X152911185Y-62601610D01*
X152725286Y-62696330D01*
X152556497Y-62818963D01*
X152408963Y-62966497D01*
X152286330Y-63135286D01*
X152191610Y-63321185D01*
X152191608Y-63321191D01*
X152127137Y-63519614D01*
X152094501Y-63725669D01*
X152094500Y-63725685D01*
X144500089Y-63725685D01*
X144463343Y-63653567D01*
X144463339Y-63653562D01*
X144324521Y-63462495D01*
X144324519Y-63462493D01*
X144324517Y-63462490D01*
X144208092Y-63346065D01*
X144154119Y-63265287D01*
X144135165Y-63169999D01*
X144154119Y-63074711D01*
X144208090Y-62993935D01*
X144324517Y-62877509D01*
X144463343Y-62686432D01*
X144570568Y-62475991D01*
X144643553Y-62251367D01*
X144680500Y-62018091D01*
X144680500Y-61781907D01*
X144643553Y-61548631D01*
X144570568Y-61324007D01*
X144463343Y-61113566D01*
X144463341Y-61113563D01*
X144463340Y-61113561D01*
X144324521Y-60922494D01*
X144324519Y-60922492D01*
X144324517Y-60922489D01*
X144157510Y-60755482D01*
X144157506Y-60755479D01*
X144157504Y-60755477D01*
X143966437Y-60616658D01*
X143952747Y-60609682D01*
X143755992Y-60509431D01*
X143755989Y-60509430D01*
X143755987Y-60509429D01*
X143585178Y-60453930D01*
X143531368Y-60436446D01*
X143531366Y-60436445D01*
X143531364Y-60436445D01*
X143298103Y-60399500D01*
X143298094Y-60399499D01*
X143298092Y-60399499D01*
X143061908Y-60399499D01*
X143061905Y-60399499D01*
X143061896Y-60399500D01*
X142828635Y-60436445D01*
X142604012Y-60509429D01*
X142393562Y-60616658D01*
X142202494Y-60755478D01*
X142202489Y-60755482D01*
X142086068Y-60871903D01*
X142005286Y-60925879D01*
X141909998Y-60944833D01*
X141814710Y-60925879D01*
X141733932Y-60871905D01*
X141617510Y-60755483D01*
X141617506Y-60755480D01*
X141617504Y-60755478D01*
X141426437Y-60616659D01*
X141412747Y-60609683D01*
X141215992Y-60509432D01*
X141215989Y-60509431D01*
X141215987Y-60509430D01*
X141045175Y-60453930D01*
X140991368Y-60436447D01*
X140991366Y-60436446D01*
X140991364Y-60436446D01*
X140758103Y-60399501D01*
X140758094Y-60399500D01*
X140758092Y-60399500D01*
X140521908Y-60399500D01*
X140521905Y-60399500D01*
X140521896Y-60399501D01*
X140288635Y-60436446D01*
X140064012Y-60509430D01*
X139853562Y-60616659D01*
X139662495Y-60755478D01*
X139662490Y-60755482D01*
X139662490Y-60755483D01*
X139546066Y-60871906D01*
X139465288Y-60925880D01*
X139370000Y-60944834D01*
X139274712Y-60925880D01*
X139193933Y-60871906D01*
X139128093Y-60806066D01*
X139074120Y-60725288D01*
X139055166Y-60630000D01*
X139074120Y-60534712D01*
X139128093Y-60453933D01*
X139244517Y-60337510D01*
X139383343Y-60146433D01*
X139490568Y-59935992D01*
X139563553Y-59711368D01*
X139600500Y-59478092D01*
X139600500Y-59241908D01*
X139563553Y-59008632D01*
X139490568Y-58784008D01*
X139383343Y-58573567D01*
X139383341Y-58573564D01*
X139383340Y-58573562D01*
X139244521Y-58382495D01*
X139244519Y-58382493D01*
X139244517Y-58382490D01*
X139128093Y-58266066D01*
X139074120Y-58185288D01*
X139055166Y-58090000D01*
X139074120Y-57994712D01*
X139128091Y-57913936D01*
X139244518Y-57797510D01*
X139383344Y-57606433D01*
X139490569Y-57395992D01*
X139563554Y-57171368D01*
X139600501Y-56938092D01*
X139600501Y-56918543D01*
X140804500Y-56918543D01*
X140804500Y-57141456D01*
X140833595Y-57362458D01*
X140891291Y-57577784D01*
X140891292Y-57577788D01*
X140976592Y-57783720D01*
X140976594Y-57783724D01*
X140976595Y-57783726D01*
X141088052Y-57976774D01*
X141223753Y-58153624D01*
X141381376Y-58311247D01*
X141558226Y-58446948D01*
X141751274Y-58558405D01*
X141751279Y-58558407D01*
X141957211Y-58643707D01*
X141957212Y-58643707D01*
X141957219Y-58643710D01*
X142172537Y-58701404D01*
X142393543Y-58730500D01*
X142616457Y-58730500D01*
X142837463Y-58701404D01*
X143052781Y-58643710D01*
X143258726Y-58558405D01*
X143451774Y-58446948D01*
X143628624Y-58311247D01*
X143786247Y-58153624D01*
X143921948Y-57976774D01*
X144033405Y-57783726D01*
X144118710Y-57577781D01*
X144176404Y-57362463D01*
X144205500Y-57141457D01*
X144205500Y-56918543D01*
X144176404Y-56697537D01*
X144118710Y-56482219D01*
X144113083Y-56468635D01*
X144033407Y-56276279D01*
X144033405Y-56276275D01*
X144033405Y-56276274D01*
X143921948Y-56083226D01*
X143786247Y-55906376D01*
X143628624Y-55748753D01*
X143451774Y-55613052D01*
X143258726Y-55501595D01*
X143258724Y-55501594D01*
X143258720Y-55501592D01*
X143052788Y-55416292D01*
X143052784Y-55416291D01*
X143052782Y-55416290D01*
X143052781Y-55416290D01*
X142837463Y-55358596D01*
X142837458Y-55358595D01*
X142837459Y-55358595D01*
X142616457Y-55329500D01*
X142393543Y-55329500D01*
X142172541Y-55358595D01*
X141957215Y-55416291D01*
X141957211Y-55416292D01*
X141751279Y-55501592D01*
X141751275Y-55501594D01*
X141558230Y-55613049D01*
X141381373Y-55748755D01*
X141223755Y-55906373D01*
X141088049Y-56083230D01*
X140976594Y-56276275D01*
X140976592Y-56276279D01*
X140891292Y-56482211D01*
X140891291Y-56482215D01*
X140833595Y-56697541D01*
X140804500Y-56918543D01*
X139600501Y-56918543D01*
X139600501Y-56701908D01*
X139563554Y-56468632D01*
X139490569Y-56244008D01*
X139383344Y-56033567D01*
X139383342Y-56033564D01*
X139383341Y-56033562D01*
X139244522Y-55842495D01*
X139244520Y-55842493D01*
X139244518Y-55842490D01*
X139077511Y-55675483D01*
X139077507Y-55675480D01*
X139077505Y-55675478D01*
X138886438Y-55536659D01*
X138817615Y-55501592D01*
X138675993Y-55429432D01*
X138675990Y-55429431D01*
X138675988Y-55429430D01*
X138551080Y-55388845D01*
X138451369Y-55356447D01*
X138451367Y-55356446D01*
X138451365Y-55356446D01*
X138218104Y-55319501D01*
X138218095Y-55319500D01*
X138218093Y-55319500D01*
X137981909Y-55319500D01*
X137981906Y-55319500D01*
X137981897Y-55319501D01*
X137748636Y-55356446D01*
X137524013Y-55429430D01*
X137313563Y-55536659D01*
X137122495Y-55675479D01*
X137122490Y-55675483D01*
X137006069Y-55791904D01*
X136925287Y-55845880D01*
X136829999Y-55864834D01*
X136734711Y-55845880D01*
X136653933Y-55791906D01*
X136537510Y-55675483D01*
X136537506Y-55675480D01*
X136537504Y-55675478D01*
X136346437Y-55536659D01*
X136277614Y-55501592D01*
X136135992Y-55429432D01*
X136135989Y-55429431D01*
X136135987Y-55429430D01*
X136011079Y-55388845D01*
X135911368Y-55356447D01*
X135911366Y-55356446D01*
X135911364Y-55356446D01*
X135678103Y-55319501D01*
X135678094Y-55319500D01*
X135678092Y-55319500D01*
X135441908Y-55319500D01*
X135441905Y-55319500D01*
X135441896Y-55319501D01*
X135208635Y-55356446D01*
X134984012Y-55429430D01*
X134773562Y-55536659D01*
X134582495Y-55675478D01*
X134582490Y-55675482D01*
X134582490Y-55675483D01*
X134466066Y-55791906D01*
X134385288Y-55845880D01*
X134290000Y-55864834D01*
X134194712Y-55845880D01*
X134113933Y-55791906D01*
X133997510Y-55675483D01*
X133997506Y-55675480D01*
X133997504Y-55675478D01*
X133806437Y-55536659D01*
X133737614Y-55501592D01*
X133595992Y-55429432D01*
X133595989Y-55429431D01*
X133595987Y-55429430D01*
X133471079Y-55388845D01*
X133371368Y-55356447D01*
X133371366Y-55356446D01*
X133371364Y-55356446D01*
X133138103Y-55319501D01*
X133138094Y-55319500D01*
X133138092Y-55319500D01*
X132901908Y-55319500D01*
X132901905Y-55319500D01*
X132901896Y-55319501D01*
X132668635Y-55356446D01*
X132444012Y-55429430D01*
X132233562Y-55536659D01*
X132042495Y-55675478D01*
X132042490Y-55675482D01*
X132042490Y-55675483D01*
X131926066Y-55791906D01*
X131845288Y-55845880D01*
X131750000Y-55864834D01*
X131654712Y-55845880D01*
X131573933Y-55791906D01*
X131457510Y-55675483D01*
X131457506Y-55675480D01*
X131457504Y-55675478D01*
X131266437Y-55536659D01*
X131197614Y-55501592D01*
X131055992Y-55429432D01*
X131055989Y-55429431D01*
X131055987Y-55429430D01*
X130931079Y-55388845D01*
X130831368Y-55356447D01*
X130831366Y-55356446D01*
X130831364Y-55356446D01*
X130598103Y-55319501D01*
X130598094Y-55319500D01*
X130598092Y-55319500D01*
X130361908Y-55319500D01*
X130361905Y-55319500D01*
X130361896Y-55319501D01*
X130128635Y-55356446D01*
X129904012Y-55429430D01*
X129693562Y-55536659D01*
X129502495Y-55675478D01*
X129502490Y-55675482D01*
X129502490Y-55675483D01*
X129386066Y-55791906D01*
X129305288Y-55845880D01*
X129210000Y-55864834D01*
X129114712Y-55845880D01*
X129033933Y-55791906D01*
X128917510Y-55675483D01*
X128917506Y-55675480D01*
X128917504Y-55675478D01*
X128726437Y-55536659D01*
X128657614Y-55501592D01*
X128515992Y-55429432D01*
X128515989Y-55429431D01*
X128515987Y-55429430D01*
X128391079Y-55388845D01*
X128291368Y-55356447D01*
X128291366Y-55356446D01*
X128291364Y-55356446D01*
X128058103Y-55319501D01*
X128058094Y-55319500D01*
X128058092Y-55319500D01*
X127821908Y-55319500D01*
X127821905Y-55319500D01*
X127821896Y-55319501D01*
X127588635Y-55356446D01*
X127364012Y-55429430D01*
X127153562Y-55536659D01*
X126962495Y-55675478D01*
X126962490Y-55675482D01*
X126962490Y-55675483D01*
X126846066Y-55791906D01*
X126765288Y-55845880D01*
X126670000Y-55864834D01*
X126574712Y-55845880D01*
X126493933Y-55791906D01*
X126377510Y-55675483D01*
X126377506Y-55675480D01*
X126377504Y-55675478D01*
X126186437Y-55536659D01*
X126117614Y-55501592D01*
X125975992Y-55429432D01*
X125975989Y-55429431D01*
X125975987Y-55429430D01*
X125851079Y-55388845D01*
X125751368Y-55356447D01*
X125751366Y-55356446D01*
X125751364Y-55356446D01*
X125518103Y-55319501D01*
X125518094Y-55319500D01*
X125518092Y-55319500D01*
X125281908Y-55319500D01*
X125281905Y-55319500D01*
X125281896Y-55319501D01*
X125048635Y-55356446D01*
X124824012Y-55429430D01*
X124613562Y-55536659D01*
X124422495Y-55675478D01*
X124422490Y-55675482D01*
X124422490Y-55675483D01*
X124306066Y-55791906D01*
X124225288Y-55845880D01*
X124130000Y-55864834D01*
X124034712Y-55845880D01*
X123953933Y-55791906D01*
X123837510Y-55675483D01*
X123837506Y-55675480D01*
X123837504Y-55675478D01*
X123646437Y-55536659D01*
X123577614Y-55501592D01*
X123435992Y-55429432D01*
X123435989Y-55429431D01*
X123435987Y-55429430D01*
X123311079Y-55388845D01*
X123211368Y-55356447D01*
X123211366Y-55356446D01*
X123211364Y-55356446D01*
X122978103Y-55319501D01*
X122978094Y-55319500D01*
X122978092Y-55319500D01*
X122741908Y-55319500D01*
X122741905Y-55319500D01*
X122741896Y-55319501D01*
X122508635Y-55356446D01*
X122284012Y-55429430D01*
X122073562Y-55536659D01*
X121882495Y-55675478D01*
X121715478Y-55842495D01*
X121576659Y-56033562D01*
X121469430Y-56244012D01*
X121396446Y-56468635D01*
X121359501Y-56701896D01*
X121359500Y-56701912D01*
X121359500Y-56938087D01*
X121359501Y-56938103D01*
X121396446Y-57171364D01*
X121458537Y-57362463D01*
X121469432Y-57395992D01*
X121562058Y-57577781D01*
X121576659Y-57606437D01*
X121715478Y-57797504D01*
X121715479Y-57797505D01*
X121715483Y-57797510D01*
X121831906Y-57913933D01*
X121885880Y-57994712D01*
X121904834Y-58090000D01*
X121885880Y-58185288D01*
X121831906Y-58266066D01*
X121766066Y-58331906D01*
X121685288Y-58385880D01*
X121590000Y-58404834D01*
X121494712Y-58385880D01*
X121413933Y-58331906D01*
X121297510Y-58215483D01*
X121297506Y-58215480D01*
X121297504Y-58215478D01*
X121106437Y-58076659D01*
X121092747Y-58069683D01*
X120895992Y-57969432D01*
X120895989Y-57969431D01*
X120895987Y-57969430D01*
X120725175Y-57913930D01*
X120671368Y-57896447D01*
X120671366Y-57896446D01*
X120671364Y-57896446D01*
X120438103Y-57859501D01*
X120438094Y-57859500D01*
X120438092Y-57859500D01*
X120201908Y-57859500D01*
X120201905Y-57859500D01*
X120201896Y-57859501D01*
X119968635Y-57896446D01*
X119744012Y-57969430D01*
X119533562Y-58076659D01*
X119342495Y-58215478D01*
X119175478Y-58382495D01*
X119036659Y-58573562D01*
X118929430Y-58784012D01*
X118856446Y-59008635D01*
X118819501Y-59241896D01*
X118819500Y-59241912D01*
X118819500Y-59478087D01*
X118819501Y-59478103D01*
X118856446Y-59711364D01*
X118856447Y-59711368D01*
X118929432Y-59935992D01*
X119029683Y-60132747D01*
X119036659Y-60146437D01*
X119175478Y-60337504D01*
X119175480Y-60337506D01*
X119175483Y-60337510D01*
X119291906Y-60453933D01*
X119345880Y-60534712D01*
X119364834Y-60630000D01*
X119345880Y-60725288D01*
X119291906Y-60806066D01*
X119226066Y-60871906D01*
X119145288Y-60925880D01*
X119050000Y-60944834D01*
X118954712Y-60925880D01*
X118873933Y-60871906D01*
X118757510Y-60755483D01*
X118757506Y-60755480D01*
X118757504Y-60755478D01*
X118566437Y-60616659D01*
X118552747Y-60609683D01*
X118355992Y-60509432D01*
X118355989Y-60509431D01*
X118355987Y-60509430D01*
X118185175Y-60453930D01*
X118131368Y-60436447D01*
X118131366Y-60436446D01*
X118131364Y-60436446D01*
X117898103Y-60399501D01*
X117898094Y-60399500D01*
X117898092Y-60399500D01*
X117661908Y-60399500D01*
X117661905Y-60399500D01*
X117661896Y-60399501D01*
X117428635Y-60436446D01*
X117204012Y-60509430D01*
X116993562Y-60616659D01*
X116802495Y-60755478D01*
X116635478Y-60922495D01*
X116496659Y-61113562D01*
X116389430Y-61324012D01*
X116316446Y-61548635D01*
X116279501Y-61781896D01*
X116279500Y-61781912D01*
X116279500Y-62018087D01*
X116279501Y-62018103D01*
X116316446Y-62251363D01*
X116316447Y-62251368D01*
X116389432Y-62475992D01*
X116488440Y-62670306D01*
X116496659Y-62686437D01*
X116635478Y-62877504D01*
X116635480Y-62877506D01*
X116635483Y-62877510D01*
X116751906Y-62993933D01*
X116805880Y-63074712D01*
X116824834Y-63170000D01*
X116805880Y-63265288D01*
X116751906Y-63346066D01*
X116686066Y-63411906D01*
X116605288Y-63465880D01*
X116510000Y-63484834D01*
X116414712Y-63465880D01*
X116333933Y-63411906D01*
X116217510Y-63295483D01*
X116217506Y-63295480D01*
X116217504Y-63295478D01*
X116026437Y-63156659D01*
X115938539Y-63111873D01*
X115815992Y-63049432D01*
X115815989Y-63049431D01*
X115815987Y-63049430D01*
X115645175Y-62993930D01*
X115591368Y-62976447D01*
X115591366Y-62976446D01*
X115591364Y-62976446D01*
X115358103Y-62939501D01*
X115358094Y-62939500D01*
X115358092Y-62939500D01*
X115121908Y-62939500D01*
X115121905Y-62939500D01*
X115121896Y-62939501D01*
X114888635Y-62976446D01*
X114664012Y-63049430D01*
X114453562Y-63156659D01*
X114262495Y-63295478D01*
X114095478Y-63462495D01*
X113956659Y-63653562D01*
X113849430Y-63864012D01*
X113776446Y-64088635D01*
X113739501Y-64321896D01*
X113739500Y-64321912D01*
X106428631Y-64321912D01*
X106397246Y-64123757D01*
X106331557Y-63921588D01*
X106235051Y-63732184D01*
X106110104Y-63560208D01*
X105959792Y-63409896D01*
X105906867Y-63371444D01*
X105840920Y-63300103D01*
X105807293Y-63208953D01*
X105811107Y-63111873D01*
X105851781Y-63023642D01*
X105906867Y-62968555D01*
X105959792Y-62930104D01*
X106110104Y-62779792D01*
X106235051Y-62607816D01*
X106331557Y-62418412D01*
X106397246Y-62216243D01*
X106428629Y-62018102D01*
X106430499Y-62006296D01*
X106430500Y-62006284D01*
X106430500Y-61793715D01*
X106430499Y-61793703D01*
X106397246Y-61583759D01*
X106397246Y-61583757D01*
X106331557Y-61381588D01*
X106235051Y-61192184D01*
X106110104Y-61020208D01*
X105959792Y-60869896D01*
X105787816Y-60744949D01*
X105598412Y-60648443D01*
X105598409Y-60648442D01*
X105598407Y-60648441D01*
X105396240Y-60582753D01*
X105186296Y-60549500D01*
X105186287Y-60549500D01*
X104973713Y-60549500D01*
X104973703Y-60549500D01*
X104763759Y-60582753D01*
X104561592Y-60648441D01*
X104372182Y-60744950D01*
X104200206Y-60869897D01*
X104049897Y-61020206D01*
X103924950Y-61192182D01*
X103828441Y-61381592D01*
X103762753Y-61583759D01*
X103729500Y-61793703D01*
X103729500Y-62006296D01*
X103762753Y-62216240D01*
X103774166Y-62251367D01*
X103828443Y-62418412D01*
X103924949Y-62607816D01*
X104014733Y-62731393D01*
X104049897Y-62779793D01*
X104200207Y-62930103D01*
X104253131Y-62968555D01*
X104319080Y-63039899D01*
X104352707Y-63131049D01*
X104348892Y-63228129D01*
X104308217Y-63316359D01*
X104253131Y-63371445D01*
X104200207Y-63409896D01*
X104049897Y-63560206D01*
X103924950Y-63732182D01*
X103828441Y-63921592D01*
X103762753Y-64123759D01*
X103729500Y-64333703D01*
X103729500Y-64546288D01*
X103730183Y-64554970D01*
X103718761Y-64651451D01*
X103671287Y-64736217D01*
X103594988Y-64796364D01*
X103501480Y-64822733D01*
X103481950Y-64823500D01*
X100449500Y-64823500D01*
X100354212Y-64804546D01*
X100273430Y-64750570D01*
X100219454Y-64669788D01*
X100200500Y-64574500D01*
X100200500Y-56918543D01*
X110404500Y-56918543D01*
X110404500Y-57141456D01*
X110433595Y-57362458D01*
X110491291Y-57577784D01*
X110491292Y-57577788D01*
X110576592Y-57783720D01*
X110576594Y-57783724D01*
X110576595Y-57783726D01*
X110688052Y-57976774D01*
X110823753Y-58153624D01*
X110981376Y-58311247D01*
X111158226Y-58446948D01*
X111351274Y-58558405D01*
X111351279Y-58558407D01*
X111557211Y-58643707D01*
X111557212Y-58643707D01*
X111557219Y-58643710D01*
X111772537Y-58701404D01*
X111993543Y-58730500D01*
X112216457Y-58730500D01*
X112437463Y-58701404D01*
X112652781Y-58643710D01*
X112858726Y-58558405D01*
X113051774Y-58446948D01*
X113228624Y-58311247D01*
X113386247Y-58153624D01*
X113521948Y-57976774D01*
X113633405Y-57783726D01*
X113718710Y-57577781D01*
X113776404Y-57362463D01*
X113805500Y-57141457D01*
X113805500Y-56918543D01*
X113776404Y-56697537D01*
X113718710Y-56482219D01*
X113713083Y-56468635D01*
X113633407Y-56276279D01*
X113633405Y-56276275D01*
X113633405Y-56276274D01*
X113521948Y-56083226D01*
X113386247Y-55906376D01*
X113228624Y-55748753D01*
X113051774Y-55613052D01*
X112858726Y-55501595D01*
X112858724Y-55501594D01*
X112858720Y-55501592D01*
X112652788Y-55416292D01*
X112652784Y-55416291D01*
X112652782Y-55416290D01*
X112652781Y-55416290D01*
X112437463Y-55358596D01*
X112437458Y-55358595D01*
X112437459Y-55358595D01*
X112216457Y-55329500D01*
X111993543Y-55329500D01*
X111772541Y-55358595D01*
X111557215Y-55416291D01*
X111557211Y-55416292D01*
X111351279Y-55501592D01*
X111351275Y-55501594D01*
X111158230Y-55613049D01*
X110981373Y-55748755D01*
X110823755Y-55906373D01*
X110688049Y-56083230D01*
X110576594Y-56276275D01*
X110576592Y-56276279D01*
X110491292Y-56482211D01*
X110491291Y-56482215D01*
X110433595Y-56697541D01*
X110404500Y-56918543D01*
X100200500Y-56918543D01*
X100200500Y-49081989D01*
X113439500Y-49081989D01*
X113439500Y-49318011D01*
X113470307Y-49552014D01*
X113531394Y-49779993D01*
X113553291Y-49832856D01*
X113621713Y-49998043D01*
X113621718Y-49998054D01*
X113732787Y-50190430D01*
X113739727Y-50202450D01*
X113883408Y-50389699D01*
X114050301Y-50556592D01*
X114237550Y-50700273D01*
X114237559Y-50700278D01*
X114441945Y-50818281D01*
X114441948Y-50818282D01*
X114441951Y-50818284D01*
X114660007Y-50908606D01*
X114887986Y-50969693D01*
X115121989Y-51000500D01*
X115358011Y-51000500D01*
X115592014Y-50969693D01*
X115819993Y-50908606D01*
X116038049Y-50818284D01*
X116242450Y-50700273D01*
X116429699Y-50556592D01*
X116596592Y-50389699D01*
X116740273Y-50202450D01*
X116858284Y-49998049D01*
X116948606Y-49779993D01*
X116955984Y-49752457D01*
X116998950Y-49665323D01*
X117071993Y-49601262D01*
X117163991Y-49570030D01*
X117260939Y-49576382D01*
X117348076Y-49619349D01*
X117412137Y-49692392D01*
X117443369Y-49784390D01*
X117445500Y-49816898D01*
X117445500Y-50097865D01*
X117445501Y-50097869D01*
X117451908Y-50157480D01*
X117451909Y-50157484D01*
X117476850Y-50224353D01*
X117502204Y-50292331D01*
X117588454Y-50407546D01*
X117703669Y-50493796D01*
X117838517Y-50544091D01*
X117898127Y-50550500D01*
X119693872Y-50550499D01*
X119753483Y-50544091D01*
X119888331Y-50493796D01*
X120003546Y-50407546D01*
X120089796Y-50292331D01*
X120089796Y-50292329D01*
X120100469Y-50278073D01*
X120103616Y-50280429D01*
X120144789Y-50231159D01*
X120230875Y-50186123D01*
X120327643Y-50177458D01*
X120420360Y-50206485D01*
X120447626Y-50225270D01*
X120448293Y-50224353D01*
X120456206Y-50230102D01*
X120456208Y-50230104D01*
X120628184Y-50355051D01*
X120817588Y-50451557D01*
X121019757Y-50517246D01*
X121093601Y-50528941D01*
X121229703Y-50550499D01*
X121229710Y-50550499D01*
X121229713Y-50550500D01*
X121229716Y-50550500D01*
X121442284Y-50550500D01*
X121442287Y-50550500D01*
X121442290Y-50550499D01*
X121442296Y-50550499D01*
X121541476Y-50534789D01*
X121652243Y-50517246D01*
X121854412Y-50451557D01*
X122043816Y-50355051D01*
X122215792Y-50230104D01*
X122366104Y-50079792D01*
X122404555Y-50026867D01*
X122475897Y-49960920D01*
X122567047Y-49927293D01*
X122664127Y-49931107D01*
X122752358Y-49971781D01*
X122807444Y-50026867D01*
X122845896Y-50079792D01*
X122996208Y-50230104D01*
X123168184Y-50355051D01*
X123357588Y-50451557D01*
X123559757Y-50517246D01*
X123633601Y-50528941D01*
X123769703Y-50550499D01*
X123769710Y-50550499D01*
X123769713Y-50550500D01*
X123769716Y-50550500D01*
X123982284Y-50550500D01*
X123982287Y-50550500D01*
X123982290Y-50550499D01*
X123982296Y-50550499D01*
X124081476Y-50534789D01*
X124192243Y-50517246D01*
X124394412Y-50451557D01*
X124412392Y-50442396D01*
X125880710Y-50442396D01*
X125897781Y-50451094D01*
X125897780Y-50451094D01*
X126099876Y-50516758D01*
X126309743Y-50549999D01*
X126309756Y-50550000D01*
X126522244Y-50550000D01*
X126522256Y-50549999D01*
X126732123Y-50516758D01*
X126934219Y-50451094D01*
X126951289Y-50442395D01*
X126416000Y-49907106D01*
X125880710Y-50442396D01*
X124412392Y-50442396D01*
X124583816Y-50355051D01*
X124755792Y-50230104D01*
X124906104Y-50079792D01*
X125031051Y-49907816D01*
X125055366Y-49860094D01*
X125070454Y-49840918D01*
X125079874Y-49832856D01*
X125090077Y-49818814D01*
X125708892Y-49200000D01*
X125643066Y-49134174D01*
X125916000Y-49134174D01*
X125916000Y-49265826D01*
X125950075Y-49392993D01*
X126015901Y-49507007D01*
X126108993Y-49600099D01*
X126223007Y-49665925D01*
X126350174Y-49700000D01*
X126481826Y-49700000D01*
X126608993Y-49665925D01*
X126723007Y-49600099D01*
X126816099Y-49507007D01*
X126881925Y-49392993D01*
X126916000Y-49265826D01*
X126916000Y-49199999D01*
X127123106Y-49199999D01*
X127741924Y-49818817D01*
X127787715Y-49881843D01*
X127800949Y-49907816D01*
X127925896Y-50079792D01*
X128076208Y-50230104D01*
X128248184Y-50355051D01*
X128437588Y-50451557D01*
X128639757Y-50517246D01*
X128713601Y-50528941D01*
X128849703Y-50550499D01*
X128849710Y-50550499D01*
X128849713Y-50550500D01*
X128849716Y-50550500D01*
X129062284Y-50550500D01*
X129062287Y-50550500D01*
X129062290Y-50550499D01*
X129062296Y-50550499D01*
X129161476Y-50534789D01*
X129272243Y-50517246D01*
X129474412Y-50451557D01*
X129663816Y-50355051D01*
X129835792Y-50230104D01*
X129986104Y-50079792D01*
X130024555Y-50026867D01*
X130095897Y-49960920D01*
X130187047Y-49927293D01*
X130284127Y-49931107D01*
X130372358Y-49971781D01*
X130427444Y-50026867D01*
X130465896Y-50079792D01*
X130616208Y-50230104D01*
X130788184Y-50355051D01*
X130977588Y-50451557D01*
X131179757Y-50517246D01*
X131253601Y-50528941D01*
X131389703Y-50550499D01*
X131389710Y-50550499D01*
X131389713Y-50550500D01*
X131389716Y-50550500D01*
X131602284Y-50550500D01*
X131602287Y-50550500D01*
X131602290Y-50550499D01*
X131602296Y-50550499D01*
X131701476Y-50534789D01*
X131812243Y-50517246D01*
X132014412Y-50451557D01*
X132203816Y-50355051D01*
X132375792Y-50230104D01*
X132526104Y-50079792D01*
X132564555Y-50026867D01*
X132635897Y-49960920D01*
X132727047Y-49927293D01*
X132824127Y-49931107D01*
X132912358Y-49971781D01*
X132967444Y-50026867D01*
X133005896Y-50079792D01*
X133156208Y-50230104D01*
X133328184Y-50355051D01*
X133517588Y-50451557D01*
X133719757Y-50517246D01*
X133793601Y-50528941D01*
X133929703Y-50550499D01*
X133929710Y-50550499D01*
X133929713Y-50550500D01*
X133929716Y-50550500D01*
X134142284Y-50550500D01*
X134142287Y-50550500D01*
X134142290Y-50550499D01*
X134142296Y-50550499D01*
X134241476Y-50534789D01*
X134352243Y-50517246D01*
X134554412Y-50451557D01*
X134743816Y-50355051D01*
X134915792Y-50230104D01*
X135066104Y-50079792D01*
X135104555Y-50026867D01*
X135175897Y-49960920D01*
X135267047Y-49927293D01*
X135364127Y-49931107D01*
X135452358Y-49971781D01*
X135507444Y-50026867D01*
X135545896Y-50079792D01*
X135696208Y-50230104D01*
X135868184Y-50355051D01*
X136057588Y-50451557D01*
X136259757Y-50517246D01*
X136333601Y-50528941D01*
X136469703Y-50550499D01*
X136469710Y-50550499D01*
X136469713Y-50550500D01*
X136469716Y-50550500D01*
X136682284Y-50550500D01*
X136682287Y-50550500D01*
X136682290Y-50550499D01*
X136682296Y-50550499D01*
X136781476Y-50534789D01*
X136892243Y-50517246D01*
X137094412Y-50451557D01*
X137283816Y-50355051D01*
X137455792Y-50230104D01*
X137606104Y-50079792D01*
X137644555Y-50026867D01*
X137715897Y-49960920D01*
X137807047Y-49927293D01*
X137904127Y-49931107D01*
X137992358Y-49971781D01*
X138047444Y-50026867D01*
X138085896Y-50079792D01*
X138236208Y-50230104D01*
X138408184Y-50355051D01*
X138597588Y-50451557D01*
X138799757Y-50517246D01*
X138873601Y-50528941D01*
X139009703Y-50550499D01*
X139009710Y-50550499D01*
X139009713Y-50550500D01*
X139009716Y-50550500D01*
X139222284Y-50550500D01*
X139222287Y-50550500D01*
X139222290Y-50550499D01*
X139222296Y-50550499D01*
X139321476Y-50534789D01*
X139432243Y-50517246D01*
X139634412Y-50451557D01*
X139823816Y-50355051D01*
X139995792Y-50230104D01*
X140146104Y-50079792D01*
X140184555Y-50026867D01*
X140255897Y-49960920D01*
X140347047Y-49927293D01*
X140444127Y-49931107D01*
X140532358Y-49971781D01*
X140587444Y-50026867D01*
X140625896Y-50079792D01*
X140776208Y-50230104D01*
X140948184Y-50355051D01*
X141137588Y-50451557D01*
X141339757Y-50517246D01*
X141413601Y-50528941D01*
X141549703Y-50550499D01*
X141549710Y-50550499D01*
X141549713Y-50550500D01*
X141549716Y-50550500D01*
X141762284Y-50550500D01*
X141762287Y-50550500D01*
X141762290Y-50550499D01*
X141762296Y-50550499D01*
X141861476Y-50534789D01*
X141972243Y-50517246D01*
X142174412Y-50451557D01*
X142363816Y-50355051D01*
X142535792Y-50230104D01*
X142686104Y-50079792D01*
X142811051Y-49907816D01*
X142907557Y-49718412D01*
X142973246Y-49516243D01*
X143004643Y-49318011D01*
X143006499Y-49306296D01*
X143006500Y-49306284D01*
X143006500Y-49093715D01*
X143006499Y-49093703D01*
X142973246Y-48883759D01*
X142973246Y-48883757D01*
X142907557Y-48681588D01*
X142811051Y-48492184D01*
X142686104Y-48320208D01*
X142535792Y-48169896D01*
X142363816Y-48044949D01*
X142174412Y-47948443D01*
X142174409Y-47948442D01*
X142174407Y-47948441D01*
X141972240Y-47882753D01*
X141762296Y-47849500D01*
X141762287Y-47849500D01*
X141549713Y-47849500D01*
X141549703Y-47849500D01*
X141339759Y-47882753D01*
X141137592Y-47948441D01*
X141137588Y-47948442D01*
X141137588Y-47948443D01*
X141051213Y-47992453D01*
X140948182Y-48044950D01*
X140776206Y-48169897D01*
X140625896Y-48320207D01*
X140587445Y-48373131D01*
X140516101Y-48439080D01*
X140424951Y-48472707D01*
X140327871Y-48468892D01*
X140239641Y-48428217D01*
X140184555Y-48373131D01*
X140146103Y-48320207D01*
X139995793Y-48169897D01*
X139929768Y-48121927D01*
X139823816Y-48044949D01*
X139634412Y-47948443D01*
X139634409Y-47948442D01*
X139634407Y-47948441D01*
X139432240Y-47882753D01*
X139222296Y-47849500D01*
X139222287Y-47849500D01*
X139009713Y-47849500D01*
X139009703Y-47849500D01*
X138799759Y-47882753D01*
X138597592Y-47948441D01*
X138597588Y-47948442D01*
X138597588Y-47948443D01*
X138511213Y-47992453D01*
X138408182Y-48044950D01*
X138236206Y-48169897D01*
X138085896Y-48320207D01*
X138047445Y-48373131D01*
X137976101Y-48439080D01*
X137884951Y-48472707D01*
X137787871Y-48468892D01*
X137699641Y-48428217D01*
X137644555Y-48373131D01*
X137606103Y-48320207D01*
X137455793Y-48169897D01*
X137389768Y-48121927D01*
X137283816Y-48044949D01*
X137094412Y-47948443D01*
X137094409Y-47948442D01*
X137094407Y-47948441D01*
X136892240Y-47882753D01*
X136682296Y-47849500D01*
X136682287Y-47849500D01*
X136469713Y-47849500D01*
X136469703Y-47849500D01*
X136259759Y-47882753D01*
X136057592Y-47948441D01*
X136057588Y-47948442D01*
X136057588Y-47948443D01*
X135971213Y-47992453D01*
X135868182Y-48044950D01*
X135696206Y-48169897D01*
X135545896Y-48320207D01*
X135507445Y-48373131D01*
X135436101Y-48439080D01*
X135344951Y-48472707D01*
X135247871Y-48468892D01*
X135159641Y-48428217D01*
X135104555Y-48373131D01*
X135066103Y-48320207D01*
X134915793Y-48169897D01*
X134849768Y-48121927D01*
X134743816Y-48044949D01*
X134554412Y-47948443D01*
X134554409Y-47948442D01*
X134554407Y-47948441D01*
X134352240Y-47882753D01*
X134142296Y-47849500D01*
X134142287Y-47849500D01*
X133929713Y-47849500D01*
X133929703Y-47849500D01*
X133719759Y-47882753D01*
X133517592Y-47948441D01*
X133517588Y-47948442D01*
X133517588Y-47948443D01*
X133431213Y-47992453D01*
X133328182Y-48044950D01*
X133156206Y-48169897D01*
X133005896Y-48320207D01*
X132967445Y-48373131D01*
X132896101Y-48439080D01*
X132804951Y-48472707D01*
X132707871Y-48468892D01*
X132619641Y-48428217D01*
X132564555Y-48373131D01*
X132526103Y-48320207D01*
X132375793Y-48169897D01*
X132309768Y-48121927D01*
X132203816Y-48044949D01*
X132014412Y-47948443D01*
X132014409Y-47948442D01*
X132014407Y-47948441D01*
X131812240Y-47882753D01*
X131602296Y-47849500D01*
X131602287Y-47849500D01*
X131389713Y-47849500D01*
X131389703Y-47849500D01*
X131179759Y-47882753D01*
X130977592Y-47948441D01*
X130977588Y-47948442D01*
X130977588Y-47948443D01*
X130891213Y-47992453D01*
X130788182Y-48044950D01*
X130616206Y-48169897D01*
X130465896Y-48320207D01*
X130427445Y-48373131D01*
X130356101Y-48439080D01*
X130264951Y-48472707D01*
X130167871Y-48468892D01*
X130079641Y-48428217D01*
X130024555Y-48373131D01*
X129986103Y-48320207D01*
X129835793Y-48169897D01*
X129769768Y-48121927D01*
X129663816Y-48044949D01*
X129474412Y-47948443D01*
X129474409Y-47948442D01*
X129474407Y-47948441D01*
X129272240Y-47882753D01*
X129062296Y-47849500D01*
X129062287Y-47849500D01*
X128849713Y-47849500D01*
X128849703Y-47849500D01*
X128639759Y-47882753D01*
X128437592Y-47948441D01*
X128437588Y-47948442D01*
X128437588Y-47948443D01*
X128351213Y-47992453D01*
X128248182Y-48044950D01*
X128076206Y-48169897D01*
X127925897Y-48320206D01*
X127800948Y-48492184D01*
X127787715Y-48518157D01*
X127741926Y-48581179D01*
X127123106Y-49199999D01*
X126916000Y-49199999D01*
X126916000Y-49134174D01*
X126881925Y-49007007D01*
X126816099Y-48892993D01*
X126723007Y-48799901D01*
X126608993Y-48734075D01*
X126481826Y-48700000D01*
X126350174Y-48700000D01*
X126223007Y-48734075D01*
X126108993Y-48799901D01*
X126015901Y-48892993D01*
X125950075Y-49007007D01*
X125916000Y-49134174D01*
X125643066Y-49134174D01*
X125090074Y-48581182D01*
X125070452Y-48559079D01*
X125055365Y-48539904D01*
X125031051Y-48492184D01*
X124906104Y-48320208D01*
X124755792Y-48169896D01*
X124583816Y-48044949D01*
X124412388Y-47957602D01*
X125880710Y-47957602D01*
X126416000Y-48492892D01*
X126951288Y-47957603D01*
X126934214Y-47948904D01*
X126732123Y-47883241D01*
X126522256Y-47850000D01*
X126309743Y-47850000D01*
X126099874Y-47883241D01*
X126099873Y-47883241D01*
X125897793Y-47948900D01*
X125897779Y-47948906D01*
X125880710Y-47957602D01*
X124412388Y-47957602D01*
X124394412Y-47948443D01*
X124394409Y-47948442D01*
X124394407Y-47948441D01*
X124192240Y-47882753D01*
X123982296Y-47849500D01*
X123982287Y-47849500D01*
X123769713Y-47849500D01*
X123769703Y-47849500D01*
X123559759Y-47882753D01*
X123357592Y-47948441D01*
X123357588Y-47948442D01*
X123357588Y-47948443D01*
X123271213Y-47992453D01*
X123168182Y-48044950D01*
X122996206Y-48169897D01*
X122845896Y-48320207D01*
X122807445Y-48373131D01*
X122736101Y-48439080D01*
X122644951Y-48472707D01*
X122547871Y-48468892D01*
X122459641Y-48428217D01*
X122404555Y-48373131D01*
X122366103Y-48320207D01*
X122215793Y-48169897D01*
X122149768Y-48121927D01*
X122043816Y-48044949D01*
X121854412Y-47948443D01*
X121854409Y-47948442D01*
X121854407Y-47948441D01*
X121652240Y-47882753D01*
X121442296Y-47849500D01*
X121442287Y-47849500D01*
X121229713Y-47849500D01*
X121229703Y-47849500D01*
X121019759Y-47882753D01*
X120817592Y-47948441D01*
X120817588Y-47948442D01*
X120817588Y-47948443D01*
X120731213Y-47992453D01*
X120628182Y-48044950D01*
X120541857Y-48107669D01*
X120456208Y-48169896D01*
X120456206Y-48169897D01*
X120448293Y-48175647D01*
X120446630Y-48173359D01*
X120377814Y-48211834D01*
X120281324Y-48223184D01*
X120187835Y-48196746D01*
X120111581Y-48136543D01*
X120101160Y-48121409D01*
X120100469Y-48121927D01*
X120089796Y-48107670D01*
X120089796Y-48107669D01*
X120003546Y-47992454D01*
X119888331Y-47906204D01*
X119775761Y-47864218D01*
X119753481Y-47855908D01*
X119693873Y-47849500D01*
X117898134Y-47849500D01*
X117898130Y-47849500D01*
X117898128Y-47849501D01*
X117885314Y-47850878D01*
X117838519Y-47855908D01*
X117838515Y-47855909D01*
X117703670Y-47906203D01*
X117588455Y-47992453D01*
X117588453Y-47992455D01*
X117502204Y-48107669D01*
X117451908Y-48242518D01*
X117445500Y-48302123D01*
X117445500Y-48583097D01*
X117426546Y-48678385D01*
X117372570Y-48759167D01*
X117291788Y-48813143D01*
X117196500Y-48832097D01*
X117101212Y-48813143D01*
X117020430Y-48759167D01*
X116966454Y-48678385D01*
X116955984Y-48647542D01*
X116948606Y-48620007D01*
X116858284Y-48401951D01*
X116811088Y-48320206D01*
X116740278Y-48197559D01*
X116740272Y-48197549D01*
X116723466Y-48175647D01*
X116596592Y-48010301D01*
X116429699Y-47843408D01*
X116242450Y-47699727D01*
X116242440Y-47699721D01*
X116038054Y-47581718D01*
X116038043Y-47581713D01*
X115917222Y-47531667D01*
X115819993Y-47491394D01*
X115592014Y-47430307D01*
X115592007Y-47430306D01*
X115358011Y-47399500D01*
X115121989Y-47399500D01*
X114887992Y-47430306D01*
X114887990Y-47430306D01*
X114887986Y-47430307D01*
X114715640Y-47476487D01*
X114660010Y-47491393D01*
X114660007Y-47491394D01*
X114441956Y-47581713D01*
X114441945Y-47581718D01*
X114237559Y-47699721D01*
X114237549Y-47699727D01*
X114050301Y-47843408D01*
X114050297Y-47843411D01*
X113883411Y-48010297D01*
X113883408Y-48010301D01*
X113739727Y-48197549D01*
X113739721Y-48197559D01*
X113621718Y-48401945D01*
X113621713Y-48401956D01*
X113547477Y-48581179D01*
X113531394Y-48620007D01*
X113470307Y-48847986D01*
X113470306Y-48847990D01*
X113470306Y-48847992D01*
X113446341Y-49030023D01*
X113439500Y-49081989D01*
X100200500Y-49081989D01*
X100200500Y-47435980D01*
X100202064Y-47408118D01*
X100211437Y-47324923D01*
X100223843Y-47270575D01*
X100246842Y-47204848D01*
X100271031Y-47154620D01*
X100308076Y-47095664D01*
X100342833Y-47052078D01*
X100392078Y-47002833D01*
X100435664Y-46968076D01*
X100494620Y-46931031D01*
X100544848Y-46906842D01*
X100610578Y-46883842D01*
X100664923Y-46871437D01*
X100748118Y-46862064D01*
X100775980Y-46860500D01*
X100801882Y-46860500D01*
X163313810Y-46860500D01*
X163409098Y-46879454D01*
G37*
%TD.AperFunction*%
%TD*%
%TA.AperFunction,Conductor*%
%TO.N,+5V*%
G36*
X103987812Y-65335334D02*
G01*
X104020217Y-65337433D01*
X104035044Y-65344730D01*
X104051252Y-65347954D01*
X104078251Y-65365994D01*
X104107387Y-65380333D01*
X104120424Y-65390320D01*
X104200208Y-65470104D01*
X104372184Y-65595051D01*
X104418456Y-65618628D01*
X104436535Y-65632477D01*
X104461182Y-65654075D01*
X105257483Y-66450377D01*
X105311459Y-66531158D01*
X105312610Y-66536948D01*
X105272993Y-66514075D01*
X105145826Y-66480000D01*
X105014174Y-66480000D01*
X104887007Y-66514075D01*
X104772993Y-66579901D01*
X104679901Y-66672993D01*
X104614075Y-66787007D01*
X104580000Y-66914174D01*
X104580000Y-67045826D01*
X104614075Y-67172993D01*
X104679901Y-67287007D01*
X104772993Y-67380099D01*
X104887007Y-67445925D01*
X105014174Y-67480000D01*
X105145826Y-67480000D01*
X105272993Y-67445925D01*
X105312610Y-67423051D01*
X105311459Y-67428840D01*
X105257483Y-67509621D01*
X104461180Y-68305925D01*
X104398157Y-68351715D01*
X104372184Y-68364948D01*
X104200206Y-68489897D01*
X104049897Y-68640206D01*
X103924950Y-68812182D01*
X103828441Y-69001592D01*
X103762753Y-69203759D01*
X103729500Y-69413703D01*
X103729500Y-69626296D01*
X103762753Y-69836240D01*
X103762754Y-69836243D01*
X103828443Y-70038412D01*
X103924949Y-70227816D01*
X104014520Y-70351100D01*
X104049897Y-70399793D01*
X104200207Y-70550103D01*
X104253131Y-70588555D01*
X104319080Y-70659899D01*
X104352707Y-70751049D01*
X104348892Y-70848129D01*
X104308217Y-70936359D01*
X104253131Y-70991445D01*
X104200207Y-71029896D01*
X104049897Y-71180206D01*
X103924950Y-71352182D01*
X103828441Y-71541592D01*
X103762753Y-71743759D01*
X103729500Y-71953703D01*
X103729500Y-72166296D01*
X103762753Y-72376240D01*
X103762754Y-72376243D01*
X103828443Y-72578412D01*
X103924949Y-72767816D01*
X104049896Y-72939792D01*
X104200208Y-73090104D01*
X104215357Y-73101110D01*
X104228709Y-73115554D01*
X104245070Y-73126486D01*
X104261379Y-73150895D01*
X104281305Y-73172450D01*
X104288115Y-73190908D01*
X104299046Y-73207268D01*
X104304772Y-73236056D01*
X104314934Y-73263599D01*
X104318000Y-73302556D01*
X104318000Y-73357443D01*
X104299046Y-73452731D01*
X104245070Y-73533513D01*
X104215360Y-73558887D01*
X104200212Y-73569892D01*
X104200205Y-73569898D01*
X104049901Y-73720201D01*
X104049899Y-73720203D01*
X103924950Y-73892182D01*
X103828441Y-74081592D01*
X103762753Y-74283759D01*
X103729500Y-74493703D01*
X103729500Y-74706296D01*
X103762753Y-74916240D01*
X103762754Y-74916243D01*
X103828443Y-75118412D01*
X103924949Y-75307816D01*
X104049896Y-75479792D01*
X104200208Y-75630104D01*
X104215357Y-75641110D01*
X104228709Y-75655554D01*
X104245070Y-75666486D01*
X104261379Y-75690895D01*
X104281305Y-75712450D01*
X104288115Y-75730908D01*
X104299046Y-75747268D01*
X104304772Y-75776056D01*
X104314934Y-75803599D01*
X104318000Y-75842556D01*
X104318000Y-75897443D01*
X104299046Y-75992731D01*
X104245070Y-76073513D01*
X104215360Y-76098887D01*
X104200212Y-76109892D01*
X104200205Y-76109898D01*
X104049901Y-76260201D01*
X104049899Y-76260203D01*
X103924950Y-76432182D01*
X103828441Y-76621592D01*
X103762753Y-76823759D01*
X103729500Y-77033703D01*
X103729500Y-77246296D01*
X103762753Y-77456240D01*
X103762754Y-77456243D01*
X103828443Y-77658412D01*
X103924949Y-77847816D01*
X104049764Y-78019611D01*
X104055647Y-78027707D01*
X104053346Y-78029378D01*
X104091792Y-78098055D01*
X104103195Y-78194538D01*
X104076808Y-78288041D01*
X104016647Y-78364329D01*
X104001405Y-78374834D01*
X104001927Y-78375531D01*
X103987670Y-78386203D01*
X103987669Y-78386204D01*
X103955882Y-78410000D01*
X103872455Y-78472453D01*
X103872453Y-78472455D01*
X103786204Y-78587669D01*
X103735908Y-78722518D01*
X103729500Y-78782123D01*
X103729500Y-80577865D01*
X103729501Y-80577869D01*
X103735908Y-80637480D01*
X103735909Y-80637484D01*
X103786203Y-80772329D01*
X103786204Y-80772331D01*
X103872454Y-80887546D01*
X103987669Y-80973796D01*
X104122517Y-81024091D01*
X104122524Y-81024091D01*
X104126259Y-81024975D01*
X104132370Y-81027765D01*
X104137111Y-81029534D01*
X104136984Y-81029872D01*
X104214635Y-81065333D01*
X104280839Y-81136439D01*
X104314793Y-81227468D01*
X104318000Y-81267302D01*
X104318000Y-94412000D01*
X135964860Y-94412000D01*
X136060148Y-94430954D01*
X136140930Y-94484930D01*
X137526997Y-95870997D01*
X137580973Y-95951779D01*
X137599927Y-96047067D01*
X137580973Y-96142355D01*
X137575279Y-96150876D01*
X137564709Y-96217603D01*
X138407004Y-97059899D01*
X138292993Y-96994075D01*
X138165826Y-96960000D01*
X138034174Y-96960000D01*
X137907007Y-96994075D01*
X137792993Y-97059901D01*
X137699901Y-97152993D01*
X137634075Y-97267007D01*
X137600000Y-97394174D01*
X137600000Y-97525826D01*
X137634075Y-97652993D01*
X137699901Y-97767007D01*
X137792993Y-97860099D01*
X137907007Y-97925925D01*
X138034174Y-97960000D01*
X138165826Y-97960000D01*
X138292993Y-97925925D01*
X138407007Y-97860099D01*
X138500099Y-97767007D01*
X138565925Y-97652993D01*
X138600000Y-97525826D01*
X138600000Y-97394174D01*
X138565925Y-97267007D01*
X138500100Y-97152995D01*
X139425924Y-98078817D01*
X139471715Y-98141843D01*
X139484949Y-98167816D01*
X139609896Y-98339792D01*
X139760208Y-98490104D01*
X139932184Y-98615051D01*
X140121588Y-98711557D01*
X140323757Y-98777246D01*
X140397601Y-98788941D01*
X140533703Y-98810499D01*
X140533710Y-98810499D01*
X140533713Y-98810500D01*
X140533716Y-98810500D01*
X140746284Y-98810500D01*
X140746287Y-98810500D01*
X140746290Y-98810499D01*
X140746296Y-98810499D01*
X140845476Y-98794789D01*
X140956243Y-98777246D01*
X141158412Y-98711557D01*
X141347816Y-98615051D01*
X141519792Y-98490104D01*
X141670104Y-98339792D01*
X141708555Y-98286867D01*
X141779897Y-98220920D01*
X141871047Y-98187293D01*
X141968127Y-98191107D01*
X142056358Y-98231781D01*
X142111444Y-98286867D01*
X142149896Y-98339792D01*
X142300208Y-98490104D01*
X142472184Y-98615051D01*
X142661588Y-98711557D01*
X142863757Y-98777246D01*
X142937601Y-98788941D01*
X143073703Y-98810499D01*
X143073710Y-98810499D01*
X143073713Y-98810500D01*
X143073716Y-98810500D01*
X143286284Y-98810500D01*
X143286287Y-98810500D01*
X143286290Y-98810499D01*
X143286296Y-98810499D01*
X143385476Y-98794789D01*
X143496243Y-98777246D01*
X143698412Y-98711557D01*
X143887816Y-98615051D01*
X144059792Y-98490104D01*
X144210104Y-98339792D01*
X144248555Y-98286867D01*
X144319897Y-98220920D01*
X144411047Y-98187293D01*
X144508127Y-98191107D01*
X144596358Y-98231781D01*
X144651444Y-98286867D01*
X144689896Y-98339792D01*
X144840208Y-98490104D01*
X145012184Y-98615051D01*
X145201588Y-98711557D01*
X145403757Y-98777246D01*
X145477601Y-98788941D01*
X145613703Y-98810499D01*
X145613710Y-98810499D01*
X145613713Y-98810500D01*
X145613716Y-98810500D01*
X145826284Y-98810500D01*
X145826287Y-98810500D01*
X145826290Y-98810499D01*
X145826296Y-98810499D01*
X145925476Y-98794789D01*
X146036243Y-98777246D01*
X146238412Y-98711557D01*
X146427816Y-98615051D01*
X146599792Y-98490104D01*
X146750104Y-98339792D01*
X146875051Y-98167816D01*
X146971557Y-97978412D01*
X147037246Y-97776243D01*
X147054066Y-97670048D01*
X147087692Y-97578898D01*
X147153641Y-97507555D01*
X147233053Y-97470945D01*
X147243999Y-97460000D01*
X147244000Y-97460000D01*
X147244000Y-96562123D01*
X149449500Y-96562123D01*
X149449500Y-98357865D01*
X149449501Y-98357869D01*
X149455908Y-98417480D01*
X149455909Y-98417484D01*
X149480850Y-98484353D01*
X149506204Y-98552331D01*
X149592454Y-98667546D01*
X149707669Y-98753796D01*
X149842517Y-98804091D01*
X149902127Y-98810500D01*
X151697872Y-98810499D01*
X151757483Y-98804091D01*
X151892331Y-98753796D01*
X152007546Y-98667546D01*
X152093796Y-98552331D01*
X152093796Y-98552329D01*
X152104469Y-98538073D01*
X152107616Y-98540429D01*
X152148789Y-98491159D01*
X152234875Y-98446123D01*
X152331643Y-98437458D01*
X152424360Y-98466485D01*
X152451626Y-98485270D01*
X152452293Y-98484353D01*
X152460206Y-98490102D01*
X152460208Y-98490104D01*
X152632184Y-98615051D01*
X152821588Y-98711557D01*
X153023757Y-98777246D01*
X153097601Y-98788941D01*
X153233703Y-98810499D01*
X153233710Y-98810499D01*
X153233713Y-98810500D01*
X153233716Y-98810500D01*
X153446284Y-98810500D01*
X153446287Y-98810500D01*
X153446290Y-98810499D01*
X153446296Y-98810499D01*
X153545476Y-98794789D01*
X153656243Y-98777246D01*
X153858412Y-98711557D01*
X154047816Y-98615051D01*
X154219792Y-98490104D01*
X154370104Y-98339792D01*
X154408555Y-98286867D01*
X154479897Y-98220920D01*
X154571047Y-98187293D01*
X154668127Y-98191107D01*
X154756358Y-98231781D01*
X154811444Y-98286867D01*
X154849896Y-98339792D01*
X155000208Y-98490104D01*
X155172184Y-98615051D01*
X155361588Y-98711557D01*
X155563757Y-98777246D01*
X155637601Y-98788941D01*
X155773703Y-98810499D01*
X155773710Y-98810499D01*
X155773713Y-98810500D01*
X155773716Y-98810500D01*
X155986284Y-98810500D01*
X155986287Y-98810500D01*
X155986290Y-98810499D01*
X155986296Y-98810499D01*
X156085476Y-98794789D01*
X156196243Y-98777246D01*
X156398412Y-98711557D01*
X156587816Y-98615051D01*
X156759792Y-98490104D01*
X156910104Y-98339792D01*
X156948555Y-98286867D01*
X157019897Y-98220920D01*
X157111047Y-98187293D01*
X157208127Y-98191107D01*
X157296358Y-98231781D01*
X157351444Y-98286867D01*
X157389896Y-98339792D01*
X157540208Y-98490104D01*
X157712184Y-98615051D01*
X157901588Y-98711557D01*
X158103757Y-98777246D01*
X158177601Y-98788941D01*
X158313703Y-98810499D01*
X158313710Y-98810499D01*
X158313713Y-98810500D01*
X158313716Y-98810500D01*
X158526284Y-98810500D01*
X158526287Y-98810500D01*
X158526290Y-98810499D01*
X158526296Y-98810499D01*
X158625476Y-98794789D01*
X158736243Y-98777246D01*
X158938412Y-98711557D01*
X159127816Y-98615051D01*
X159299792Y-98490104D01*
X159450104Y-98339792D01*
X159488555Y-98286867D01*
X159559897Y-98220920D01*
X159651047Y-98187293D01*
X159748127Y-98191107D01*
X159836358Y-98231781D01*
X159891444Y-98286867D01*
X159929896Y-98339792D01*
X160080208Y-98490104D01*
X160252184Y-98615051D01*
X160441588Y-98711557D01*
X160643757Y-98777246D01*
X160717601Y-98788941D01*
X160853703Y-98810499D01*
X160853710Y-98810499D01*
X160853713Y-98810500D01*
X160853716Y-98810500D01*
X161066284Y-98810500D01*
X161066287Y-98810500D01*
X161066290Y-98810499D01*
X161066296Y-98810499D01*
X161165476Y-98794789D01*
X161276243Y-98777246D01*
X161478412Y-98711557D01*
X161667816Y-98615051D01*
X161839792Y-98490104D01*
X161990104Y-98339792D01*
X162028555Y-98286867D01*
X162099897Y-98220920D01*
X162191047Y-98187293D01*
X162288127Y-98191107D01*
X162376358Y-98231781D01*
X162431444Y-98286867D01*
X162469896Y-98339792D01*
X162620208Y-98490104D01*
X162792184Y-98615051D01*
X162981588Y-98711557D01*
X163183757Y-98777246D01*
X163257601Y-98788941D01*
X163393703Y-98810499D01*
X163393710Y-98810499D01*
X163393713Y-98810500D01*
X163393716Y-98810500D01*
X163606284Y-98810500D01*
X163606287Y-98810500D01*
X163606290Y-98810499D01*
X163606296Y-98810499D01*
X163705476Y-98794789D01*
X163816243Y-98777246D01*
X164018412Y-98711557D01*
X164207816Y-98615051D01*
X164379792Y-98490104D01*
X164530104Y-98339792D01*
X164655051Y-98167816D01*
X164751557Y-97978412D01*
X164817246Y-97776243D01*
X164848643Y-97578011D01*
X164850499Y-97566296D01*
X164850500Y-97566284D01*
X164850500Y-97353715D01*
X164850499Y-97353703D01*
X164817246Y-97143759D01*
X164817246Y-97143757D01*
X164751557Y-96941588D01*
X164655051Y-96752184D01*
X164530104Y-96580208D01*
X164379792Y-96429896D01*
X164207816Y-96304949D01*
X164018412Y-96208443D01*
X164018409Y-96208442D01*
X164018407Y-96208441D01*
X163816240Y-96142753D01*
X163606296Y-96109500D01*
X163606287Y-96109500D01*
X163393713Y-96109500D01*
X163393703Y-96109500D01*
X163183759Y-96142753D01*
X162981592Y-96208441D01*
X162981588Y-96208442D01*
X162981588Y-96208443D01*
X162939512Y-96229882D01*
X162792182Y-96304950D01*
X162620206Y-96429897D01*
X162469896Y-96580207D01*
X162431445Y-96633131D01*
X162360101Y-96699080D01*
X162268951Y-96732707D01*
X162171871Y-96728892D01*
X162083641Y-96688217D01*
X162028555Y-96633131D01*
X161990103Y-96580207D01*
X161839793Y-96429897D01*
X161773768Y-96381927D01*
X161667816Y-96304949D01*
X161478412Y-96208443D01*
X161478409Y-96208442D01*
X161478407Y-96208441D01*
X161276240Y-96142753D01*
X161066296Y-96109500D01*
X161066287Y-96109500D01*
X160853713Y-96109500D01*
X160853703Y-96109500D01*
X160643759Y-96142753D01*
X160441592Y-96208441D01*
X160441588Y-96208442D01*
X160441588Y-96208443D01*
X160399512Y-96229882D01*
X160252182Y-96304950D01*
X160080206Y-96429897D01*
X159929896Y-96580207D01*
X159891445Y-96633131D01*
X159820101Y-96699080D01*
X159728951Y-96732707D01*
X159631871Y-96728892D01*
X159543641Y-96688217D01*
X159488555Y-96633131D01*
X159450103Y-96580207D01*
X159299793Y-96429897D01*
X159233768Y-96381927D01*
X159127816Y-96304949D01*
X158938412Y-96208443D01*
X158938409Y-96208442D01*
X158938407Y-96208441D01*
X158736240Y-96142753D01*
X158526296Y-96109500D01*
X158526287Y-96109500D01*
X158313713Y-96109500D01*
X158313703Y-96109500D01*
X158103759Y-96142753D01*
X157901592Y-96208441D01*
X157901588Y-96208442D01*
X157901588Y-96208443D01*
X157859512Y-96229882D01*
X157712182Y-96304950D01*
X157540206Y-96429897D01*
X157389896Y-96580207D01*
X157351445Y-96633131D01*
X157280101Y-96699080D01*
X157188951Y-96732707D01*
X157091871Y-96728892D01*
X157003641Y-96688217D01*
X156948555Y-96633131D01*
X156910103Y-96580207D01*
X156759793Y-96429897D01*
X156693768Y-96381927D01*
X156587816Y-96304949D01*
X156398412Y-96208443D01*
X156398409Y-96208442D01*
X156398407Y-96208441D01*
X156196240Y-96142753D01*
X155986296Y-96109500D01*
X155986287Y-96109500D01*
X155773713Y-96109500D01*
X155773703Y-96109500D01*
X155563759Y-96142753D01*
X155361592Y-96208441D01*
X155361588Y-96208442D01*
X155361588Y-96208443D01*
X155319512Y-96229882D01*
X155172182Y-96304950D01*
X155000206Y-96429897D01*
X154849896Y-96580207D01*
X154811445Y-96633131D01*
X154740101Y-96699080D01*
X154648951Y-96732707D01*
X154551871Y-96728892D01*
X154463641Y-96688217D01*
X154408555Y-96633131D01*
X154370103Y-96580207D01*
X154219793Y-96429897D01*
X154153768Y-96381927D01*
X154047816Y-96304949D01*
X153858412Y-96208443D01*
X153858409Y-96208442D01*
X153858407Y-96208441D01*
X153656240Y-96142753D01*
X153446296Y-96109500D01*
X153446287Y-96109500D01*
X153233713Y-96109500D01*
X153233703Y-96109500D01*
X153023759Y-96142753D01*
X152821592Y-96208441D01*
X152821588Y-96208442D01*
X152821588Y-96208443D01*
X152779512Y-96229882D01*
X152632182Y-96304950D01*
X152556445Y-96359976D01*
X152460208Y-96429896D01*
X152460206Y-96429897D01*
X152452293Y-96435647D01*
X152450630Y-96433359D01*
X152381814Y-96471834D01*
X152285324Y-96483184D01*
X152191835Y-96456746D01*
X152115581Y-96396543D01*
X152105160Y-96381409D01*
X152104469Y-96381927D01*
X152093796Y-96367670D01*
X152093796Y-96367669D01*
X152007546Y-96252454D01*
X151892331Y-96166204D01*
X151812117Y-96136286D01*
X151757481Y-96115908D01*
X151697873Y-96109500D01*
X149902134Y-96109500D01*
X149902130Y-96109500D01*
X149902128Y-96109501D01*
X149889314Y-96110878D01*
X149842519Y-96115908D01*
X149842515Y-96115909D01*
X149707670Y-96166203D01*
X149592455Y-96252453D01*
X149592453Y-96252455D01*
X149506204Y-96367669D01*
X149455908Y-96502518D01*
X149449500Y-96562123D01*
X147244000Y-96562123D01*
X147244000Y-94181604D01*
X147262954Y-94086316D01*
X147316930Y-94005534D01*
X147397712Y-93951558D01*
X147493000Y-93932604D01*
X147518306Y-93933893D01*
X147558499Y-93938000D01*
X148961500Y-93937999D01*
X149064072Y-93927521D01*
X149064074Y-93927520D01*
X149064076Y-93927520D01*
X149064078Y-93927519D01*
X149230251Y-93872455D01*
X149230251Y-93872454D01*
X149230253Y-93872454D01*
X149379256Y-93780548D01*
X149503048Y-93656756D01*
X149503904Y-93655367D01*
X149505516Y-93653633D01*
X149512040Y-93645383D01*
X149512701Y-93645905D01*
X149570058Y-93584216D01*
X149658405Y-93543795D01*
X149755496Y-93540261D01*
X149846549Y-93574151D01*
X149879492Y-93600198D01*
X149880189Y-93599383D01*
X149887631Y-93605738D01*
X149887635Y-93605742D01*
X150065978Y-93735315D01*
X150065981Y-93735316D01*
X150065986Y-93735320D01*
X150262383Y-93835390D01*
X150262386Y-93835391D01*
X150262394Y-93835395D01*
X150472049Y-93903515D01*
X150472060Y-93903516D01*
X150472061Y-93903517D01*
X150532640Y-93913111D01*
X150689778Y-93938000D01*
X150689782Y-93938000D01*
X150910218Y-93938000D01*
X150910222Y-93938000D01*
X151127951Y-93903515D01*
X151337606Y-93835395D01*
X151338519Y-93834930D01*
X151373569Y-93817071D01*
X152767535Y-93817071D01*
X152802586Y-93834930D01*
X152802591Y-93834932D01*
X153012168Y-93903027D01*
X153229808Y-93937499D01*
X153229821Y-93937500D01*
X153450179Y-93937500D01*
X153450191Y-93937499D01*
X153667831Y-93903027D01*
X153877409Y-93834932D01*
X153877410Y-93834932D01*
X153912464Y-93817070D01*
X153340000Y-93244606D01*
X152767535Y-93817071D01*
X151373569Y-93817071D01*
X151534013Y-93735320D01*
X151534015Y-93735318D01*
X151534022Y-93735315D01*
X151712365Y-93605742D01*
X151868242Y-93449865D01*
X151997815Y-93271522D01*
X152082703Y-93104921D01*
X152128491Y-93041901D01*
X152790393Y-92380000D01*
X152916328Y-92380000D01*
X152890000Y-92478256D01*
X152890000Y-92596744D01*
X152920667Y-92711194D01*
X152979910Y-92813806D01*
X153063694Y-92897590D01*
X153166306Y-92956833D01*
X153280756Y-92987500D01*
X153399244Y-92987500D01*
X153513694Y-92956833D01*
X153616306Y-92897590D01*
X153700090Y-92813806D01*
X153759333Y-92711194D01*
X153790000Y-92596744D01*
X153790000Y-92478256D01*
X153763672Y-92380000D01*
X153889606Y-92380000D01*
X154406570Y-92896964D01*
X154460546Y-92977746D01*
X154479500Y-93073033D01*
X154479500Y-93238997D01*
X154489979Y-93341576D01*
X154489980Y-93341578D01*
X154545044Y-93507751D01*
X154545045Y-93507752D01*
X154636949Y-93656753D01*
X154760746Y-93780550D01*
X154909747Y-93872454D01*
X154909750Y-93872456D01*
X155073046Y-93926566D01*
X155075928Y-93927521D01*
X155178499Y-93938000D01*
X156581500Y-93937999D01*
X156684072Y-93927521D01*
X156684074Y-93927520D01*
X156684076Y-93927520D01*
X156684078Y-93927519D01*
X156850251Y-93872455D01*
X156850251Y-93872454D01*
X156850253Y-93872454D01*
X156999256Y-93780548D01*
X157123048Y-93656756D01*
X157123904Y-93655367D01*
X157125516Y-93653633D01*
X157132040Y-93645383D01*
X157132701Y-93645905D01*
X157190058Y-93584216D01*
X157278405Y-93543795D01*
X157375496Y-93540261D01*
X157466549Y-93574151D01*
X157499492Y-93600198D01*
X157500189Y-93599383D01*
X157507631Y-93605738D01*
X157507635Y-93605742D01*
X157685978Y-93735315D01*
X157685981Y-93735316D01*
X157685986Y-93735320D01*
X157882383Y-93835390D01*
X157882386Y-93835391D01*
X157882394Y-93835395D01*
X158092049Y-93903515D01*
X158092060Y-93903516D01*
X158092061Y-93903517D01*
X158152640Y-93913111D01*
X158309778Y-93938000D01*
X158309782Y-93938000D01*
X158530218Y-93938000D01*
X158530222Y-93938000D01*
X158747951Y-93903515D01*
X158957606Y-93835395D01*
X158958519Y-93834930D01*
X158993569Y-93817071D01*
X160387535Y-93817071D01*
X160422586Y-93834930D01*
X160422591Y-93834932D01*
X160632168Y-93903027D01*
X160849808Y-93937499D01*
X160849821Y-93937500D01*
X161070179Y-93937500D01*
X161070191Y-93937499D01*
X161287831Y-93903027D01*
X161497409Y-93834932D01*
X161497410Y-93834932D01*
X161532464Y-93817070D01*
X160960000Y-93244606D01*
X160387535Y-93817071D01*
X158993569Y-93817071D01*
X159154013Y-93735320D01*
X159154015Y-93735318D01*
X159154022Y-93735315D01*
X159332365Y-93605742D01*
X159488242Y-93449865D01*
X159617815Y-93271522D01*
X159702703Y-93104921D01*
X159748491Y-93041901D01*
X160410393Y-92380000D01*
X160536328Y-92380000D01*
X160510000Y-92478256D01*
X160510000Y-92596744D01*
X160540667Y-92711194D01*
X160599910Y-92813806D01*
X160683694Y-92897590D01*
X160786306Y-92956833D01*
X160900756Y-92987500D01*
X161019244Y-92987500D01*
X161133694Y-92956833D01*
X161236306Y-92897590D01*
X161320090Y-92813806D01*
X161379333Y-92711194D01*
X161410000Y-92596744D01*
X161410000Y-92478256D01*
X161383672Y-92380000D01*
X161509606Y-92380000D01*
X162239570Y-93109963D01*
X162257432Y-93074910D01*
X162257432Y-93074909D01*
X162325527Y-92865331D01*
X162359999Y-92647691D01*
X162360000Y-92647679D01*
X162360000Y-92629000D01*
X162378954Y-92533712D01*
X162432930Y-92452930D01*
X162513712Y-92398954D01*
X162609000Y-92380000D01*
X164005596Y-92380000D01*
X164100884Y-92398954D01*
X164181666Y-92452930D01*
X164235642Y-92533712D01*
X164252466Y-92596499D01*
X164270307Y-92732014D01*
X164331394Y-92959993D01*
X164371667Y-93057222D01*
X164421713Y-93178043D01*
X164421718Y-93178054D01*
X164539721Y-93382440D01*
X164539727Y-93382450D01*
X164683408Y-93569699D01*
X164850301Y-93736592D01*
X165037550Y-93880273D01*
X165037559Y-93880278D01*
X165241945Y-93998281D01*
X165241948Y-93998282D01*
X165241951Y-93998284D01*
X165460007Y-94088606D01*
X165687986Y-94149693D01*
X165921989Y-94180500D01*
X166158011Y-94180500D01*
X166392014Y-94149693D01*
X166619993Y-94088606D01*
X166838049Y-93998284D01*
X167042450Y-93880273D01*
X167229699Y-93736592D01*
X167396592Y-93569699D01*
X167540273Y-93382450D01*
X167658284Y-93178049D01*
X167748606Y-92959993D01*
X167809693Y-92732014D01*
X167827534Y-92596499D01*
X167838003Y-92565656D01*
X167844358Y-92533712D01*
X167853484Y-92520053D01*
X167858764Y-92504500D01*
X167880236Y-92480015D01*
X167898334Y-92452930D01*
X167911994Y-92443802D01*
X167922823Y-92431455D01*
X167952033Y-92417049D01*
X167979116Y-92398954D01*
X167995224Y-92395749D01*
X168009958Y-92388484D01*
X168074404Y-92380000D01*
X168130500Y-92380000D01*
X168225788Y-92398954D01*
X168306570Y-92452930D01*
X168360546Y-92533712D01*
X168379500Y-92629000D01*
X168379500Y-96003810D01*
X168360546Y-96099098D01*
X168306570Y-96179879D01*
X165926426Y-98560023D01*
X165926426Y-98560024D01*
X165926425Y-98560023D01*
X165870026Y-98616423D01*
X165870023Y-98616427D01*
X165839500Y-98690118D01*
X165839500Y-99224019D01*
X165837934Y-99251897D01*
X165837934Y-99251899D01*
X165828563Y-99335065D01*
X165816156Y-99389424D01*
X165793159Y-99455146D01*
X165768965Y-99505384D01*
X165731925Y-99564332D01*
X165697162Y-99607925D01*
X165647925Y-99657162D01*
X165604332Y-99691925D01*
X165545384Y-99728965D01*
X165495146Y-99753159D01*
X165429424Y-99776156D01*
X165375066Y-99788563D01*
X165343002Y-99792176D01*
X165291896Y-99797934D01*
X165264020Y-99799500D01*
X100775980Y-99799500D01*
X100748102Y-99797934D01*
X100721202Y-99794903D01*
X100664934Y-99788563D01*
X100610575Y-99776156D01*
X100544853Y-99753159D01*
X100494615Y-99728965D01*
X100435667Y-99691925D01*
X100392074Y-99657162D01*
X100342837Y-99607925D01*
X100308074Y-99564332D01*
X100271034Y-99505384D01*
X100246840Y-99455146D01*
X100223843Y-99389424D01*
X100211437Y-99335074D01*
X100202064Y-99251882D01*
X100200500Y-99224019D01*
X100200500Y-97341989D01*
X112169500Y-97341989D01*
X112169500Y-97578011D01*
X112200307Y-97812014D01*
X112261394Y-98039993D01*
X112283291Y-98092856D01*
X112351713Y-98258043D01*
X112351718Y-98258054D01*
X112462787Y-98450430D01*
X112469727Y-98462450D01*
X112613408Y-98649699D01*
X112780301Y-98816592D01*
X112967550Y-98960273D01*
X112967559Y-98960278D01*
X113171945Y-99078281D01*
X113171948Y-99078282D01*
X113171951Y-99078284D01*
X113390007Y-99168606D01*
X113617986Y-99229693D01*
X113851989Y-99260500D01*
X114088011Y-99260500D01*
X114322014Y-99229693D01*
X114549993Y-99168606D01*
X114768049Y-99078284D01*
X114972450Y-98960273D01*
X115159699Y-98816592D01*
X115326592Y-98649699D01*
X115470273Y-98462450D01*
X115588284Y-98258049D01*
X115678606Y-98039993D01*
X115739693Y-97812014D01*
X115770500Y-97578011D01*
X115770500Y-97341989D01*
X115739693Y-97107986D01*
X115678606Y-96880007D01*
X115616012Y-96728892D01*
X115588287Y-96661957D01*
X115588280Y-96661944D01*
X115530651Y-96562128D01*
X115530648Y-96562123D01*
X126589500Y-96562123D01*
X126589500Y-98357865D01*
X126589501Y-98357869D01*
X126595908Y-98417480D01*
X126595909Y-98417484D01*
X126620850Y-98484353D01*
X126646204Y-98552331D01*
X126732454Y-98667546D01*
X126847669Y-98753796D01*
X126982517Y-98804091D01*
X127042127Y-98810500D01*
X128837872Y-98810499D01*
X128897483Y-98804091D01*
X129032331Y-98753796D01*
X129147546Y-98667546D01*
X129233796Y-98552331D01*
X129233796Y-98552329D01*
X129244469Y-98538073D01*
X129247616Y-98540429D01*
X129288789Y-98491159D01*
X129374875Y-98446123D01*
X129471643Y-98437458D01*
X129564360Y-98466485D01*
X129591626Y-98485270D01*
X129592293Y-98484353D01*
X129600206Y-98490102D01*
X129600208Y-98490104D01*
X129772184Y-98615051D01*
X129961588Y-98711557D01*
X130163757Y-98777246D01*
X130237601Y-98788941D01*
X130373703Y-98810499D01*
X130373710Y-98810499D01*
X130373713Y-98810500D01*
X130373716Y-98810500D01*
X130586284Y-98810500D01*
X130586287Y-98810500D01*
X130586290Y-98810499D01*
X130586296Y-98810499D01*
X130685476Y-98794789D01*
X130796243Y-98777246D01*
X130998412Y-98711557D01*
X131187816Y-98615051D01*
X131359792Y-98490104D01*
X131510104Y-98339792D01*
X131548555Y-98286867D01*
X131619897Y-98220920D01*
X131711047Y-98187293D01*
X131808127Y-98191107D01*
X131896358Y-98231781D01*
X131951444Y-98286867D01*
X131989896Y-98339792D01*
X132140208Y-98490104D01*
X132312184Y-98615051D01*
X132501588Y-98711557D01*
X132703757Y-98777246D01*
X132777601Y-98788941D01*
X132913703Y-98810499D01*
X132913710Y-98810499D01*
X132913713Y-98810500D01*
X132913716Y-98810500D01*
X133126284Y-98810500D01*
X133126287Y-98810500D01*
X133126290Y-98810499D01*
X133126296Y-98810499D01*
X133225476Y-98794789D01*
X133336243Y-98777246D01*
X133538412Y-98711557D01*
X133727816Y-98615051D01*
X133899792Y-98490104D01*
X134050104Y-98339792D01*
X134088555Y-98286867D01*
X134159897Y-98220920D01*
X134251047Y-98187293D01*
X134348127Y-98191107D01*
X134436358Y-98231781D01*
X134491444Y-98286867D01*
X134529896Y-98339792D01*
X134680208Y-98490104D01*
X134852184Y-98615051D01*
X135041588Y-98711557D01*
X135243757Y-98777246D01*
X135317601Y-98788941D01*
X135453703Y-98810499D01*
X135453710Y-98810499D01*
X135453713Y-98810500D01*
X135453716Y-98810500D01*
X135666284Y-98810500D01*
X135666287Y-98810500D01*
X135666290Y-98810499D01*
X135666296Y-98810499D01*
X135765476Y-98794789D01*
X135876243Y-98777246D01*
X136078412Y-98711557D01*
X136096392Y-98702396D01*
X137564710Y-98702396D01*
X137581781Y-98711094D01*
X137581780Y-98711094D01*
X137783876Y-98776758D01*
X137993743Y-98809999D01*
X137993756Y-98810000D01*
X138206244Y-98810000D01*
X138206256Y-98809999D01*
X138416123Y-98776758D01*
X138618219Y-98711094D01*
X138635289Y-98702395D01*
X138100000Y-98167106D01*
X137564710Y-98702396D01*
X136096392Y-98702396D01*
X136267816Y-98615051D01*
X136439792Y-98490104D01*
X136590104Y-98339792D01*
X136715051Y-98167816D01*
X136739366Y-98120094D01*
X136754454Y-98100918D01*
X136763874Y-98092856D01*
X136774077Y-98078814D01*
X137392892Y-97460000D01*
X136774074Y-96841182D01*
X136728286Y-96778160D01*
X136715051Y-96752184D01*
X136590104Y-96580208D01*
X136439792Y-96429896D01*
X136267816Y-96304949D01*
X136078412Y-96208443D01*
X136078409Y-96208442D01*
X136078407Y-96208441D01*
X135876240Y-96142753D01*
X135666296Y-96109500D01*
X135666287Y-96109500D01*
X135453713Y-96109500D01*
X135453703Y-96109500D01*
X135243759Y-96142753D01*
X135041592Y-96208441D01*
X135041588Y-96208442D01*
X135041588Y-96208443D01*
X134999512Y-96229882D01*
X134852182Y-96304950D01*
X134680206Y-96429897D01*
X134529896Y-96580207D01*
X134491445Y-96633131D01*
X134420101Y-96699080D01*
X134328951Y-96732707D01*
X134231871Y-96728892D01*
X134143641Y-96688217D01*
X134088555Y-96633131D01*
X134050103Y-96580207D01*
X133899793Y-96429897D01*
X133833768Y-96381927D01*
X133727816Y-96304949D01*
X133538412Y-96208443D01*
X133538409Y-96208442D01*
X133538407Y-96208441D01*
X133336240Y-96142753D01*
X133126296Y-96109500D01*
X133126287Y-96109500D01*
X132913713Y-96109500D01*
X132913703Y-96109500D01*
X132703759Y-96142753D01*
X132501592Y-96208441D01*
X132501588Y-96208442D01*
X132501588Y-96208443D01*
X132459512Y-96229882D01*
X132312182Y-96304950D01*
X132140206Y-96429897D01*
X131989896Y-96580207D01*
X131951445Y-96633131D01*
X131880101Y-96699080D01*
X131788951Y-96732707D01*
X131691871Y-96728892D01*
X131603641Y-96688217D01*
X131548555Y-96633131D01*
X131510103Y-96580207D01*
X131359793Y-96429897D01*
X131293768Y-96381927D01*
X131187816Y-96304949D01*
X130998412Y-96208443D01*
X130998409Y-96208442D01*
X130998407Y-96208441D01*
X130796240Y-96142753D01*
X130586296Y-96109500D01*
X130586287Y-96109500D01*
X130373713Y-96109500D01*
X130373703Y-96109500D01*
X130163759Y-96142753D01*
X129961592Y-96208441D01*
X129961588Y-96208442D01*
X129961588Y-96208443D01*
X129919512Y-96229882D01*
X129772182Y-96304950D01*
X129696445Y-96359976D01*
X129600208Y-96429896D01*
X129600206Y-96429897D01*
X129592293Y-96435647D01*
X129590630Y-96433359D01*
X129521814Y-96471834D01*
X129425324Y-96483184D01*
X129331835Y-96456746D01*
X129255581Y-96396543D01*
X129245160Y-96381409D01*
X129244469Y-96381927D01*
X129233796Y-96367670D01*
X129233796Y-96367669D01*
X129147546Y-96252454D01*
X129032331Y-96166204D01*
X128952117Y-96136286D01*
X128897481Y-96115908D01*
X128837873Y-96109500D01*
X127042134Y-96109500D01*
X127042130Y-96109500D01*
X127042128Y-96109501D01*
X127029314Y-96110878D01*
X126982519Y-96115908D01*
X126982515Y-96115909D01*
X126847670Y-96166203D01*
X126732455Y-96252453D01*
X126732453Y-96252455D01*
X126646204Y-96367669D01*
X126595908Y-96502518D01*
X126589500Y-96562123D01*
X115530648Y-96562123D01*
X115470273Y-96457550D01*
X115326592Y-96270301D01*
X115159699Y-96103408D01*
X114972450Y-95959727D01*
X114958684Y-95951779D01*
X114768054Y-95841718D01*
X114768043Y-95841713D01*
X114647222Y-95791667D01*
X114549993Y-95751394D01*
X114322014Y-95690307D01*
X114322007Y-95690306D01*
X114088011Y-95659500D01*
X113851989Y-95659500D01*
X113617992Y-95690306D01*
X113617990Y-95690306D01*
X113617986Y-95690307D01*
X113445640Y-95736487D01*
X113390010Y-95751393D01*
X113390007Y-95751394D01*
X113171956Y-95841713D01*
X113171945Y-95841718D01*
X112967559Y-95959721D01*
X112967549Y-95959727D01*
X112780301Y-96103408D01*
X112780297Y-96103411D01*
X112613411Y-96270297D01*
X112613408Y-96270301D01*
X112469727Y-96457549D01*
X112469721Y-96457559D01*
X112351718Y-96661945D01*
X112351713Y-96661956D01*
X112277476Y-96841182D01*
X112261394Y-96880007D01*
X112200307Y-97107986D01*
X112200306Y-97107990D01*
X112200306Y-97107992D01*
X112169500Y-97341989D01*
X100200500Y-97341989D01*
X100200500Y-66873743D01*
X103730000Y-66873743D01*
X103730000Y-67086256D01*
X103763241Y-67296123D01*
X103828904Y-67498214D01*
X103837603Y-67515288D01*
X104372892Y-66980000D01*
X103837602Y-66444710D01*
X103828906Y-66461779D01*
X103828900Y-66461793D01*
X103763241Y-66663873D01*
X103763241Y-66663874D01*
X103730000Y-66873743D01*
X100200500Y-66873743D01*
X100200500Y-65578000D01*
X100219454Y-65482712D01*
X100273430Y-65401930D01*
X100354212Y-65347954D01*
X100449500Y-65329000D01*
X103955964Y-65329000D01*
X103987812Y-65335334D01*
G37*
%TD.AperFunction*%
%TD*%
M02*
