M48
; DRILL file {KiCad 9.0.6} date 2025-11-01T12:53:34+0900
; FORMAT={-:-/ absolute / inch / decimal}
; #@! TF.CreationDate,2025-11-01T12:53:34+09:00
; #@! TF.GenerationSoftware,Kicad,Pcbnew,9.0.6
; #@! TF.FileFunction,Plated,1,2,PTH
FMAT,2
INCH
; #@! TA.AperFunction,Plated,PTH,ViaDrill
T1C0.0236
; #@! TA.AperFunction,Plated,PTH,ComponentDrill
T2C0.0354
; #@! TA.AperFunction,Plated,PTH,ComponentDrill
T3C0.0394
; #@! TA.AperFunction,Plated,PTH,ComponentDrill
T4C0.0433
; #@! TA.AperFunction,Plated,PTH,ComponentDrill
T5C0.1236
%
G90
G05
T1
X4.257Y-3.317
X4.597Y-3.417
T2
X5.837Y-3.6432
X5.937Y-3.6432
X6.037Y-3.6432
X6.137Y-3.6432
X6.237Y-3.6432
X6.337Y-3.6432
T3
X4.137Y-2.437
X4.137Y-2.537
X4.137Y-2.637
X4.137Y-2.737
X4.137Y-2.837
X4.137Y-2.937
X4.137Y-3.037
X4.137Y-3.137
X4.537Y-2.537
X4.537Y-2.637
X4.537Y-2.737
X4.537Y-2.837
X4.537Y-2.937
X4.537Y-3.037
X4.537Y-3.137
X4.637Y-2.437
X4.637Y-2.537
X4.637Y-2.637
X4.637Y-2.737
X4.637Y-2.837
X4.637Y-2.937
X4.637Y-3.037
X4.637Y-3.137
X4.677Y-1.937
X4.737Y-2.337
X4.737Y-2.437
X4.737Y-2.537
X4.737Y-2.637
X4.737Y-2.737
X4.737Y-2.837
X4.737Y-2.937
X4.737Y-3.037
X4.737Y-3.137
X4.777Y-1.937
X4.837Y-2.237
X4.837Y-2.337
X4.837Y-2.437
X4.837Y-2.537
X4.837Y-2.637
X4.837Y-2.737
X4.837Y-2.837
X4.837Y-2.937
X4.837Y-3.037
X4.837Y-3.137
X4.8624Y-3.387
X4.877Y-1.937
X4.937Y-2.237
X4.937Y-2.337
X4.937Y-2.437
X4.937Y-2.537
X4.937Y-2.637
X4.937Y-2.737
X4.937Y-2.837
X4.937Y-2.937
X4.937Y-3.037
X4.937Y-3.137
X4.9624Y-3.387
X4.977Y-1.937
X5.037Y-2.237
X5.037Y-2.337
X5.037Y-2.437
X5.037Y-2.537
X5.037Y-2.637
X5.037Y-2.737
X5.037Y-2.837
X5.037Y-2.937
X5.037Y-3.037
X5.037Y-3.137
X5.037Y-3.837
X5.0624Y-3.387
X5.077Y-1.937
X5.137Y-2.237
X5.137Y-2.337
X5.137Y-2.437
X5.137Y-2.537
X5.137Y-2.637
X5.137Y-2.737
X5.137Y-2.837
X5.137Y-2.937
X5.137Y-3.037
X5.137Y-3.137
X5.137Y-3.837
X5.1624Y-3.387
X5.177Y-1.937
X5.237Y-2.237
X5.237Y-2.337
X5.237Y-2.437
X5.237Y-2.537
X5.237Y-2.637
X5.237Y-2.737
X5.237Y-2.837
X5.237Y-2.937
X5.237Y-3.037
X5.237Y-3.137
X5.237Y-3.837
X5.277Y-1.937
X5.337Y-2.237
X5.337Y-2.337
X5.337Y-2.437
X5.337Y-2.537
X5.337Y-2.637
X5.337Y-2.737
X5.337Y-2.837
X5.337Y-2.937
X5.337Y-3.037
X5.337Y-3.137
X5.337Y-3.837
X5.377Y-1.937
X5.437Y-2.337
X5.437Y-2.437
X5.437Y-2.537
X5.437Y-2.637
X5.437Y-2.737
X5.437Y-2.837
X5.437Y-2.937
X5.437Y-3.037
X5.437Y-3.137
X5.437Y-3.837
X5.437Y-2.237
X5.477Y-1.937
X5.537Y-2.437
X5.537Y-2.537
X5.537Y-2.637
X5.537Y-2.737
X5.537Y-2.837
X5.537Y-2.937
X5.537Y-3.037
X5.537Y-3.137
X5.537Y-3.837
X5.577Y-1.937
X5.637Y-2.437
X5.637Y-2.537
X5.637Y-2.637
X5.637Y-2.737
X5.637Y-2.837
X5.637Y-2.937
X5.637Y-3.037
X5.637Y-3.137
X5.637Y-3.837
X5.737Y-1.937
X5.737Y-3.837
X5.837Y-1.937
X5.937Y-1.937
X5.937Y-3.837
X6.037Y-1.937
X6.037Y-3.837
X6.137Y-1.937
X6.137Y-3.837
X6.237Y-1.937
X6.237Y-3.837
X6.337Y-1.937
X6.337Y-3.837
X6.437Y-1.937
X6.437Y-3.837
T4
X6.0402Y-2.513
X6.0402Y-3.0839
X6.1386Y-3.0839
X6.237Y-2.513
X6.237Y-3.0839
T5
X5.922Y-2.7886
X6.3551Y-2.7886
M30
