%TF.GenerationSoftware,KiCad,Pcbnew,9.0.6*%
%TF.CreationDate,2025-11-01T12:53:31+09:00*%
%TF.ProjectId,VolumeControlSheild,566f6c75-6d65-4436-9f6e-74726f6c5368,rev?*%
%TF.SameCoordinates,Original*%
%TF.FileFunction,Legend,Top*%
%TF.FilePolarity,Positive*%
%FSLAX46Y46*%
G04 Gerber Fmt 4.6, Leading zero omitted, Abs format (unit mm)*
G04 Created by KiCad (PCBNEW 9.0.6) date 2025-11-01 12:53:31*
%MOMM*%
%LPD*%
G01*
G04 APERTURE LIST*
%ADD10C,0.150000*%
%ADD11C,0.250000*%
%ADD12C,0.254000*%
%ADD13C,0.120000*%
%ADD14C,0.100000*%
%ADD15C,0.000000*%
G04 APERTURE END LIST*
D10*
X107416969Y-66357819D02*
X106940779Y-66357819D01*
X106940779Y-66357819D02*
X106893160Y-66834009D01*
X106893160Y-66834009D02*
X106940779Y-66786390D01*
X106940779Y-66786390D02*
X107036017Y-66738771D01*
X107036017Y-66738771D02*
X107274112Y-66738771D01*
X107274112Y-66738771D02*
X107369350Y-66786390D01*
X107369350Y-66786390D02*
X107416969Y-66834009D01*
X107416969Y-66834009D02*
X107464588Y-66929247D01*
X107464588Y-66929247D02*
X107464588Y-67167342D01*
X107464588Y-67167342D02*
X107416969Y-67262580D01*
X107416969Y-67262580D02*
X107369350Y-67310200D01*
X107369350Y-67310200D02*
X107274112Y-67357819D01*
X107274112Y-67357819D02*
X107036017Y-67357819D01*
X107036017Y-67357819D02*
X106940779Y-67310200D01*
X106940779Y-67310200D02*
X106893160Y-67262580D01*
X107750303Y-66357819D02*
X108083636Y-67357819D01*
X108083636Y-67357819D02*
X108416969Y-66357819D01*
X145224819Y-52768458D02*
X145224819Y-52101792D01*
X145224819Y-52101792D02*
X146224819Y-52530363D01*
X106893160Y-72390200D02*
X107036017Y-72437819D01*
X107036017Y-72437819D02*
X107274112Y-72437819D01*
X107274112Y-72437819D02*
X107369350Y-72390200D01*
X107369350Y-72390200D02*
X107416969Y-72342580D01*
X107416969Y-72342580D02*
X107464588Y-72247342D01*
X107464588Y-72247342D02*
X107464588Y-72152104D01*
X107464588Y-72152104D02*
X107416969Y-72056866D01*
X107416969Y-72056866D02*
X107369350Y-72009247D01*
X107369350Y-72009247D02*
X107274112Y-71961628D01*
X107274112Y-71961628D02*
X107083636Y-71914009D01*
X107083636Y-71914009D02*
X106988398Y-71866390D01*
X106988398Y-71866390D02*
X106940779Y-71818771D01*
X106940779Y-71818771D02*
X106893160Y-71723533D01*
X106893160Y-71723533D02*
X106893160Y-71628295D01*
X106893160Y-71628295D02*
X106940779Y-71533057D01*
X106940779Y-71533057D02*
X106988398Y-71485438D01*
X106988398Y-71485438D02*
X107083636Y-71437819D01*
X107083636Y-71437819D02*
X107321731Y-71437819D01*
X107321731Y-71437819D02*
X107464588Y-71485438D01*
X108464588Y-72342580D02*
X108416969Y-72390200D01*
X108416969Y-72390200D02*
X108274112Y-72437819D01*
X108274112Y-72437819D02*
X108178874Y-72437819D01*
X108178874Y-72437819D02*
X108036017Y-72390200D01*
X108036017Y-72390200D02*
X107940779Y-72294961D01*
X107940779Y-72294961D02*
X107893160Y-72199723D01*
X107893160Y-72199723D02*
X107845541Y-72009247D01*
X107845541Y-72009247D02*
X107845541Y-71866390D01*
X107845541Y-71866390D02*
X107893160Y-71675914D01*
X107893160Y-71675914D02*
X107940779Y-71580676D01*
X107940779Y-71580676D02*
X108036017Y-71485438D01*
X108036017Y-71485438D02*
X108178874Y-71437819D01*
X108178874Y-71437819D02*
X108274112Y-71437819D01*
X108274112Y-71437819D02*
X108416969Y-71485438D01*
X108416969Y-71485438D02*
X108464588Y-71533057D01*
X108893160Y-72437819D02*
X108893160Y-71437819D01*
X109464588Y-72437819D02*
X109036017Y-71866390D01*
X109464588Y-71437819D02*
X108893160Y-72009247D01*
X163719104Y-95265839D02*
X163719104Y-94789649D01*
X164004819Y-95361077D02*
X163004819Y-95027744D01*
X163004819Y-95027744D02*
X164004819Y-94694411D01*
X163004819Y-93884887D02*
X163004819Y-94361077D01*
X163004819Y-94361077D02*
X163481009Y-94408696D01*
X163481009Y-94408696D02*
X163433390Y-94361077D01*
X163433390Y-94361077D02*
X163385771Y-94265839D01*
X163385771Y-94265839D02*
X163385771Y-94027744D01*
X163385771Y-94027744D02*
X163433390Y-93932506D01*
X163433390Y-93932506D02*
X163481009Y-93884887D01*
X163481009Y-93884887D02*
X163576247Y-93837268D01*
X163576247Y-93837268D02*
X163814342Y-93837268D01*
X163814342Y-93837268D02*
X163909580Y-93884887D01*
X163909580Y-93884887D02*
X163957200Y-93932506D01*
X163957200Y-93932506D02*
X164004819Y-94027744D01*
X164004819Y-94027744D02*
X164004819Y-94265839D01*
X164004819Y-94265839D02*
X163957200Y-94361077D01*
X163957200Y-94361077D02*
X163909580Y-94408696D01*
X135064819Y-95313458D02*
X135064819Y-94694411D01*
X135064819Y-94694411D02*
X135445771Y-95027744D01*
X135445771Y-95027744D02*
X135445771Y-94884887D01*
X135445771Y-94884887D02*
X135493390Y-94789649D01*
X135493390Y-94789649D02*
X135541009Y-94742030D01*
X135541009Y-94742030D02*
X135636247Y-94694411D01*
X135636247Y-94694411D02*
X135874342Y-94694411D01*
X135874342Y-94694411D02*
X135969580Y-94742030D01*
X135969580Y-94742030D02*
X136017200Y-94789649D01*
X136017200Y-94789649D02*
X136064819Y-94884887D01*
X136064819Y-94884887D02*
X136064819Y-95170601D01*
X136064819Y-95170601D02*
X136017200Y-95265839D01*
X136017200Y-95265839D02*
X135969580Y-95313458D01*
X135969580Y-94265839D02*
X136017200Y-94218220D01*
X136017200Y-94218220D02*
X136064819Y-94265839D01*
X136064819Y-94265839D02*
X136017200Y-94313458D01*
X136017200Y-94313458D02*
X135969580Y-94265839D01*
X135969580Y-94265839D02*
X136064819Y-94265839D01*
X135064819Y-93884887D02*
X135064819Y-93265840D01*
X135064819Y-93265840D02*
X135445771Y-93599173D01*
X135445771Y-93599173D02*
X135445771Y-93456316D01*
X135445771Y-93456316D02*
X135493390Y-93361078D01*
X135493390Y-93361078D02*
X135541009Y-93313459D01*
X135541009Y-93313459D02*
X135636247Y-93265840D01*
X135636247Y-93265840D02*
X135874342Y-93265840D01*
X135874342Y-93265840D02*
X135969580Y-93313459D01*
X135969580Y-93313459D02*
X136017200Y-93361078D01*
X136017200Y-93361078D02*
X136064819Y-93456316D01*
X136064819Y-93456316D02*
X136064819Y-93742030D01*
X136064819Y-93742030D02*
X136017200Y-93837268D01*
X136017200Y-93837268D02*
X135969580Y-93884887D01*
X135064819Y-92980125D02*
X136064819Y-92646792D01*
X136064819Y-92646792D02*
X135064819Y-92313459D01*
X145224819Y-95361077D02*
X146224819Y-95027744D01*
X146224819Y-95027744D02*
X145224819Y-94694411D01*
X146224819Y-94361077D02*
X145558152Y-94361077D01*
X145224819Y-94361077D02*
X145272438Y-94408696D01*
X145272438Y-94408696D02*
X145320057Y-94361077D01*
X145320057Y-94361077D02*
X145272438Y-94313458D01*
X145272438Y-94313458D02*
X145224819Y-94361077D01*
X145224819Y-94361077D02*
X145320057Y-94361077D01*
X145558152Y-93884887D02*
X146224819Y-93884887D01*
X145653390Y-93884887D02*
X145605771Y-93837268D01*
X145605771Y-93837268D02*
X145558152Y-93742030D01*
X145558152Y-93742030D02*
X145558152Y-93599173D01*
X145558152Y-93599173D02*
X145605771Y-93503935D01*
X145605771Y-93503935D02*
X145701009Y-93456316D01*
X145701009Y-93456316D02*
X146224819Y-93456316D01*
X130984819Y-95218220D02*
X129984819Y-95218220D01*
X129984819Y-94551554D02*
X129984819Y-94361078D01*
X129984819Y-94361078D02*
X130032438Y-94265840D01*
X130032438Y-94265840D02*
X130127676Y-94170602D01*
X130127676Y-94170602D02*
X130318152Y-94122983D01*
X130318152Y-94122983D02*
X130651485Y-94122983D01*
X130651485Y-94122983D02*
X130841961Y-94170602D01*
X130841961Y-94170602D02*
X130937200Y-94265840D01*
X130937200Y-94265840D02*
X130984819Y-94361078D01*
X130984819Y-94361078D02*
X130984819Y-94551554D01*
X130984819Y-94551554D02*
X130937200Y-94646792D01*
X130937200Y-94646792D02*
X130841961Y-94742030D01*
X130841961Y-94742030D02*
X130651485Y-94789649D01*
X130651485Y-94789649D02*
X130318152Y-94789649D01*
X130318152Y-94789649D02*
X130127676Y-94742030D01*
X130127676Y-94742030D02*
X130032438Y-94646792D01*
X130032438Y-94646792D02*
X129984819Y-94551554D01*
X130984819Y-93122983D02*
X130508628Y-93456316D01*
X130984819Y-93694411D02*
X129984819Y-93694411D01*
X129984819Y-93694411D02*
X129984819Y-93313459D01*
X129984819Y-93313459D02*
X130032438Y-93218221D01*
X130032438Y-93218221D02*
X130080057Y-93170602D01*
X130080057Y-93170602D02*
X130175295Y-93122983D01*
X130175295Y-93122983D02*
X130318152Y-93122983D01*
X130318152Y-93122983D02*
X130413390Y-93170602D01*
X130413390Y-93170602D02*
X130461009Y-93218221D01*
X130461009Y-93218221D02*
X130508628Y-93313459D01*
X130508628Y-93313459D02*
X130508628Y-93694411D01*
X130461009Y-92694411D02*
X130461009Y-92361078D01*
X130984819Y-92218221D02*
X130984819Y-92694411D01*
X130984819Y-92694411D02*
X129984819Y-92694411D01*
X129984819Y-92694411D02*
X129984819Y-92218221D01*
X130461009Y-91456316D02*
X130461009Y-91789649D01*
X130984819Y-91789649D02*
X129984819Y-91789649D01*
X129984819Y-91789649D02*
X129984819Y-91313459D01*
X161179104Y-95265839D02*
X161179104Y-94789649D01*
X161464819Y-95361077D02*
X160464819Y-95027744D01*
X160464819Y-95027744D02*
X161464819Y-94694411D01*
X160798152Y-93932506D02*
X161464819Y-93932506D01*
X160417200Y-94170601D02*
X161131485Y-94408696D01*
X161131485Y-94408696D02*
X161131485Y-93789649D01*
X119507200Y-53355839D02*
X119554819Y-53212982D01*
X119554819Y-53212982D02*
X119554819Y-52974887D01*
X119554819Y-52974887D02*
X119507200Y-52879649D01*
X119507200Y-52879649D02*
X119459580Y-52832030D01*
X119459580Y-52832030D02*
X119364342Y-52784411D01*
X119364342Y-52784411D02*
X119269104Y-52784411D01*
X119269104Y-52784411D02*
X119173866Y-52832030D01*
X119173866Y-52832030D02*
X119126247Y-52879649D01*
X119126247Y-52879649D02*
X119078628Y-52974887D01*
X119078628Y-52974887D02*
X119031009Y-53165363D01*
X119031009Y-53165363D02*
X118983390Y-53260601D01*
X118983390Y-53260601D02*
X118935771Y-53308220D01*
X118935771Y-53308220D02*
X118840533Y-53355839D01*
X118840533Y-53355839D02*
X118745295Y-53355839D01*
X118745295Y-53355839D02*
X118650057Y-53308220D01*
X118650057Y-53308220D02*
X118602438Y-53260601D01*
X118602438Y-53260601D02*
X118554819Y-53165363D01*
X118554819Y-53165363D02*
X118554819Y-52927268D01*
X118554819Y-52927268D02*
X118602438Y-52784411D01*
X119459580Y-51784411D02*
X119507200Y-51832030D01*
X119507200Y-51832030D02*
X119554819Y-51974887D01*
X119554819Y-51974887D02*
X119554819Y-52070125D01*
X119554819Y-52070125D02*
X119507200Y-52212982D01*
X119507200Y-52212982D02*
X119411961Y-52308220D01*
X119411961Y-52308220D02*
X119316723Y-52355839D01*
X119316723Y-52355839D02*
X119126247Y-52403458D01*
X119126247Y-52403458D02*
X118983390Y-52403458D01*
X118983390Y-52403458D02*
X118792914Y-52355839D01*
X118792914Y-52355839D02*
X118697676Y-52308220D01*
X118697676Y-52308220D02*
X118602438Y-52212982D01*
X118602438Y-52212982D02*
X118554819Y-52070125D01*
X118554819Y-52070125D02*
X118554819Y-51974887D01*
X118554819Y-51974887D02*
X118602438Y-51832030D01*
X118602438Y-51832030D02*
X118650057Y-51784411D01*
X119554819Y-50879649D02*
X119554819Y-51355839D01*
X119554819Y-51355839D02*
X118554819Y-51355839D01*
X141843390Y-52530363D02*
X141795771Y-52625601D01*
X141795771Y-52625601D02*
X141748152Y-52673220D01*
X141748152Y-52673220D02*
X141652914Y-52720839D01*
X141652914Y-52720839D02*
X141605295Y-52720839D01*
X141605295Y-52720839D02*
X141510057Y-52673220D01*
X141510057Y-52673220D02*
X141462438Y-52625601D01*
X141462438Y-52625601D02*
X141414819Y-52530363D01*
X141414819Y-52530363D02*
X141414819Y-52339887D01*
X141414819Y-52339887D02*
X141462438Y-52244649D01*
X141462438Y-52244649D02*
X141510057Y-52197030D01*
X141510057Y-52197030D02*
X141605295Y-52149411D01*
X141605295Y-52149411D02*
X141652914Y-52149411D01*
X141652914Y-52149411D02*
X141748152Y-52197030D01*
X141748152Y-52197030D02*
X141795771Y-52244649D01*
X141795771Y-52244649D02*
X141843390Y-52339887D01*
X141843390Y-52339887D02*
X141843390Y-52530363D01*
X141843390Y-52530363D02*
X141891009Y-52625601D01*
X141891009Y-52625601D02*
X141938628Y-52673220D01*
X141938628Y-52673220D02*
X142033866Y-52720839D01*
X142033866Y-52720839D02*
X142224342Y-52720839D01*
X142224342Y-52720839D02*
X142319580Y-52673220D01*
X142319580Y-52673220D02*
X142367200Y-52625601D01*
X142367200Y-52625601D02*
X142414819Y-52530363D01*
X142414819Y-52530363D02*
X142414819Y-52339887D01*
X142414819Y-52339887D02*
X142367200Y-52244649D01*
X142367200Y-52244649D02*
X142319580Y-52197030D01*
X142319580Y-52197030D02*
X142224342Y-52149411D01*
X142224342Y-52149411D02*
X142033866Y-52149411D01*
X142033866Y-52149411D02*
X141938628Y-52197030D01*
X141938628Y-52197030D02*
X141891009Y-52244649D01*
X141891009Y-52244649D02*
X141843390Y-52339887D01*
X107512207Y-79962580D02*
X107464588Y-80010200D01*
X107464588Y-80010200D02*
X107321731Y-80057819D01*
X107321731Y-80057819D02*
X107226493Y-80057819D01*
X107226493Y-80057819D02*
X107083636Y-80010200D01*
X107083636Y-80010200D02*
X106988398Y-79914961D01*
X106988398Y-79914961D02*
X106940779Y-79819723D01*
X106940779Y-79819723D02*
X106893160Y-79629247D01*
X106893160Y-79629247D02*
X106893160Y-79486390D01*
X106893160Y-79486390D02*
X106940779Y-79295914D01*
X106940779Y-79295914D02*
X106988398Y-79200676D01*
X106988398Y-79200676D02*
X107083636Y-79105438D01*
X107083636Y-79105438D02*
X107226493Y-79057819D01*
X107226493Y-79057819D02*
X107321731Y-79057819D01*
X107321731Y-79057819D02*
X107464588Y-79105438D01*
X107464588Y-79105438D02*
X107512207Y-79153057D01*
X107940779Y-80057819D02*
X107940779Y-79057819D01*
X108416969Y-80057819D02*
X108416969Y-79057819D01*
X108416969Y-79057819D02*
X108797921Y-79057819D01*
X108797921Y-79057819D02*
X108893159Y-79105438D01*
X108893159Y-79105438D02*
X108940778Y-79153057D01*
X108940778Y-79153057D02*
X108988397Y-79248295D01*
X108988397Y-79248295D02*
X108988397Y-79391152D01*
X108988397Y-79391152D02*
X108940778Y-79486390D01*
X108940778Y-79486390D02*
X108893159Y-79534009D01*
X108893159Y-79534009D02*
X108797921Y-79581628D01*
X108797921Y-79581628D02*
X108416969Y-79581628D01*
X109607445Y-79057819D02*
X109797921Y-79057819D01*
X109797921Y-79057819D02*
X109893159Y-79105438D01*
X109893159Y-79105438D02*
X109988397Y-79200676D01*
X109988397Y-79200676D02*
X110036016Y-79391152D01*
X110036016Y-79391152D02*
X110036016Y-79724485D01*
X110036016Y-79724485D02*
X109988397Y-79914961D01*
X109988397Y-79914961D02*
X109893159Y-80010200D01*
X109893159Y-80010200D02*
X109797921Y-80057819D01*
X109797921Y-80057819D02*
X109607445Y-80057819D01*
X109607445Y-80057819D02*
X109512207Y-80010200D01*
X109512207Y-80010200D02*
X109416969Y-79914961D01*
X109416969Y-79914961D02*
X109369350Y-79724485D01*
X109369350Y-79724485D02*
X109369350Y-79391152D01*
X109369350Y-79391152D02*
X109416969Y-79200676D01*
X109416969Y-79200676D02*
X109512207Y-79105438D01*
X109512207Y-79105438D02*
X109607445Y-79057819D01*
X129714819Y-52149411D02*
X129714819Y-52720839D01*
X129714819Y-52435125D02*
X128714819Y-52435125D01*
X128714819Y-52435125D02*
X128857676Y-52530363D01*
X128857676Y-52530363D02*
X128952914Y-52625601D01*
X128952914Y-52625601D02*
X129000533Y-52720839D01*
X128714819Y-51816077D02*
X128714819Y-51197030D01*
X128714819Y-51197030D02*
X129095771Y-51530363D01*
X129095771Y-51530363D02*
X129095771Y-51387506D01*
X129095771Y-51387506D02*
X129143390Y-51292268D01*
X129143390Y-51292268D02*
X129191009Y-51244649D01*
X129191009Y-51244649D02*
X129286247Y-51197030D01*
X129286247Y-51197030D02*
X129524342Y-51197030D01*
X129524342Y-51197030D02*
X129619580Y-51244649D01*
X129619580Y-51244649D02*
X129667200Y-51292268D01*
X129667200Y-51292268D02*
X129714819Y-51387506D01*
X129714819Y-51387506D02*
X129714819Y-51673220D01*
X129714819Y-51673220D02*
X129667200Y-51768458D01*
X129667200Y-51768458D02*
X129619580Y-51816077D01*
D11*
X120627330Y-88903512D02*
X121127330Y-90403512D01*
X121127330Y-90403512D02*
X121627330Y-88903512D01*
X122341615Y-90403512D02*
X122198758Y-90332084D01*
X122198758Y-90332084D02*
X122127329Y-90260655D01*
X122127329Y-90260655D02*
X122055901Y-90117798D01*
X122055901Y-90117798D02*
X122055901Y-89689226D01*
X122055901Y-89689226D02*
X122127329Y-89546369D01*
X122127329Y-89546369D02*
X122198758Y-89474941D01*
X122198758Y-89474941D02*
X122341615Y-89403512D01*
X122341615Y-89403512D02*
X122555901Y-89403512D01*
X122555901Y-89403512D02*
X122698758Y-89474941D01*
X122698758Y-89474941D02*
X122770187Y-89546369D01*
X122770187Y-89546369D02*
X122841615Y-89689226D01*
X122841615Y-89689226D02*
X122841615Y-90117798D01*
X122841615Y-90117798D02*
X122770187Y-90260655D01*
X122770187Y-90260655D02*
X122698758Y-90332084D01*
X122698758Y-90332084D02*
X122555901Y-90403512D01*
X122555901Y-90403512D02*
X122341615Y-90403512D01*
X123698758Y-90403512D02*
X123555901Y-90332084D01*
X123555901Y-90332084D02*
X123484472Y-90189226D01*
X123484472Y-90189226D02*
X123484472Y-88903512D01*
X124913044Y-89403512D02*
X124913044Y-90403512D01*
X124270186Y-89403512D02*
X124270186Y-90189226D01*
X124270186Y-90189226D02*
X124341615Y-90332084D01*
X124341615Y-90332084D02*
X124484472Y-90403512D01*
X124484472Y-90403512D02*
X124698758Y-90403512D01*
X124698758Y-90403512D02*
X124841615Y-90332084D01*
X124841615Y-90332084D02*
X124913044Y-90260655D01*
X125627329Y-90403512D02*
X125627329Y-89403512D01*
X125627329Y-89546369D02*
X125698758Y-89474941D01*
X125698758Y-89474941D02*
X125841615Y-89403512D01*
X125841615Y-89403512D02*
X126055901Y-89403512D01*
X126055901Y-89403512D02*
X126198758Y-89474941D01*
X126198758Y-89474941D02*
X126270187Y-89617798D01*
X126270187Y-89617798D02*
X126270187Y-90403512D01*
X126270187Y-89617798D02*
X126341615Y-89474941D01*
X126341615Y-89474941D02*
X126484472Y-89403512D01*
X126484472Y-89403512D02*
X126698758Y-89403512D01*
X126698758Y-89403512D02*
X126841615Y-89474941D01*
X126841615Y-89474941D02*
X126913044Y-89617798D01*
X126913044Y-89617798D02*
X126913044Y-90403512D01*
X128198758Y-90332084D02*
X128055901Y-90403512D01*
X128055901Y-90403512D02*
X127770187Y-90403512D01*
X127770187Y-90403512D02*
X127627329Y-90332084D01*
X127627329Y-90332084D02*
X127555901Y-90189226D01*
X127555901Y-90189226D02*
X127555901Y-89617798D01*
X127555901Y-89617798D02*
X127627329Y-89474941D01*
X127627329Y-89474941D02*
X127770187Y-89403512D01*
X127770187Y-89403512D02*
X128055901Y-89403512D01*
X128055901Y-89403512D02*
X128198758Y-89474941D01*
X128198758Y-89474941D02*
X128270187Y-89617798D01*
X128270187Y-89617798D02*
X128270187Y-89760655D01*
X128270187Y-89760655D02*
X127555901Y-89903512D01*
X130913043Y-90260655D02*
X130841615Y-90332084D01*
X130841615Y-90332084D02*
X130627329Y-90403512D01*
X130627329Y-90403512D02*
X130484472Y-90403512D01*
X130484472Y-90403512D02*
X130270186Y-90332084D01*
X130270186Y-90332084D02*
X130127329Y-90189226D01*
X130127329Y-90189226D02*
X130055900Y-90046369D01*
X130055900Y-90046369D02*
X129984472Y-89760655D01*
X129984472Y-89760655D02*
X129984472Y-89546369D01*
X129984472Y-89546369D02*
X130055900Y-89260655D01*
X130055900Y-89260655D02*
X130127329Y-89117798D01*
X130127329Y-89117798D02*
X130270186Y-88974941D01*
X130270186Y-88974941D02*
X130484472Y-88903512D01*
X130484472Y-88903512D02*
X130627329Y-88903512D01*
X130627329Y-88903512D02*
X130841615Y-88974941D01*
X130841615Y-88974941D02*
X130913043Y-89046369D01*
X131770186Y-90403512D02*
X131627329Y-90332084D01*
X131627329Y-90332084D02*
X131555900Y-90260655D01*
X131555900Y-90260655D02*
X131484472Y-90117798D01*
X131484472Y-90117798D02*
X131484472Y-89689226D01*
X131484472Y-89689226D02*
X131555900Y-89546369D01*
X131555900Y-89546369D02*
X131627329Y-89474941D01*
X131627329Y-89474941D02*
X131770186Y-89403512D01*
X131770186Y-89403512D02*
X131984472Y-89403512D01*
X131984472Y-89403512D02*
X132127329Y-89474941D01*
X132127329Y-89474941D02*
X132198758Y-89546369D01*
X132198758Y-89546369D02*
X132270186Y-89689226D01*
X132270186Y-89689226D02*
X132270186Y-90117798D01*
X132270186Y-90117798D02*
X132198758Y-90260655D01*
X132198758Y-90260655D02*
X132127329Y-90332084D01*
X132127329Y-90332084D02*
X131984472Y-90403512D01*
X131984472Y-90403512D02*
X131770186Y-90403512D01*
X132913043Y-89403512D02*
X132913043Y-90403512D01*
X132913043Y-89546369D02*
X132984472Y-89474941D01*
X132984472Y-89474941D02*
X133127329Y-89403512D01*
X133127329Y-89403512D02*
X133341615Y-89403512D01*
X133341615Y-89403512D02*
X133484472Y-89474941D01*
X133484472Y-89474941D02*
X133555901Y-89617798D01*
X133555901Y-89617798D02*
X133555901Y-90403512D01*
X134055901Y-89403512D02*
X134627329Y-89403512D01*
X134270186Y-88903512D02*
X134270186Y-90189226D01*
X134270186Y-90189226D02*
X134341615Y-90332084D01*
X134341615Y-90332084D02*
X134484472Y-90403512D01*
X134484472Y-90403512D02*
X134627329Y-90403512D01*
X135127329Y-90403512D02*
X135127329Y-89403512D01*
X135127329Y-89689226D02*
X135198758Y-89546369D01*
X135198758Y-89546369D02*
X135270187Y-89474941D01*
X135270187Y-89474941D02*
X135413044Y-89403512D01*
X135413044Y-89403512D02*
X135555901Y-89403512D01*
X136270186Y-90403512D02*
X136127329Y-90332084D01*
X136127329Y-90332084D02*
X136055900Y-90260655D01*
X136055900Y-90260655D02*
X135984472Y-90117798D01*
X135984472Y-90117798D02*
X135984472Y-89689226D01*
X135984472Y-89689226D02*
X136055900Y-89546369D01*
X136055900Y-89546369D02*
X136127329Y-89474941D01*
X136127329Y-89474941D02*
X136270186Y-89403512D01*
X136270186Y-89403512D02*
X136484472Y-89403512D01*
X136484472Y-89403512D02*
X136627329Y-89474941D01*
X136627329Y-89474941D02*
X136698758Y-89546369D01*
X136698758Y-89546369D02*
X136770186Y-89689226D01*
X136770186Y-89689226D02*
X136770186Y-90117798D01*
X136770186Y-90117798D02*
X136698758Y-90260655D01*
X136698758Y-90260655D02*
X136627329Y-90332084D01*
X136627329Y-90332084D02*
X136484472Y-90403512D01*
X136484472Y-90403512D02*
X136270186Y-90403512D01*
X137627329Y-90403512D02*
X137484472Y-90332084D01*
X137484472Y-90332084D02*
X137413043Y-90189226D01*
X137413043Y-90189226D02*
X137413043Y-88903512D01*
X139270186Y-90332084D02*
X139484472Y-90403512D01*
X139484472Y-90403512D02*
X139841614Y-90403512D01*
X139841614Y-90403512D02*
X139984472Y-90332084D01*
X139984472Y-90332084D02*
X140055900Y-90260655D01*
X140055900Y-90260655D02*
X140127329Y-90117798D01*
X140127329Y-90117798D02*
X140127329Y-89974941D01*
X140127329Y-89974941D02*
X140055900Y-89832084D01*
X140055900Y-89832084D02*
X139984472Y-89760655D01*
X139984472Y-89760655D02*
X139841614Y-89689226D01*
X139841614Y-89689226D02*
X139555900Y-89617798D01*
X139555900Y-89617798D02*
X139413043Y-89546369D01*
X139413043Y-89546369D02*
X139341614Y-89474941D01*
X139341614Y-89474941D02*
X139270186Y-89332084D01*
X139270186Y-89332084D02*
X139270186Y-89189226D01*
X139270186Y-89189226D02*
X139341614Y-89046369D01*
X139341614Y-89046369D02*
X139413043Y-88974941D01*
X139413043Y-88974941D02*
X139555900Y-88903512D01*
X139555900Y-88903512D02*
X139913043Y-88903512D01*
X139913043Y-88903512D02*
X140127329Y-88974941D01*
X141341614Y-90332084D02*
X141198757Y-90403512D01*
X141198757Y-90403512D02*
X140913043Y-90403512D01*
X140913043Y-90403512D02*
X140770185Y-90332084D01*
X140770185Y-90332084D02*
X140698757Y-90189226D01*
X140698757Y-90189226D02*
X140698757Y-89617798D01*
X140698757Y-89617798D02*
X140770185Y-89474941D01*
X140770185Y-89474941D02*
X140913043Y-89403512D01*
X140913043Y-89403512D02*
X141198757Y-89403512D01*
X141198757Y-89403512D02*
X141341614Y-89474941D01*
X141341614Y-89474941D02*
X141413043Y-89617798D01*
X141413043Y-89617798D02*
X141413043Y-89760655D01*
X141413043Y-89760655D02*
X140698757Y-89903512D01*
X142055899Y-90403512D02*
X142055899Y-89403512D01*
X142055899Y-88903512D02*
X141984471Y-88974941D01*
X141984471Y-88974941D02*
X142055899Y-89046369D01*
X142055899Y-89046369D02*
X142127328Y-88974941D01*
X142127328Y-88974941D02*
X142055899Y-88903512D01*
X142055899Y-88903512D02*
X142055899Y-89046369D01*
X142984471Y-90403512D02*
X142841614Y-90332084D01*
X142841614Y-90332084D02*
X142770185Y-90189226D01*
X142770185Y-90189226D02*
X142770185Y-88903512D01*
X144198757Y-90403512D02*
X144198757Y-88903512D01*
X144198757Y-90332084D02*
X144055899Y-90403512D01*
X144055899Y-90403512D02*
X143770185Y-90403512D01*
X143770185Y-90403512D02*
X143627328Y-90332084D01*
X143627328Y-90332084D02*
X143555899Y-90260655D01*
X143555899Y-90260655D02*
X143484471Y-90117798D01*
X143484471Y-90117798D02*
X143484471Y-89689226D01*
X143484471Y-89689226D02*
X143555899Y-89546369D01*
X143555899Y-89546369D02*
X143627328Y-89474941D01*
X143627328Y-89474941D02*
X143770185Y-89403512D01*
X143770185Y-89403512D02*
X144055899Y-89403512D01*
X144055899Y-89403512D02*
X144198757Y-89474941D01*
X120627330Y-91318428D02*
X121127330Y-92818428D01*
X121127330Y-92818428D02*
X121627330Y-91318428D01*
X122913044Y-92818428D02*
X122055901Y-92818428D01*
X122484472Y-92818428D02*
X122484472Y-91318428D01*
X122484472Y-91318428D02*
X122341615Y-91532714D01*
X122341615Y-91532714D02*
X122198758Y-91675571D01*
X122198758Y-91675571D02*
X122055901Y-91747000D01*
X123555900Y-92675571D02*
X123627329Y-92747000D01*
X123627329Y-92747000D02*
X123555900Y-92818428D01*
X123555900Y-92818428D02*
X123484472Y-92747000D01*
X123484472Y-92747000D02*
X123555900Y-92675571D01*
X123555900Y-92675571D02*
X123555900Y-92818428D01*
X124555901Y-91318428D02*
X124698758Y-91318428D01*
X124698758Y-91318428D02*
X124841615Y-91389857D01*
X124841615Y-91389857D02*
X124913044Y-91461285D01*
X124913044Y-91461285D02*
X124984472Y-91604142D01*
X124984472Y-91604142D02*
X125055901Y-91889857D01*
X125055901Y-91889857D02*
X125055901Y-92247000D01*
X125055901Y-92247000D02*
X124984472Y-92532714D01*
X124984472Y-92532714D02*
X124913044Y-92675571D01*
X124913044Y-92675571D02*
X124841615Y-92747000D01*
X124841615Y-92747000D02*
X124698758Y-92818428D01*
X124698758Y-92818428D02*
X124555901Y-92818428D01*
X124555901Y-92818428D02*
X124413044Y-92747000D01*
X124413044Y-92747000D02*
X124341615Y-92675571D01*
X124341615Y-92675571D02*
X124270186Y-92532714D01*
X124270186Y-92532714D02*
X124198758Y-92247000D01*
X124198758Y-92247000D02*
X124198758Y-91889857D01*
X124198758Y-91889857D02*
X124270186Y-91604142D01*
X124270186Y-91604142D02*
X124341615Y-91461285D01*
X124341615Y-91461285D02*
X124413044Y-91389857D01*
X124413044Y-91389857D02*
X124555901Y-91318428D01*
D10*
X156099104Y-95265839D02*
X156099104Y-94789649D01*
X156384819Y-95361077D02*
X155384819Y-95027744D01*
X155384819Y-95027744D02*
X156384819Y-94694411D01*
X155480057Y-94408696D02*
X155432438Y-94361077D01*
X155432438Y-94361077D02*
X155384819Y-94265839D01*
X155384819Y-94265839D02*
X155384819Y-94027744D01*
X155384819Y-94027744D02*
X155432438Y-93932506D01*
X155432438Y-93932506D02*
X155480057Y-93884887D01*
X155480057Y-93884887D02*
X155575295Y-93837268D01*
X155575295Y-93837268D02*
X155670533Y-93837268D01*
X155670533Y-93837268D02*
X155813390Y-93884887D01*
X155813390Y-93884887D02*
X156384819Y-94456315D01*
X156384819Y-94456315D02*
X156384819Y-93837268D01*
X164004819Y-53371792D02*
X163528628Y-53705125D01*
X164004819Y-53943220D02*
X163004819Y-53943220D01*
X163004819Y-53943220D02*
X163004819Y-53562268D01*
X163004819Y-53562268D02*
X163052438Y-53467030D01*
X163052438Y-53467030D02*
X163100057Y-53419411D01*
X163100057Y-53419411D02*
X163195295Y-53371792D01*
X163195295Y-53371792D02*
X163338152Y-53371792D01*
X163338152Y-53371792D02*
X163433390Y-53419411D01*
X163433390Y-53419411D02*
X163481009Y-53467030D01*
X163481009Y-53467030D02*
X163528628Y-53562268D01*
X163528628Y-53562268D02*
X163528628Y-53943220D01*
X162957200Y-52228935D02*
X164242914Y-53086077D01*
X163004819Y-51705125D02*
X163004819Y-51609887D01*
X163004819Y-51609887D02*
X163052438Y-51514649D01*
X163052438Y-51514649D02*
X163100057Y-51467030D01*
X163100057Y-51467030D02*
X163195295Y-51419411D01*
X163195295Y-51419411D02*
X163385771Y-51371792D01*
X163385771Y-51371792D02*
X163623866Y-51371792D01*
X163623866Y-51371792D02*
X163814342Y-51419411D01*
X163814342Y-51419411D02*
X163909580Y-51467030D01*
X163909580Y-51467030D02*
X163957200Y-51514649D01*
X163957200Y-51514649D02*
X164004819Y-51609887D01*
X164004819Y-51609887D02*
X164004819Y-51705125D01*
X164004819Y-51705125D02*
X163957200Y-51800363D01*
X163957200Y-51800363D02*
X163909580Y-51847982D01*
X163909580Y-51847982D02*
X163814342Y-51895601D01*
X163814342Y-51895601D02*
X163623866Y-51943220D01*
X163623866Y-51943220D02*
X163385771Y-51943220D01*
X163385771Y-51943220D02*
X163195295Y-51895601D01*
X163195295Y-51895601D02*
X163100057Y-51847982D01*
X163100057Y-51847982D02*
X163052438Y-51800363D01*
X163052438Y-51800363D02*
X163004819Y-51705125D01*
X139493866Y-53451077D02*
X139446247Y-53403458D01*
X139446247Y-53403458D02*
X139398628Y-53308220D01*
X139398628Y-53308220D02*
X139493866Y-53117744D01*
X139493866Y-53117744D02*
X139446247Y-53022506D01*
X139446247Y-53022506D02*
X139398628Y-52974887D01*
X139874819Y-52546315D02*
X139874819Y-52355839D01*
X139874819Y-52355839D02*
X139827200Y-52260601D01*
X139827200Y-52260601D02*
X139779580Y-52212982D01*
X139779580Y-52212982D02*
X139636723Y-52117744D01*
X139636723Y-52117744D02*
X139446247Y-52070125D01*
X139446247Y-52070125D02*
X139065295Y-52070125D01*
X139065295Y-52070125D02*
X138970057Y-52117744D01*
X138970057Y-52117744D02*
X138922438Y-52165363D01*
X138922438Y-52165363D02*
X138874819Y-52260601D01*
X138874819Y-52260601D02*
X138874819Y-52451077D01*
X138874819Y-52451077D02*
X138922438Y-52546315D01*
X138922438Y-52546315D02*
X138970057Y-52593934D01*
X138970057Y-52593934D02*
X139065295Y-52641553D01*
X139065295Y-52641553D02*
X139303390Y-52641553D01*
X139303390Y-52641553D02*
X139398628Y-52593934D01*
X139398628Y-52593934D02*
X139446247Y-52546315D01*
X139446247Y-52546315D02*
X139493866Y-52451077D01*
X139493866Y-52451077D02*
X139493866Y-52260601D01*
X139493866Y-52260601D02*
X139446247Y-52165363D01*
X139446247Y-52165363D02*
X139398628Y-52117744D01*
X139398628Y-52117744D02*
X139303390Y-52070125D01*
X106893160Y-77470200D02*
X107036017Y-77517819D01*
X107036017Y-77517819D02*
X107274112Y-77517819D01*
X107274112Y-77517819D02*
X107369350Y-77470200D01*
X107369350Y-77470200D02*
X107416969Y-77422580D01*
X107416969Y-77422580D02*
X107464588Y-77327342D01*
X107464588Y-77327342D02*
X107464588Y-77232104D01*
X107464588Y-77232104D02*
X107416969Y-77136866D01*
X107416969Y-77136866D02*
X107369350Y-77089247D01*
X107369350Y-77089247D02*
X107274112Y-77041628D01*
X107274112Y-77041628D02*
X107083636Y-76994009D01*
X107083636Y-76994009D02*
X106988398Y-76946390D01*
X106988398Y-76946390D02*
X106940779Y-76898771D01*
X106940779Y-76898771D02*
X106893160Y-76803533D01*
X106893160Y-76803533D02*
X106893160Y-76708295D01*
X106893160Y-76708295D02*
X106940779Y-76613057D01*
X106940779Y-76613057D02*
X106988398Y-76565438D01*
X106988398Y-76565438D02*
X107083636Y-76517819D01*
X107083636Y-76517819D02*
X107321731Y-76517819D01*
X107321731Y-76517819D02*
X107464588Y-76565438D01*
X107845541Y-77470200D02*
X107988398Y-77517819D01*
X107988398Y-77517819D02*
X108226493Y-77517819D01*
X108226493Y-77517819D02*
X108321731Y-77470200D01*
X108321731Y-77470200D02*
X108369350Y-77422580D01*
X108369350Y-77422580D02*
X108416969Y-77327342D01*
X108416969Y-77327342D02*
X108416969Y-77232104D01*
X108416969Y-77232104D02*
X108369350Y-77136866D01*
X108369350Y-77136866D02*
X108321731Y-77089247D01*
X108321731Y-77089247D02*
X108226493Y-77041628D01*
X108226493Y-77041628D02*
X108036017Y-76994009D01*
X108036017Y-76994009D02*
X107940779Y-76946390D01*
X107940779Y-76946390D02*
X107893160Y-76898771D01*
X107893160Y-76898771D02*
X107845541Y-76803533D01*
X107845541Y-76803533D02*
X107845541Y-76708295D01*
X107845541Y-76708295D02*
X107893160Y-76613057D01*
X107893160Y-76613057D02*
X107940779Y-76565438D01*
X107940779Y-76565438D02*
X108036017Y-76517819D01*
X108036017Y-76517819D02*
X108274112Y-76517819D01*
X108274112Y-76517819D02*
X108416969Y-76565438D01*
X132254819Y-52149411D02*
X132254819Y-52720839D01*
X132254819Y-52435125D02*
X131254819Y-52435125D01*
X131254819Y-52435125D02*
X131397676Y-52530363D01*
X131397676Y-52530363D02*
X131492914Y-52625601D01*
X131492914Y-52625601D02*
X131540533Y-52720839D01*
X131350057Y-51768458D02*
X131302438Y-51720839D01*
X131302438Y-51720839D02*
X131254819Y-51625601D01*
X131254819Y-51625601D02*
X131254819Y-51387506D01*
X131254819Y-51387506D02*
X131302438Y-51292268D01*
X131302438Y-51292268D02*
X131350057Y-51244649D01*
X131350057Y-51244649D02*
X131445295Y-51197030D01*
X131445295Y-51197030D02*
X131540533Y-51197030D01*
X131540533Y-51197030D02*
X131683390Y-51244649D01*
X131683390Y-51244649D02*
X132254819Y-51816077D01*
X132254819Y-51816077D02*
X132254819Y-51197030D01*
X151019104Y-95265839D02*
X151019104Y-94789649D01*
X151304819Y-95361077D02*
X150304819Y-95027744D01*
X150304819Y-95027744D02*
X151304819Y-94694411D01*
X150304819Y-94170601D02*
X150304819Y-94075363D01*
X150304819Y-94075363D02*
X150352438Y-93980125D01*
X150352438Y-93980125D02*
X150400057Y-93932506D01*
X150400057Y-93932506D02*
X150495295Y-93884887D01*
X150495295Y-93884887D02*
X150685771Y-93837268D01*
X150685771Y-93837268D02*
X150923866Y-93837268D01*
X150923866Y-93837268D02*
X151114342Y-93884887D01*
X151114342Y-93884887D02*
X151209580Y-93932506D01*
X151209580Y-93932506D02*
X151257200Y-93980125D01*
X151257200Y-93980125D02*
X151304819Y-94075363D01*
X151304819Y-94075363D02*
X151304819Y-94170601D01*
X151304819Y-94170601D02*
X151257200Y-94265839D01*
X151257200Y-94265839D02*
X151209580Y-94313458D01*
X151209580Y-94313458D02*
X151114342Y-94361077D01*
X151114342Y-94361077D02*
X150923866Y-94408696D01*
X150923866Y-94408696D02*
X150685771Y-94408696D01*
X150685771Y-94408696D02*
X150495295Y-94361077D01*
X150495295Y-94361077D02*
X150400057Y-94313458D01*
X150400057Y-94313458D02*
X150352438Y-94265839D01*
X150352438Y-94265839D02*
X150304819Y-94170601D01*
X122047200Y-53355839D02*
X122094819Y-53212982D01*
X122094819Y-53212982D02*
X122094819Y-52974887D01*
X122094819Y-52974887D02*
X122047200Y-52879649D01*
X122047200Y-52879649D02*
X121999580Y-52832030D01*
X121999580Y-52832030D02*
X121904342Y-52784411D01*
X121904342Y-52784411D02*
X121809104Y-52784411D01*
X121809104Y-52784411D02*
X121713866Y-52832030D01*
X121713866Y-52832030D02*
X121666247Y-52879649D01*
X121666247Y-52879649D02*
X121618628Y-52974887D01*
X121618628Y-52974887D02*
X121571009Y-53165363D01*
X121571009Y-53165363D02*
X121523390Y-53260601D01*
X121523390Y-53260601D02*
X121475771Y-53308220D01*
X121475771Y-53308220D02*
X121380533Y-53355839D01*
X121380533Y-53355839D02*
X121285295Y-53355839D01*
X121285295Y-53355839D02*
X121190057Y-53308220D01*
X121190057Y-53308220D02*
X121142438Y-53260601D01*
X121142438Y-53260601D02*
X121094819Y-53165363D01*
X121094819Y-53165363D02*
X121094819Y-52927268D01*
X121094819Y-52927268D02*
X121142438Y-52784411D01*
X122094819Y-52355839D02*
X121094819Y-52355839D01*
X121094819Y-52355839D02*
X121094819Y-52117744D01*
X121094819Y-52117744D02*
X121142438Y-51974887D01*
X121142438Y-51974887D02*
X121237676Y-51879649D01*
X121237676Y-51879649D02*
X121332914Y-51832030D01*
X121332914Y-51832030D02*
X121523390Y-51784411D01*
X121523390Y-51784411D02*
X121666247Y-51784411D01*
X121666247Y-51784411D02*
X121856723Y-51832030D01*
X121856723Y-51832030D02*
X121951961Y-51879649D01*
X121951961Y-51879649D02*
X122047200Y-51974887D01*
X122047200Y-51974887D02*
X122094819Y-52117744D01*
X122094819Y-52117744D02*
X122094819Y-52355839D01*
X121809104Y-51403458D02*
X121809104Y-50927268D01*
X122094819Y-51498696D02*
X121094819Y-51165363D01*
X121094819Y-51165363D02*
X122094819Y-50832030D01*
X160464819Y-54086077D02*
X160464819Y-53514649D01*
X161464819Y-53800363D02*
X160464819Y-53800363D01*
X160417200Y-52467030D02*
X161702914Y-53324172D01*
X161464819Y-51609887D02*
X161464819Y-52181315D01*
X161464819Y-51895601D02*
X160464819Y-51895601D01*
X160464819Y-51895601D02*
X160607676Y-51990839D01*
X160607676Y-51990839D02*
X160702914Y-52086077D01*
X160702914Y-52086077D02*
X160750533Y-52181315D01*
X137604819Y-94107030D02*
X137604819Y-94583220D01*
X137604819Y-94583220D02*
X138081009Y-94630839D01*
X138081009Y-94630839D02*
X138033390Y-94583220D01*
X138033390Y-94583220D02*
X137985771Y-94487982D01*
X137985771Y-94487982D02*
X137985771Y-94249887D01*
X137985771Y-94249887D02*
X138033390Y-94154649D01*
X138033390Y-94154649D02*
X138081009Y-94107030D01*
X138081009Y-94107030D02*
X138176247Y-94059411D01*
X138176247Y-94059411D02*
X138414342Y-94059411D01*
X138414342Y-94059411D02*
X138509580Y-94107030D01*
X138509580Y-94107030D02*
X138557200Y-94154649D01*
X138557200Y-94154649D02*
X138604819Y-94249887D01*
X138604819Y-94249887D02*
X138604819Y-94487982D01*
X138604819Y-94487982D02*
X138557200Y-94583220D01*
X138557200Y-94583220D02*
X138509580Y-94630839D01*
X137604819Y-93773696D02*
X138604819Y-93440363D01*
X138604819Y-93440363D02*
X137604819Y-93107030D01*
X126222438Y-52784411D02*
X126174819Y-52879649D01*
X126174819Y-52879649D02*
X126174819Y-53022506D01*
X126174819Y-53022506D02*
X126222438Y-53165363D01*
X126222438Y-53165363D02*
X126317676Y-53260601D01*
X126317676Y-53260601D02*
X126412914Y-53308220D01*
X126412914Y-53308220D02*
X126603390Y-53355839D01*
X126603390Y-53355839D02*
X126746247Y-53355839D01*
X126746247Y-53355839D02*
X126936723Y-53308220D01*
X126936723Y-53308220D02*
X127031961Y-53260601D01*
X127031961Y-53260601D02*
X127127200Y-53165363D01*
X127127200Y-53165363D02*
X127174819Y-53022506D01*
X127174819Y-53022506D02*
X127174819Y-52927268D01*
X127174819Y-52927268D02*
X127127200Y-52784411D01*
X127127200Y-52784411D02*
X127079580Y-52736792D01*
X127079580Y-52736792D02*
X126746247Y-52736792D01*
X126746247Y-52736792D02*
X126746247Y-52927268D01*
X127174819Y-52308220D02*
X126174819Y-52308220D01*
X126174819Y-52308220D02*
X127174819Y-51736792D01*
X127174819Y-51736792D02*
X126174819Y-51736792D01*
X127174819Y-51260601D02*
X126174819Y-51260601D01*
X126174819Y-51260601D02*
X126174819Y-51022506D01*
X126174819Y-51022506D02*
X126222438Y-50879649D01*
X126222438Y-50879649D02*
X126317676Y-50784411D01*
X126317676Y-50784411D02*
X126412914Y-50736792D01*
X126412914Y-50736792D02*
X126603390Y-50689173D01*
X126603390Y-50689173D02*
X126746247Y-50689173D01*
X126746247Y-50689173D02*
X126936723Y-50736792D01*
X126936723Y-50736792D02*
X127031961Y-50784411D01*
X127031961Y-50784411D02*
X127127200Y-50879649D01*
X127127200Y-50879649D02*
X127174819Y-51022506D01*
X127174819Y-51022506D02*
X127174819Y-51260601D01*
X158639104Y-95265839D02*
X158639104Y-94789649D01*
X158924819Y-95361077D02*
X157924819Y-95027744D01*
X157924819Y-95027744D02*
X158924819Y-94694411D01*
X157924819Y-94456315D02*
X157924819Y-93837268D01*
X157924819Y-93837268D02*
X158305771Y-94170601D01*
X158305771Y-94170601D02*
X158305771Y-94027744D01*
X158305771Y-94027744D02*
X158353390Y-93932506D01*
X158353390Y-93932506D02*
X158401009Y-93884887D01*
X158401009Y-93884887D02*
X158496247Y-93837268D01*
X158496247Y-93837268D02*
X158734342Y-93837268D01*
X158734342Y-93837268D02*
X158829580Y-93884887D01*
X158829580Y-93884887D02*
X158877200Y-93932506D01*
X158877200Y-93932506D02*
X158924819Y-94027744D01*
X158924819Y-94027744D02*
X158924819Y-94313458D01*
X158924819Y-94313458D02*
X158877200Y-94408696D01*
X158877200Y-94408696D02*
X158829580Y-94456315D01*
X156003866Y-53451077D02*
X155956247Y-53403458D01*
X155956247Y-53403458D02*
X155908628Y-53308220D01*
X155908628Y-53308220D02*
X156003866Y-53117744D01*
X156003866Y-53117744D02*
X155956247Y-53022506D01*
X155956247Y-53022506D02*
X155908628Y-52974887D01*
X155384819Y-52689172D02*
X155384819Y-52070125D01*
X155384819Y-52070125D02*
X155765771Y-52403458D01*
X155765771Y-52403458D02*
X155765771Y-52260601D01*
X155765771Y-52260601D02*
X155813390Y-52165363D01*
X155813390Y-52165363D02*
X155861009Y-52117744D01*
X155861009Y-52117744D02*
X155956247Y-52070125D01*
X155956247Y-52070125D02*
X156194342Y-52070125D01*
X156194342Y-52070125D02*
X156289580Y-52117744D01*
X156289580Y-52117744D02*
X156337200Y-52165363D01*
X156337200Y-52165363D02*
X156384819Y-52260601D01*
X156384819Y-52260601D02*
X156384819Y-52546315D01*
X156384819Y-52546315D02*
X156337200Y-52641553D01*
X156337200Y-52641553D02*
X156289580Y-52689172D01*
X158020057Y-52720839D02*
X157972438Y-52673220D01*
X157972438Y-52673220D02*
X157924819Y-52577982D01*
X157924819Y-52577982D02*
X157924819Y-52339887D01*
X157924819Y-52339887D02*
X157972438Y-52244649D01*
X157972438Y-52244649D02*
X158020057Y-52197030D01*
X158020057Y-52197030D02*
X158115295Y-52149411D01*
X158115295Y-52149411D02*
X158210533Y-52149411D01*
X158210533Y-52149411D02*
X158353390Y-52197030D01*
X158353390Y-52197030D02*
X158924819Y-52768458D01*
X158924819Y-52768458D02*
X158924819Y-52149411D01*
X148383866Y-53451077D02*
X148336247Y-53403458D01*
X148336247Y-53403458D02*
X148288628Y-53308220D01*
X148288628Y-53308220D02*
X148383866Y-53117744D01*
X148383866Y-53117744D02*
X148336247Y-53022506D01*
X148336247Y-53022506D02*
X148288628Y-52974887D01*
X147764819Y-52165363D02*
X147764819Y-52355839D01*
X147764819Y-52355839D02*
X147812438Y-52451077D01*
X147812438Y-52451077D02*
X147860057Y-52498696D01*
X147860057Y-52498696D02*
X148002914Y-52593934D01*
X148002914Y-52593934D02*
X148193390Y-52641553D01*
X148193390Y-52641553D02*
X148574342Y-52641553D01*
X148574342Y-52641553D02*
X148669580Y-52593934D01*
X148669580Y-52593934D02*
X148717200Y-52546315D01*
X148717200Y-52546315D02*
X148764819Y-52451077D01*
X148764819Y-52451077D02*
X148764819Y-52260601D01*
X148764819Y-52260601D02*
X148717200Y-52165363D01*
X148717200Y-52165363D02*
X148669580Y-52117744D01*
X148669580Y-52117744D02*
X148574342Y-52070125D01*
X148574342Y-52070125D02*
X148336247Y-52070125D01*
X148336247Y-52070125D02*
X148241009Y-52117744D01*
X148241009Y-52117744D02*
X148193390Y-52165363D01*
X148193390Y-52165363D02*
X148145771Y-52260601D01*
X148145771Y-52260601D02*
X148145771Y-52451077D01*
X148145771Y-52451077D02*
X148193390Y-52546315D01*
X148193390Y-52546315D02*
X148241009Y-52593934D01*
X148241009Y-52593934D02*
X148336247Y-52641553D01*
X134413866Y-53451077D02*
X134366247Y-53403458D01*
X134366247Y-53403458D02*
X134318628Y-53308220D01*
X134318628Y-53308220D02*
X134413866Y-53117744D01*
X134413866Y-53117744D02*
X134366247Y-53022506D01*
X134366247Y-53022506D02*
X134318628Y-52974887D01*
X134794819Y-52070125D02*
X134794819Y-52641553D01*
X134794819Y-52355839D02*
X133794819Y-52355839D01*
X133794819Y-52355839D02*
X133937676Y-52451077D01*
X133937676Y-52451077D02*
X134032914Y-52546315D01*
X134032914Y-52546315D02*
X134080533Y-52641553D01*
X134794819Y-51117744D02*
X134794819Y-51689172D01*
X134794819Y-51403458D02*
X133794819Y-51403458D01*
X133794819Y-51403458D02*
X133937676Y-51498696D01*
X133937676Y-51498696D02*
X134032914Y-51593934D01*
X134032914Y-51593934D02*
X134080533Y-51689172D01*
X124349104Y-53990839D02*
X124349104Y-53514649D01*
X124634819Y-54086077D02*
X123634819Y-53752744D01*
X123634819Y-53752744D02*
X124634819Y-53419411D01*
X124634819Y-52514649D02*
X124158628Y-52847982D01*
X124634819Y-53086077D02*
X123634819Y-53086077D01*
X123634819Y-53086077D02*
X123634819Y-52705125D01*
X123634819Y-52705125D02*
X123682438Y-52609887D01*
X123682438Y-52609887D02*
X123730057Y-52562268D01*
X123730057Y-52562268D02*
X123825295Y-52514649D01*
X123825295Y-52514649D02*
X123968152Y-52514649D01*
X123968152Y-52514649D02*
X124063390Y-52562268D01*
X124063390Y-52562268D02*
X124111009Y-52609887D01*
X124111009Y-52609887D02*
X124158628Y-52705125D01*
X124158628Y-52705125D02*
X124158628Y-53086077D01*
X124111009Y-52086077D02*
X124111009Y-51752744D01*
X124634819Y-51609887D02*
X124634819Y-52086077D01*
X124634819Y-52086077D02*
X123634819Y-52086077D01*
X123634819Y-52086077D02*
X123634819Y-51609887D01*
X124111009Y-50847982D02*
X124111009Y-51181315D01*
X124634819Y-51181315D02*
X123634819Y-51181315D01*
X123634819Y-51181315D02*
X123634819Y-50705125D01*
X150923866Y-53451077D02*
X150876247Y-53403458D01*
X150876247Y-53403458D02*
X150828628Y-53308220D01*
X150828628Y-53308220D02*
X150923866Y-53117744D01*
X150923866Y-53117744D02*
X150876247Y-53022506D01*
X150876247Y-53022506D02*
X150828628Y-52974887D01*
X150304819Y-52117744D02*
X150304819Y-52593934D01*
X150304819Y-52593934D02*
X150781009Y-52641553D01*
X150781009Y-52641553D02*
X150733390Y-52593934D01*
X150733390Y-52593934D02*
X150685771Y-52498696D01*
X150685771Y-52498696D02*
X150685771Y-52260601D01*
X150685771Y-52260601D02*
X150733390Y-52165363D01*
X150733390Y-52165363D02*
X150781009Y-52117744D01*
X150781009Y-52117744D02*
X150876247Y-52070125D01*
X150876247Y-52070125D02*
X151114342Y-52070125D01*
X151114342Y-52070125D02*
X151209580Y-52117744D01*
X151209580Y-52117744D02*
X151257200Y-52165363D01*
X151257200Y-52165363D02*
X151304819Y-52260601D01*
X151304819Y-52260601D02*
X151304819Y-52498696D01*
X151304819Y-52498696D02*
X151257200Y-52593934D01*
X151257200Y-52593934D02*
X151209580Y-52641553D01*
X141462438Y-94694411D02*
X141414819Y-94789649D01*
X141414819Y-94789649D02*
X141414819Y-94932506D01*
X141414819Y-94932506D02*
X141462438Y-95075363D01*
X141462438Y-95075363D02*
X141557676Y-95170601D01*
X141557676Y-95170601D02*
X141652914Y-95218220D01*
X141652914Y-95218220D02*
X141843390Y-95265839D01*
X141843390Y-95265839D02*
X141986247Y-95265839D01*
X141986247Y-95265839D02*
X142176723Y-95218220D01*
X142176723Y-95218220D02*
X142271961Y-95170601D01*
X142271961Y-95170601D02*
X142367200Y-95075363D01*
X142367200Y-95075363D02*
X142414819Y-94932506D01*
X142414819Y-94932506D02*
X142414819Y-94837268D01*
X142414819Y-94837268D02*
X142367200Y-94694411D01*
X142367200Y-94694411D02*
X142319580Y-94646792D01*
X142319580Y-94646792D02*
X141986247Y-94646792D01*
X141986247Y-94646792D02*
X141986247Y-94837268D01*
X142414819Y-94218220D02*
X141414819Y-94218220D01*
X141414819Y-94218220D02*
X142414819Y-93646792D01*
X142414819Y-93646792D02*
X141414819Y-93646792D01*
X142414819Y-93170601D02*
X141414819Y-93170601D01*
X141414819Y-93170601D02*
X141414819Y-92932506D01*
X141414819Y-92932506D02*
X141462438Y-92789649D01*
X141462438Y-92789649D02*
X141557676Y-92694411D01*
X141557676Y-92694411D02*
X141652914Y-92646792D01*
X141652914Y-92646792D02*
X141843390Y-92599173D01*
X141843390Y-92599173D02*
X141986247Y-92599173D01*
X141986247Y-92599173D02*
X142176723Y-92646792D01*
X142176723Y-92646792D02*
X142271961Y-92694411D01*
X142271961Y-92694411D02*
X142367200Y-92789649D01*
X142367200Y-92789649D02*
X142414819Y-92932506D01*
X142414819Y-92932506D02*
X142414819Y-93170601D01*
X107512207Y-69802580D02*
X107464588Y-69850200D01*
X107464588Y-69850200D02*
X107321731Y-69897819D01*
X107321731Y-69897819D02*
X107226493Y-69897819D01*
X107226493Y-69897819D02*
X107083636Y-69850200D01*
X107083636Y-69850200D02*
X106988398Y-69754961D01*
X106988398Y-69754961D02*
X106940779Y-69659723D01*
X106940779Y-69659723D02*
X106893160Y-69469247D01*
X106893160Y-69469247D02*
X106893160Y-69326390D01*
X106893160Y-69326390D02*
X106940779Y-69135914D01*
X106940779Y-69135914D02*
X106988398Y-69040676D01*
X106988398Y-69040676D02*
X107083636Y-68945438D01*
X107083636Y-68945438D02*
X107226493Y-68897819D01*
X107226493Y-68897819D02*
X107321731Y-68897819D01*
X107321731Y-68897819D02*
X107464588Y-68945438D01*
X107464588Y-68945438D02*
X107512207Y-68993057D01*
X108131255Y-68897819D02*
X108321731Y-68897819D01*
X108321731Y-68897819D02*
X108416969Y-68945438D01*
X108416969Y-68945438D02*
X108512207Y-69040676D01*
X108512207Y-69040676D02*
X108559826Y-69231152D01*
X108559826Y-69231152D02*
X108559826Y-69564485D01*
X108559826Y-69564485D02*
X108512207Y-69754961D01*
X108512207Y-69754961D02*
X108416969Y-69850200D01*
X108416969Y-69850200D02*
X108321731Y-69897819D01*
X108321731Y-69897819D02*
X108131255Y-69897819D01*
X108131255Y-69897819D02*
X108036017Y-69850200D01*
X108036017Y-69850200D02*
X107940779Y-69754961D01*
X107940779Y-69754961D02*
X107893160Y-69564485D01*
X107893160Y-69564485D02*
X107893160Y-69231152D01*
X107893160Y-69231152D02*
X107940779Y-69040676D01*
X107940779Y-69040676D02*
X108036017Y-68945438D01*
X108036017Y-68945438D02*
X108131255Y-68897819D01*
X108988398Y-69897819D02*
X108988398Y-68897819D01*
X108988398Y-68897819D02*
X109369350Y-68897819D01*
X109369350Y-68897819D02*
X109464588Y-68945438D01*
X109464588Y-68945438D02*
X109512207Y-68993057D01*
X109512207Y-68993057D02*
X109559826Y-69088295D01*
X109559826Y-69088295D02*
X109559826Y-69231152D01*
X109559826Y-69231152D02*
X109512207Y-69326390D01*
X109512207Y-69326390D02*
X109464588Y-69374009D01*
X109464588Y-69374009D02*
X109369350Y-69421628D01*
X109369350Y-69421628D02*
X108988398Y-69421628D01*
X109988398Y-69897819D02*
X109988398Y-68897819D01*
X153559104Y-95265839D02*
X153559104Y-94789649D01*
X153844819Y-95361077D02*
X152844819Y-95027744D01*
X152844819Y-95027744D02*
X153844819Y-94694411D01*
X153844819Y-93837268D02*
X153844819Y-94408696D01*
X153844819Y-94122982D02*
X152844819Y-94122982D01*
X152844819Y-94122982D02*
X152987676Y-94218220D01*
X152987676Y-94218220D02*
X153082914Y-94313458D01*
X153082914Y-94313458D02*
X153130533Y-94408696D01*
X133524819Y-94646792D02*
X133048628Y-94980125D01*
X133524819Y-95218220D02*
X132524819Y-95218220D01*
X132524819Y-95218220D02*
X132524819Y-94837268D01*
X132524819Y-94837268D02*
X132572438Y-94742030D01*
X132572438Y-94742030D02*
X132620057Y-94694411D01*
X132620057Y-94694411D02*
X132715295Y-94646792D01*
X132715295Y-94646792D02*
X132858152Y-94646792D01*
X132858152Y-94646792D02*
X132953390Y-94694411D01*
X132953390Y-94694411D02*
X133001009Y-94742030D01*
X133001009Y-94742030D02*
X133048628Y-94837268D01*
X133048628Y-94837268D02*
X133048628Y-95218220D01*
X133001009Y-94218220D02*
X133001009Y-93884887D01*
X133524819Y-93742030D02*
X133524819Y-94218220D01*
X133524819Y-94218220D02*
X132524819Y-94218220D01*
X132524819Y-94218220D02*
X132524819Y-93742030D01*
X133477200Y-93361077D02*
X133524819Y-93218220D01*
X133524819Y-93218220D02*
X133524819Y-92980125D01*
X133524819Y-92980125D02*
X133477200Y-92884887D01*
X133477200Y-92884887D02*
X133429580Y-92837268D01*
X133429580Y-92837268D02*
X133334342Y-92789649D01*
X133334342Y-92789649D02*
X133239104Y-92789649D01*
X133239104Y-92789649D02*
X133143866Y-92837268D01*
X133143866Y-92837268D02*
X133096247Y-92884887D01*
X133096247Y-92884887D02*
X133048628Y-92980125D01*
X133048628Y-92980125D02*
X133001009Y-93170601D01*
X133001009Y-93170601D02*
X132953390Y-93265839D01*
X132953390Y-93265839D02*
X132905771Y-93313458D01*
X132905771Y-93313458D02*
X132810533Y-93361077D01*
X132810533Y-93361077D02*
X132715295Y-93361077D01*
X132715295Y-93361077D02*
X132620057Y-93313458D01*
X132620057Y-93313458D02*
X132572438Y-93265839D01*
X132572438Y-93265839D02*
X132524819Y-93170601D01*
X132524819Y-93170601D02*
X132524819Y-92932506D01*
X132524819Y-92932506D02*
X132572438Y-92789649D01*
X133001009Y-92361077D02*
X133001009Y-92027744D01*
X133524819Y-91884887D02*
X133524819Y-92361077D01*
X133524819Y-92361077D02*
X132524819Y-92361077D01*
X132524819Y-92361077D02*
X132524819Y-91884887D01*
X132524819Y-91599172D02*
X132524819Y-91027744D01*
X133524819Y-91313458D02*
X132524819Y-91313458D01*
X127921009Y-94884887D02*
X127968628Y-94742030D01*
X127968628Y-94742030D02*
X128016247Y-94694411D01*
X128016247Y-94694411D02*
X128111485Y-94646792D01*
X128111485Y-94646792D02*
X128254342Y-94646792D01*
X128254342Y-94646792D02*
X128349580Y-94694411D01*
X128349580Y-94694411D02*
X128397200Y-94742030D01*
X128397200Y-94742030D02*
X128444819Y-94837268D01*
X128444819Y-94837268D02*
X128444819Y-95218220D01*
X128444819Y-95218220D02*
X127444819Y-95218220D01*
X127444819Y-95218220D02*
X127444819Y-94884887D01*
X127444819Y-94884887D02*
X127492438Y-94789649D01*
X127492438Y-94789649D02*
X127540057Y-94742030D01*
X127540057Y-94742030D02*
X127635295Y-94694411D01*
X127635295Y-94694411D02*
X127730533Y-94694411D01*
X127730533Y-94694411D02*
X127825771Y-94742030D01*
X127825771Y-94742030D02*
X127873390Y-94789649D01*
X127873390Y-94789649D02*
X127921009Y-94884887D01*
X127921009Y-94884887D02*
X127921009Y-95218220D01*
X127444819Y-94027744D02*
X127444819Y-93837268D01*
X127444819Y-93837268D02*
X127492438Y-93742030D01*
X127492438Y-93742030D02*
X127587676Y-93646792D01*
X127587676Y-93646792D02*
X127778152Y-93599173D01*
X127778152Y-93599173D02*
X128111485Y-93599173D01*
X128111485Y-93599173D02*
X128301961Y-93646792D01*
X128301961Y-93646792D02*
X128397200Y-93742030D01*
X128397200Y-93742030D02*
X128444819Y-93837268D01*
X128444819Y-93837268D02*
X128444819Y-94027744D01*
X128444819Y-94027744D02*
X128397200Y-94122982D01*
X128397200Y-94122982D02*
X128301961Y-94218220D01*
X128301961Y-94218220D02*
X128111485Y-94265839D01*
X128111485Y-94265839D02*
X127778152Y-94265839D01*
X127778152Y-94265839D02*
X127587676Y-94218220D01*
X127587676Y-94218220D02*
X127492438Y-94122982D01*
X127492438Y-94122982D02*
X127444819Y-94027744D01*
X127444819Y-92980125D02*
X127444819Y-92789649D01*
X127444819Y-92789649D02*
X127492438Y-92694411D01*
X127492438Y-92694411D02*
X127587676Y-92599173D01*
X127587676Y-92599173D02*
X127778152Y-92551554D01*
X127778152Y-92551554D02*
X128111485Y-92551554D01*
X128111485Y-92551554D02*
X128301961Y-92599173D01*
X128301961Y-92599173D02*
X128397200Y-92694411D01*
X128397200Y-92694411D02*
X128444819Y-92789649D01*
X128444819Y-92789649D02*
X128444819Y-92980125D01*
X128444819Y-92980125D02*
X128397200Y-93075363D01*
X128397200Y-93075363D02*
X128301961Y-93170601D01*
X128301961Y-93170601D02*
X128111485Y-93218220D01*
X128111485Y-93218220D02*
X127778152Y-93218220D01*
X127778152Y-93218220D02*
X127587676Y-93170601D01*
X127587676Y-93170601D02*
X127492438Y-93075363D01*
X127492438Y-93075363D02*
X127444819Y-92980125D01*
X127444819Y-92265839D02*
X127444819Y-91694411D01*
X128444819Y-91980125D02*
X127444819Y-91980125D01*
X153178152Y-52244649D02*
X153844819Y-52244649D01*
X152797200Y-52482744D02*
X153511485Y-52720839D01*
X153511485Y-52720839D02*
X153511485Y-52101792D01*
X107464588Y-74025438D02*
X107369350Y-73977819D01*
X107369350Y-73977819D02*
X107226493Y-73977819D01*
X107226493Y-73977819D02*
X107083636Y-74025438D01*
X107083636Y-74025438D02*
X106988398Y-74120676D01*
X106988398Y-74120676D02*
X106940779Y-74215914D01*
X106940779Y-74215914D02*
X106893160Y-74406390D01*
X106893160Y-74406390D02*
X106893160Y-74549247D01*
X106893160Y-74549247D02*
X106940779Y-74739723D01*
X106940779Y-74739723D02*
X106988398Y-74834961D01*
X106988398Y-74834961D02*
X107083636Y-74930200D01*
X107083636Y-74930200D02*
X107226493Y-74977819D01*
X107226493Y-74977819D02*
X107321731Y-74977819D01*
X107321731Y-74977819D02*
X107464588Y-74930200D01*
X107464588Y-74930200D02*
X107512207Y-74882580D01*
X107512207Y-74882580D02*
X107512207Y-74549247D01*
X107512207Y-74549247D02*
X107321731Y-74549247D01*
X107940779Y-74977819D02*
X107940779Y-73977819D01*
X107940779Y-73977819D02*
X108512207Y-74977819D01*
X108512207Y-74977819D02*
X108512207Y-73977819D01*
X108988398Y-74977819D02*
X108988398Y-73977819D01*
X108988398Y-73977819D02*
X109226493Y-73977819D01*
X109226493Y-73977819D02*
X109369350Y-74025438D01*
X109369350Y-74025438D02*
X109464588Y-74120676D01*
X109464588Y-74120676D02*
X109512207Y-74215914D01*
X109512207Y-74215914D02*
X109559826Y-74406390D01*
X109559826Y-74406390D02*
X109559826Y-74549247D01*
X109559826Y-74549247D02*
X109512207Y-74739723D01*
X109512207Y-74739723D02*
X109464588Y-74834961D01*
X109464588Y-74834961D02*
X109369350Y-74930200D01*
X109369350Y-74930200D02*
X109226493Y-74977819D01*
X109226493Y-74977819D02*
X108988398Y-74977819D01*
X136953866Y-53451077D02*
X136906247Y-53403458D01*
X136906247Y-53403458D02*
X136858628Y-53308220D01*
X136858628Y-53308220D02*
X136953866Y-53117744D01*
X136953866Y-53117744D02*
X136906247Y-53022506D01*
X136906247Y-53022506D02*
X136858628Y-52974887D01*
X137334819Y-52070125D02*
X137334819Y-52641553D01*
X137334819Y-52355839D02*
X136334819Y-52355839D01*
X136334819Y-52355839D02*
X136477676Y-52451077D01*
X136477676Y-52451077D02*
X136572914Y-52546315D01*
X136572914Y-52546315D02*
X136620533Y-52641553D01*
X136334819Y-51451077D02*
X136334819Y-51355839D01*
X136334819Y-51355839D02*
X136382438Y-51260601D01*
X136382438Y-51260601D02*
X136430057Y-51212982D01*
X136430057Y-51212982D02*
X136525295Y-51165363D01*
X136525295Y-51165363D02*
X136715771Y-51117744D01*
X136715771Y-51117744D02*
X136953866Y-51117744D01*
X136953866Y-51117744D02*
X137144342Y-51165363D01*
X137144342Y-51165363D02*
X137239580Y-51212982D01*
X137239580Y-51212982D02*
X137287200Y-51260601D01*
X137287200Y-51260601D02*
X137334819Y-51355839D01*
X137334819Y-51355839D02*
X137334819Y-51451077D01*
X137334819Y-51451077D02*
X137287200Y-51546315D01*
X137287200Y-51546315D02*
X137239580Y-51593934D01*
X137239580Y-51593934D02*
X137144342Y-51641553D01*
X137144342Y-51641553D02*
X136953866Y-51689172D01*
X136953866Y-51689172D02*
X136715771Y-51689172D01*
X136715771Y-51689172D02*
X136525295Y-51641553D01*
X136525295Y-51641553D02*
X136430057Y-51593934D01*
X136430057Y-51593934D02*
X136382438Y-51546315D01*
X136382438Y-51546315D02*
X136334819Y-51451077D01*
X106797922Y-61404819D02*
X107131255Y-62404819D01*
X107131255Y-62404819D02*
X107464588Y-61404819D01*
X108369350Y-62309580D02*
X108321731Y-62357200D01*
X108321731Y-62357200D02*
X108178874Y-62404819D01*
X108178874Y-62404819D02*
X108083636Y-62404819D01*
X108083636Y-62404819D02*
X107940779Y-62357200D01*
X107940779Y-62357200D02*
X107845541Y-62261961D01*
X107845541Y-62261961D02*
X107797922Y-62166723D01*
X107797922Y-62166723D02*
X107750303Y-61976247D01*
X107750303Y-61976247D02*
X107750303Y-61833390D01*
X107750303Y-61833390D02*
X107797922Y-61642914D01*
X107797922Y-61642914D02*
X107845541Y-61547676D01*
X107845541Y-61547676D02*
X107940779Y-61452438D01*
X107940779Y-61452438D02*
X108083636Y-61404819D01*
X108083636Y-61404819D02*
X108178874Y-61404819D01*
X108178874Y-61404819D02*
X108321731Y-61452438D01*
X108321731Y-61452438D02*
X108369350Y-61500057D01*
X108988398Y-61404819D02*
X109178874Y-61404819D01*
X109178874Y-61404819D02*
X109274112Y-61452438D01*
X109274112Y-61452438D02*
X109369350Y-61547676D01*
X109369350Y-61547676D02*
X109416969Y-61738152D01*
X109416969Y-61738152D02*
X109416969Y-62071485D01*
X109416969Y-62071485D02*
X109369350Y-62261961D01*
X109369350Y-62261961D02*
X109274112Y-62357200D01*
X109274112Y-62357200D02*
X109178874Y-62404819D01*
X109178874Y-62404819D02*
X108988398Y-62404819D01*
X108988398Y-62404819D02*
X108893160Y-62357200D01*
X108893160Y-62357200D02*
X108797922Y-62261961D01*
X108797922Y-62261961D02*
X108750303Y-62071485D01*
X108750303Y-62071485D02*
X108750303Y-61738152D01*
X108750303Y-61738152D02*
X108797922Y-61547676D01*
X108797922Y-61547676D02*
X108893160Y-61452438D01*
X108893160Y-61452438D02*
X108988398Y-61404819D01*
X109845541Y-62404819D02*
X109845541Y-61404819D01*
X110797921Y-62404819D02*
X110321731Y-62404819D01*
X110321731Y-62404819D02*
X110321731Y-61404819D01*
X104826095Y-97422819D02*
X104826095Y-98232342D01*
X104826095Y-98232342D02*
X104873714Y-98327580D01*
X104873714Y-98327580D02*
X104921333Y-98375200D01*
X104921333Y-98375200D02*
X105016571Y-98422819D01*
X105016571Y-98422819D02*
X105207047Y-98422819D01*
X105207047Y-98422819D02*
X105302285Y-98375200D01*
X105302285Y-98375200D02*
X105349904Y-98327580D01*
X105349904Y-98327580D02*
X105397523Y-98232342D01*
X105397523Y-98232342D02*
X105397523Y-97422819D01*
X106302285Y-97756152D02*
X106302285Y-98422819D01*
X106064190Y-97375200D02*
X105826095Y-98089485D01*
X105826095Y-98089485D02*
X106445142Y-98089485D01*
X119558095Y-85230819D02*
X119558095Y-86040342D01*
X119558095Y-86040342D02*
X119605714Y-86135580D01*
X119605714Y-86135580D02*
X119653333Y-86183200D01*
X119653333Y-86183200D02*
X119748571Y-86230819D01*
X119748571Y-86230819D02*
X119939047Y-86230819D01*
X119939047Y-86230819D02*
X120034285Y-86183200D01*
X120034285Y-86183200D02*
X120081904Y-86135580D01*
X120081904Y-86135580D02*
X120129523Y-86040342D01*
X120129523Y-86040342D02*
X120129523Y-85230819D01*
X120510476Y-85230819D02*
X121129523Y-85230819D01*
X121129523Y-85230819D02*
X120796190Y-85611771D01*
X120796190Y-85611771D02*
X120939047Y-85611771D01*
X120939047Y-85611771D02*
X121034285Y-85659390D01*
X121034285Y-85659390D02*
X121081904Y-85707009D01*
X121081904Y-85707009D02*
X121129523Y-85802247D01*
X121129523Y-85802247D02*
X121129523Y-86040342D01*
X121129523Y-86040342D02*
X121081904Y-86135580D01*
X121081904Y-86135580D02*
X121034285Y-86183200D01*
X121034285Y-86183200D02*
X120939047Y-86230819D01*
X120939047Y-86230819D02*
X120653333Y-86230819D01*
X120653333Y-86230819D02*
X120558095Y-86183200D01*
X120558095Y-86183200D02*
X120510476Y-86135580D01*
D12*
X154226666Y-71593842D02*
X154408095Y-71654318D01*
X154408095Y-71654318D02*
X154710476Y-71654318D01*
X154710476Y-71654318D02*
X154831428Y-71593842D01*
X154831428Y-71593842D02*
X154891904Y-71533365D01*
X154891904Y-71533365D02*
X154952381Y-71412413D01*
X154952381Y-71412413D02*
X154952381Y-71291461D01*
X154952381Y-71291461D02*
X154891904Y-71170508D01*
X154891904Y-71170508D02*
X154831428Y-71110032D01*
X154831428Y-71110032D02*
X154710476Y-71049556D01*
X154710476Y-71049556D02*
X154468571Y-70989080D01*
X154468571Y-70989080D02*
X154347619Y-70928603D01*
X154347619Y-70928603D02*
X154287142Y-70868127D01*
X154287142Y-70868127D02*
X154226666Y-70747175D01*
X154226666Y-70747175D02*
X154226666Y-70626222D01*
X154226666Y-70626222D02*
X154287142Y-70505270D01*
X154287142Y-70505270D02*
X154347619Y-70444794D01*
X154347619Y-70444794D02*
X154468571Y-70384318D01*
X154468571Y-70384318D02*
X154770952Y-70384318D01*
X154770952Y-70384318D02*
X154952381Y-70444794D01*
X155375714Y-70384318D02*
X155678095Y-71654318D01*
X155678095Y-71654318D02*
X155920000Y-70747175D01*
X155920000Y-70747175D02*
X156161905Y-71654318D01*
X156161905Y-71654318D02*
X156464286Y-70384318D01*
X157613334Y-71654318D02*
X156887619Y-71654318D01*
X157250476Y-71654318D02*
X157250476Y-70384318D01*
X157250476Y-70384318D02*
X157129524Y-70565746D01*
X157129524Y-70565746D02*
X157008572Y-70686699D01*
X157008572Y-70686699D02*
X156887619Y-70747175D01*
D10*
X158779580Y-56351666D02*
X158827200Y-56399285D01*
X158827200Y-56399285D02*
X158874819Y-56542142D01*
X158874819Y-56542142D02*
X158874819Y-56637380D01*
X158874819Y-56637380D02*
X158827200Y-56780237D01*
X158827200Y-56780237D02*
X158731961Y-56875475D01*
X158731961Y-56875475D02*
X158636723Y-56923094D01*
X158636723Y-56923094D02*
X158446247Y-56970713D01*
X158446247Y-56970713D02*
X158303390Y-56970713D01*
X158303390Y-56970713D02*
X158112914Y-56923094D01*
X158112914Y-56923094D02*
X158017676Y-56875475D01*
X158017676Y-56875475D02*
X157922438Y-56780237D01*
X157922438Y-56780237D02*
X157874819Y-56637380D01*
X157874819Y-56637380D02*
X157874819Y-56542142D01*
X157874819Y-56542142D02*
X157922438Y-56399285D01*
X157922438Y-56399285D02*
X157970057Y-56351666D01*
X158874819Y-55399285D02*
X158874819Y-55970713D01*
X158874819Y-55684999D02*
X157874819Y-55684999D01*
X157874819Y-55684999D02*
X158017676Y-55780237D01*
X158017676Y-55780237D02*
X158112914Y-55875475D01*
X158112914Y-55875475D02*
X158160533Y-55970713D01*
X149998095Y-87547319D02*
X149998095Y-88356842D01*
X149998095Y-88356842D02*
X150045714Y-88452080D01*
X150045714Y-88452080D02*
X150093333Y-88499700D01*
X150093333Y-88499700D02*
X150188571Y-88547319D01*
X150188571Y-88547319D02*
X150379047Y-88547319D01*
X150379047Y-88547319D02*
X150474285Y-88499700D01*
X150474285Y-88499700D02*
X150521904Y-88452080D01*
X150521904Y-88452080D02*
X150569523Y-88356842D01*
X150569523Y-88356842D02*
X150569523Y-87547319D01*
X150998095Y-87642557D02*
X151045714Y-87594938D01*
X151045714Y-87594938D02*
X151140952Y-87547319D01*
X151140952Y-87547319D02*
X151379047Y-87547319D01*
X151379047Y-87547319D02*
X151474285Y-87594938D01*
X151474285Y-87594938D02*
X151521904Y-87642557D01*
X151521904Y-87642557D02*
X151569523Y-87737795D01*
X151569523Y-87737795D02*
X151569523Y-87833033D01*
X151569523Y-87833033D02*
X151521904Y-87975890D01*
X151521904Y-87975890D02*
X150950476Y-88547319D01*
X150950476Y-88547319D02*
X151569523Y-88547319D01*
X101698666Y-79134819D02*
X101698666Y-79849104D01*
X101698666Y-79849104D02*
X101651047Y-79991961D01*
X101651047Y-79991961D02*
X101555809Y-80087200D01*
X101555809Y-80087200D02*
X101412952Y-80134819D01*
X101412952Y-80134819D02*
X101317714Y-80134819D01*
X102651047Y-79134819D02*
X102174857Y-79134819D01*
X102174857Y-79134819D02*
X102127238Y-79611009D01*
X102127238Y-79611009D02*
X102174857Y-79563390D01*
X102174857Y-79563390D02*
X102270095Y-79515771D01*
X102270095Y-79515771D02*
X102508190Y-79515771D01*
X102508190Y-79515771D02*
X102603428Y-79563390D01*
X102603428Y-79563390D02*
X102651047Y-79611009D01*
X102651047Y-79611009D02*
X102698666Y-79706247D01*
X102698666Y-79706247D02*
X102698666Y-79944342D01*
X102698666Y-79944342D02*
X102651047Y-80039580D01*
X102651047Y-80039580D02*
X102603428Y-80087200D01*
X102603428Y-80087200D02*
X102508190Y-80134819D01*
X102508190Y-80134819D02*
X102270095Y-80134819D01*
X102270095Y-80134819D02*
X102174857Y-80087200D01*
X102174857Y-80087200D02*
X102127238Y-80039580D01*
X114565333Y-90294819D02*
X114232000Y-89818628D01*
X113993905Y-90294819D02*
X113993905Y-89294819D01*
X113993905Y-89294819D02*
X114374857Y-89294819D01*
X114374857Y-89294819D02*
X114470095Y-89342438D01*
X114470095Y-89342438D02*
X114517714Y-89390057D01*
X114517714Y-89390057D02*
X114565333Y-89485295D01*
X114565333Y-89485295D02*
X114565333Y-89628152D01*
X114565333Y-89628152D02*
X114517714Y-89723390D01*
X114517714Y-89723390D02*
X114470095Y-89771009D01*
X114470095Y-89771009D02*
X114374857Y-89818628D01*
X114374857Y-89818628D02*
X113993905Y-89818628D01*
X114946286Y-89390057D02*
X114993905Y-89342438D01*
X114993905Y-89342438D02*
X115089143Y-89294819D01*
X115089143Y-89294819D02*
X115327238Y-89294819D01*
X115327238Y-89294819D02*
X115422476Y-89342438D01*
X115422476Y-89342438D02*
X115470095Y-89390057D01*
X115470095Y-89390057D02*
X115517714Y-89485295D01*
X115517714Y-89485295D02*
X115517714Y-89580533D01*
X115517714Y-89580533D02*
X115470095Y-89723390D01*
X115470095Y-89723390D02*
X114898667Y-90294819D01*
X114898667Y-90294819D02*
X115517714Y-90294819D01*
X119155580Y-90045166D02*
X119203200Y-90092785D01*
X119203200Y-90092785D02*
X119250819Y-90235642D01*
X119250819Y-90235642D02*
X119250819Y-90330880D01*
X119250819Y-90330880D02*
X119203200Y-90473737D01*
X119203200Y-90473737D02*
X119107961Y-90568975D01*
X119107961Y-90568975D02*
X119012723Y-90616594D01*
X119012723Y-90616594D02*
X118822247Y-90664213D01*
X118822247Y-90664213D02*
X118679390Y-90664213D01*
X118679390Y-90664213D02*
X118488914Y-90616594D01*
X118488914Y-90616594D02*
X118393676Y-90568975D01*
X118393676Y-90568975D02*
X118298438Y-90473737D01*
X118298438Y-90473737D02*
X118250819Y-90330880D01*
X118250819Y-90330880D02*
X118250819Y-90235642D01*
X118250819Y-90235642D02*
X118298438Y-90092785D01*
X118298438Y-90092785D02*
X118346057Y-90045166D01*
X118250819Y-89711832D02*
X118250819Y-89092785D01*
X118250819Y-89092785D02*
X118631771Y-89426118D01*
X118631771Y-89426118D02*
X118631771Y-89283261D01*
X118631771Y-89283261D02*
X118679390Y-89188023D01*
X118679390Y-89188023D02*
X118727009Y-89140404D01*
X118727009Y-89140404D02*
X118822247Y-89092785D01*
X118822247Y-89092785D02*
X119060342Y-89092785D01*
X119060342Y-89092785D02*
X119155580Y-89140404D01*
X119155580Y-89140404D02*
X119203200Y-89188023D01*
X119203200Y-89188023D02*
X119250819Y-89283261D01*
X119250819Y-89283261D02*
X119250819Y-89568975D01*
X119250819Y-89568975D02*
X119203200Y-89664213D01*
X119203200Y-89664213D02*
X119155580Y-89711832D01*
X114565333Y-92326819D02*
X114232000Y-91850628D01*
X113993905Y-92326819D02*
X113993905Y-91326819D01*
X113993905Y-91326819D02*
X114374857Y-91326819D01*
X114374857Y-91326819D02*
X114470095Y-91374438D01*
X114470095Y-91374438D02*
X114517714Y-91422057D01*
X114517714Y-91422057D02*
X114565333Y-91517295D01*
X114565333Y-91517295D02*
X114565333Y-91660152D01*
X114565333Y-91660152D02*
X114517714Y-91755390D01*
X114517714Y-91755390D02*
X114470095Y-91803009D01*
X114470095Y-91803009D02*
X114374857Y-91850628D01*
X114374857Y-91850628D02*
X113993905Y-91850628D01*
X114898667Y-91326819D02*
X115517714Y-91326819D01*
X115517714Y-91326819D02*
X115184381Y-91707771D01*
X115184381Y-91707771D02*
X115327238Y-91707771D01*
X115327238Y-91707771D02*
X115422476Y-91755390D01*
X115422476Y-91755390D02*
X115470095Y-91803009D01*
X115470095Y-91803009D02*
X115517714Y-91898247D01*
X115517714Y-91898247D02*
X115517714Y-92136342D01*
X115517714Y-92136342D02*
X115470095Y-92231580D01*
X115470095Y-92231580D02*
X115422476Y-92279200D01*
X115422476Y-92279200D02*
X115327238Y-92326819D01*
X115327238Y-92326819D02*
X115041524Y-92326819D01*
X115041524Y-92326819D02*
X114946286Y-92279200D01*
X114946286Y-92279200D02*
X114898667Y-92231580D01*
X157618095Y-87547319D02*
X157618095Y-88356842D01*
X157618095Y-88356842D02*
X157665714Y-88452080D01*
X157665714Y-88452080D02*
X157713333Y-88499700D01*
X157713333Y-88499700D02*
X157808571Y-88547319D01*
X157808571Y-88547319D02*
X157999047Y-88547319D01*
X157999047Y-88547319D02*
X158094285Y-88499700D01*
X158094285Y-88499700D02*
X158141904Y-88452080D01*
X158141904Y-88452080D02*
X158189523Y-88356842D01*
X158189523Y-88356842D02*
X158189523Y-87547319D01*
X159189523Y-88547319D02*
X158618095Y-88547319D01*
X158903809Y-88547319D02*
X158903809Y-87547319D01*
X158903809Y-87547319D02*
X158808571Y-87690176D01*
X158808571Y-87690176D02*
X158713333Y-87785414D01*
X158713333Y-87785414D02*
X158618095Y-87833033D01*
X161414819Y-56351666D02*
X160938628Y-56684999D01*
X161414819Y-56923094D02*
X160414819Y-56923094D01*
X160414819Y-56923094D02*
X160414819Y-56542142D01*
X160414819Y-56542142D02*
X160462438Y-56446904D01*
X160462438Y-56446904D02*
X160510057Y-56399285D01*
X160510057Y-56399285D02*
X160605295Y-56351666D01*
X160605295Y-56351666D02*
X160748152Y-56351666D01*
X160748152Y-56351666D02*
X160843390Y-56399285D01*
X160843390Y-56399285D02*
X160891009Y-56446904D01*
X160891009Y-56446904D02*
X160938628Y-56542142D01*
X160938628Y-56542142D02*
X160938628Y-56923094D01*
X161414819Y-55399285D02*
X161414819Y-55970713D01*
X161414819Y-55684999D02*
X160414819Y-55684999D01*
X160414819Y-55684999D02*
X160557676Y-55780237D01*
X160557676Y-55780237D02*
X160652914Y-55875475D01*
X160652914Y-55875475D02*
X160700533Y-55970713D01*
X104913333Y-86643580D02*
X104865714Y-86691200D01*
X104865714Y-86691200D02*
X104722857Y-86738819D01*
X104722857Y-86738819D02*
X104627619Y-86738819D01*
X104627619Y-86738819D02*
X104484762Y-86691200D01*
X104484762Y-86691200D02*
X104389524Y-86595961D01*
X104389524Y-86595961D02*
X104341905Y-86500723D01*
X104341905Y-86500723D02*
X104294286Y-86310247D01*
X104294286Y-86310247D02*
X104294286Y-86167390D01*
X104294286Y-86167390D02*
X104341905Y-85976914D01*
X104341905Y-85976914D02*
X104389524Y-85881676D01*
X104389524Y-85881676D02*
X104484762Y-85786438D01*
X104484762Y-85786438D02*
X104627619Y-85738819D01*
X104627619Y-85738819D02*
X104722857Y-85738819D01*
X104722857Y-85738819D02*
X104865714Y-85786438D01*
X104865714Y-85786438D02*
X104913333Y-85834057D01*
X105294286Y-85834057D02*
X105341905Y-85786438D01*
X105341905Y-85786438D02*
X105437143Y-85738819D01*
X105437143Y-85738819D02*
X105675238Y-85738819D01*
X105675238Y-85738819D02*
X105770476Y-85786438D01*
X105770476Y-85786438D02*
X105818095Y-85834057D01*
X105818095Y-85834057D02*
X105865714Y-85929295D01*
X105865714Y-85929295D02*
X105865714Y-86024533D01*
X105865714Y-86024533D02*
X105818095Y-86167390D01*
X105818095Y-86167390D02*
X105246667Y-86738819D01*
X105246667Y-86738819D02*
X105865714Y-86738819D01*
D13*
%TO.C,J1*%
X126610000Y-96130000D02*
X127940000Y-96130000D01*
X126610000Y-97460000D02*
X126610000Y-96130000D01*
X129210000Y-96130000D02*
X147050000Y-96130000D01*
X129210000Y-98790000D02*
X129210000Y-96130000D01*
X129210000Y-98790000D02*
X147050000Y-98790000D01*
X147050000Y-98790000D02*
X147050000Y-96130000D01*
%TO.C,J3*%
X149470000Y-96130000D02*
X150800000Y-96130000D01*
X149470000Y-97460000D02*
X149470000Y-96130000D01*
X152070000Y-96130000D02*
X164830000Y-96130000D01*
X152070000Y-98790000D02*
X152070000Y-96130000D01*
X152070000Y-98790000D02*
X164830000Y-98790000D01*
X164830000Y-98790000D02*
X164830000Y-96130000D01*
%TO.C,J2*%
X142986000Y-50530000D02*
X142986000Y-47870000D01*
X120066000Y-50530000D02*
X142986000Y-50530000D01*
X120066000Y-50530000D02*
X120066000Y-47870000D01*
X120066000Y-47870000D02*
X142986000Y-47870000D01*
X117466000Y-49200000D02*
X117466000Y-47870000D01*
X117466000Y-47870000D02*
X118796000Y-47870000D01*
%TO.C,J4*%
X144390000Y-47870000D02*
X145720000Y-47870000D01*
X144390000Y-49200000D02*
X144390000Y-47870000D01*
X146990000Y-47870000D02*
X164830000Y-47870000D01*
X146990000Y-50530000D02*
X146990000Y-47870000D01*
X146990000Y-50530000D02*
X164830000Y-50530000D01*
X164830000Y-50530000D02*
X164830000Y-47870000D01*
%TO.C,U4*%
X102137000Y-89030000D02*
X102407000Y-89030000D01*
X102137000Y-95450000D02*
X102137000Y-89030000D01*
X109037000Y-89030000D02*
X108767000Y-89030000D01*
X109037000Y-95450000D02*
X109037000Y-89030000D01*
X109197000Y-87640000D02*
X108727000Y-87300000D01*
X109197000Y-86960000D01*
X109197000Y-87640000D01*
G36*
X109197000Y-87640000D02*
G01*
X108727000Y-87300000D01*
X109197000Y-86960000D01*
X109197000Y-87640000D01*
G37*
%TO.C,U3*%
X122005000Y-84530000D02*
X132625000Y-84530000D01*
X122005000Y-87530000D02*
X122005000Y-84530000D01*
X129855000Y-87530000D02*
X129855000Y-84530000D01*
X132625000Y-84530000D02*
X132625000Y-87530000D01*
X132625000Y-87530000D02*
X122005000Y-87530000D01*
D14*
%TO.C,SW1*%
X150070000Y-64830000D02*
X161770000Y-64830000D01*
X150070000Y-67830000D02*
X150070000Y-64830000D01*
X150070000Y-73830000D02*
X150070000Y-76390000D01*
X150070000Y-76390000D02*
X161770000Y-76390000D01*
X161770000Y-64830000D02*
X161770000Y-67830000D01*
X161770000Y-76390000D02*
X161770000Y-73830000D01*
D13*
%TO.C,C1*%
X157910000Y-58806234D02*
X157910000Y-59098768D01*
X158930000Y-58806234D02*
X158930000Y-59098768D01*
D15*
%TO.C,G\u002A\u002A\u002A*%
G36*
X106367581Y-54486120D02*
G01*
X106586430Y-54491271D01*
X106779046Y-54498488D01*
X106947721Y-54508010D01*
X107094750Y-54520079D01*
X107222429Y-54534933D01*
X107333051Y-54552814D01*
X107428911Y-54573960D01*
X107512304Y-54598613D01*
X107541113Y-54608918D01*
X107589170Y-54631789D01*
X107639344Y-54663293D01*
X107685240Y-54698389D01*
X107720463Y-54732039D01*
X107738618Y-54759205D01*
X107739781Y-54765456D01*
X107725871Y-54783274D01*
X107684918Y-54805287D01*
X107618085Y-54831042D01*
X107526535Y-54860089D01*
X107418172Y-54890204D01*
X107328454Y-54913698D01*
X107249904Y-54933549D01*
X107179099Y-54950080D01*
X107112614Y-54963613D01*
X107047026Y-54974471D01*
X106978913Y-54982976D01*
X106904850Y-54989451D01*
X106821416Y-54994218D01*
X106725185Y-54997599D01*
X106612736Y-54999917D01*
X106480644Y-55001495D01*
X106325487Y-55002654D01*
X106217496Y-55003297D01*
X106072935Y-55003846D01*
X105932445Y-55003851D01*
X105799556Y-55003348D01*
X105677797Y-55002372D01*
X105570695Y-55000960D01*
X105481781Y-54999149D01*
X105414583Y-54996975D01*
X105374165Y-54994615D01*
X105156529Y-54965622D01*
X104929279Y-54917160D01*
X104778407Y-54875367D01*
X104667539Y-54840412D01*
X104582948Y-54810351D01*
X104522945Y-54784168D01*
X104485838Y-54760846D01*
X104469935Y-54739369D01*
X104473546Y-54718720D01*
X104489733Y-54701810D01*
X104542837Y-54667476D01*
X104613223Y-54632091D01*
X104690198Y-54600490D01*
X104763068Y-54577505D01*
X104766680Y-54576603D01*
X104875452Y-54554553D01*
X105010020Y-54535196D01*
X105167703Y-54518683D01*
X105345822Y-54505165D01*
X105541700Y-54494794D01*
X105752655Y-54487721D01*
X105976010Y-54484098D01*
X106209084Y-54484077D01*
X106367581Y-54486120D01*
G37*
G36*
X106438178Y-49203980D02*
G01*
X106492505Y-49229475D01*
X106559409Y-49278335D01*
X106637898Y-49349946D01*
X106640492Y-49352510D01*
X106754329Y-49483705D01*
X106844143Y-49627228D01*
X106898752Y-49752857D01*
X106918606Y-49833543D01*
X106929757Y-49933055D01*
X106932209Y-50043003D01*
X106925964Y-50154999D01*
X106911025Y-50260652D01*
X106898557Y-50315059D01*
X106864027Y-50421168D01*
X106815131Y-50535311D01*
X106750684Y-50659530D01*
X106669500Y-50795869D01*
X106570395Y-50946368D01*
X106452183Y-51113069D01*
X106375221Y-51216891D01*
X106320740Y-51288842D01*
X106280142Y-51340592D01*
X106250516Y-51375059D01*
X106228948Y-51395164D01*
X106212525Y-51403826D01*
X106198336Y-51403962D01*
X106190876Y-51401634D01*
X106175749Y-51391093D01*
X106163656Y-51370540D01*
X106154335Y-51337334D01*
X106147528Y-51288834D01*
X106142975Y-51222401D01*
X106140418Y-51135392D01*
X106139596Y-51025167D01*
X106140250Y-50889086D01*
X106140274Y-50886353D01*
X106141211Y-50763445D01*
X106141292Y-50666308D01*
X106140046Y-50592144D01*
X106137001Y-50538157D01*
X106131687Y-50501547D01*
X106123632Y-50479518D01*
X106112365Y-50469272D01*
X106097414Y-50468011D01*
X106078309Y-50472937D01*
X106071059Y-50475427D01*
X106031677Y-50489279D01*
X106036974Y-50935386D01*
X106038356Y-51066688D01*
X106038871Y-51172217D01*
X106038240Y-51254770D01*
X106036184Y-51317141D01*
X106032425Y-51362123D01*
X106026685Y-51392510D01*
X106018683Y-51411098D01*
X106008142Y-51420680D01*
X105994783Y-51424050D01*
X105988214Y-51424285D01*
X105973812Y-51413315D01*
X105946095Y-51383025D01*
X105908362Y-51337349D01*
X105863910Y-51280217D01*
X105835435Y-51242142D01*
X105700739Y-51054293D01*
X105586372Y-50883175D01*
X105491329Y-50726497D01*
X105414607Y-50581969D01*
X105355205Y-50447300D01*
X105312118Y-50320200D01*
X105284343Y-50198377D01*
X105270879Y-50079541D01*
X105270721Y-49961401D01*
X105271165Y-49953388D01*
X105287421Y-49818677D01*
X105321060Y-49699825D01*
X105374987Y-49590205D01*
X105452107Y-49483193D01*
X105502051Y-49426685D01*
X105547427Y-49382376D01*
X105601546Y-49335969D01*
X105658809Y-49291539D01*
X105713616Y-49253158D01*
X105760371Y-49224901D01*
X105793474Y-49210840D01*
X105799848Y-49210000D01*
X105816269Y-49219634D01*
X105848110Y-49245943D01*
X105890947Y-49285031D01*
X105940355Y-49333005D01*
X105945915Y-49338571D01*
X105996196Y-49387361D01*
X106040930Y-49427646D01*
X106075533Y-49455511D01*
X106095420Y-49467039D01*
X106096427Y-49467142D01*
X106114557Y-49457413D01*
X106147718Y-49430864D01*
X106191321Y-49391458D01*
X106240777Y-49343156D01*
X106244855Y-49339020D01*
X106295172Y-49289271D01*
X106340462Y-49247103D01*
X106375927Y-49216811D01*
X106396770Y-49202689D01*
X106397418Y-49202460D01*
X106438178Y-49203980D01*
G37*
G36*
X105847821Y-51834157D02*
G01*
X105865344Y-51853542D01*
X105861158Y-51887484D01*
X105835711Y-51932483D01*
X105835138Y-51933267D01*
X105727431Y-52077506D01*
X105631639Y-52199795D01*
X105545472Y-52302981D01*
X105471715Y-52384559D01*
X105406937Y-52454873D01*
X105361520Y-52509061D01*
X105333610Y-52550146D01*
X105321352Y-52581152D01*
X105322893Y-52605103D01*
X105329267Y-52616803D01*
X105355547Y-52634808D01*
X105374879Y-52636402D01*
X105384203Y-52633202D01*
X105395706Y-52625499D01*
X105411343Y-52611011D01*
X105433065Y-52587453D01*
X105462825Y-52552543D01*
X105502575Y-52503995D01*
X105554268Y-52439527D01*
X105619857Y-52356855D01*
X105691629Y-52265953D01*
X105778738Y-52158680D01*
X105852024Y-52075512D01*
X105912139Y-52015916D01*
X105959735Y-51979359D01*
X105995465Y-51965309D01*
X106019983Y-51973233D01*
X106030148Y-51989739D01*
X106034343Y-52015764D01*
X106037341Y-52065620D01*
X106039210Y-52134593D01*
X106040014Y-52217972D01*
X106039818Y-52311044D01*
X106038689Y-52409094D01*
X106036692Y-52507412D01*
X106033892Y-52601284D01*
X106030355Y-52685997D01*
X106026146Y-52756838D01*
X106021331Y-52809095D01*
X106018496Y-52827958D01*
X105986430Y-52954154D01*
X105938231Y-53089493D01*
X105878140Y-53223070D01*
X105831216Y-53309778D01*
X105765638Y-53407531D01*
X105686062Y-53503943D01*
X105598563Y-53592889D01*
X105509218Y-53668243D01*
X105424102Y-53723878D01*
X105416514Y-53727885D01*
X105296073Y-53780625D01*
X105162892Y-53823041D01*
X105029217Y-53851700D01*
X104938205Y-53861972D01*
X104877853Y-53864963D01*
X104838348Y-53864226D01*
X104812061Y-53858524D01*
X104791361Y-53846621D01*
X104778572Y-53836095D01*
X104762256Y-53820449D01*
X104751163Y-53803361D01*
X104744030Y-53779017D01*
X104739592Y-53741604D01*
X104736584Y-53685307D01*
X104734755Y-53634574D01*
X104731709Y-53551758D01*
X104726307Y-53492900D01*
X104714451Y-53455026D01*
X104692044Y-53435165D01*
X104654987Y-53430342D01*
X104599184Y-53437586D01*
X104520536Y-53453925D01*
X104493760Y-53459746D01*
X104410987Y-53477061D01*
X104351178Y-53487071D01*
X104309518Y-53489217D01*
X104281193Y-53482939D01*
X104261386Y-53467678D01*
X104245282Y-53442875D01*
X104238777Y-53430110D01*
X104214328Y-53361879D01*
X104195962Y-53272730D01*
X104184227Y-53169775D01*
X104179670Y-53060128D01*
X104182838Y-52950899D01*
X104194141Y-52850036D01*
X104229625Y-52714422D01*
X104290307Y-52578776D01*
X104373316Y-52448487D01*
X104466511Y-52338429D01*
X104534646Y-52272535D01*
X104604595Y-52215455D01*
X104679984Y-52165564D01*
X104764440Y-52121233D01*
X104861589Y-52080835D01*
X104975057Y-52042744D01*
X105108471Y-52005331D01*
X105265456Y-51966971D01*
X105324137Y-51953582D01*
X105417504Y-51932207D01*
X105510728Y-51910200D01*
X105596487Y-51889338D01*
X105667460Y-51871395D01*
X105708457Y-51860396D01*
X105764895Y-51845941D01*
X105812049Y-51836454D01*
X105842331Y-51833363D01*
X105847821Y-51834157D01*
G37*
G36*
X107842989Y-50263162D02*
G01*
X108017956Y-50295347D01*
X108155546Y-50336513D01*
X108248641Y-50372645D01*
X108314994Y-50407637D01*
X108344908Y-50431113D01*
X108355909Y-50447013D01*
X108358725Y-50468233D01*
X108352169Y-50499121D01*
X108335054Y-50544025D01*
X108306194Y-50607294D01*
X108284588Y-50652101D01*
X108258610Y-50708763D01*
X108238499Y-50759035D01*
X108227199Y-50795248D01*
X108225769Y-50805306D01*
X108230609Y-50825728D01*
X108247425Y-50844927D01*
X108279661Y-50864800D01*
X108330760Y-50887243D01*
X108404165Y-50914153D01*
X108454455Y-50931265D01*
X108590259Y-50976689D01*
X108594586Y-51034804D01*
X108590868Y-51106027D01*
X108571987Y-51192617D01*
X108539991Y-51287126D01*
X108501550Y-51373048D01*
X108412756Y-51521098D01*
X108306233Y-51647065D01*
X108180979Y-51751815D01*
X108035995Y-51836214D01*
X107904159Y-51889995D01*
X107858221Y-51904954D01*
X107817012Y-51915737D01*
X107774079Y-51923145D01*
X107722965Y-51927977D01*
X107657214Y-51931034D01*
X107570373Y-51933116D01*
X107553962Y-51933415D01*
X107421463Y-51933776D01*
X107314756Y-51929599D01*
X107231390Y-51920770D01*
X107210912Y-51917263D01*
X107164440Y-51907537D01*
X107096278Y-51892061D01*
X107012411Y-51872256D01*
X106918823Y-51849538D01*
X106821498Y-51825328D01*
X106796393Y-51818983D01*
X106704383Y-51795897D01*
X106619538Y-51775082D01*
X106546528Y-51757647D01*
X106490024Y-51744699D01*
X106454697Y-51737346D01*
X106447638Y-51736231D01*
X106408185Y-51723449D01*
X106387007Y-51700147D01*
X106388132Y-51672461D01*
X106397438Y-51659751D01*
X106426727Y-51639736D01*
X106480563Y-51612600D01*
X106556130Y-51579500D01*
X106650613Y-51541593D01*
X106761198Y-51500037D01*
X106885070Y-51455989D01*
X106933510Y-51439359D01*
X107035766Y-51403627D01*
X107113473Y-51373934D01*
X107169620Y-51348648D01*
X107207194Y-51326136D01*
X107229186Y-51304766D01*
X107238583Y-51282906D01*
X107239500Y-51272254D01*
X107227954Y-51249893D01*
X107217850Y-51243657D01*
X107198341Y-51246062D01*
X107156021Y-51257643D01*
X107094664Y-51277070D01*
X107018044Y-51303012D01*
X106929935Y-51334142D01*
X106834111Y-51369130D01*
X106734347Y-51406645D01*
X106634416Y-51445359D01*
X106553399Y-51477714D01*
X106473334Y-51509808D01*
X106415404Y-51531805D01*
X106375460Y-51544847D01*
X106349356Y-51550075D01*
X106332942Y-51548631D01*
X106322072Y-51541658D01*
X106321876Y-51541463D01*
X106315802Y-51533806D01*
X106313363Y-51523985D01*
X106315977Y-51509483D01*
X106325061Y-51487783D01*
X106342031Y-51456367D01*
X106368307Y-51412719D01*
X106405305Y-51354321D01*
X106454442Y-51278656D01*
X106517137Y-51183207D01*
X106561451Y-51115998D01*
X106634246Y-51006527D01*
X106695043Y-50917348D01*
X106746877Y-50844449D01*
X106792781Y-50783818D01*
X106835788Y-50731443D01*
X106878931Y-50683313D01*
X106923586Y-50637084D01*
X107068717Y-50505450D01*
X107215110Y-50402024D01*
X107364250Y-50326444D01*
X107517620Y-50278349D01*
X107676705Y-50257375D01*
X107842989Y-50263162D01*
G37*
G36*
X104563068Y-50259926D02*
G01*
X104673741Y-50279494D01*
X104783766Y-50309098D01*
X104828371Y-50324528D01*
X104945862Y-50381358D01*
X105065964Y-50465090D01*
X105189072Y-50576076D01*
X105315580Y-50714667D01*
X105431115Y-50861196D01*
X105490352Y-50940634D01*
X105557426Y-51030117D01*
X105623988Y-51118532D01*
X105680286Y-51192918D01*
X105748376Y-51282894D01*
X105800816Y-51353192D01*
X105839538Y-51406669D01*
X105866469Y-51446179D01*
X105883538Y-51474577D01*
X105892676Y-51494718D01*
X105895811Y-51509458D01*
X105895887Y-51512008D01*
X105886418Y-51538667D01*
X105875165Y-51547415D01*
X105854668Y-51544882D01*
X105809938Y-51531887D01*
X105743032Y-51509189D01*
X105656007Y-51477547D01*
X105550922Y-51437719D01*
X105429832Y-51390463D01*
X105294797Y-51336539D01*
X105210154Y-51302203D01*
X105129056Y-51270740D01*
X105069039Y-51252090D01*
X105025776Y-51245971D01*
X104994941Y-51252098D01*
X104972208Y-51270189D01*
X104961127Y-51285894D01*
X104955293Y-51302872D01*
X104960847Y-51319543D01*
X104980280Y-51337197D01*
X105016084Y-51357125D01*
X105070749Y-51380617D01*
X105146766Y-51408964D01*
X105246626Y-51443456D01*
X105299320Y-51461098D01*
X105442460Y-51509332D01*
X105559473Y-51550182D01*
X105651699Y-51584173D01*
X105720482Y-51611829D01*
X105767165Y-51633673D01*
X105793090Y-51650231D01*
X105798171Y-51655828D01*
X105807727Y-51678570D01*
X105801542Y-51697517D01*
X105776488Y-51714868D01*
X105729433Y-51732821D01*
X105660040Y-51752828D01*
X105583693Y-51773932D01*
X105493632Y-51799831D01*
X105403366Y-51826601D01*
X105352534Y-51842129D01*
X105273865Y-51865487D01*
X105191428Y-51888250D01*
X105116594Y-51907359D01*
X105073806Y-51917137D01*
X104987724Y-51930775D01*
X104883379Y-51940528D01*
X104770876Y-51946016D01*
X104660325Y-51946859D01*
X104561833Y-51942676D01*
X104516540Y-51938106D01*
X104376947Y-51910752D01*
X104239243Y-51866766D01*
X104109526Y-51808998D01*
X103993895Y-51740297D01*
X103898446Y-51663512D01*
X103872828Y-51637335D01*
X103807616Y-51558632D01*
X103747685Y-51472304D01*
X103694599Y-51382181D01*
X103649922Y-51292088D01*
X103615218Y-51205855D01*
X103592050Y-51127309D01*
X103581983Y-51060278D01*
X103586580Y-51008588D01*
X103603851Y-50978965D01*
X103629509Y-50964607D01*
X103674742Y-50947152D01*
X103731215Y-50929688D01*
X103751303Y-50924345D01*
X103813297Y-50907652D01*
X103870518Y-50890664D01*
X103912832Y-50876433D01*
X103920442Y-50873435D01*
X103952021Y-50857512D01*
X103962842Y-50839165D01*
X103959376Y-50807262D01*
X103959256Y-50806661D01*
X103949281Y-50774331D01*
X103929785Y-50724134D01*
X103903903Y-50663823D01*
X103883686Y-50619785D01*
X103852729Y-50552311D01*
X103834909Y-50504571D01*
X103830496Y-50470787D01*
X103839754Y-50445183D01*
X103862953Y-50421981D01*
X103893855Y-50399816D01*
X103955014Y-50366879D01*
X104037335Y-50334837D01*
X104133410Y-50305599D01*
X104235832Y-50281073D01*
X104337193Y-50263168D01*
X104430086Y-50253792D01*
X104464249Y-50252857D01*
X104563068Y-50259926D01*
G37*
G36*
X106395241Y-51828818D02*
G01*
X106454269Y-51840237D01*
X106536069Y-51860455D01*
X106559362Y-51866622D01*
X106634792Y-51885882D01*
X106727222Y-51908126D01*
X106825613Y-51930767D01*
X106918929Y-51951215D01*
X106930329Y-51953623D01*
X107088948Y-51990658D01*
X107224575Y-52030985D01*
X107342785Y-52076845D01*
X107449156Y-52130483D01*
X107549263Y-52194142D01*
X107575930Y-52213330D01*
X107682954Y-52306780D01*
X107781686Y-52420972D01*
X107866550Y-52548205D01*
X107931968Y-52680778D01*
X107950352Y-52730308D01*
X107964956Y-52775853D01*
X107975374Y-52815850D01*
X107982318Y-52856684D01*
X107986499Y-52904743D01*
X107988628Y-52966410D01*
X107989417Y-53048071D01*
X107989506Y-53081809D01*
X107989445Y-53169861D01*
X107988481Y-53234720D01*
X107985982Y-53281762D01*
X107981316Y-53316365D01*
X107973849Y-53343904D01*
X107962949Y-53369757D01*
X107953368Y-53388896D01*
X107924395Y-53436450D01*
X107892536Y-53465503D01*
X107851435Y-53478385D01*
X107794734Y-53477428D01*
X107735920Y-53468632D01*
X107649295Y-53453729D01*
X107586239Y-53444610D01*
X107542386Y-53440996D01*
X107513370Y-53442604D01*
X107494825Y-53449153D01*
X107489756Y-53452761D01*
X107480080Y-53466939D01*
X107473645Y-53493554D01*
X107469913Y-53537282D01*
X107468343Y-53602801D01*
X107468200Y-53639991D01*
X107467977Y-53711912D01*
X107466599Y-53760764D01*
X107463004Y-53792046D01*
X107456127Y-53811259D01*
X107444906Y-53823904D01*
X107430720Y-53833885D01*
X107381705Y-53852706D01*
X107311415Y-53861143D01*
X107225285Y-53858993D01*
X107128753Y-53846049D01*
X107125150Y-53845379D01*
X106953041Y-53800083D01*
X106796969Y-53731669D01*
X106656444Y-53639741D01*
X106530978Y-53523899D01*
X106420081Y-53383748D01*
X106323263Y-53218889D01*
X106302836Y-53177224D01*
X106271972Y-53108851D01*
X106245935Y-53042625D01*
X106224162Y-52975070D01*
X106206091Y-52902712D01*
X106191159Y-52822075D01*
X106178804Y-52729685D01*
X106168464Y-52622066D01*
X106159575Y-52495745D01*
X106151576Y-52347246D01*
X106145134Y-52202857D01*
X106142105Y-52105967D01*
X106142743Y-52034470D01*
X106147777Y-51985339D01*
X106157936Y-51955548D01*
X106173950Y-51942069D01*
X106196547Y-51941875D01*
X106207306Y-51944748D01*
X106227232Y-51959106D01*
X106262635Y-51993186D01*
X106311182Y-52044362D01*
X106370544Y-52110005D01*
X106438390Y-52187486D01*
X106512388Y-52274178D01*
X106590207Y-52367452D01*
X106669516Y-52464680D01*
X106680123Y-52477857D01*
X106728441Y-52537486D01*
X106763317Y-52578254D01*
X106789007Y-52603741D01*
X106809766Y-52617522D01*
X106829850Y-52623178D01*
X106853514Y-52624285D01*
X106854271Y-52624285D01*
X106889819Y-52621511D01*
X106909412Y-52614592D01*
X106910743Y-52611926D01*
X106905644Y-52597512D01*
X106889111Y-52572590D01*
X106859295Y-52534872D01*
X106814346Y-52482068D01*
X106752412Y-52411891D01*
X106717672Y-52373103D01*
X106657596Y-52304407D01*
X106595421Y-52230068D01*
X106533755Y-52153557D01*
X106475209Y-52078347D01*
X106422391Y-52007910D01*
X106377911Y-51945718D01*
X106344377Y-51895244D01*
X106324399Y-51859960D01*
X106320156Y-51844085D01*
X106331649Y-51831068D01*
X106355523Y-51825870D01*
X106395241Y-51828818D01*
G37*
G36*
X106423336Y-48338088D02*
G01*
X106770150Y-48378406D01*
X107107263Y-48445233D01*
X107434088Y-48538367D01*
X107750036Y-48657606D01*
X108054517Y-48802748D01*
X108346945Y-48973592D01*
X108626728Y-49169934D01*
X108700914Y-49228004D01*
X108791697Y-49304579D01*
X108894180Y-49397514D01*
X109002280Y-49500798D01*
X109109912Y-49608422D01*
X109210991Y-49714376D01*
X109299434Y-49812651D01*
X109333562Y-49852857D01*
X109477873Y-50041708D01*
X109617319Y-50252844D01*
X109748657Y-50480022D01*
X109868640Y-50717002D01*
X109974025Y-50957541D01*
X110061565Y-51195399D01*
X110104738Y-51336228D01*
X110181715Y-51653947D01*
X110232915Y-51970312D01*
X110258883Y-52290390D01*
X110260163Y-52619247D01*
X110254986Y-52735471D01*
X110244741Y-52893601D01*
X110232606Y-53030764D01*
X110217534Y-53154550D01*
X110198478Y-53272550D01*
X110174392Y-53392356D01*
X110149718Y-53499073D01*
X110057983Y-53817869D01*
X109939734Y-54126067D01*
X109794960Y-54423687D01*
X109623646Y-54710749D01*
X109425780Y-54987274D01*
X109201349Y-55253281D01*
X108950339Y-55508790D01*
X108701036Y-55730340D01*
X108583112Y-55828843D01*
X108582799Y-56415850D01*
X108582706Y-56569284D01*
X108582297Y-56696981D01*
X108581109Y-56801776D01*
X108578678Y-56886502D01*
X108574539Y-56953995D01*
X108568229Y-57007088D01*
X108559283Y-57048615D01*
X108547238Y-57081412D01*
X108531631Y-57108312D01*
X108511996Y-57132150D01*
X108487871Y-57155759D01*
X108458791Y-57181975D01*
X108457167Y-57183434D01*
X108359627Y-57257069D01*
X108234860Y-57327617D01*
X108084098Y-57394672D01*
X107908574Y-57457830D01*
X107709523Y-57516686D01*
X107488177Y-57570836D01*
X107245770Y-57619874D01*
X107003653Y-57660365D01*
X106918041Y-57672714D01*
X106840095Y-57682227D01*
X106763425Y-57689335D01*
X106681641Y-57694467D01*
X106588354Y-57698056D01*
X106477175Y-57700531D01*
X106389021Y-57701786D01*
X106280331Y-57702829D01*
X106173498Y-57703351D01*
X106074218Y-57703362D01*
X105988187Y-57702872D01*
X105921100Y-57701890D01*
X105888740Y-57700927D01*
X105734511Y-57693043D01*
X105572561Y-57682138D01*
X105407527Y-57668707D01*
X105244050Y-57653248D01*
X105086767Y-57636254D01*
X104940317Y-57618222D01*
X104809339Y-57599647D01*
X104698472Y-57581025D01*
X104625467Y-57565984D01*
X104456233Y-57522515D01*
X104295375Y-57473072D01*
X104145993Y-57419025D01*
X104011189Y-57361744D01*
X103894063Y-57302600D01*
X103797717Y-57242962D01*
X103725253Y-57184200D01*
X103700304Y-57157248D01*
X103678657Y-57130665D01*
X103660728Y-57106624D01*
X103646162Y-57082242D01*
X103634606Y-57054635D01*
X103625702Y-57020921D01*
X103620031Y-56984251D01*
X103794705Y-56984251D01*
X103837905Y-57024583D01*
X103876963Y-57053636D01*
X103936627Y-57088972D01*
X104010517Y-57127443D01*
X104092255Y-57165897D01*
X104175462Y-57201186D01*
X104253759Y-57230159D01*
X104255222Y-57230650D01*
X104332586Y-57255755D01*
X104415739Y-57281449D01*
X104499345Y-57306223D01*
X104578070Y-57328568D01*
X104646577Y-57346979D01*
X104699532Y-57359945D01*
X104731599Y-57365961D01*
X104734835Y-57366192D01*
X104767311Y-57367142D01*
X104764080Y-57144733D01*
X104952499Y-57144733D01*
X104953361Y-57244049D01*
X104956054Y-57317119D01*
X104960739Y-57366215D01*
X104967575Y-57393614D01*
X104970366Y-57398327D01*
X104989894Y-57410920D01*
X105029111Y-57423061D01*
X105089980Y-57435104D01*
X105174463Y-57447405D01*
X105284524Y-57460317D01*
X105352724Y-57467412D01*
X105675362Y-57493862D01*
X105981318Y-57506241D01*
X106278680Y-57504740D01*
X106500350Y-57494658D01*
X106645379Y-57484612D01*
X106779798Y-57473343D01*
X106900880Y-57461200D01*
X107005898Y-57448531D01*
X107092123Y-57435685D01*
X107156828Y-57423010D01*
X107197285Y-57410856D01*
X107208605Y-57404142D01*
X107217617Y-57391373D01*
X107224073Y-57371001D01*
X107228373Y-57338671D01*
X107230918Y-57290032D01*
X107232108Y-57220731D01*
X107232353Y-57145918D01*
X107231499Y-57059174D01*
X107229092Y-56987106D01*
X107228680Y-56981217D01*
X107410269Y-56981217D01*
X107410784Y-57061766D01*
X107411025Y-57118458D01*
X107411025Y-57384672D01*
X107475282Y-57375042D01*
X107513478Y-57367839D01*
X107571786Y-57355060D01*
X107642681Y-57338427D01*
X107718635Y-57319660D01*
X107728996Y-57317024D01*
X107877551Y-57276849D01*
X108001033Y-57238269D01*
X108102800Y-57199919D01*
X108186213Y-57160432D01*
X108254631Y-57118442D01*
X108295704Y-57086568D01*
X108331312Y-57053609D01*
X108357552Y-57021095D01*
X108375826Y-56983966D01*
X108387532Y-56937166D01*
X108394072Y-56875636D01*
X108396844Y-56794319D01*
X108397294Y-56719518D01*
X108397294Y-56497640D01*
X108274791Y-56560113D01*
X108195391Y-56596669D01*
X108094368Y-56637063D01*
X107978042Y-56679097D01*
X107852731Y-56720573D01*
X107724756Y-56759292D01*
X107618284Y-56788477D01*
X107547087Y-56806193D01*
X107494195Y-56820052D01*
X107456921Y-56834333D01*
X107432578Y-56853312D01*
X107418480Y-56881268D01*
X107411939Y-56922477D01*
X107410269Y-56981217D01*
X107228680Y-56981217D01*
X107225362Y-56933734D01*
X107220543Y-56903080D01*
X107218059Y-56897747D01*
X107196037Y-56892001D01*
X107149735Y-56891229D01*
X107083030Y-56895475D01*
X107075121Y-56896203D01*
X106765989Y-56922449D01*
X106479831Y-56940428D01*
X106212263Y-56950149D01*
X105958899Y-56951626D01*
X105715353Y-56944867D01*
X105477240Y-56929887D01*
X105240173Y-56906694D01*
X105192315Y-56901049D01*
X105110271Y-56891649D01*
X105051963Y-56886503D01*
X105012875Y-56885494D01*
X104988492Y-56888504D01*
X104974335Y-56895386D01*
X104965918Y-56907053D01*
X104959898Y-56928649D01*
X104955915Y-56964287D01*
X104953607Y-57018083D01*
X104952615Y-57094151D01*
X104952499Y-57144733D01*
X104764080Y-57144733D01*
X104763422Y-57099475D01*
X104759533Y-56831808D01*
X104559421Y-56778912D01*
X104326272Y-56710309D01*
X104112445Y-56632318D01*
X103934069Y-56553763D01*
X103794705Y-56487275D01*
X103794705Y-56735763D01*
X103794705Y-56984251D01*
X103620031Y-56984251D01*
X103619098Y-56978215D01*
X103614437Y-56923636D01*
X103611365Y-56854299D01*
X103609527Y-56767321D01*
X103609245Y-56735763D01*
X103608567Y-56659819D01*
X103608132Y-56528909D01*
X103607924Y-56406887D01*
X103606962Y-55817142D01*
X103543657Y-55764446D01*
X103792252Y-55764446D01*
X103797052Y-56010240D01*
X103801852Y-56256034D01*
X103850262Y-56296403D01*
X103883766Y-56318879D01*
X103931035Y-56344007D01*
X103984296Y-56368452D01*
X104035775Y-56388878D01*
X104077699Y-56401951D01*
X104102021Y-56404415D01*
X104107543Y-56389077D01*
X104112418Y-56348325D01*
X104116412Y-56285311D01*
X104118249Y-56232958D01*
X104311771Y-56232958D01*
X104312431Y-56306975D01*
X104316427Y-56488571D01*
X104480805Y-56535597D01*
X104588542Y-56564686D01*
X104708161Y-56594016D01*
X104834597Y-56622600D01*
X104962781Y-56649450D01*
X105087646Y-56673578D01*
X105204126Y-56693995D01*
X105307153Y-56709715D01*
X105391659Y-56719749D01*
X105442060Y-56723007D01*
X105495662Y-56724285D01*
X105495662Y-56709341D01*
X105681480Y-56709341D01*
X105718096Y-56733319D01*
X105755756Y-56748228D01*
X105816357Y-56760313D01*
X105878901Y-56767258D01*
X105946125Y-56772556D01*
X105998016Y-56776040D01*
X106042143Y-56777725D01*
X106086079Y-56777624D01*
X106137396Y-56775752D01*
X106203663Y-56772124D01*
X106271954Y-56768002D01*
X106353094Y-56762548D01*
X106410390Y-56757157D01*
X106448571Y-56750991D01*
X106472365Y-56743210D01*
X106486502Y-56732975D01*
X106489479Y-56729417D01*
X106497705Y-56711031D01*
X106503572Y-56678459D01*
X106507386Y-56627945D01*
X106509454Y-56555735D01*
X106510064Y-56477207D01*
X106510077Y-56392156D01*
X106509370Y-56336966D01*
X106667676Y-56336966D01*
X106667743Y-56429605D01*
X106667749Y-56441347D01*
X106668190Y-56540991D01*
X106670407Y-56615527D01*
X106675742Y-56668411D01*
X106685535Y-56703104D01*
X106701129Y-56723063D01*
X106723866Y-56731748D01*
X106755086Y-56732616D01*
X106779977Y-56730683D01*
X106820631Y-56726994D01*
X106881364Y-56721609D01*
X106953771Y-56715270D01*
X107025093Y-56709090D01*
X107155412Y-56695368D01*
X107287643Y-56676896D01*
X107416828Y-56654704D01*
X107538008Y-56629824D01*
X107646227Y-56603286D01*
X107736524Y-56576120D01*
X107803942Y-56549358D01*
X107811393Y-56545640D01*
X107839395Y-56527302D01*
X107859136Y-56502728D01*
X107871970Y-56467058D01*
X107879249Y-56415433D01*
X107882326Y-56342994D01*
X107882719Y-56289427D01*
X107882206Y-56213998D01*
X108068149Y-56213998D01*
X108069407Y-56282809D01*
X108072407Y-56342841D01*
X108077194Y-56387875D01*
X108083092Y-56410486D01*
X108094170Y-56424774D01*
X108110635Y-56429188D01*
X108137643Y-56422650D01*
X108180347Y-56404086D01*
X108228855Y-56380066D01*
X108280760Y-56350255D01*
X108332874Y-56315118D01*
X108343692Y-56306898D01*
X108397294Y-56264742D01*
X108397294Y-56057836D01*
X108397294Y-55850931D01*
X108365133Y-55860129D01*
X108292425Y-55881756D01*
X108222546Y-55904011D01*
X108161370Y-55924876D01*
X108114774Y-55942332D01*
X108088634Y-55954359D01*
X108086405Y-55955913D01*
X108079632Y-55975338D01*
X108074375Y-56017078D01*
X108070679Y-56074914D01*
X108068588Y-56142627D01*
X108068149Y-56213998D01*
X107882206Y-56213998D01*
X107882034Y-56188695D01*
X107878000Y-56113562D01*
X107867642Y-56061056D01*
X107847987Y-56028206D01*
X107816064Y-56012043D01*
X107768899Y-56009596D01*
X107703519Y-56017893D01*
X107625431Y-56032326D01*
X107428781Y-56067703D01*
X107226869Y-56099302D01*
X107031692Y-56125344D01*
X106903596Y-56139501D01*
X106822691Y-56147385D01*
X106762728Y-56155378D01*
X106720583Y-56167480D01*
X106693131Y-56187690D01*
X106677245Y-56220008D01*
X106669802Y-56268433D01*
X106667676Y-56336966D01*
X106509370Y-56336966D01*
X106509292Y-56330859D01*
X106507071Y-56288498D01*
X106502773Y-56260258D01*
X106495757Y-56241321D01*
X106485385Y-56226870D01*
X106475434Y-56216493D01*
X106440349Y-56181428D01*
X106111873Y-56181428D01*
X105991885Y-56181982D01*
X105897298Y-56183882D01*
X105824946Y-56187485D01*
X105771661Y-56193150D01*
X105734273Y-56201234D01*
X105709615Y-56212094D01*
X105694519Y-56226089D01*
X105692711Y-56228750D01*
X105689050Y-56248194D01*
X105685893Y-56290987D01*
X105683472Y-56351905D01*
X105682017Y-56425729D01*
X105681699Y-56477527D01*
X105681480Y-56709341D01*
X105495662Y-56709341D01*
X105495662Y-56459646D01*
X105495856Y-56363464D01*
X105495137Y-56291944D01*
X105491549Y-56241196D01*
X105483136Y-56207329D01*
X105467944Y-56186453D01*
X105444017Y-56174676D01*
X105409401Y-56168110D01*
X105362139Y-56162863D01*
X105345577Y-56161008D01*
X105234960Y-56146126D01*
X105106171Y-56125496D01*
X104968631Y-56100852D01*
X104831757Y-56073931D01*
X104704968Y-56046466D01*
X104639532Y-56030915D01*
X104562339Y-56012932D01*
X104490875Y-55998354D01*
X104431656Y-55988363D01*
X104391199Y-55984142D01*
X104382499Y-55984261D01*
X104351411Y-55988701D01*
X104334577Y-56000492D01*
X104325174Y-56027551D01*
X104319832Y-56056975D01*
X104315693Y-56098300D01*
X104312923Y-56159765D01*
X104311771Y-56232958D01*
X104118249Y-56232958D01*
X104119294Y-56203189D01*
X104120214Y-56157837D01*
X104124114Y-55915172D01*
X104106081Y-55908898D01*
X104938205Y-55908898D01*
X104991807Y-55922739D01*
X105063851Y-55938239D01*
X105158667Y-55953980D01*
X105270456Y-55969309D01*
X105393416Y-55983577D01*
X105521748Y-55996131D01*
X105649649Y-56006321D01*
X105771320Y-56013496D01*
X105817271Y-56015387D01*
X105928453Y-56017464D01*
X106059971Y-56016941D01*
X106203714Y-56014079D01*
X106351575Y-56009136D01*
X106495445Y-56002373D01*
X106627214Y-55994048D01*
X106716719Y-55986605D01*
X106864153Y-55971519D01*
X106984236Y-55956848D01*
X107078197Y-55942380D01*
X107147266Y-55927905D01*
X107192672Y-55913211D01*
X107212434Y-55901480D01*
X107223562Y-55888503D01*
X107231178Y-55869865D01*
X107235930Y-55840464D01*
X107238460Y-55795201D01*
X107239413Y-55728976D01*
X107239500Y-55687287D01*
X107239126Y-55624195D01*
X107411025Y-55624195D01*
X107411408Y-55714120D01*
X107414377Y-55779223D01*
X107422663Y-55823254D01*
X107438996Y-55849961D01*
X107466105Y-55863094D01*
X107506721Y-55866401D01*
X107563574Y-55863632D01*
X107584316Y-55862169D01*
X107652941Y-55855092D01*
X107736593Y-55843214D01*
X107822514Y-55828464D01*
X107870812Y-55818834D01*
X108025820Y-55780487D01*
X108154104Y-55737230D01*
X108255029Y-55689292D01*
X108288064Y-55668536D01*
X108324608Y-55642491D01*
X108351934Y-55618526D01*
X108371381Y-55592075D01*
X108384287Y-55558575D01*
X108391992Y-55513461D01*
X108395835Y-55452169D01*
X108397154Y-55370134D01*
X108397294Y-55296216D01*
X108396866Y-55213988D01*
X108395677Y-55142612D01*
X108393870Y-55086591D01*
X108391587Y-55050431D01*
X108389149Y-55038571D01*
X108373655Y-55045991D01*
X108343036Y-55064949D01*
X108321253Y-55079506D01*
X108215880Y-55140971D01*
X108086664Y-55198391D01*
X107938243Y-55250204D01*
X107775254Y-55294848D01*
X107602334Y-55330762D01*
X107549218Y-55339599D01*
X107491716Y-55349644D01*
X107456191Y-55359416D01*
X107436185Y-55371601D01*
X107425241Y-55388887D01*
X107424147Y-55391650D01*
X107419322Y-55418285D01*
X107415295Y-55467091D01*
X107412428Y-55531668D01*
X107411081Y-55605619D01*
X107411025Y-55624195D01*
X107239126Y-55624195D01*
X107238910Y-55587648D01*
X107234862Y-55512162D01*
X107223940Y-55457910D01*
X107202727Y-55421976D01*
X107167807Y-55401441D01*
X107115763Y-55393387D01*
X107043179Y-55394898D01*
X106946638Y-55403055D01*
X106910743Y-55406532D01*
X106802942Y-55414913D01*
X106672072Y-55421629D01*
X106523112Y-55426685D01*
X106361043Y-55430087D01*
X106190843Y-55431840D01*
X106017492Y-55431951D01*
X105845970Y-55430423D01*
X105681256Y-55427263D01*
X105528330Y-55422476D01*
X105392171Y-55416068D01*
X105277760Y-55408043D01*
X105242427Y-55404716D01*
X105158066Y-55396622D01*
X105082655Y-55390445D01*
X105021149Y-55386505D01*
X104978503Y-55385123D01*
X104960126Y-55386410D01*
X104952169Y-55393236D01*
X104946352Y-55409244D01*
X104942361Y-55438232D01*
X104939882Y-55484000D01*
X104938603Y-55550347D01*
X104938208Y-55641074D01*
X104938205Y-55651858D01*
X104938205Y-55908898D01*
X104106081Y-55908898D01*
X104011419Y-55875963D01*
X103950561Y-55852599D01*
X103893135Y-55826830D01*
X103850209Y-55803683D01*
X103845488Y-55800601D01*
X103792252Y-55764446D01*
X103543657Y-55764446D01*
X103435345Y-55674285D01*
X103185535Y-55448751D01*
X102955237Y-55204957D01*
X102745591Y-54944851D01*
X102557735Y-54670386D01*
X102392806Y-54383510D01*
X102251943Y-54086175D01*
X102136284Y-53780331D01*
X102046966Y-53467928D01*
X101993290Y-53202857D01*
X101956255Y-52905083D01*
X101940476Y-52596456D01*
X101942270Y-52488571D01*
X102160270Y-52488571D01*
X102164566Y-52718039D01*
X102178328Y-52927965D01*
X102202643Y-53126126D01*
X102238600Y-53320297D01*
X102287288Y-53518254D01*
X102320602Y-53633936D01*
X102421003Y-53920421D01*
X102547654Y-54203518D01*
X102698217Y-54479602D01*
X102870357Y-54745049D01*
X103061735Y-54996233D01*
X103270014Y-55229531D01*
X103476870Y-55427300D01*
X103601739Y-55537458D01*
X103605549Y-55292142D01*
X103794758Y-55292142D01*
X103795191Y-55379985D01*
X103796770Y-55444260D01*
X103799994Y-55489966D01*
X103805358Y-55522099D01*
X103813360Y-55545656D01*
X103821455Y-55560808D01*
X103851488Y-55592795D01*
X103902612Y-55629369D01*
X103968527Y-55666939D01*
X104042934Y-55701912D01*
X104119392Y-55730653D01*
X104173452Y-55746454D01*
X104243405Y-55764399D01*
X104323404Y-55783261D01*
X104407601Y-55801811D01*
X104490151Y-55818822D01*
X104565207Y-55833066D01*
X104626921Y-55843315D01*
X104669446Y-55848341D01*
X104680918Y-55848564D01*
X104730946Y-55845714D01*
X104734652Y-55651858D01*
X104735043Y-55631428D01*
X104736001Y-55553756D01*
X104735879Y-55484350D01*
X104734759Y-55429129D01*
X104732725Y-55394010D01*
X104731593Y-55386575D01*
X104725938Y-55370186D01*
X104715225Y-55357510D01*
X104694891Y-55346814D01*
X104660371Y-55336366D01*
X104607103Y-55324434D01*
X104530520Y-55309284D01*
X104525349Y-55308286D01*
X104384661Y-55277030D01*
X104239974Y-55237489D01*
X104100747Y-55192579D01*
X103976437Y-55145218D01*
X103928944Y-55124372D01*
X103875125Y-55099754D01*
X103831954Y-55080445D01*
X103805351Y-55069070D01*
X103799853Y-55067142D01*
X103798105Y-55080625D01*
X103796618Y-55117859D01*
X103795502Y-55174026D01*
X103794865Y-55244306D01*
X103794758Y-55292142D01*
X103605549Y-55292142D01*
X103608886Y-55077300D01*
X103614306Y-54728317D01*
X103808999Y-54728317D01*
X103823205Y-54777561D01*
X103865517Y-54827660D01*
X103935474Y-54878366D01*
X104032615Y-54929433D01*
X104156479Y-54980615D01*
X104306606Y-55031666D01*
X104459365Y-55076092D01*
X104502659Y-55085732D01*
X104569556Y-55097937D01*
X104655254Y-55112033D01*
X104754953Y-55127344D01*
X104863853Y-55143197D01*
X104977152Y-55158915D01*
X105090049Y-55173826D01*
X105197744Y-55187253D01*
X105295437Y-55198522D01*
X105378325Y-55206959D01*
X105409899Y-55209682D01*
X105487701Y-55215875D01*
X105561166Y-55221733D01*
X105622535Y-55226636D01*
X105664051Y-55229964D01*
X105667187Y-55230216D01*
X105719264Y-55232776D01*
X105795679Y-55234301D01*
X105892203Y-55234869D01*
X106004609Y-55234562D01*
X106128669Y-55233458D01*
X106260154Y-55231637D01*
X106394836Y-55229179D01*
X106528487Y-55226163D01*
X106656879Y-55222669D01*
X106775785Y-55218776D01*
X106880976Y-55214565D01*
X106968223Y-55210115D01*
X107033300Y-55205505D01*
X107046534Y-55204242D01*
X107299567Y-55173391D01*
X107531250Y-55135485D01*
X107740194Y-55090853D01*
X107925010Y-55039825D01*
X108084311Y-54982731D01*
X108196641Y-54930721D01*
X108277781Y-54882816D01*
X108333725Y-54836260D01*
X108367448Y-54787544D01*
X108381926Y-54733156D01*
X108383000Y-54710772D01*
X108380333Y-54664950D01*
X108368789Y-54634782D01*
X108343054Y-54607576D01*
X108337989Y-54603258D01*
X108258903Y-54549738D01*
X108153894Y-54499449D01*
X108025517Y-54453118D01*
X107876325Y-54411473D01*
X107708874Y-54375240D01*
X107525718Y-54345147D01*
X107360997Y-54325084D01*
X107266402Y-54316138D01*
X107148561Y-54306348D01*
X107012791Y-54296079D01*
X106864406Y-54285692D01*
X106708723Y-54275552D01*
X106551058Y-54266020D01*
X106396726Y-54257462D01*
X106298164Y-54252469D01*
X106088064Y-54245927D01*
X105868241Y-54245819D01*
X105642841Y-54251770D01*
X105416010Y-54263403D01*
X105191897Y-54280345D01*
X104974648Y-54302220D01*
X104768410Y-54328652D01*
X104577330Y-54359267D01*
X104405555Y-54393690D01*
X104257233Y-54431544D01*
X104230665Y-54439520D01*
X104128206Y-54476181D01*
X104034094Y-54519368D01*
X103951877Y-54566649D01*
X103885102Y-54615595D01*
X103837317Y-54663776D01*
X103812070Y-54708763D01*
X103808999Y-54728317D01*
X103614306Y-54728317D01*
X103616033Y-54617142D01*
X103654638Y-54544003D01*
X103684273Y-54493536D01*
X103716875Y-54452586D01*
X103757003Y-54418183D01*
X103809220Y-54387358D01*
X103878086Y-54357139D01*
X103968163Y-54324557D01*
X104016258Y-54308522D01*
X104188724Y-54257563D01*
X104375859Y-54213254D01*
X104579861Y-54175287D01*
X104802929Y-54143353D01*
X105047260Y-54117146D01*
X105315052Y-54096355D01*
X105608502Y-54080674D01*
X105655252Y-54078729D01*
X105911331Y-54071651D01*
X106169681Y-54070645D01*
X106427132Y-54075447D01*
X106680518Y-54085792D01*
X106926671Y-54101415D01*
X107162423Y-54122053D01*
X107384606Y-54147441D01*
X107590053Y-54177314D01*
X107775596Y-54211409D01*
X107938067Y-54249460D01*
X108032803Y-54277154D01*
X108190607Y-54334153D01*
X108322087Y-54394889D01*
X108426716Y-54459034D01*
X108503963Y-54526260D01*
X108553301Y-54596237D01*
X108556445Y-54602857D01*
X108563891Y-54621581D01*
X108569788Y-54643666D01*
X108574315Y-54672488D01*
X108577654Y-54711429D01*
X108579985Y-54763869D01*
X108581487Y-54833185D01*
X108582341Y-54922759D01*
X108582728Y-55035970D01*
X108582799Y-55096904D01*
X108583193Y-55205927D01*
X108584159Y-55305662D01*
X108585615Y-55392544D01*
X108587478Y-55463008D01*
X108589665Y-55513489D01*
X108592094Y-55540423D01*
X108593139Y-55543830D01*
X108605427Y-55536787D01*
X108634943Y-55511819D01*
X108678969Y-55471470D01*
X108734788Y-55418285D01*
X108799682Y-55354808D01*
X108869039Y-55285496D01*
X109001964Y-55148172D01*
X109114830Y-55024549D01*
X109210556Y-54911331D01*
X109278061Y-54824285D01*
X109368958Y-54699601D01*
X109444788Y-54590089D01*
X109509418Y-54489515D01*
X109566715Y-54391646D01*
X109620546Y-54290249D01*
X109663143Y-54203599D01*
X109778801Y-53941638D01*
X109871699Y-53685417D01*
X109943051Y-53429462D01*
X109994077Y-53168301D01*
X110025993Y-52896462D01*
X110040015Y-52608474D01*
X110040922Y-52504914D01*
X110030737Y-52187451D01*
X109999910Y-51886605D01*
X109947486Y-51598279D01*
X109872508Y-51318373D01*
X109774022Y-51042788D01*
X109651071Y-50767423D01*
X109622439Y-50710000D01*
X109483189Y-50455683D01*
X109332829Y-50221555D01*
X109167672Y-50003017D01*
X108984034Y-49795471D01*
X108778230Y-49594317D01*
X108611700Y-49448720D01*
X108477629Y-49339321D01*
X108354648Y-49245995D01*
X108234841Y-49163472D01*
X108110292Y-49086483D01*
X107973086Y-49009758D01*
X107875572Y-48958664D01*
X107603650Y-48832648D01*
X107324494Y-48730589D01*
X107035753Y-48651954D01*
X106735077Y-48596213D01*
X106420114Y-48562833D01*
X106088516Y-48551283D01*
X106074970Y-48551267D01*
X105738071Y-48563666D01*
X105414711Y-48600754D01*
X105105192Y-48662463D01*
X104809816Y-48748727D01*
X104528885Y-48859479D01*
X104402982Y-48919440D01*
X104106479Y-49083244D01*
X103826571Y-49267116D01*
X103564718Y-49469630D01*
X103322382Y-49689362D01*
X103101023Y-49924888D01*
X102902103Y-50174782D01*
X102727082Y-50437620D01*
X102588957Y-50688571D01*
X102468609Y-50945988D01*
X102370198Y-51192434D01*
X102292385Y-51433526D01*
X102233834Y-51674885D01*
X102193205Y-51922127D01*
X102169162Y-52180871D01*
X102160365Y-52456735D01*
X102160270Y-52488571D01*
X101942270Y-52488571D01*
X101945678Y-52283560D01*
X101971586Y-51972978D01*
X102017924Y-51671296D01*
X102066422Y-51452857D01*
X102164595Y-51124566D01*
X102288866Y-50807175D01*
X102438401Y-50502005D01*
X102612367Y-50210379D01*
X102809926Y-49933619D01*
X103030246Y-49673048D01*
X103272491Y-49429988D01*
X103431778Y-49289958D01*
X103709073Y-49075918D01*
X103996879Y-48888298D01*
X104294732Y-48727268D01*
X104602162Y-48593000D01*
X104918703Y-48485664D01*
X105243886Y-48405433D01*
X105577246Y-48352478D01*
X105918315Y-48326969D01*
X106067412Y-48324481D01*
X106423336Y-48338088D01*
G37*
D13*
%TO.C,U2*%
X148260000Y-88727500D02*
X148260000Y-91267500D01*
X150800000Y-88727500D02*
X150800000Y-91267500D01*
X153340000Y-88727500D02*
X153340000Y-91267500D01*
X147625000Y-80472500D02*
X153975000Y-80472500D01*
X153975000Y-88727500D01*
X147625000Y-88727500D01*
X147625000Y-80472500D01*
X153089525Y-84282500D02*
G75*
G02*
X148510475Y-84282500I-2289525J0D01*
G01*
X148510475Y-84282500D02*
G75*
G02*
X153089525Y-84282500I2289525J0D01*
G01*
%TO.C,J5*%
X103750000Y-78410000D02*
X103750000Y-60570000D01*
X103750000Y-81010000D02*
X103750000Y-79680000D01*
X105080000Y-81010000D02*
X103750000Y-81010000D01*
X106410000Y-60570000D02*
X103750000Y-60570000D01*
X106410000Y-78410000D02*
X103750000Y-78410000D01*
X106410000Y-78410000D02*
X106410000Y-60570000D01*
%TO.C,R2*%
X112446724Y-89317500D02*
X111937276Y-89317500D01*
X112446724Y-90362500D02*
X111937276Y-90362500D01*
%TO.C,C3*%
X115854000Y-90589752D02*
X115854000Y-89167248D01*
X117674000Y-90589752D02*
X117674000Y-89167248D01*
%TO.C,R3*%
X111937276Y-91349500D02*
X112446724Y-91349500D01*
X111937276Y-92394500D02*
X112446724Y-92394500D01*
%TO.C,U1*%
X155880000Y-88727500D02*
X155880000Y-91267500D01*
X158420000Y-88727500D02*
X158420000Y-91267500D01*
X160960000Y-88727500D02*
X160960000Y-91267500D01*
X155245000Y-80472500D02*
X161595000Y-80472500D01*
X161595000Y-88727500D01*
X155245000Y-88727500D01*
X155245000Y-80472500D01*
X160709525Y-84282500D02*
G75*
G02*
X156130475Y-84282500I-2289525J0D01*
G01*
X156130475Y-84282500D02*
G75*
G02*
X160709525Y-84282500I2289525J0D01*
G01*
%TO.C,R1*%
X160437500Y-59257224D02*
X160437500Y-58747776D01*
X161482500Y-59257224D02*
X161482500Y-58747776D01*
%TO.C,C2*%
X104330248Y-83342000D02*
X105752752Y-83342000D01*
X104330248Y-85162000D02*
X105752752Y-85162000D01*
%TD*%
M02*
